<svg xmlns="http://www.w3.org/2000/svg" viewBox="0 0 48.08 41.72"><defs><style>.cls-1{fill:#64a8cb;}.cls-2{fill:#232020;}</style></defs><title>Asset 3</title><g id="Layer_2" data-name="Layer 2"><g id="Layer_1-2" data-name="Layer 1"><polygon class="cls-1" points="4.64 12.43 20.8 18.63 20.8 41.72 4.56 36.24 4.64 12.43"/><path class="cls-2" d="M41.71,7.49l-.15,0L24.2,2.55,6.85,7.47a.55.55,0,1,1-.3-1.06l17.5-5a.51.51,0,0,1,.3,0l17.51,5a.55.55,0,0,1-.15,1.08Z"/><path class="cls-2" d="M24.2,13A.45.45,0,0,1,24,13L6.54,7.65A.56.56,0,0,1,6.17,7a.56.56,0,0,1,.69-.37L24.2,11.88,41.55,6.59a.55.55,0,0,1,.32,1.06L24.36,13A.41.41,0,0,1,24.2,13Z"/><path class="cls-2" d="M24.2,40.14a.47.47,0,0,1-.17,0L6.52,34.23a.56.56,0,0,1-.37-.52V12.32a.55.55,0,0,1,.55-.55.55.55,0,0,1,.55.55v21l17,5.7,16.93-4.8V12.59a.56.56,0,0,1,1.11,0v22a.57.57,0,0,1-.4.53l-17.51,5A.39.39,0,0,1,24.2,40.14Z"/><path class="cls-2" d="M24.2,40.14a.55.55,0,0,1-.55-.55V12.46a.56.56,0,0,1,.55-.56.55.55,0,0,1,.55.56V39.59A.54.54,0,0,1,24.2,40.14Z"/><path class="cls-2" d="M7.29,7.85a.47.47,0,0,1-.16,0L1,6.05a.55.55,0,0,1-.39-.54A.53.53,0,0,1,1,5L18.8,0a.48.48,0,0,1,.29,0l5.26,1.42a.56.56,0,0,1,.39.68.57.57,0,0,1-.68.39L19,1.12,3.18,5.53,7.44,6.77a.56.56,0,0,1,.38.69A.55.55,0,0,1,7.29,7.85Z"/><path class="cls-2" d="M41.12,7.85a.55.55,0,0,1-.53-.39A.55.55,0,0,1,41,6.77l4.27-1.24L29.46,1.12,24.35,2.51a.57.57,0,0,1-.68-.39.55.55,0,0,1,.39-.68L29.32,0a.48.48,0,0,1,.29,0L47.39,5a.55.55,0,0,1,.4.52.56.56,0,0,1-.4.54L41.27,7.83A.39.39,0,0,1,41.12,7.85Z"/><path class="cls-2" d="M18,17a.46.46,0,0,1-.19,0L.36,10.53a.55.55,0,0,1,0-1L7.07,6.44a.55.55,0,0,1,.73.27.56.56,0,0,1-.28.73L2,10l15.93,5.85,6-3.09a.55.55,0,0,1,.5,1l-6.19,3.2A.58.58,0,0,1,18,17Z"/><path class="cls-2" d="M30.11,17a.54.54,0,0,1-.25-.06l-6.2-3.2a.55.55,0,0,1,.51-1l6,3.09L46.07,10,40.55,7.44a.55.55,0,0,1,.46-1l6.74,3.07a.55.55,0,0,1,0,1L30.3,16.92A.41.41,0,0,1,30.11,17Z"/></g></g></svg>