<svg xmlns="http://www.w3.org/2000/svg" viewBox="0 0 66.26 54.28"><defs><style>.cls-1{fill:none;stroke:#000;stroke-miterlimit:10;}.cls-2{fill:#64a6c9;}</style></defs><title>Asset 34</title><g id="Layer_2" data-name="Layer 2"><g id="Layer_1-2" data-name="Layer 1"><path class="cls-1" d="M3.74,48.33a.86.86,0,0,0,1.2.18h0l3.67-2.73-4.1-5.5L.84,43a.87.87,0,0,0-.17,1.2Z"/><rect class="cls-2" x="3.79" y="30.03" width="24.9" height="7.24" transform="translate(-16.95 16.49) rotate(-36.9)"/><rect class="cls-1" x="5.43" y="31.01" width="25.3" height="6.86" transform="translate(-17 17.63) rotate(-36.69)"/><rect class="cls-1" x="28.09" y="10.65" width="15.44" height="21.16" transform="translate(-5.59 25.61) rotate(-36.71)"/><rect class="cls-1" x="16.25" y="6.48" width="21.16" height="5.43" transform="translate(-0.18 17.86) rotate(-36.71)"/><rect class="cls-1" x="34.18" y="30.56" width="21.15" height="5.43" transform="translate(-11.02 33.34) rotate(-36.69)"/><path class="cls-1" d="M64.9,52.06H61.47v-2a2.29,2.29,0,0,0-2.28-2.29H36.32A2.31,2.31,0,0,0,34,50.06v2H30.6a.86.86,0,0,0,0,1.72H64.9a.86.86,0,1,0,0-1.72Z"/></g></g></svg>