<svg xmlns="http://www.w3.org/2000/svg" viewBox="0 0 34 41.05"><defs><style>.cls-1{fill:#64a8cb;}.cls-2{fill:#232020;}</style></defs><title>Asset 2</title><g id="Layer_2" data-name="Layer 2"><g id="Layer_1-2" data-name="Layer 1"><circle class="cls-1" cx="19.18" cy="22.04" r="8.49"/><path class="cls-2" d="M4.37,5.24V40.42a.63.63,0,0,0,.63.63H25.47a.59.59,0,0,0,.23,0l.11-.07a.47.47,0,0,0,.09-.06h0l7.9-7.61a.64.64,0,0,0,.19-.46V5.24a.63.63,0,0,0-.63-.63H5A.63.63,0,0,0,4.37,5.24ZM26.09,39V33.42h5.73ZM5.62,5.86H32.75V32.17H25.47a.63.63,0,0,0-.63.62v7H5.62Z"/><path class="cls-2" d="M23.73,18.28,16.06,26l-1.34-2a.63.63,0,1,0-1,.7l1.77,2.59a.61.61,0,0,0,.46.28H16a.63.63,0,0,0,.44-.19l8.21-8.2a.63.63,0,0,0-.89-.89Z"/><path class="cls-2" d="M.59,36.77A.58.58,0,0,1,0,36.18V.59A.58.58,0,0,1,.59,0H27.68a.59.59,0,0,1,0,1.18H1.18v35A.58.58,0,0,1,.59,36.77Z"/></g></g></svg>