<svg xmlns="http://www.w3.org/2000/svg" viewBox="0 0 31.38 43.11"><defs><style>.cls-1{fill:#64a8cb;}.cls-2{fill:#232020;}</style></defs><title>Asset 1</title><g id="Layer_2" data-name="Layer 2"><g id="Layer_1-2" data-name="Layer 1"><rect class="cls-1" x="5.9" y="37.27" width="17.51" height="5.84"/><path class="cls-2" d="M23.05,28.92a.88.88,0,0,0,1.2,0c1.89-1.89,7.13-7.67,7.13-13.76C31.38,11.58,30.26,0,15.79,0,5,0,0,4.63,0,14.56,0,21.5,5.88,27,7.81,28.66a.8.8,0,0,1,.29.62V35a.85.85,0,0,0,.88.81H22.65v5.75H9.56a.8.8,0,0,0-.83.76h0a.8.8,0,0,0,.83.77H23.44a.84.84,0,0,0,.87-.81V35.1a.84.84,0,0,0-.87-.81H17V22.06c.2,0,6.74-6,6.74-6a.72.72,0,0,0,0-1.09.87.87,0,0,0-1.17,0l-6.31,5.82h0L8.05,13.56a.9.9,0,0,0-1.17,0h0a.72.72,0,0,0,0,1.09l8,7.08a.74.74,0,0,1,.26.56v12H9.77V28.18L9.46,28c-.07-.05-7.8-6-7.8-13.39,0-9,4.36-13,14.13-13,12.57,0,13.93,9.52,13.93,13.61,0,5.56-4.93,11-6.69,12.72A.73.73,0,0,0,23.05,28.92Z"/></g></g></svg>