<svg xmlns="http://www.w3.org/2000/svg" viewBox="0 0 81.86 81.63"><defs><style>.cls-1{fill:none;stroke:#d7e9f1;stroke-miterlimit:10;stroke-width:5px;}.cls-2{fill:#d7e9f1;}</style></defs><title>Asset 11</title><g id="Layer_2" data-name="Layer 2"><g id="Layer_1-2" data-name="Layer 1"><path class="cls-1" d="M70.06,15.81a5.28,5.28,0,0,1,3.63,1.73l2.69,3a3.07,3.07,0,0,0,.3.57,17.11,17.11,0,0,1,1.79,3.68,17.65,17.65,0,0,1,.87,4.2,11.84,11.84,0,0,1,0,1.26c-.21,4.83-2.47,17.64-18.77,32.66C46.42,75.93,36.17,80.54,25.27,78.77a19.18,19.18,0,0,1-4.12-1.2,17.7,17.7,0,0,1-3.47-2.07,2.9,2.9,0,0,0-.71-.44l-2.63-2.87a5.27,5.27,0,0,1-1.4-3.77A5,5,0,0,1,14.5,64.9L25,55.28a5.16,5.16,0,0,1,7.28.44l3.15,3.39a3.48,3.48,0,0,0,4.11.72,48.38,48.38,0,0,0,11.25-7.66,48.71,48.71,0,0,0,8.56-10.59,3.42,3.42,0,0,0,.52-1.71,3.5,3.5,0,0,0-.91-2.46L55.81,34a5.3,5.3,0,0,1-1.44-3.78A5,5,0,0,1,56,26.72l10.43-9.61a5,5,0,0,1,3.65-1.3"/><path class="cls-2" d="M27.46,31a20.33,20.33,0,0,1,10.79-6.53,3,3,0,0,1,3.63,2.69v0a3,3,0,0,1-2.33,3.06,14.46,14.46,0,0,0-10,8.55,2.93,2.93,0,0,1-3.36,1.72h0a2.93,2.93,0,0,1-2.08-4A20.26,20.26,0,0,1,27.46,31Z"/><path class="cls-2" d="M18.84,23.55a31.66,31.66,0,0,1,19-10.6,2.89,2.89,0,0,1,3.33,2.68v.16a2.86,2.86,0,0,1-2.38,3A25.85,25.85,0,0,0,18.4,36,2.91,2.91,0,0,1,15,38l-.16,0a2.87,2.87,0,0,1-2.08-3.73A31.52,31.52,0,0,1,18.84,23.55Z"/><path class="cls-2" d="M40.4,2.79h0A3,3,0,0,1,37.83,5.9,38.75,38.75,0,0,0,5.81,33a3,3,0,0,1-3.5,2h0A3,3,0,0,1,.12,31.35,44.72,44.72,0,0,1,37.09,0,3,3,0,0,1,40.4,2.79Z"/></g></g></svg>