<svg xmlns="http://www.w3.org/2000/svg" viewBox="0 0 102.35 64.48"><defs><style>.cls-1{fill:#d7e9f1;}</style></defs><title>Asset 13</title><g id="Layer_2" data-name="Layer 2"><g id="Layer_1-2" data-name="Layer 1"><path class="cls-1" d="M99.57,4.21c-16.21,0-25.36,4-26.36,4.47a2.77,2.77,0,0,0-1.48,1.73,2.39,2.39,0,0,0-.11.64c-3.05-1.17-7-2.75-10.89-4.5C53,3.09,47.82,4.17,42.32,8.41H26.47c.05-.4.09-.8.13-1.18A2.76,2.76,0,0,0,25.74,5C22.06,1.49,8.58.34,2.94,0A2.84,2.84,0,0,0,.87.75a2.84,2.84,0,0,0-.87,2V40.65a2.79,2.79,0,0,0,2.78,2.79H15.41a2.77,2.77,0,0,0,2.64-1.93l.15-.45.28.29.49.52c1.89,2,3.84,4,5.17,5.12C32,53.57,41.45,60.68,43.33,61.92a16.76,16.76,0,0,0,7.85,2.56,8.29,8.29,0,0,0,4.9-1.32A7.26,7.26,0,0,0,61,63a9,9,0,0,0,4.51-3.93,8.83,8.83,0,0,0,5.21-.91,7.92,7.92,0,0,0,3.65-3.58,7.63,7.63,0,0,0,4.83-1.91,7.28,7.28,0,0,0,2.58-6.58L84,44.59c.11.38.21.72.29,1a2.8,2.8,0,0,0,2.69,2H99.57a2.78,2.78,0,0,0,2.78-2.79V7a2.77,2.77,0,0,0-2.78-2.78M73.86,48.91c-1.6-1.3-8.16-8-12.25-12.29a2.78,2.78,0,0,0-2-.85,2.67,2.67,0,0,0-2,.77,2.78,2.78,0,0,0-.08,3.94c2.15,2.24,8.57,8.9,11.67,11.79a2.7,2.7,0,0,1-1.05.9,2.74,2.74,0,0,1-2.51.18.27.27,0,0,1-.08-.07l-.08-.07C63.22,51.36,57.25,45.06,55.33,43a2.78,2.78,0,1,0-4.1,3.77l.05.06c1.11,1.19,6.13,6.55,9.36,9.51A3.42,3.42,0,0,1,59,57.78a1.49,1.49,0,0,1-1.72-.25l0,0s0,0,0,0c-3-2.49-9.08-9-10.28-10.29A2.73,2.73,0,0,0,45,46.29,2.66,2.66,0,0,0,43,47,2.79,2.79,0,0,0,42.83,51c1.25,1.33,4.66,5,7.65,7.87a12.51,12.51,0,0,1-4.09-1.58c-1.48-1-10.74-7.89-18.67-14.53-1.11-.94-3.12-3-4.73-4.72-1.13-1.18-2.15-2.24-2.91-3,1.72-5.7,4.09-14.06,5.48-21h10.8c-2.56,3-5.86,8.17-4.85,12.41a5.85,5.85,0,0,0,4.06,4.28c5,1.64,9.54.13,13-4.25a11.12,11.12,0,0,0,3.06-1L52.63,25c2.43,2.24,5.66,4.85,8.8,7.39,6.13,5,13.08,10.58,14.59,13.72a2,2,0,0,1-2.16,2.84M64.93,28c-3.81-3.08-7.4-6-9.68-8.26a2.79,2.79,0,0,0-2.92-.65C51,19.6,50.1,20,49.41,20.3l-.12.05a6.39,6.39,0,0,1-2.6.71,2.79,2.79,0,0,0-2,1.22c-2.69,4-5.33,3.78-7.33,3.11-.35-.12-.37-.19-.39-.28-.35-1.43,1.57-5.49,4.47-8.39,6.69-6.7,9.92-8.27,17.05-5.08,6.81,3,13.61,5.55,16.08,6.44,2.38,5.82,5.54,14.65,7.67,21L79.3,41c-3.08-3.86-8.8-8.49-14.37-13m13.35-15.3a69.14,69.14,0,0,1,18.51-2.9V42.08H89c-2.13-6.83-7.48-22.16-10.74-29.36M20.86,8.44c-1.19,9-5.84,24.19-7.49,29.43H5.57V5.77c6.65.57,12.71,1.63,15.29,2.67"/></g></g></svg>