<svg xmlns="http://www.w3.org/2000/svg" viewBox="0 0 67.49 75.34"><defs><style>.cls-1{fill:#d7e9f1;}</style></defs><title>Asset 12</title><g id="Layer_2" data-name="Layer 2"><g id="Layer_1-2" data-name="Layer 1"><path class="cls-1" d="M48,32.5a2.93,2.93,0,0,0-2.92-2.95L14.84,29.4a2.94,2.94,0,0,0,0,5.88l30.27.14a2.93,2.93,0,0,0,3-2.92"/><path class="cls-1" d="M14.78,41.16a2.94,2.94,0,1,0,0,5.87l18.38.09a2.94,2.94,0,0,0,0-5.88Z"/><path class="cls-1" d="M21.56,69.4l-9.83-.05a5.87,5.87,0,0,1-5.85-5.9l.25-51.72A5.87,5.87,0,0,1,12,5.88l36.13.17A5.89,5.89,0,0,1,54,12L53.92,30a2.94,2.94,0,0,0,5.88,0L59.89,12A11.77,11.77,0,0,0,48.19.17L12.06,0A11.77,11.77,0,0,0,.25,11.7L0,63.42A11.77,11.77,0,0,0,11.7,75.23l9.83,0a2.94,2.94,0,0,0,0-5.88"/><path class="cls-1" d="M64.94,42.8a8.82,8.82,0,0,0-12.46-.06l-16.21,16A2.85,2.85,0,0,0,35.53,60L32,71.53a2.94,2.94,0,0,0,2.79,3.81,3.06,3.06,0,0,0,.79-.1L47.41,72a2.89,2.89,0,0,0,1.3-.75l16.17-16a8.81,8.81,0,0,0,.06-12.47M45.12,66.54l-6,1.62,1.77-5.74L51.86,51.61,56,55.79ZM60.75,51.09l-.57.57L56,47.48l.57-.56a2.94,2.94,0,1,1,4.14,4.17"/><path class="cls-1" d="M45.17,17.79,14.9,17.65a2.94,2.94,0,1,0,0,5.87l30.27.15a2.94,2.94,0,0,0,0-5.88"/></g></g></svg>