<svg xmlns="http://www.w3.org/2000/svg" viewBox="0 0 18.85 18.56"><defs><style>.cls-1{fill:#4ca8d7;}</style></defs><title>Hợp đồng bồi thường 2</title><g id="Layer_2" data-name="Layer 2"><g id="Layer_1-2" data-name="Layer 1"><path class="cls-1" d="M18.56,0,3.26.05A.29.29,0,0,0,3,.34a.29.29,0,0,0,.29.28l15,0L18.23,18H.58V3.21H15.73V15.69a.29.29,0,0,0,.58,0V3.2a.56.56,0,0,0-.57-.56H.52A.51.51,0,0,0,0,3.15V18a.57.57,0,0,0,.57.57H18.23a.58.58,0,0,0,.58-.57l0-17.7A.29.29,0,0,0,18.56,0Z"/><path class="cls-1" d="M8.63,10.25V5.58a.43.43,0,0,0-.42-.43H2.67a.42.42,0,0,0-.41.43l0,4.66a.43.43,0,0,0,.43.43H8.21A.43.43,0,0,0,8.63,10.25Zm-.57-.15H2.88V5.73H8.06Z"/><path class="cls-1" d="M14.22,5.19H9.87a.29.29,0,0,0,0,.58h4.35a.29.29,0,1,0,0-.58Z"/><path class="cls-1" d="M3.32,13.54H14.4a.29.29,0,0,0,0-.58H3.32a.29.29,0,1,0,0,.58Z"/><path class="cls-1" d="M3.36,16.13H14.58a.29.29,0,1,0,0-.58H3.36a.29.29,0,1,0,0,.58Z"/><path class="cls-1" d="M9.91,7.86a.28.28,0,0,0-.29.28.29.29,0,0,0,.29.29h4.35a.29.29,0,0,0,.29-.29.28.28,0,0,0-.29-.28Z"/><path class="cls-1" d="M9.8,11h4.35a.29.29,0,1,0,0-.58H9.8a.29.29,0,0,0,0,.58Z"/></g></g></svg>