<svg xmlns="http://www.w3.org/2000/svg" viewBox="0 0 23 23"><defs><style>.cls-1{fill:gray;}</style></defs><title>Tổ chức - quản lý công ty 1</title><g id="Layer_2" data-name="Layer 2"><g id="Layer_1-2" data-name="Layer 1"><path class="cls-1" d="M12.81,23H10.19a.9.9,0,0,1-.9-.9V21A1,1,0,0,0,8.63,20a11.61,11.61,0,0,1-1.15-.48,1,1,0,0,0-1.09.18l-.82.83a.93.93,0,0,1-1.28,0L2.44,18.71a.91.91,0,0,1,0-1.28l.84-.83a1,1,0,0,0,.18-1.09A9.42,9.42,0,0,1,3,14.37a1,1,0,0,0-.93-.66H.9a.9.9,0,0,1-.9-.9V10.19a.9.9,0,0,1,.9-.9H2.08A1,1,0,0,0,3,8.58a7.6,7.6,0,0,1,.43-1A1,1,0,0,0,3.3,6.43l-.86-.86a.91.91,0,0,1,0-1.28L4.29,2.44a.93.93,0,0,1,1.28,0l.87.87a1,1,0,0,0,1.12.16,10.19,10.19,0,0,1,1-.43,1,1,0,0,0,.7-.93V.9a.9.9,0,0,1,.9-.9h2.62a.9.9,0,0,1,.9.9V2.11a1,1,0,0,0,.7.93,9.32,9.32,0,0,1,1,.43,1,1,0,0,0,1.12-.16l.87-.87a.93.93,0,0,1,1.28,0l1.85,1.85a.92.92,0,0,1,0,1.28l-.86.86a1,1,0,0,0-.16,1.13,9.16,9.16,0,0,1,.43,1,1,1,0,0,0,1,.71H22.1a.9.9,0,0,1,.9.9v2.62a.9.9,0,0,1-.9.9H20.94a1,1,0,0,0-.93.66,9.42,9.42,0,0,1-.47,1.14,1,1,0,0,0,.18,1.09l.84.83a.92.92,0,0,1,0,1.28l-1.85,1.85a.93.93,0,0,1-1.28,0l-.82-.83a1,1,0,0,0-1.09-.18,11.61,11.61,0,0,1-1.15.48,1,1,0,0,0-.66.94V22.1A.9.9,0,0,1,12.81,23ZM7.07,18.51a1.88,1.88,0,0,1,.83.2,7.72,7.72,0,0,0,1,.43A1.92,1.92,0,0,1,10.22,21V22.1l2.59,0,0-1.09a1.92,1.92,0,0,1,1.29-1.83,7.72,7.72,0,0,0,1-.43,1.88,1.88,0,0,1,2.17.36l.82.82L19.89,18l-.83-.78a1.88,1.88,0,0,1-.36-2.16,8.25,8.25,0,0,0,.42-1,1.91,1.91,0,0,1,1.82-1.29h1.12V10.19l-1.14,0a2,2,0,0,1-1.83-1.33A8.18,8.18,0,0,0,18.7,8,1.92,1.92,0,0,1,19,5.76l.85-.85L18,3.11,17.23,4A1.92,1.92,0,0,1,15,4.31a9.17,9.17,0,0,0-.91-.38,1.94,1.94,0,0,1-1.33-1.82V.9l-2.59,0,0,1.17A1.94,1.94,0,0,1,8.89,3.93,7.27,7.27,0,0,0,8,4.31,1.92,1.92,0,0,1,5.77,4l-.86-.86L3.1,5l.86.8A1.92,1.92,0,0,1,4.3,8a8.18,8.18,0,0,0-.39.92,2,2,0,0,1-1.83,1.33H.9l0,2.59,1.12,0a1.91,1.91,0,0,1,1.82,1.29,9.26,9.26,0,0,0,.42,1,1.88,1.88,0,0,1-.36,2.16l-.84.83L5,19.89l.77-.82A1.93,1.93,0,0,1,7.07,18.51Z"/><path class="cls-1" d="M11.5,18A6.49,6.49,0,1,1,18,11.5,6.5,6.5,0,0,1,11.5,18Zm0-12a5.55,5.55,0,1,0,5.55,5.55A5.56,5.56,0,0,0,11.5,6Z"/></g></g></svg>