<svg xmlns="http://www.w3.org/2000/svg" viewBox="0 0 17.75 21.66"><defs><style>.cls-1{fill:#4ca8d7;}</style></defs><title>Sử dụng lao động 2</title><g id="Layer_2" data-name="Layer 2"><g id="Layer_1-2" data-name="Layer 1"><path class="cls-1" d="M6.7,10.63A5.32,5.32,0,1,1,12,5.31,5.32,5.32,0,0,1,6.7,10.63Zm0-10a4.72,4.72,0,1,0,4.71,4.71A4.73,4.73,0,0,0,6.7.6Z"/><path class="cls-1" d="M13.35,21.66H.3a.29.29,0,0,1-.3-.3V16.85a6.83,6.83,0,0,1,13.65,0v4.51A.3.3,0,0,1,13.35,21.66ZM.6,21.06H13.05V16.85a6.23,6.23,0,0,0-12.45,0Z"/><path class="cls-1" d="M11.48,11.76a4.78,4.78,0,0,1-3.4-1.41.31.31,0,0,1,0-.42.3.3,0,0,1,.43,0A4.22,4.22,0,1,0,10.86,2.8a.31.31,0,0,1-.34-.25.31.31,0,0,1,.26-.35,5.36,5.36,0,0,1,.7-.05,4.81,4.81,0,0,1,0,9.61Z"/><path class="cls-1" d="M17.45,21.66h-4.1a.3.3,0,0,1,0-.6h3.8V17.31a5.5,5.5,0,0,0-5.45-5.55,4.7,4.7,0,0,0-.92.08.3.3,0,0,1-.1-.6,6.9,6.9,0,0,1,1-.08,6.11,6.11,0,0,1,6.05,6.15v4.05A.29.29,0,0,1,17.45,21.66Z"/></g></g></svg>