<svg xmlns="http://www.w3.org/2000/svg" viewBox="0 0 15.43 21"><defs><style>.cls-1{fill:gray;}</style></defs><title>Sở hữu trí tuệ 1</title><g id="Layer_2" data-name="Layer 2"><g id="Layer_1-2" data-name="Layer 1"><path class="cls-1" d="M11.34,14.09a.44.44,0,0,0,.59,0c.93-.92,3.5-3.74,3.5-6.71C15.43,5.64,14.88,0,7.77,0,2.47,0,0,2.25,0,7.09,0,10.47,2.89,13.17,3.84,14a.38.38,0,0,1,.15.3v2.8a.41.41,0,0,0,.43.39h6.72v2.8H4.7a.4.4,0,0,0-.41.38h0A.4.4,0,0,0,4.7,21h6.83a.41.41,0,0,0,.43-.39V17.1a.41.41,0,0,0-.43-.39H8.34v-6c.1,0,3.31-2.94,3.31-2.94a.35.35,0,0,0,0-.53.43.43,0,0,0-.58,0L8,10.11H8L4,6.61a.44.44,0,0,0-.57,0h0a.36.36,0,0,0,0,.54L7.33,10.6a.34.34,0,0,1,.13.27v5.84H4.8v-3l-.15-.11S.82,10.7.82,7.09C.82,2.7,3,.75,7.77.75c6.18,0,6.85,4.63,6.85,6.62,0,2.72-2.43,5.35-3.29,6.2A.35.35,0,0,0,11.34,14.09Z"/></g></g></svg>