<svg xmlns="http://www.w3.org/2000/svg" viewBox="0 0 21.36 13.36"><defs><style>.cls-1{fill:gray;}</style></defs><title>Đòi nợ - thanh toán 1</title><g id="Layer_2" data-name="Layer 2"><g id="Layer_1-2" data-name="Layer 1"><path class="cls-1" d="M19.91,11V1.7a.55.55,0,0,0-.41-.53A38.71,38.71,0,0,0,9.92,0,37.88,37.88,0,0,0,.41,1.17.55.55,0,0,0,0,1.7v9.07a.55.55,0,0,0,.64.54,60.57,60.57,0,0,1,9.28-.88,50.87,50.87,0,0,1,9.33,1.07A.55.55,0,0,0,19.91,11ZM.61,1.74A35.94,35.94,0,0,1,9.92.61,37.28,37.28,0,0,1,19.3,1.74v9.14A48.88,48.88,0,0,0,9.92,9.82a57.88,57.88,0,0,0-9.31.87Z"/><path class="cls-1" d="M20.75,3.65v9.06a49.59,49.59,0,0,0-9.37-1.06A57.08,57.08,0,0,0,2,12.54a.31.31,0,0,0-.25.36h0a.3.3,0,0,0,.35.24,57.87,57.87,0,0,1,9.27-.87,51.09,51.09,0,0,1,9.39,1.08.49.49,0,0,0,.59-.48V3.65a.29.29,0,0,0-.3-.3h0A.3.3,0,0,0,20.75,3.65Z"/><path class="cls-1" d="M10,8.77V7.94a2.78,2.78,0,0,0,0-5.49V1.68a.3.3,0,0,0-.3-.31h0a.31.31,0,0,0-.31.31v.74A2.78,2.78,0,0,0,9.34,8v.8a.3.3,0,0,0,.31.3h0A.29.29,0,0,0,10,8.77ZM7.34,5.19A2.17,2.17,0,1,1,9.51,7.36,2.17,2.17,0,0,1,7.34,5.19Z"/></g></g></svg>