<svg xmlns="http://www.w3.org/2000/svg" viewBox="0 0 21.22 21.22"><defs><style>.cls-1{fill:#4ca8d7;}</style></defs><title>Vốn góp tài sản 2</title><g id="Layer_2" data-name="Layer 2"><g id="Layer_1-2" data-name="Layer 1"><path class="cls-1" d="M10.61,0A10.61,10.61,0,1,0,21.22,10.61,10.62,10.62,0,0,0,10.61,0ZM18.4,16.93l-.39.44A10,10,0,1,1,10.32.59h.58a10,10,0,0,1,9.73,9.73,4.21,4.21,0,0,1,0,.58A10,10,0,0,1,18.4,16.93Z"/><path class="cls-1" d="M20.63,10.32H10.9V.59A10,10,0,0,1,20.63,10.32Z"/><polygon class="cls-1" points="18.62 17.12 18.24 17.56 18.01 17.37 10.32 10.74 10.32 0.29 10.9 0.29 10.9 10.48 11.39 10.9 18.4 16.93 18.62 17.12"/><rect class="cls-1" x="10.61" y="10.32" width="10.32" height="0.58"/></g></g></svg>