<svg xmlns="http://www.w3.org/2000/svg" xmlns:xlink="http://www.w3.org/1999/xlink" viewBox="0 0 2280.42 736.38"><defs><style>.cls-1,.cls-13,.cls-15,.cls-8,.cls-9{fill:none;}.cls-2{clip-path:url(#clip-path);}.cls-3{opacity:0.41;}.cls-4{fill:#d8d8d8;}.cls-5{fill:#afaeae;}.cls-5,.cls-6,.cls-7{opacity:0.24;}.cls-6{fill:#7f7f7f;}.cls-7{fill:#c9c9c9;}.cls-13,.cls-15,.cls-8,.cls-9{stroke:#c4c4c4;stroke-miterlimit:10;}.cls-8{stroke-width:2.21px;}.cls-8,.cls-9{opacity:0.32;}.cls-9{stroke-width:1.66px;}.cls-10{opacity:0.39;}.cls-11{opacity:0.35;}.cls-12{fill:#b7b7b7;}.cls-13{stroke-width:2.47px;}.cls-14{opacity:0.45;}.cls-15{stroke-width:3px;}</style><clipPath id="clip-path" transform="translate(0 -53.69)"><rect class="cls-1" x="162.41" width="1919" height="810"/></clipPath></defs><title>bg-1</title><g id="Layer_2" data-name="Layer 2"><g id="Layer_1-2" data-name="Layer 1"><g class="cls-2"><g class="cls-3"><path class="cls-4" d="M716.19,509.17a3.73,3.73,0,1,1-3.75,3.71A3.72,3.72,0,0,1,716.19,509.17Z" transform="translate(0 -53.69)"/><path class="cls-4" d="M736.13,508.85A4.14,4.14,0,1,1,732,513,4.14,4.14,0,0,1,736.13,508.85Z" transform="translate(0 -53.69)"/><path class="cls-4" d="M756.07,508.54a4.54,4.54,0,1,1-4.56,4.51A4.53,4.53,0,0,1,756.07,508.54Z" transform="translate(0 -53.69)"/><path class="cls-4" d="M776,508.22a4.94,4.94,0,1,1-5,4.92A4.94,4.94,0,0,1,776,508.22Z" transform="translate(0 -53.69)"/><path class="cls-4" d="M796,507.9a5.35,5.35,0,1,1-5.37,5.33A5.35,5.35,0,0,1,796,507.9Z" transform="translate(0 -53.69)"/><path class="cls-4" d="M815.89,507.59a5.75,5.75,0,1,1-5.77,5.72A5.75,5.75,0,0,1,815.89,507.59Z" transform="translate(0 -53.69)"/><path class="cls-4" d="M835.83,507.27a6.16,6.16,0,1,1-6.18,6.13A6.16,6.16,0,0,1,835.83,507.27Z" transform="translate(0 -53.69)"/><path class="cls-4" d="M716.27,490.1a3.73,3.73,0,1,1-3.74,3.71A3.74,3.74,0,0,1,716.27,490.1Z" transform="translate(0 -53.69)"/><path class="cls-4" d="M736.21,489.78a4.14,4.14,0,1,1-4.15,4.12A4.14,4.14,0,0,1,736.21,489.78Z" transform="translate(0 -53.69)"/><path class="cls-4" d="M756.15,489.47A4.54,4.54,0,1,1,751.6,494,4.54,4.54,0,0,1,756.15,489.47Z" transform="translate(0 -53.69)"/><path class="cls-4" d="M776.1,489.15a4.95,4.95,0,1,1-5,4.92A5,5,0,0,1,776.1,489.15Z" transform="translate(0 -53.69)"/><path class="cls-4" d="M796,488.84a5.35,5.35,0,1,1-5.37,5.32A5.34,5.34,0,0,1,796,488.84Z" transform="translate(0 -53.69)"/><path class="cls-4" d="M816,488.52a5.75,5.75,0,1,1-5.78,5.72A5.76,5.76,0,0,1,816,488.52Z" transform="translate(0 -53.69)"/><path class="cls-4" d="M835.92,488.21a6.15,6.15,0,1,1-6.18,6.12A6.14,6.14,0,0,1,835.92,488.21Z" transform="translate(0 -53.69)"/><path class="cls-4" d="M716.36,470.38a3.73,3.73,0,1,1-3.75,3.71A3.72,3.72,0,0,1,716.36,470.38Z" transform="translate(0 -53.69)"/><path class="cls-4" d="M736.3,470.06a4.14,4.14,0,1,1-4.15,4.12A4.14,4.14,0,0,1,736.3,470.06Z" transform="translate(0 -53.69)"/><path class="cls-4" d="M756.24,469.74a4.54,4.54,0,1,1-4.56,4.52A4.54,4.54,0,0,1,756.24,469.74Z" transform="translate(0 -53.69)"/><path class="cls-4" d="M776.18,469.43a4.94,4.94,0,1,1-5,4.92A4.94,4.94,0,0,1,776.18,469.43Z" transform="translate(0 -53.69)"/><circle class="cls-4" cx="796.1" cy="474.46" r="5.35" transform="translate(188.58 1120.62) rotate(-79.83)"/><circle class="cls-4" cx="816.04" cy="474.55" r="5.75" transform="translate(194.95 1131.74) rotate(-79.04)"/><circle class="cls-4" cx="835.98" cy="420.94" r="6.15"/><path class="cls-4" d="M716.44,451.23a3.73,3.73,0,1,1-3.74,3.71A3.73,3.73,0,0,1,716.44,451.23Z" transform="translate(0 -53.69)"/><path class="cls-4" d="M736.39,450.91a4.14,4.14,0,1,1-4.16,4.12A4.13,4.13,0,0,1,736.39,450.91Z" transform="translate(0 -53.69)"/><path class="cls-4" d="M756.33,450.6a4.54,4.54,0,1,1-4.56,4.51A4.53,4.53,0,0,1,756.33,450.6Z" transform="translate(0 -53.69)"/><path class="cls-4" d="M776.27,450.28a4.94,4.94,0,1,1-5,4.92A4.94,4.94,0,0,1,776.27,450.28Z" transform="translate(0 -53.69)"/><circle class="cls-4" cx="796.18" cy="455.31" r="5.35" transform="translate(216.49 1112.37) rotate(-80.56)"/><circle class="cls-4" cx="816.12" cy="455.4" r="5.75" transform="translate(233.55 1132.49) rotate(-80.6)"/><circle class="cls-4" cx="836.06" cy="401.79" r="6.15"/><path class="cls-4" d="M716.53,431.5a3.73,3.73,0,1,1-3.75,3.72A3.75,3.75,0,0,1,716.53,431.5Z" transform="translate(0 -53.69)"/><path class="cls-4" d="M736.47,431.19a4.13,4.13,0,1,1-4.15,4.11A4.13,4.13,0,0,1,736.47,431.19Z" transform="translate(0 -53.69)"/><path class="cls-4" d="M756.41,430.87a4.54,4.54,0,1,1-4.55,4.52A4.54,4.54,0,0,1,756.41,430.87Z" transform="translate(0 -53.69)"/><path class="cls-4" d="M776.35,430.55a4.95,4.95,0,1,1-5,4.92A4.95,4.95,0,0,1,776.35,430.55Z" transform="translate(0 -53.69)"/><circle class="cls-4" cx="796.27" cy="435.58" r="5.35" transform="translate(180.61 1048.78) rotate(-75.97)"/><circle class="cls-4" cx="816.21" cy="435.67" r="5.75" transform="translate(185.62 1059.01) rotate(-75.13)"/><circle class="cls-4" cx="836.15" cy="382.07" r="6.15"/></g><path class="cls-5" d="M1371,638.68h-11.83a1.92,1.92,0,0,1-1.93-1.93V624.92a1.92,1.92,0,0,0-1.92-1.92h-.29a1.92,1.92,0,0,0-1.93,1.92v11.83a1.92,1.92,0,0,1-1.92,1.93h-11.83a1.92,1.92,0,0,0-1.92,1.92v.3a1.92,1.92,0,0,0,1.92,1.92h11.83a1.92,1.92,0,0,1,1.92,1.92v11.83a1.92,1.92,0,0,0,1.93,1.93h.29a1.92,1.92,0,0,0,1.92-1.93V644.74a1.92,1.92,0,0,1,1.93-1.92H1371a1.92,1.92,0,0,0,1.92-1.92v-.3A1.92,1.92,0,0,0,1371,638.68Z" transform="translate(0 -53.69)"/><path class="cls-5" d="M1343.1,448.16h-9.17a1.49,1.49,0,0,1-1.49-1.49v-9.18A1.49,1.49,0,0,0,1331,436h-.23a1.49,1.49,0,0,0-1.49,1.49v9.18a1.5,1.5,0,0,1-1.5,1.49h-9.17a1.49,1.49,0,0,0-1.49,1.49v.23a1.49,1.49,0,0,0,1.49,1.49h9.17a1.5,1.5,0,0,1,1.5,1.49V462a1.49,1.49,0,0,0,1.49,1.49h.23a1.49,1.49,0,0,0,1.49-1.49v-9.18a1.49,1.49,0,0,1,1.49-1.49h9.17a1.5,1.5,0,0,0,1.5-1.49v-.23A1.5,1.5,0,0,0,1343.1,448.16Z" transform="translate(0 -53.69)"/><path class="cls-6" d="M1337.57,657.68h-17.5a2.85,2.85,0,0,1-2.85-2.84V637.33a2.84,2.84,0,0,0-2.84-2.84h-.44a2.84,2.84,0,0,0-2.84,2.84v17.51a2.85,2.85,0,0,1-2.85,2.84h-17.5a2.85,2.85,0,0,0-2.85,2.84V661a2.86,2.86,0,0,0,2.85,2.85h17.5a2.85,2.85,0,0,1,2.85,2.84v17.51a2.84,2.84,0,0,0,2.84,2.84h.44a2.84,2.84,0,0,0,2.84-2.84V666.65a2.85,2.85,0,0,1,2.85-2.84h17.5a2.86,2.86,0,0,0,2.85-2.85v-.44A2.85,2.85,0,0,0,1337.57,657.68Z" transform="translate(0 -53.69)"/><path class="cls-7" d="M1370.36,688.23a12,12,0,1,1-16.7-3.25A12,12,0,0,1,1370.36,688.23Z" transform="translate(0 -53.69)"/><polygon class="cls-8" points="254.41 640.03 382.98 621.73 326.88 734.31 254.41 640.03"/><polygon class="cls-9" points="268.01 624.58 356.52 583.68 340.46 676.74 268.01 624.58"/><g class="cls-10"><polygon class="cls-4" points="1854.92 392.14 1898.54 332.15 1916.22 369.56 1916.22 369.56 1854.92 392.14"/><polygon class="cls-4" points="1869.26 402.67 1919.89 392.04 1914.22 422.82 1869.26 402.67"/></g><g class="cls-11"><path class="cls-12" d="M157.11,128.86A108,108,0,1,1,11.8,176.05,108,108,0,0,1,157.11,128.86Z" transform="translate(0 -53.69)"/><circle class="cls-13" cx="191.52" cy="152.1" r="73.08" transform="translate(-47.92 48.57) rotate(-26.7)"/></g><g class="cls-14"><path class="cls-15" d="M2279.41,779.61l-34.27-31.35a30,30,0,0,0-39.84-.19l-31.23,27.71a30.06,30.06,0,0,1-38.47,1L2098.34,747a30.07,30.07,0,0,0-38.28.79l-30.9,26.94a30.07,30.07,0,0,1-38,1l-39.53-30.82a30.08,30.08,0,0,0-37.15.3L1878.72,774a30.07,30.07,0,0,1-38.45-.78" transform="translate(0 -53.69)"/><path class="cls-15" d="M2279.41,727.08l-34.27-31.34a30,30,0,0,0-39.84-.2l-31.23,27.71a30,30,0,0,1-38.47,1l-37.26-29.79a30.07,30.07,0,0,0-38.28.79l-30.9,26.94a30,30,0,0,1-38,1l-39.53-30.81a30.07,30.07,0,0,0-37.15.29l-35.76,28.83a27,27,0,0,1-17.23,6.37,34.12,34.12,0,0,1-16.4-4.6" transform="translate(0 -53.69)"/></g><g class="cls-10"><path class="cls-4" d="M1969.79,156.11a7.14,7.14,0,1,1-10.08-.46A7.14,7.14,0,0,1,1969.79,156.11Z" transform="translate(0 -53.69)"/><path class="cls-4" d="M1996.06,183.75a7.9,7.9,0,1,1-11.17-.51A7.89,7.89,0,0,1,1996.06,183.75Z" transform="translate(0 -53.69)"/><path class="cls-4" d="M2022.32,211.38a8.67,8.67,0,1,1-12.25-.56A8.68,8.68,0,0,1,2022.32,211.38Z" transform="translate(0 -53.69)"/><path class="cls-4" d="M2048.59,239a9.45,9.45,0,1,1-13.35-.61A9.45,9.45,0,0,1,2048.59,239Z" transform="translate(0 -53.69)"/><path class="cls-4" d="M2074.86,266.66a10.22,10.22,0,1,1-14.44-.66A10.23,10.23,0,0,1,2074.86,266.66Z" transform="translate(0 -53.69)"/><path class="cls-4" d="M2101.12,294.3a11,11,0,1,1-15.52-.71A11,11,0,0,1,2101.12,294.3Z" transform="translate(0 -53.69)"/><path class="cls-4" d="M2127.39,321.93a11.76,11.76,0,1,1-16.62-.76A11.76,11.76,0,0,1,2127.39,321.93Z" transform="translate(0 -53.69)"/><path class="cls-4" d="M1996.71,131.54a7.13,7.13,0,1,1-10.07-.46A7.12,7.12,0,0,1,1996.71,131.54Z" transform="translate(0 -53.69)"/><path class="cls-4" d="M2023,159.18a7.9,7.9,0,1,1-11.17-.51A7.9,7.9,0,0,1,2023,159.18Z" transform="translate(0 -53.69)"/><path class="cls-4" d="M2049.25,186.81a8.68,8.68,0,1,1-12.26-.56A8.68,8.68,0,0,1,2049.25,186.81Z" transform="translate(0 -53.69)"/><path class="cls-4" d="M2075.51,214.45a9.45,9.45,0,1,1-13.34-.61A9.44,9.44,0,0,1,2075.51,214.45Z" transform="translate(0 -53.69)"/><path class="cls-4" d="M2101.78,242.09a10.22,10.22,0,1,1-14.44-.66A10.2,10.2,0,0,1,2101.78,242.09Z" transform="translate(0 -53.69)"/><path class="cls-4" d="M2128.05,269.72a11,11,0,1,1-15.53-.7A11,11,0,0,1,2128.05,269.72Z" transform="translate(0 -53.69)"/><path class="cls-4" d="M2154.32,297.36a11.76,11.76,0,1,1-16.62-.76A11.76,11.76,0,0,1,2154.32,297.36Z" transform="translate(0 -53.69)"/><path class="cls-4" d="M2024.57,106.12a7.13,7.13,0,1,1-10.08-.46A7.13,7.13,0,0,1,2024.57,106.12Z" transform="translate(0 -53.69)"/><path class="cls-4" d="M2050.84,133.75a7.91,7.91,0,1,1-11.17-.51A7.91,7.91,0,0,1,2050.84,133.75Z" transform="translate(0 -53.69)"/><path class="cls-4" d="M2077.1,161.39a8.67,8.67,0,1,1-12.25-.56A8.68,8.68,0,0,1,2077.1,161.39Z" transform="translate(0 -53.69)"/><path class="cls-4" d="M2103.37,189a9.45,9.45,0,1,1-13.35-.61A9.45,9.45,0,0,1,2103.37,189Z" transform="translate(0 -53.69)"/><circle class="cls-4" cx="2122.09" cy="223.55" r="10.22" transform="matrix(0.84, -0.54, 0.54, 0.84, 211.73, 1120.53)"/><circle class="cls-4" cx="2147.79" cy="251.71" r="10.99" transform="translate(187.72 1111.51) rotate(-31.67)"/><circle class="cls-4" cx="2173.48" cy="226.18" r="11.76"/><path class="cls-4" d="M2051.61,81.44a7.13,7.13,0,1,1-10.08-.46A7.13,7.13,0,0,1,2051.61,81.44Z" transform="translate(0 -53.69)"/><path class="cls-4" d="M2077.88,109.08a7.9,7.9,0,1,1-11.17-.51A7.9,7.9,0,0,1,2077.88,109.08Z" transform="translate(0 -53.69)"/><path class="cls-4" d="M2104.14,136.71a8.67,8.67,0,1,1-12.25-.56A8.68,8.68,0,0,1,2104.14,136.71Z" transform="translate(0 -53.69)"/><path class="cls-4" d="M2130.41,164.35a9.45,9.45,0,1,1-13.35-.61A9.44,9.44,0,0,1,2130.41,164.35Z" transform="translate(0 -53.69)"/><circle class="cls-4" cx="2149.13" cy="198.88" r="10.22" transform="translate(241.91 1155.53) rotate(-33.2)"/><circle class="cls-4" cx="2174.83" cy="227.03" r="10.99" transform="matrix(0.84, -0.55, 0.55, 0.84, 231.33, 1175.46)"/><circle class="cls-4" cx="2200.52" cy="201.5" r="11.76"/><path class="cls-4" d="M2079.46,56a7.13,7.13,0,1,1-10.07-.46A7.12,7.12,0,0,1,2079.46,56Z" transform="translate(0 -53.69)"/><path class="cls-4" d="M2105.73,83.65a7.9,7.9,0,1,1-11.16-.51A7.91,7.91,0,0,1,2105.73,83.65Z" transform="translate(0 -53.69)"/><path class="cls-4" d="M2132,111.29a8.68,8.68,0,1,1-12.26-.56A8.68,8.68,0,0,1,2132,111.29Z" transform="translate(0 -53.69)"/><path class="cls-4" d="M2158.27,138.93a9.45,9.45,0,1,1-13.35-.61A9.46,9.46,0,0,1,2158.27,138.93Z" transform="translate(0 -53.69)"/><circle class="cls-4" cx="2176.98" cy="173.46" r="10.22" transform="translate(182.66 1009.72) rotate(-28.6)"/><circle class="cls-4" cx="2202.68" cy="201.61" r="10.99" transform="translate(159.65 995.55) rotate(-27.76)"/><circle class="cls-4" cx="2228.38" cy="176.08" r="11.76"/></g></g></g></g></svg>