<svg xmlns="http://www.w3.org/2000/svg" viewBox="0 0 364.46 300.5"><defs><style>.cls-1{opacity:0.44;}.cls-2{fill:#7ebfe0;}</style></defs><title>Asset 9</title><g id="Layer_2" data-name="Layer 2"><g id="Layer_1-2" data-name="Layer 1"><g class="cls-1"><circle class="cls-2" cx="49.7" cy="85.62" r="7.44"/><circle class="cls-2" cx="88.11" cy="85.62" r="7.44"/><circle class="cls-2" cx="126.53" cy="85.62" r="7.44"/><circle class="cls-2" cx="164.94" cy="85.62" r="7.44"/><circle class="cls-2" cx="203.36" cy="85.62" r="7.44"/><circle class="cls-2" cx="241.77" cy="85.62" r="7.44"/><circle class="cls-2" cx="280.19" cy="85.62" r="7.44"/><circle class="cls-2" cx="318.6" cy="85.62" r="7.44"/><circle class="cls-2" cx="357.02" cy="85.62" r="7.44"/><circle class="cls-2" cx="49.7" cy="120.19" r="7.44"/><circle class="cls-2" cx="88.11" cy="120.19" r="7.44"/><circle class="cls-2" cx="126.53" cy="120.19" r="7.44"/><circle class="cls-2" cx="164.94" cy="120.19" r="7.44"/><circle class="cls-2" cx="203.36" cy="120.19" r="7.44"/><circle class="cls-2" cx="241.77" cy="120.19" r="7.44"/><circle class="cls-2" cx="280.19" cy="120.19" r="7.44"/><circle class="cls-2" cx="318.6" cy="120.19" r="7.44"/><circle class="cls-2" cx="357.02" cy="120.19" r="7.44"/><circle class="cls-2" cx="49.7" cy="154.76" r="7.44"/><circle class="cls-2" cx="88.11" cy="154.76" r="7.44"/><circle class="cls-2" cx="126.53" cy="154.76" r="7.44"/><circle class="cls-2" cx="164.94" cy="154.76" r="7.44"/><circle class="cls-2" cx="203.36" cy="154.76" r="7.44"/><circle class="cls-2" cx="241.77" cy="154.76" r="7.44"/><circle class="cls-2" cx="280.19" cy="154.76" r="7.44"/><circle class="cls-2" cx="318.6" cy="154.76" r="7.44"/><circle class="cls-2" cx="357.02" cy="154.76" r="7.44"/><circle class="cls-2" cx="49.7" cy="189.34" r="7.44"/><circle class="cls-2" cx="88.11" cy="189.34" r="7.44"/><circle class="cls-2" cx="126.53" cy="189.34" r="7.44"/><circle class="cls-2" cx="164.94" cy="189.34" r="7.44"/><circle class="cls-2" cx="203.36" cy="189.34" r="7.44"/><circle class="cls-2" cx="241.77" cy="189.34" r="7.44"/><circle class="cls-2" cx="280.19" cy="189.34" r="7.44"/><circle class="cls-2" cx="318.6" cy="189.34" r="7.44"/><circle class="cls-2" cx="357.02" cy="189.34" r="7.44"/><circle class="cls-2" cx="49.7" cy="223.91" r="7.44"/><circle class="cls-2" cx="88.11" cy="223.91" r="7.44"/><circle class="cls-2" cx="126.53" cy="223.91" r="7.44"/><circle class="cls-2" cx="164.94" cy="223.91" r="7.44"/><circle class="cls-2" cx="203.36" cy="223.91" r="7.44"/><circle class="cls-2" cx="241.77" cy="223.91" r="7.44"/><circle class="cls-2" cx="280.19" cy="223.91" r="7.44"/><circle class="cls-2" cx="318.6" cy="223.91" r="7.44"/><circle class="cls-2" cx="357.02" cy="223.91" r="7.44"/><circle class="cls-2" cx="49.7" cy="258.48" r="7.44"/><circle class="cls-2" cx="88.11" cy="258.48" r="7.44"/><circle class="cls-2" cx="126.53" cy="258.48" r="7.44"/><circle class="cls-2" cx="164.94" cy="258.48" r="7.44"/><circle class="cls-2" cx="203.36" cy="258.48" r="7.44"/><circle class="cls-2" cx="241.77" cy="258.48" r="7.44"/><circle class="cls-2" cx="280.19" cy="258.48" r="7.44"/><circle class="cls-2" cx="318.6" cy="258.48" r="7.44"/><circle class="cls-2" cx="357.02" cy="258.48" r="7.44"/><circle class="cls-2" cx="49.7" cy="293.06" r="7.44"/><circle class="cls-2" cx="7.44" cy="85.62" r="7.44"/><circle class="cls-2" cx="49.7" cy="46.53" r="7.44"/><circle class="cls-2" cx="88.11" cy="46.53" r="7.44"/><circle class="cls-2" cx="126.53" cy="46.53" r="7.44"/><circle class="cls-2" cx="164.94" cy="46.53" r="7.44"/><circle class="cls-2" cx="203.36" cy="46.53" r="7.44"/><circle class="cls-2" cx="241.77" cy="46.53" r="7.44"/><circle class="cls-2" cx="280.19" cy="46.53" r="7.44"/><circle class="cls-2" cx="318.6" cy="46.53" r="7.44"/><circle class="cls-2" cx="357.02" cy="46.53" r="7.44"/><circle class="cls-2" cx="7.44" cy="46.53" r="7.44"/><circle class="cls-2" cx="49.7" cy="7.44" r="7.44"/><circle class="cls-2" cx="88.11" cy="7.44" r="7.44"/><circle class="cls-2" cx="126.53" cy="7.44" r="7.44"/><circle class="cls-2" cx="164.94" cy="7.44" r="7.44"/><circle class="cls-2" cx="203.36" cy="7.44" r="7.44"/><circle class="cls-2" cx="241.77" cy="7.44" r="7.44"/><circle class="cls-2" cx="280.19" cy="7.44" r="7.44"/><circle class="cls-2" cx="318.6" cy="7.44" r="7.44"/><circle class="cls-2" cx="357.02" cy="7.44" r="7.44"/><circle class="cls-2" cx="7.44" cy="7.44" r="7.44"/><circle class="cls-2" cx="7.44" cy="120.19" r="7.44"/><circle class="cls-2" cx="7.44" cy="154.76" r="7.44"/><circle class="cls-2" cx="7.44" cy="189.34" r="7.44"/><circle class="cls-2" cx="7.44" cy="223.91" r="7.44"/><circle class="cls-2" cx="7.44" cy="258.48" r="7.44"/><circle class="cls-2" cx="7.44" cy="293.06" r="7.44"/><circle class="cls-2" cx="88.11" cy="293.06" r="7.44"/><circle class="cls-2" cx="126.53" cy="293.06" r="7.44"/><circle class="cls-2" cx="164.94" cy="293.06" r="7.44"/><circle class="cls-2" cx="203.36" cy="293.06" r="7.44"/><circle class="cls-2" cx="241.77" cy="293.06" r="7.44"/><circle class="cls-2" cx="280.19" cy="293.06" r="7.44"/><circle class="cls-2" cx="318.6" cy="293.06" r="7.44"/><circle class="cls-2" cx="357.02" cy="293.06" r="7.44"/></g></g></g></svg>