<svg xmlns="http://www.w3.org/2000/svg" viewBox="0 0 35.57 35.57"><defs><style>.cls-1{fill:#848484;}.cls-2{fill:none;stroke:#848484;stroke-miterlimit:10;stroke-width:1.42px;}</style></defs><title>fb icon</title><g id="Layer_2" data-name="Layer 2"><g id="Layer_1-2" data-name="Layer 1"><path class="cls-1" d="M12.09,18.5V14.17c.61,0,1.2,0,1.78,0,.42,0,.51-.14.52-.53a27.33,27.33,0,0,1,.18-3.51,4.21,4.21,0,0,1,4-3.64c1.43-.1,2.86-.06,4.28-.1.3,0,.38.12.38.4q0,1.77,0,3.54c0,.29-.12.38-.4.38H20.55a.87.87,0,0,0-1,1c0,.69,0,1.38,0,2.07,0,.35.14.43.45.42h3.31l-.39,4.32H20.18c-.62,0-.62,0-.62.62V29.86c0,.65,0,.65-.67.65H15c-.61,0-.62,0-.62-.61V19.08c0-.58,0-.58-.59-.58Z"/><circle class="cls-2" cx="17.79" cy="17.79" r="17.07"/></g></g></svg>