<svg xmlns="http://www.w3.org/2000/svg" viewBox="0 0 35.57 35.57"><defs><style>.cls-1{fill:#848484;}.cls-2{fill:none;stroke:#848484;stroke-miterlimit:10;stroke-width:1.42px;}</style></defs><title>linked in icon</title><g id="Layer_2" data-name="Layer 2"><g id="Layer_1-2" data-name="Layer 1"><path class="cls-1" d="M18.74,14.62a8.28,8.28,0,0,1,.74-.81A3.78,3.78,0,0,1,21.59,13a4.65,4.65,0,0,1,2.28.26,3.87,3.87,0,0,1,2.31,2.55,6.19,6.19,0,0,1,.29,1.91c0,2,0,4,0,6,0,.2,0,.26-.26.26q-1.65,0-3.3,0c-.21,0-.25-.07-.25-.26,0-1.84,0-3.67,0-5.5a4.36,4.36,0,0,0-.18-1.07,1.67,1.67,0,0,0-1.36-1.27,1.89,1.89,0,0,0-2,.75,2,2,0,0,0-.41,1.23c0,2,0,3.91,0,5.86,0,.2,0,.26-.26.26q-1.65,0-3.3,0c-.19,0-.24-.06-.24-.25,0-2.83,0-5.65,0-8.48,0-.67,0-1.34,0-2,0-.13.09-.13.17-.13h3.35c.27,0,.27,0,.27.27v1.13C18.73,14.51,18.74,14.57,18.74,14.62Z"/><path class="cls-1" d="M9.45,18.47c0-1.72,0-3.45,0-5.17,0-.2,0-.26.25-.26,1,0,1.93,0,2.89,0,.18,0,.23.06.23.24V23.66c0,.18,0,.25-.23.25q-1.45,0-2.91,0c-.18,0-.23-.06-.23-.24C9.45,21.93,9.45,20.2,9.45,18.47Z"/><path class="cls-1" d="M11.12,11.64A2,2,0,0,1,9.2,10.58a1.85,1.85,0,0,1,1.41-2.66,2.24,2.24,0,0,1,1.78.36,1.79,1.79,0,0,1,.68,1.87,1.75,1.75,0,0,1-1.36,1.39C11.5,11.6,11.27,11.61,11.12,11.64Z"/><circle class="cls-2" cx="17.79" cy="17.79" r="17.07"/></g></g></svg>