<svg xmlns="http://www.w3.org/2000/svg" viewBox="0 0 35.57 35.57"><defs><style>.cls-1{fill:#848484;}.cls-2{fill:none;stroke:#848484;stroke-miterlimit:10;stroke-width:1.42px;}</style></defs><title>youtube icon</title><g id="Layer_2" data-name="Layer 2"><g id="Layer_1-2" data-name="Layer 1"><path class="cls-1" d="M17.78,24.43c-1.41,0-2.84-.07-4.28-.13-.79,0-1.59-.11-2.38-.19a2.29,2.29,0,0,1-1.88-1.25,3.35,3.35,0,0,1-.31-1.11,27.69,27.69,0,0,1-.22-4.64,23.49,23.49,0,0,1,.22-2.78A3.13,3.13,0,0,1,9.38,13a2.41,2.41,0,0,1,1.68-1,24,24,0,0,1,2.67-.2c1.7,0,3.4-.07,5.1-.08,1.06,0,2.11.05,3.17.09a19.64,19.64,0,0,1,2.54.22,2.21,2.21,0,0,1,1.9,1.52,5.69,5.69,0,0,1,.24,1.16,25.29,25.29,0,0,1,.18,4.08,21.19,21.19,0,0,1-.24,3.08,3.05,3.05,0,0,1-.44,1.28,2.3,2.3,0,0,1-1.68,1,25.85,25.85,0,0,1-2.64.21ZM16,20.77l4.74-2.72L16,15.31Z"/><circle class="cls-2" cx="17.79" cy="17.79" r="17.07"/></g></g></svg>