<svg xmlns="http://www.w3.org/2000/svg" xmlns:xlink="http://www.w3.org/1999/xlink" viewBox="0 0 2057.8 451.57"><defs><style>.cls-1,.cls-7{fill:none;}.cls-2{fill:#f0f0f0;}.cls-3{opacity:0.35;}.cls-4{clip-path:url(#clip-path);}.cls-5{fill:#a3a3a3;opacity:0.14;}.cls-6{fill:#bfbfbf;}.cls-7{stroke:#a3a5a6;stroke-miterlimit:10;stroke-width:1.67px;}.cls-13,.cls-8{fill:#b5b5b5;}.cls-11,.cls-8{opacity:0.23;}.cls-9{fill:#878787;}.cls-10{fill:#c4c4c4;}.cls-12{fill:#9a9a9a;}</style><clipPath id="clip-path"><rect class="cls-1" x="80.29" y="120.9" width="1920" height="219.92"/></clipPath></defs><title>bg-5</title><g id="Layer_2" data-name="Layer 2"><g id="Layer_1-2" data-name="Layer 1"><rect class="cls-2" x="80.29" y="120.9" width="1920" height="219.92"/><g class="cls-3"><g class="cls-4"><path class="cls-5" d="M1.65,169.3A147.41,147.41,0,1,1,169.3,293.2,147.41,147.41,0,0,1,1.65,169.3Z"/><path class="cls-6" d="M2008,280.88a41.91,41.91,0,1,1,49-33.28A41.91,41.91,0,0,1,2008,280.88Z"/><path class="cls-7" d="M1944.78,387.44a69.08,69.08,0,1,1,80.85-54.84A69.09,69.09,0,0,1,1944.78,387.44Z"/><path class="cls-8" d="M1148.62,315.66a72.79,72.79,0,1,1,53.45,88A72.79,72.79,0,0,1,1148.62,315.66Z"/><path class="cls-9" d="M222.77,231.43c-22.57,4.7-47.38-5-60.83-23.73-7.57-10.55-11.84-24.38-8.61-37.25,2.89-11.47,12.92-22,25.2-22.71,11-.6,22.8,7.94,23.29,19.45.58,13.71-12.65,22.86-25,24.15-24.33,2.53-48.2-13.61-61.06-33.22-16.6-25.33-16.61-58.33-4.67-85.55.51-1.16-1.21-2.18-1.73-1C97.81,97.92,97,129.6,111.53,155c12.53,21.9,37.42,40.09,63.61,38.46,12.65-.79,25.81-8.33,28.32-21.67,2.17-11.5-6.22-21.88-17-25.09-11.78-3.53-23.78,2.92-30.38,12.66-7.77,11.49-7.11,26.36-1.87,38.73,9.84,23.19,35.34,37.88,60.26,36.43a60.15,60.15,0,0,0,8.78-1.18c1.26-.27.73-2.2-.53-1.93Z"/><path class="cls-9" d="M206.53,248.4c6.2-5.42,12.83-10.33,19-15.75a1,1,0,0,0-.2-1.58q-10.44-4.94-20.93-9.77c-1.16-.54-2.18,1.19-1,1.72q10.5,4.83,20.93,9.78l-.2-1.57c-6.21,5.42-12.83,10.33-19,15.76-1,.84.45,2.25,1.42,1.41Z"/><path class="cls-10" d="M1354.47,128.75H1344a1.71,1.71,0,0,1-1.71-1.71V116.55a1.7,1.7,0,0,0-1.7-1.7h-.26a1.7,1.7,0,0,0-1.71,1.7V127a1.71,1.71,0,0,1-1.7,1.71h-10.49a1.71,1.71,0,0,0-1.71,1.7v.26a1.72,1.72,0,0,0,1.71,1.71h10.49a1.7,1.7,0,0,1,1.7,1.7v10.49a1.7,1.7,0,0,0,1.71,1.7h.26a1.7,1.7,0,0,0,1.7-1.7V134.12a1.7,1.7,0,0,1,1.71-1.7h10.48a1.71,1.71,0,0,0,1.71-1.71v-.26A1.7,1.7,0,0,0,1354.47,128.75Z"/><path class="cls-10" d="M1315.66,128.75h-10.49a1.71,1.71,0,0,1-1.7-1.71V116.55a1.7,1.7,0,0,0-1.71-1.7h-.26a1.7,1.7,0,0,0-1.7,1.7V127a1.72,1.72,0,0,1-1.71,1.71H1287.6a1.7,1.7,0,0,0-1.7,1.7v.26a1.71,1.71,0,0,0,1.7,1.71h10.49a1.71,1.71,0,0,1,1.71,1.7v10.49a1.7,1.7,0,0,0,1.7,1.7h.26a1.7,1.7,0,0,0,1.71-1.7V134.12a1.7,1.7,0,0,1,1.7-1.7h10.49a1.72,1.72,0,0,0,1.71-1.71v-.26A1.71,1.71,0,0,0,1315.66,128.75Z"/><g class="cls-11"><path class="cls-12" d="M1533.68,335a4.51,4.51,0,1,1-6.38-.23A4.52,4.52,0,0,1,1533.68,335Z"/><path class="cls-12" d="M1550.46,352.38a5,5,0,1,1-7.07-.26A5,5,0,0,1,1550.46,352.38Z"/><path class="cls-12" d="M1567.25,369.72a5.49,5.49,0,1,1-7.76-.29A5.5,5.5,0,0,1,1567.25,369.72Z"/><path class="cls-12" d="M1584,387.05a6,6,0,1,1-8.46-.31A6,6,0,0,1,1584,387.05Z"/><path class="cls-12" d="M1600.82,404.39a6.47,6.47,0,1,1-9.14-.33A6.47,6.47,0,0,1,1600.82,404.39Z"/><path class="cls-12" d="M1617.61,421.72a7,7,0,1,1-9.83-.35A7,7,0,0,1,1617.61,421.72Z"/><path class="cls-12" d="M1634.39,439.06a7.44,7.44,0,1,1-10.52-.38A7.44,7.44,0,0,1,1634.39,439.06Z"/><path class="cls-12" d="M1550.57,319.33a4.51,4.51,0,1,1-6.38-.23A4.51,4.51,0,0,1,1550.57,319.33Z"/><path class="cls-12" d="M1567.36,336.67a5,5,0,1,1-7.07-.26A5,5,0,0,1,1567.36,336.67Z"/><path class="cls-12" d="M1584.14,354a5.49,5.49,0,1,1-7.76-.29A5.49,5.49,0,0,1,1584.14,354Z"/><path class="cls-12" d="M1600.93,371.34a6,6,0,1,1-8.45-.3A6,6,0,0,1,1600.93,371.34Z"/><path class="cls-12" d="M1617.72,388.68a6.47,6.47,0,1,1-9.14-.33A6.47,6.47,0,0,1,1617.72,388.68Z"/><path class="cls-12" d="M1634.5,406a7,7,0,1,1-9.83-.36A6.95,6.95,0,0,1,1634.5,406Z"/><path class="cls-12" d="M1651.29,423.35a7.45,7.45,0,1,1-10.52-.38A7.44,7.44,0,0,1,1651.29,423.35Z"/><path class="cls-12" d="M1568.05,303.08a4.51,4.51,0,1,1-6.38-.23A4.51,4.51,0,0,1,1568.05,303.08Z"/><path class="cls-12" d="M1584.84,320.42a5,5,0,1,1-7.07-.26A5,5,0,0,1,1584.84,320.42Z"/><path class="cls-12" d="M1601.62,337.75a5.49,5.49,0,1,1-7.76-.28A5.49,5.49,0,0,1,1601.62,337.75Z"/><path class="cls-12" d="M1618.41,355.09a6,6,0,1,1-8.45-.31A6,6,0,0,1,1618.41,355.09Z"/><circle class="cls-12" cx="1630.46" cy="376.83" r="6.47" transform="translate(57.83 948.87) rotate(-33)"/><circle class="cls-12" cx="1646.89" cy="394.5" r="6.96" transform="translate(43.12 938.38) rotate(-32.2)"/><circle class="cls-12" cx="1663.32" cy="412.17" r="7.44"/><path class="cls-12" d="M1585,287.31a4.51,4.51,0,1,1-6.38-.24A4.51,4.51,0,0,1,1585,287.31Z"/><path class="cls-12" d="M1601.81,304.64a5,5,0,1,1-7.07-.26A5,5,0,0,1,1601.81,304.64Z"/><path class="cls-12" d="M1618.59,322a5.49,5.49,0,1,1-7.76-.28A5.49,5.49,0,0,1,1618.59,322Z"/><path class="cls-12" d="M1635.38,339.31a6,6,0,1,1-8.45-.3A6,6,0,0,1,1635.38,339.31Z"/><circle class="cls-12" cx="1647.43" cy="361.05" r="6.47" transform="translate(76.85 975.59) rotate(-33.73)"/><circle class="cls-12" cx="1663.86" cy="378.72" r="6.96" transform="translate(70.2 988.73) rotate(-33.77)"/><circle class="cls-12" cx="1680.28" cy="396.39" r="7.44"/><path class="cls-12" d="M1602.5,271.05a4.51,4.51,0,1,1-6.38-.23A4.52,4.52,0,0,1,1602.5,271.05Z"/><path class="cls-12" d="M1619.29,288.39a5,5,0,1,1-7.07-.26A5,5,0,0,1,1619.29,288.39Z"/><path class="cls-12" d="M1636.07,305.73a5.49,5.49,0,1,1-7.76-.29A5.49,5.49,0,0,1,1636.07,305.73Z"/><path class="cls-12" d="M1652.86,323.06a6,6,0,1,1-8.45-.31A6,6,0,0,1,1652.86,323.06Z"/><circle class="cls-12" cx="1664.91" cy="344.8" r="6.47" transform="translate(42.79 854.24) rotate(-29.14)"/><circle class="cls-12" cx="1681.33" cy="362.47" r="6.96" transform="translate(29.07 840.27) rotate(-28.29)"/><circle class="cls-12" cx="1697.76" cy="380.14" r="7.44"/></g><path class="cls-10" d="M1335.14,151.17h-11.58a1.88,1.88,0,0,1-1.88-1.88V137.71a1.88,1.88,0,0,0-1.88-1.88h-.29a1.88,1.88,0,0,0-1.88,1.88v11.58a1.88,1.88,0,0,1-1.88,1.88h-11.58a1.88,1.88,0,0,0-1.88,1.88v.29a1.88,1.88,0,0,0,1.88,1.88h11.58a1.88,1.88,0,0,1,1.88,1.88v11.58a1.89,1.89,0,0,0,1.88,1.89h.29a1.89,1.89,0,0,0,1.88-1.89V157.1a1.88,1.88,0,0,1,1.88-1.88h11.58a1.88,1.88,0,0,0,1.88-1.88v-.29A1.88,1.88,0,0,0,1335.14,151.17Z"/><path class="cls-10" d="M1368.25,165.45h-11.58a1.88,1.88,0,0,1-1.88-1.88V152a1.88,1.88,0,0,0-1.88-1.88h-.29a1.88,1.88,0,0,0-1.88,1.88v11.58a1.88,1.88,0,0,1-1.88,1.88h-11.58a1.88,1.88,0,0,0-1.88,1.88v.29a1.89,1.89,0,0,0,1.88,1.89h11.58a1.88,1.88,0,0,1,1.88,1.88V183a1.88,1.88,0,0,0,1.88,1.88h.29a1.88,1.88,0,0,0,1.88-1.88V171.39a1.88,1.88,0,0,1,1.88-1.88h11.58a1.89,1.89,0,0,0,1.88-1.89v-.29A1.88,1.88,0,0,0,1368.25,165.45Z"/><path class="cls-13" d="M1134.25,283.38A25.37,25.37,0,1,1,1152.88,314,25.38,25.38,0,0,1,1134.25,283.38Z"/><path class="cls-9" d="M1825.8,186.44c14.56,3,30.41-3.45,38.53-16,4.5-6.94,6.73-16.14,3.69-24.1-2.44-6.4-8.28-11.78-15.3-12.37-6.61-.55-13.59,3.94-15.33,10.44-1.91,7.11,3.17,14.09,9.52,16.82,7.54,3.25,16.48,1.61,23.76-1.57a46.14,46.14,0,0,0,17.87-14.17c12.14-15.76,12.66-37.27,4.92-55.09-.52-1.17-2.24-.16-1.73,1,6.12,14.08,7,30.89.17,44.9-5.82,11.94-17,21.55-30.2,24.09-7.65,1.47-16.78.17-21.06-7.13-3.9-6.66-.06-14.28,6.94-16.66,6.8-2.32,13.76,1.78,17.22,7.62,4.09,6.9,2.94,15.62-.61,22.49-7,13.42-23.15,20.77-37.86,17.77-1.25-.25-1.79,1.68-.53,1.93Z"/><path class="cls-9" d="M1836.93,193.8c-3.67-3.19-7.56-6.1-11.23-9.29l-.2,1.57q6.15-2.93,12.34-5.77c1.17-.54.16-2.26-1-1.73q-6.19,2.85-12.35,5.77a1,1,0,0,0-.2,1.57c3.66,3.19,7.56,6.1,11.23,9.29,1,.84,2.38-.57,1.41-1.41Z"/></g></g></g></g></svg>