<svg xmlns="http://www.w3.org/2000/svg" viewBox="0 0 222.67 108.24"><defs><style>.cls-1{opacity:0.08;}.cls-2{fill:#4cb1e0;}</style></defs><title>no 02</title><g id="Layer_2" data-name="Layer 2"><g id="Layer_1-2" data-name="Layer 1"><g class="cls-1"><path class="cls-2" d="M81.75,14.19Q93.9,28.08,93.9,54.05T81.75,94q-12.15,14-34.65,14-22.8,0-34.95-14T0,54.05q0-26,12.15-39.86T47.1.3Q69.6.3,81.75,14.19Zm-49,14.42q-4.38,7.77-4.38,25.44t4.38,25.58q4.38,7.78,14.34,7.78,9.66,0,14.12-7.85t4.45-25.51q0-17.67-4.45-25.44T47.1,20.83Q37.14,20.83,32.76,28.61Z"/><path class="cls-2" d="M186.29,84.84V107H105.67l-.15-18.26L144,49.21a54.29,54.29,0,0,0,7.4-9.36q2.87-4.66,2.86-8a7.82,7.82,0,0,0-3.17-6.71q-3.17-2.34-8.9-2.34a34.51,34.51,0,0,0-14.12,3.54,62,62,0,0,0-15,9.89L102.5,15.85Q124.4,0,146.43,0a49.2,49.2,0,0,1,18.95,3.47,30.6,30.6,0,0,1,13.13,9.82,23.49,23.49,0,0,1,4.76,14.49q0,8.14-5.36,16.83A104.46,104.46,0,0,1,162.74,63.1L141.15,84.84Z"/><path class="cls-2" d="M219.05,85.75a12.67,12.67,0,0,1,3.62,9.36,12.93,12.93,0,0,1-3.62,9.43,12.53,12.53,0,0,1-9.36,3.7,12.31,12.31,0,0,1-9.21-3.7,12.89,12.89,0,0,1-3.62-9.43,12.81,12.81,0,0,1,3.54-9.36,12.41,12.41,0,0,1,9.29-3.62A12.66,12.66,0,0,1,219.05,85.75Z"/></g></g></g></svg>