<svg xmlns="http://www.w3.org/2000/svg" viewBox="0 0 192.33 107.94"><defs><style>.cls-1{opacity:0.08;}.cls-2{fill:#4cb1e0;}</style></defs><title>no 01</title><g id="Layer_2" data-name="Layer 2"><g id="Layer_1-2" data-name="Layer 1"><g class="cls-1"><path class="cls-2" d="M81.75,13.89Q93.9,27.78,93.9,53.74T81.75,93.67q-12.15,14-34.65,14-22.8,0-34.95-14T0,53.74q0-26,12.15-39.85T47.1,0Q69.6,0,81.75,13.89Zm-49,14.42q-4.38,7.77-4.38,25.43,0,17.82,4.38,25.59T47.1,87.11q9.66,0,14.12-7.85t4.45-25.52q0-17.66-4.45-25.43T47.1,20.53Q37.14,20.53,32.76,28.31Z"/><path class="cls-2" d="M97.67.91h48V106.73H118.05V23.55H97.67Z"/><path class="cls-2" d="M188.7,85.45a12.64,12.64,0,0,1,3.63,9.36,12.89,12.89,0,0,1-3.63,9.43,12.5,12.5,0,0,1-9.36,3.7,12.34,12.34,0,0,1-9.21-3.7,12.93,12.93,0,0,1-3.62-9.43,12.78,12.78,0,0,1,3.55-9.36,12.39,12.39,0,0,1,9.28-3.63A12.64,12.64,0,0,1,188.7,85.45Z"/></g></g></g></svg>