<svg xmlns="http://www.w3.org/2000/svg" viewBox="0 0 222.37 107.94"><defs><style>.cls-1{opacity:0.08;}.cls-2{fill:#4cb1e0;}</style></defs><title>no 02_1</title><g id="Layer_2" data-name="Layer 2"><g id="Layer_1-2" data-name="Layer 1"><g class="cls-1"><path class="cls-2" d="M81.75,13.89Q93.9,27.78,93.9,53.74T81.75,93.67q-12.15,14-34.65,14-22.8,0-34.95-14T0,53.74q0-26,12.15-39.85T47.1,0Q69.6,0,81.75,13.89Zm-49,14.42q-4.38,7.77-4.38,25.43,0,17.82,4.38,25.59T47.1,87.11q9.66,0,14.12-7.85t4.45-25.52q0-17.66-4.45-25.43T47.1,20.53Q37.14,20.53,32.76,28.31Z"/><path class="cls-2" d="M178.21,53.82Q186,61.44,186,73.37a31.43,31.43,0,0,1-5.29,18,34.74,34.74,0,0,1-14.94,12.23q-9.66,4.38-22.65,4.38a75.46,75.46,0,0,1-22.87-3.55A61.14,61.14,0,0,1,101.3,95l10.26-19.48a49,49,0,0,0,14.19,8.46,42.25,42.25,0,0,0,15.1,2.86q8.75,0,13.43-3.39A11.31,11.31,0,0,0,159,73.67q0-6.35-4.68-9.66T140.7,60.69H122.88V45.59L147.34,22H106.88V.91h74v16L152,43.33l5.59,1.05Q170.44,46.2,178.21,53.82Z"/><path class="cls-2" d="M218.75,85.45a12.67,12.67,0,0,1,3.62,9.36,12.93,12.93,0,0,1-3.62,9.43,12.53,12.53,0,0,1-9.36,3.7,12.31,12.31,0,0,1-9.21-3.7,12.89,12.89,0,0,1-3.63-9.43,12.82,12.82,0,0,1,3.55-9.36,12.41,12.41,0,0,1,9.29-3.63A12.67,12.67,0,0,1,218.75,85.45Z"/></g></g></g></svg>