<svg xmlns="http://www.w3.org/2000/svg" xmlns:xlink="http://www.w3.org/1999/xlink" viewBox="0 0 299.98 279.22"><defs><style>.cls-1{isolation:isolate;}.cls-2{fill:url(#linear-gradient);}.cls-3{fill:url(#linear-gradient-2);}.cls-4{fill:url(#linear-gradient-3);}.cls-5{fill:url(#linear-gradient-4);}.cls-6{fill:#d8edff;}.cls-20,.cls-21,.cls-7{fill:#88c9ff;}.cls-7{opacity:0.52;}.cls-8{opacity:0.15;}.cls-9{fill:#639ac6;}.cls-10,.cls-19,.cls-22{fill:#fff;}.cls-10{opacity:0.4;}.cls-11{fill:#0158a1;}.cls-12{fill:#fffcf2;}.cls-13{fill:#e6eef6;}.cls-14{fill:#699ec9;}.cls-15{fill:#aecae1;}.cls-16{fill:#1867aa;}.cls-17{fill:#ffc500;}.cls-18{opacity:0.1;}.cls-20{opacity:0.49;}.cls-22{opacity:0.3;}.cls-23{fill:#fafafa;}.cls-24{fill:url(#linear-gradient-5);}.cls-25{fill:url(#linear-gradient-6);}.cls-26{fill:url(#linear-gradient-7);}.cls-27{fill:url(#linear-gradient-8);}.cls-28{fill:url(#linear-gradient-9);}.cls-29{fill:url(#linear-gradient-10);}.cls-30{fill:url(#linear-gradient-11);}.cls-31{fill:url(#linear-gradient-12);}.cls-32{fill:url(#linear-gradient-13);}.cls-33{fill:url(#linear-gradient-14);}.cls-34{fill:url(#linear-gradient-15);}.cls-35{fill:url(#linear-gradient-16);}.cls-36{fill:url(#linear-gradient-17);}.cls-37{fill:url(#linear-gradient-18);}.cls-38{fill:url(#linear-gradient-19);}.cls-39{mix-blend-mode:multiply;fill:url(#linear-gradient-20);}.cls-40{fill:url(#linear-gradient-21);}.cls-41{fill:url(#linear-gradient-22);}.cls-42{fill:url(#linear-gradient-23);}.cls-43{fill:url(#linear-gradient-24);}.cls-44{fill:url(#linear-gradient-25);}.cls-45{fill:url(#linear-gradient-26);}.cls-46{fill:url(#linear-gradient-27);}.cls-47{fill:url(#linear-gradient-28);}.cls-48{fill:url(#linear-gradient-29);}.cls-49{fill:url(#linear-gradient-30);}.cls-50{fill:url(#linear-gradient-31);}.cls-51{fill:#052e93;}.cls-52{fill:#0f3696;}.cls-53{fill:#1f8ddf;}</style><linearGradient id="linear-gradient" x1="7159.36" y1="-543.24" x2="7167.65" y2="-543.24" gradientTransform="matrix(-0.79, 0.61, 0.61, 0.79, 6213.32, -3837.29)" gradientUnits="userSpaceOnUse"><stop offset="0" stop-color="#ffd0c0"/><stop offset="0.34" stop-color="#ffb9a5"/><stop offset="0.76" stop-color="#ffa289"/><stop offset="1" stop-color="#ff997f"/></linearGradient><linearGradient id="linear-gradient-2" x1="7160.41" y1="-540.19" x2="7149.79" y2="-518.11" gradientTransform="matrix(-0.79, 0.61, 0.61, 0.79, 6213.32, -3837.29)" gradientUnits="userSpaceOnUse"><stop offset="0" stop-color="#213f70"/><stop offset="0.26" stop-color="#204173"/><stop offset="0.48" stop-color="#1b487e"/><stop offset="0.69" stop-color="#13548f"/><stop offset="0.88" stop-color="#0864a7"/><stop offset="1" stop-color="#0071ba"/></linearGradient><linearGradient id="linear-gradient-3" x1="8094.59" y1="663.59" x2="8098.04" y2="663.59" gradientTransform="matrix(-0.88, 0.48, 0.48, 0.88, 6982.67, -4372.98)" xlink:href="#linear-gradient"/><linearGradient id="linear-gradient-4" x1="4226.91" y1="11441.78" x2="4245.88" y2="11452.73" gradientTransform="matrix(-0.64, -0.77, -0.77, 0.64, 11731.78, -4002.16)" xlink:href="#linear-gradient-2"/><linearGradient id="linear-gradient-5" x1="8291.53" y1="88.03" x2="8309.21" y2="88.03" gradientTransform="matrix(-1, 0, 0, 1, 8561.99, 0)" gradientUnits="userSpaceOnUse"><stop offset="0" stop-color="#071785"/><stop offset="0.15" stop-color="#05136b"/><stop offset="0.32" stop-color="#041055"/><stop offset="0.51" stop-color="#030e45"/><stop offset="0.72" stop-color="#020c3b"/><stop offset="1" stop-color="#020c38"/></linearGradient><linearGradient id="linear-gradient-6" x1="8319.12" y1="128.72" x2="8316.63" y2="196.85" gradientTransform="matrix(-1, 0, 0, 1, 8561.99, 0)" gradientUnits="userSpaceOnUse"><stop offset="0"/><stop offset="0.16" stop-color="#0a1322"/><stop offset="0.46" stop-color="#1b335a"/><stop offset="0.6" stop-color="#213f70"/></linearGradient><linearGradient id="linear-gradient-7" x1="8304.4" y1="124.25" x2="8304.4" y2="173.49" xlink:href="#linear-gradient-6"/><linearGradient id="linear-gradient-8" x1="8300.66" y1="205.74" x2="8301.81" y2="205.74" xlink:href="#linear-gradient-6"/><linearGradient id="linear-gradient-9" x1="8299.98" y1="201.23" x2="8311.82" y2="213.07" xlink:href="#linear-gradient-6"/><linearGradient id="linear-gradient-10" x1="8305.26" y1="210.14" x2="8305.26" y2="167.28" gradientTransform="matrix(-1, 0, 0, 1, 8561.99, 0)" gradientUnits="userSpaceOnUse"><stop offset="0" stop-color="#ffd0c0"/><stop offset="0.27" stop-color="#ffcdbd"/><stop offset="0.51" stop-color="#ffc4b2"/><stop offset="0.73" stop-color="#ffb5a0"/><stop offset="0.94" stop-color="#ffa087"/><stop offset="1" stop-color="#ff997f"/></linearGradient><linearGradient id="linear-gradient-11" x1="8303.69" y1="210.14" x2="8303.69" y2="167.28" xlink:href="#linear-gradient-6"/><linearGradient id="linear-gradient-12" x1="8319.8" y1="204.96" x2="8320.95" y2="204.96" xlink:href="#linear-gradient-6"/><linearGradient id="linear-gradient-13" x1="8319.12" y1="200.45" x2="8330.96" y2="212.29" xlink:href="#linear-gradient-6"/><linearGradient id="linear-gradient-14" x1="8324.87" y1="209.36" x2="8324.87" y2="178.74" xlink:href="#linear-gradient-10"/><linearGradient id="linear-gradient-15" x1="7041.55" y1="79.57" x2="7058.63" y2="79.57" gradientTransform="matrix(-1, 0, 0, 1, 7300, 0)" xlink:href="#linear-gradient-5"/><linearGradient id="linear-gradient-16" x1="7049.02" y1="129.16" x2="7049.02" y2="84.72" gradientTransform="matrix(-1, 0, 0, 1, 7300, 0)" gradientUnits="userSpaceOnUse"><stop offset="0" stop-color="#ffd0c0"/><stop offset="0.49" stop-color="#ffcebe"/><stop offset="0.67" stop-color="#ffc9b7"/><stop offset="0.79" stop-color="#ffbfac"/><stop offset="0.89" stop-color="#ffb09b"/><stop offset="0.98" stop-color="#ff9e85"/><stop offset="1" stop-color="#ff997f"/></linearGradient><linearGradient id="linear-gradient-17" x1="7051.08" y1="133.96" x2="7051.08" y2="92.44" gradientTransform="matrix(-1, 0, 0, 1, 7300, 0)" gradientUnits="userSpaceOnUse"><stop offset="0" stop-color="#f8fafb"/><stop offset="0.29" stop-color="#f0f5fc"/><stop offset="0.73" stop-color="#dce5fe"/><stop offset="1" stop-color="#ccdaff"/></linearGradient><linearGradient id="linear-gradient-18" x1="7042.41" y1="92.04" x2="7042.41" y2="173.63" gradientTransform="matrix(-1, 0, 0, 1, 7300, 0)" xlink:href="#linear-gradient-2"/><linearGradient id="linear-gradient-19" x1="7056.67" y1="2.08" x2="7056.67" y2="134.32" gradientTransform="matrix(-1, 0, 0, 1, 7300, 0)" xlink:href="#linear-gradient-2"/><linearGradient id="linear-gradient-20" x1="8313.44" y1="102.3" x2="8307.4" y2="110.88" gradientTransform="matrix(-1, 0, 0, 1, 8561.99, 0)" gradientUnits="userSpaceOnUse"><stop offset="0" stop-color="#e6e5ff"/><stop offset="0.34" stop-color="#c8d1f8"/><stop offset="0.76" stop-color="#a9bcf0"/><stop offset="1" stop-color="#9db4ed"/></linearGradient><linearGradient id="linear-gradient-21" x1="7045.24" y1="82.46" x2="7057.56" y2="82.46" gradientTransform="matrix(-1, 0, 0, 1, 7300, 0)" gradientUnits="userSpaceOnUse"><stop offset="0" stop-color="#ffd0c0"/><stop offset="0.39" stop-color="#ffcebe"/><stop offset="0.59" stop-color="#ffc7b6"/><stop offset="0.75" stop-color="#ffbca8"/><stop offset="0.89" stop-color="#ffac96"/><stop offset="1" stop-color="#ff997f"/></linearGradient><linearGradient id="linear-gradient-22" x1="7054.99" y1="81.55" x2="7057.4" y2="85.72" gradientTransform="matrix(-1, 0, 0, 1, 7300, 0)" gradientUnits="userSpaceOnUse"><stop offset="0" stop-color="#eda180"/><stop offset="0.25" stop-color="#ed9b7a"/><stop offset="0.59" stop-color="#ec896b"/><stop offset="0.98" stop-color="#eb6d51"/><stop offset="1" stop-color="#eb6b50"/></linearGradient><linearGradient id="linear-gradient-23" x1="7043.22" y1="76.68" x2="7053.42" y2="76.68" gradientTransform="matrix(-1, 0, 0, 1, 7300, 0)" gradientUnits="userSpaceOnUse"><stop offset="0" stop-color="#030f4b"/><stop offset="0.15" stop-color="#030e45"/><stop offset="0.51" stop-color="#020c3b"/><stop offset="1" stop-color="#020c38"/></linearGradient><linearGradient id="linear-gradient-24" x1="7045.61" y1="86.35" x2="7045.61" y2="79.67" gradientTransform="matrix(-1, 0, 0, 1, 7300, 0)" gradientUnits="userSpaceOnUse"><stop offset="0" stop-color="#ffd0c0"/><stop offset="0.31" stop-color="#ffcbba"/><stop offset="0.73" stop-color="#ffbca8"/><stop offset="1" stop-color="#ffb099"/></linearGradient><linearGradient id="linear-gradient-25" x1="8314.78" y1="98.54" x2="8314.78" y2="91.69" xlink:href="#linear-gradient-20"/><linearGradient id="linear-gradient-26" x1="8316.69" y1="97.53" x2="8316.69" y2="91.69" gradientTransform="matrix(-1, 0, 0, 1, 8561.99, 0)" gradientUnits="userSpaceOnUse"><stop offset="0" stop-color="#f8fafb"/><stop offset="1" stop-color="#ccdaff"/></linearGradient><linearGradient id="linear-gradient-27" x1="8310.09" y1="98.83" x2="8310.09" y2="91.33" gradientTransform="matrix(-1, 0, 0, 1, 8561.99, 0)" gradientUnits="userSpaceOnUse"><stop offset="0" stop-color="#f8fafb"/><stop offset="0.31" stop-color="#eff4fc"/><stop offset="0.8" stop-color="#d7e2fe"/><stop offset="1" stop-color="#ccdaff"/></linearGradient><linearGradient id="linear-gradient-28" x1="8312.92" y1="98.54" x2="8312.92" y2="96.29" xlink:href="#linear-gradient-20"/><linearGradient id="linear-gradient-29" x1="5616.37" y1="10158.79" x2="5600.26" y2="10168.09" gradientTransform="matrix(-0.78, -0.63, -0.63, 0.78, 10995, -4297.45)" xlink:href="#linear-gradient-2"/><linearGradient id="linear-gradient-30" x1="-3515.54" y1="-11578.43" x2="-3505.31" y2="-11578.43" gradientTransform="matrix(-0.83, -0.55, 0.55, -0.83, 3700.06, -11464.05)" xlink:href="#linear-gradient"/><linearGradient id="linear-gradient-31" x1="367.18" y1="-8513.11" x2="351.38" y2="-8490.65" gradientTransform="matrix(-0.34, 0.94, 0.94, 0.34, 8340.29, 2710.35)" xlink:href="#linear-gradient-2"/></defs><title>Asset 3</title><g class="cls-1"><g id="Layer_2" data-name="Layer 2"><g id="Layer_1-2" data-name="Layer 1"><path class="cls-2" d="M198.59,90.06l-6.65-.88a2,2,0,0,0,.67,1.44c.63.39.79,1,1.3,1.41s1.21,1.92,2.23,2.39,2.58-.29,3.58.09,3.07,1.33,3.07,1.33l1.35-3.71L201.28,91s-1.83-3-4.44-3.25Z"/><path class="cls-3" d="M224,104.71s2.25-4.35-1-6.24-9.59-2.77-19.77-7l-1.06,3.76S219.82,106,224,104.71Z"/><path class="cls-4" d="M192.66,87l.24,3L196,93.11l-.43-5.43s-.76-.35-.79.44l-.23-1.27S194.07,85.56,192.66,87Z"/><path class="cls-5" d="M221.89,104.24a9.81,9.81,0,0,0,3.87.8,35.81,35.81,0,0,0,9-1.54,48.54,48.54,0,0,0,7-2.65c2-.93,8.79-3.68,5.46-6.61a4.09,4.09,0,0,0-3.07-.78c-4.77.39-20.06,6-20.06,6Z"/><path id="Floor" class="cls-6" d="M43.93,256.25c58.58,30.62,153.54,30.62,212.12,0s58.57-80.26,0-110.87-153.55-30.62-212.12,0S-14.64,225.64,43.93,256.25Z"/><path id="Shadow" class="cls-7" d="M146.46,223.94l2.7,1.56a3.41,3.41,0,0,0,3.08,0L224.19,184a.93.93,0,0,0,0-1.77l-2.7-1.56a3.39,3.39,0,0,0-3.07,0l-72,41.54A.94.94,0,0,0,146.46,223.94Z"/><g id="Folder"><g id="_Group_" data-name="&lt;Group&gt;"><path id="_Path_" data-name="&lt;Path&gt;" class="cls-8" d="M181,132.71v7.08L58.4,210.56h0l-3.77,2.18a6.62,6.62,0,0,1-2.89-5.22V88.32a1.35,1.35,0,0,1,.62-1.06L80.3,71.13c.34-.2,2.33.63,2.66.83l.21.12a2,2,0,0,1,.49.44,1.71,1.71,0,0,1,.36.59l2.53,7.3,90.94-54.18a1.44,1.44,0,0,1,1.2,0l1.69,1a1.37,1.37,0,0,1,.61,1.07V132.71Z"/><path id="_Path_2" data-name="&lt;Path&gt;" class="cls-9" d="M181,139.79l-126.37,73V89.28l29-16.76a1.71,1.71,0,0,1,.36.59l2.53,7.3L87,81.8l93.78-54.15a1.26,1.26,0,0,1,.18.61Z"/><path id="_Path_3" data-name="&lt;Path&gt;" class="cls-10" d="M83.66,72.52l-29,16.76-2.71-1.56a1.39,1.39,0,0,1,.44-.46L80.3,71.12a1.35,1.35,0,0,1,1.22,0l1.65,1A2,2,0,0,1,83.66,72.52Z"/><path id="_Path_4" data-name="&lt;Path&gt;" class="cls-11" d="M180.81,27.65,87,81.8l-.48-1.39,90.94-54.18a1.44,1.44,0,0,1,1.2,0l1.69,1A1.27,1.27,0,0,1,180.81,27.65Z"/></g><g id="Document"><g id="_Group_2" data-name="&lt;Group&gt;"><path id="_Path_5" data-name="&lt;Path&gt;" class="cls-12" d="M93.45,162.53a3,3,0,0,1-1.31-2.36V42.76a3.07,3.07,0,0,1,1.4-2.41l69.35-40a3,3,0,0,1,2.71,0,3,3,0,0,1,1.3,2.37v117.4a3.1,3.1,0,0,1-1.4,2.42l-69.35,40A3,3,0,0,1,93.45,162.53Z"/></g><g id="_Group_3" data-name="&lt;Group&gt;"><path id="_Path_6" data-name="&lt;Path&gt;" class="cls-13" d="M96.16,162.48l69.35-40a3.1,3.1,0,0,0,1.4-2.42V2.67c0-.89-.62-1.25-1.39-.81l-69.35,40a3.09,3.09,0,0,0-1.4,2.42v117.4C94.76,162.57,95.39,162.93,96.16,162.48Z"/></g><path id="_Path_7" data-name="&lt;Path&gt;" class="cls-14" d="M103.76,46.52l52.36-30.24c.68-.39,1.23-.07,1.23.72v.49a2.74,2.74,0,0,1-1.23,2.13L103.76,49.85c-.68.39-1.23.08-1.23-.71v-.49A2.72,2.72,0,0,1,103.76,46.52Z"/><path id="_Path_8" data-name="&lt;Path&gt;" class="cls-14" d="M103.76,54.84l52.36-30.23c.68-.4,1.23-.08,1.23.71v.49a2.72,2.72,0,0,1-1.23,2.13L103.76,58.17c-.68.39-1.23.08-1.23-.71V57A2.72,2.72,0,0,1,103.76,54.84Z"/><path id="_Path_9" data-name="&lt;Path&gt;" class="cls-14" d="M103.76,63.16l52.36-30.23c.68-.4,1.23-.08,1.23.71v.49a2.72,2.72,0,0,1-1.23,2.13L103.76,66.49c-.68.39-1.23.08-1.23-.71v-.49A2.72,2.72,0,0,1,103.76,63.16Z"/><path id="_Path_10" data-name="&lt;Path&gt;" class="cls-14" d="M103.76,71.48l52.36-30.23c.68-.4,1.23-.08,1.23.71v.49a2.72,2.72,0,0,1-1.23,2.13L103.76,74.81c-.68.4-1.23.08-1.23-.71v-.49A2.72,2.72,0,0,1,103.76,71.48Z"/><path id="_Path_11" data-name="&lt;Path&gt;" class="cls-14" d="M103.76,79.8l52.36-30.23c.68-.4,1.23-.08,1.23.71v.49a2.72,2.72,0,0,1-1.23,2.13L103.76,83.13c-.68.4-1.23.08-1.23-.71v-.49A2.72,2.72,0,0,1,103.76,79.8Z"/><path id="_Path_12" data-name="&lt;Path&gt;" class="cls-14" d="M103.76,88.18,156.12,58c.68-.39,1.23-.08,1.23.71v.49a2.72,2.72,0,0,1-1.23,2.13L103.76,91.52c-.68.39-1.23.07-1.23-.72v-.49A2.74,2.74,0,0,1,103.76,88.18Z"/><path id="_Path_13" data-name="&lt;Path&gt;" class="cls-14" d="M103.76,96.5l52.36-30.23c.68-.39,1.23-.07,1.23.71v.49a2.72,2.72,0,0,1-1.23,2.13L103.76,99.84c-.68.39-1.23.07-1.23-.71v-.49A2.74,2.74,0,0,1,103.76,96.5Z"/><path id="_Path_14" data-name="&lt;Path&gt;" class="cls-14" d="M103.76,104.82l52.36-30.23c.68-.39,1.23-.07,1.23.71v.49a2.7,2.7,0,0,1-1.23,2.13l-52.36,30.24c-.68.39-1.23.07-1.23-.71V107A2.74,2.74,0,0,1,103.76,104.82Z"/><path id="_Path_15" data-name="&lt;Path&gt;" class="cls-14" d="M103.76,113.15l52.36-30.24c.68-.39,1.23-.07,1.23.71v.49a2.7,2.7,0,0,1-1.23,2.13l-52.36,30.24c-.68.39-1.23.07-1.23-.71v-.49A2.7,2.7,0,0,1,103.76,113.15Z"/><path id="_Path_16" data-name="&lt;Path&gt;" class="cls-14" d="M103.76,121.47l52.36-30.24c.68-.39,1.23-.07,1.23.71v.49a2.7,2.7,0,0,1-1.23,2.13L103.76,124.8c-.68.39-1.23.07-1.23-.71v-.49A2.7,2.7,0,0,1,103.76,121.47Z"/><path id="_Path_17" data-name="&lt;Path&gt;" class="cls-14" d="M103.76,129.82l52.36-30.23c.68-.39,1.23-.08,1.23.71v.49a2.72,2.72,0,0,1-1.23,2.13l-52.36,30.23c-.68.4-1.23.08-1.23-.71V132A2.74,2.74,0,0,1,103.76,129.82Z"/><path id="_Path_18" data-name="&lt;Path&gt;" class="cls-14" d="M103.76,138.14l52.36-30.23c.68-.39,1.23-.08,1.23.71v.49a2.72,2.72,0,0,1-1.23,2.13l-52.36,30.24c-.68.39-1.23.07-1.23-.71v-.5A2.74,2.74,0,0,1,103.76,138.14Z"/><path id="_Path_19" data-name="&lt;Path&gt;" class="cls-14" d="M103.76,146.46l52.36-30.23c.68-.39,1.23-.07,1.23.71v.49a2.7,2.7,0,0,1-1.23,2.13L103.76,149.8c-.68.39-1.23.07-1.23-.71v-.49A2.74,2.74,0,0,1,103.76,146.46Z"/><g id="_Group_4" data-name="&lt;Group&gt;"><path id="_Path_20" data-name="&lt;Path&gt;" class="cls-15" d="M96,162.58a3,3,0,0,1-2.53-.05,3,3,0,0,1-1.3-2.36V42.77a2.88,2.88,0,0,1,.4-1.38l2.62,1.51a2.89,2.89,0,0,0-.41,1.37V161.68C94.76,162.5,95.29,162.87,96,162.58Z"/></g></g><g id="Document-2" data-name="Document"><g id="_Group_5" data-name="&lt;Group&gt;"><path id="_Path_21" data-name="&lt;Path&gt;" class="cls-12" d="M103.27,168.1a3,3,0,0,1-1.31-2.36V48.33a3.07,3.07,0,0,1,1.4-2.41l69.35-40a3,3,0,0,1,2.7,0,3,3,0,0,1,1.31,2.37v117.4a3.09,3.09,0,0,1-1.39,2.42l-69.35,40A3,3,0,0,1,103.27,168.1Z"/></g><g id="_Group_6" data-name="&lt;Group&gt;"><path id="_Path_22" data-name="&lt;Path&gt;" class="cls-13" d="M106,167.05l69.35-40a3.09,3.09,0,0,0,1.39-2.42V7.24c0-.89-.62-1.25-1.39-.81L106,46.43a3.08,3.08,0,0,0-1.39,2.42v117.4C104.58,167.14,105.2,167.5,106,167.05Z"/></g><path id="_Path_23" data-name="&lt;Path&gt;" class="cls-15" d="M113.57,52.09l52.37-30.24c.68-.39,1.23-.07,1.23.72v.49a2.74,2.74,0,0,1-1.23,2.13L113.57,55.42c-.68.39-1.23.08-1.23-.71v-.49A2.72,2.72,0,0,1,113.57,52.09Z"/><path id="_Path_24" data-name="&lt;Path&gt;" class="cls-15" d="M113.57,60.41l52.37-30.23c.68-.4,1.23-.08,1.23.71v.49a2.74,2.74,0,0,1-1.23,2.13L113.57,63.74c-.68.39-1.23.08-1.23-.71v-.49A2.72,2.72,0,0,1,113.57,60.41Z"/><path id="_Path_25" data-name="&lt;Path&gt;" class="cls-15" d="M113.57,68.73,165.94,38.5c.68-.4,1.23-.08,1.23.71v.49a2.72,2.72,0,0,1-1.23,2.13L113.57,72.06c-.68.39-1.23.08-1.23-.71v-.49A2.72,2.72,0,0,1,113.57,68.73Z"/><path id="_Path_26" data-name="&lt;Path&gt;" class="cls-15" d="M113.57,77.05l52.37-30.23c.68-.4,1.23-.08,1.23.71V48a2.72,2.72,0,0,1-1.23,2.13L113.57,80.38c-.68.4-1.23.08-1.23-.71v-.49A2.72,2.72,0,0,1,113.57,77.05Z"/><path id="_Path_27" data-name="&lt;Path&gt;" class="cls-15" d="M113.57,85.37l52.37-30.23c.68-.4,1.23-.08,1.23.71v.49a2.72,2.72,0,0,1-1.23,2.13L113.57,88.7c-.68.4-1.23.08-1.23-.71V87.5A2.72,2.72,0,0,1,113.57,85.37Z"/><path id="_Path_28" data-name="&lt;Path&gt;" class="cls-14" d="M113.57,93.75l52.37-30.23c.68-.39,1.23-.08,1.23.71v.49a2.72,2.72,0,0,1-1.23,2.13L113.57,97.09c-.68.39-1.23.07-1.23-.72v-.49A2.74,2.74,0,0,1,113.57,93.75Z"/><path id="_Path_29" data-name="&lt;Path&gt;" class="cls-14" d="M113.57,102.07l52.37-30.23c.68-.39,1.23-.08,1.23.71V73a2.72,2.72,0,0,1-1.23,2.13l-52.37,30.24c-.68.39-1.23.07-1.23-.71v-.5A2.74,2.74,0,0,1,113.57,102.07Z"/><path id="_Path_30" data-name="&lt;Path&gt;" class="cls-14" d="M113.57,110.39l52.37-30.23c.68-.39,1.23-.07,1.23.71v.49a2.7,2.7,0,0,1-1.23,2.13l-52.37,30.24c-.68.39-1.23.07-1.23-.71v-.49A2.74,2.74,0,0,1,113.57,110.39Z"/><path id="_Path_31" data-name="&lt;Path&gt;" class="cls-14" d="M113.57,118.71l52.37-30.23c.68-.39,1.23-.07,1.23.71v.49a2.7,2.7,0,0,1-1.23,2.13l-52.37,30.24c-.68.39-1.23.07-1.23-.71v-.49A2.74,2.74,0,0,1,113.57,118.71Z"/><path id="_Path_32" data-name="&lt;Path&gt;" class="cls-14" d="M113.57,127,165.94,96.8c.68-.39,1.23-.07,1.23.71V98a2.7,2.7,0,0,1-1.23,2.13l-52.37,30.24c-.68.39-1.23.07-1.23-.71v-.49A2.7,2.7,0,0,1,113.57,127Z"/><path id="_Path_33" data-name="&lt;Path&gt;" class="cls-14" d="M113.57,135.39l52.37-30.23c.68-.39,1.23-.08,1.23.71v.49a2.72,2.72,0,0,1-1.23,2.13l-52.37,30.23c-.68.4-1.23.08-1.23-.71v-.49A2.72,2.72,0,0,1,113.57,135.39Z"/><path id="_Path_34" data-name="&lt;Path&gt;" class="cls-14" d="M113.57,143.71l52.37-30.23c.68-.39,1.23-.08,1.23.71v.49a2.72,2.72,0,0,1-1.23,2.13l-52.37,30.24c-.68.39-1.23.07-1.23-.72v-.49A2.74,2.74,0,0,1,113.57,143.71Z"/><path id="_Path_35" data-name="&lt;Path&gt;" class="cls-14" d="M113.57,152l52.37-30.23c.68-.39,1.23-.07,1.23.71V123a2.7,2.7,0,0,1-1.23,2.13l-52.37,30.24c-.68.39-1.23.07-1.23-.71v-.5A2.74,2.74,0,0,1,113.57,152Z"/><g id="_Group_7" data-name="&lt;Group&gt;"><path id="_Path_36" data-name="&lt;Path&gt;" class="cls-15" d="M105.79,168.15a2.62,2.62,0,0,1-3.83-2.41V48.34a2.89,2.89,0,0,1,.41-1.38L105,48.47a2.75,2.75,0,0,0-.41,1.37V167.25C104.58,168.07,105.11,168.44,105.79,168.15Z"/></g></g><g id="_Group_8" data-name="&lt;Group&gt;"><path id="_Path_37" data-name="&lt;Path&gt;" class="cls-9" d="M206.8,42.18l-20.26,87.74L184.68,138a9.32,9.32,0,0,1-3.88,5.23L60.59,212.63a6.31,6.31,0,0,1-2.84.76,5.84,5.84,0,0,1-3.12-.65l.62-2.68.06-.26.68-2.94,2.94-12.73,18.62-80.66a1.25,1.25,0,0,1,.12-.3c0-.09.1-.18.16-.27l0,0a1.76,1.76,0,0,1,.47-.44L181,53.15l22.47-13a1.36,1.36,0,0,1,1.24,0l1.65,1A1,1,0,0,1,206.8,42.18Z"/><path id="_Path_38" data-name="&lt;Path&gt;" class="cls-10" d="M206.83,42c0-.25-.2-.33-.48-.17L81.21,114.09a1.75,1.75,0,0,0-.47.44l-2.88-1.67a1.76,1.76,0,0,1,.47-.44L203.46,40.18a1.36,1.36,0,0,1,1.24,0l1.65,1A1.07,1.07,0,0,1,206.83,42Z"/><path id="_Path_39" data-name="&lt;Path&gt;" class="cls-8" d="M80.74,114.53a3.24,3.24,0,0,0-.21.35,1.61,1.61,0,0,0-.09.26L62.63,192.27h0l-3.75,16.26-.47,2h0l-.65,2.83a5.84,5.84,0,0,1-3.12-.65l.62-2.68.06-.26.68-2.94,2.94-12.73,18.62-80.66a1.25,1.25,0,0,1,.12-.3c0-.09.1-.18.16-.27l0,0Z"/><path id="_Path_40" data-name="&lt;Path&gt;" class="cls-16" d="M59,205.29a.81.81,0,0,1,.38.87l-1,4.4h0l-.51,2.21a.8.8,0,0,1-.82.62,5.55,5.55,0,0,1-2.44-.65,6.62,6.62,0,0,1-2.89-5.22v-5.06a.8.8,0,0,1,1.2-.69l1.29.74a.81.81,0,0,1,.4.7v2.51a.8.8,0,0,0,1.58.18l.21-.93a.8.8,0,0,1,1.18-.51Z"/></g><g id="_Group_9" data-name="&lt;Group&gt;"><g id="_Group_10" data-name="&lt;Group&gt;"><path id="_Path_41" data-name="&lt;Path&gt;" class="cls-17" d="M85.57,186.54l-6.84-3.95h0l-.07,0h0c-3.4-1.92-8.07-1.64-13.23,1.35a37.45,37.45,0,0,0-12.57,12.81c-3.84,6.2-6.26,13.37-6.26,19.8,0,6,2.1,10.21,5.49,12.18h0l6.94,4c3.43,2.19,8.28,2,13.65-1.11,10.4-6,18.83-20.61,18.83-32.61C91.52,192.7,89.23,188.39,85.57,186.54Z"/><g id="_Group_11" data-name="&lt;Group&gt;"><path id="_Path_42" data-name="&lt;Path&gt;" class="cls-18" d="M58.91,232.6l-6.82-3.89h0c-3.39-2-5.49-6.18-5.49-12.17,0-6.43,2.42-13.6,6.26-19.79l7.27,4.19c-3.85,6.19-6.25,13.35-6.25,19.78C53.86,226.43,55.77,230.53,58.91,232.6Z"/><path id="_Path_43" data-name="&lt;Path&gt;" class="cls-10" d="M85.43,186.46c-3.35-1.63-7.83-1.21-12.74,1.62a37.76,37.76,0,0,0-12.58,12.84l-7.27-4.19a37.58,37.58,0,0,1,12.57-12.82c5.16-3,9.83-3.27,13.23-1.35h0l.07,0h0Z"/></g></g><g id="_Group_12" data-name="&lt;Group&gt;"><path id="_Compound_Path_" data-name="&lt;Compound Path&gt;" class="cls-19" d="M75.29,211.76v6.61a2.16,2.16,0,0,1-.23,1,1.36,1.36,0,0,1-.55.67l-3.62,2.1a.42.42,0,0,1-.55,0,1,1,0,0,1-.23-.71v-6.6l-4.46,2.57a.42.42,0,0,1-.55,0,.94.94,0,0,1-.23-.71v-4.48a2.2,2.2,0,0,1,.23-1,1.41,1.41,0,0,1,.55-.67l4.46-2.58v-6.6a2.37,2.37,0,0,1,.23-1,1.46,1.46,0,0,1,.55-.67l3.62-2.09a.42.42,0,0,1,.55,0,.92.92,0,0,1,.23.71v6.6l4.44-2.56a.41.41,0,0,1,.54,0,.94.94,0,0,1,.23.71v4.48a2.16,2.16,0,0,1-.23,1,1.4,1.4,0,0,1-.54.67Z"/></g></g></g><path id="Shadow-2" data-name="Shadow" class="cls-20" d="M263.69,218.1c-8.91,4.76-23.35,4.76-32.26,0s-8.91-12.49,0-17.26,23.35-4.77,32.26,0S272.6,213.33,263.69,218.1Z"/><g id="Character"><g id="Document-3" data-name="Document"><g id="_Group_13" data-name="&lt;Group&gt;"><path id="_Path_44" data-name="&lt;Path&gt;" class="cls-21" d="M149.25,223.81a3,3,0,0,1-1.3-2.37V111a3.09,3.09,0,0,1,1.39-2.42l69.35-40a3,3,0,0,1,2.71,0,3,3,0,0,1,1.31,2.37V181.35a3.07,3.07,0,0,1-1.4,2.41l-69.35,40A3,3,0,0,1,149.25,223.81Z"/><path id="_Path_45" data-name="&lt;Path&gt;" class="cls-8" d="M151.57,223.92l.14,0a.25.25,0,0,1-.09,0l-.26.08-.14,0-.32.05-.37,0a2.56,2.56,0,0,1-1.27-.3,2.2,2.2,0,0,1-.73-.7,3,3,0,0,1-.58-1.66V111a2.37,2.37,0,0,1,.11-.69,2.06,2.06,0,0,1,.12-.35,3.59,3.59,0,0,1,.17-.34l2.62,1.51h0l-.07.11a2.85,2.85,0,0,0-.35,1.26V223a1.7,1.7,0,0,0,.06.42.94.94,0,0,0,.27.43,1,1,0,0,0,.29.13h.16a.62.62,0,0,0,.19,0Z"/><path id="_Path_46" data-name="&lt;Path&gt;" class="cls-22" d="M222.68,70.67c-.11-.7-.68-.94-1.37-.55l-69.35,40a2.91,2.91,0,0,0-1,1l-2.62-1.51a2.84,2.84,0,0,1,1-1l69.35-40a3,3,0,0,1,2.71,0A3,3,0,0,1,222.68,70.67Z"/></g><g id="_Group_14" data-name="&lt;Group&gt;"><g id="_Group_15" data-name="&lt;Group&gt;"><path id="_Path_47" data-name="&lt;Path&gt;" class="cls-23" d="M159.56,114.78l52.37-30.23c.68-.39,1.23-.08,1.23.71v.49a2.72,2.72,0,0,1-1.23,2.13l-52.37,30.24c-.68.39-1.23.07-1.23-.71v-.5A2.74,2.74,0,0,1,159.56,114.78Z"/><path id="_Path_48" data-name="&lt;Path&gt;" class="cls-23" d="M159.56,125l52.37-30.23c.68-.39,1.23-.07,1.23.71v.49a2.7,2.7,0,0,1-1.23,2.13L159.56,128.3c-.68.39-1.23.07-1.23-.71v-.49A2.74,2.74,0,0,1,159.56,125Z"/><path id="_Path_49" data-name="&lt;Path&gt;" class="cls-23" d="M159.56,135.14l52.37-30.23c.68-.39,1.23-.07,1.23.71v.49a2.7,2.7,0,0,1-1.23,2.13l-52.37,30.24c-.68.39-1.23.07-1.23-.71v-.49A2.74,2.74,0,0,1,159.56,135.14Z"/><path id="_Path_50" data-name="&lt;Path&gt;" class="cls-23" d="M159.56,145.32l52.37-30.23c.68-.39,1.23-.07,1.23.71v.49a2.7,2.7,0,0,1-1.23,2.13l-52.37,30.24c-.68.39-1.23.07-1.23-.71v-.49A2.74,2.74,0,0,1,159.56,145.32Z"/><path id="_Path_51" data-name="&lt;Path&gt;" class="cls-23" d="M159.56,155.51l52.37-30.24c.68-.39,1.23-.07,1.23.71v.49a2.7,2.7,0,0,1-1.23,2.13l-52.37,30.24c-.68.39-1.23.07-1.23-.71v-.49A2.7,2.7,0,0,1,159.56,155.51Z"/><path id="_Path_52" data-name="&lt;Path&gt;" class="cls-23" d="M159.56,165.69l52.37-30.24c.68-.39,1.23-.07,1.23.71v.49a2.7,2.7,0,0,1-1.23,2.13L159.56,169c-.68.39-1.23.07-1.23-.71v-.49A2.7,2.7,0,0,1,159.56,165.69Z"/><path id="_Path_53" data-name="&lt;Path&gt;" class="cls-23" d="M159.56,175.87l52.37-30.24c.68-.39,1.23-.07,1.23.71v.49a2.7,2.7,0,0,1-1.23,2.13L159.56,179.2c-.68.39-1.23.07-1.23-.71V178A2.7,2.7,0,0,1,159.56,175.87Z"/><path id="_Path_54" data-name="&lt;Path&gt;" class="cls-23" d="M159.56,186.05l52.37-30.24c.68-.39,1.23-.07,1.23.71V157a2.7,2.7,0,0,1-1.23,2.13l-52.37,30.24c-.68.39-1.23.07-1.23-.71v-.49A2.7,2.7,0,0,1,159.56,186.05Z"/><path id="_Path_55" data-name="&lt;Path&gt;" class="cls-23" d="M159.56,196.23,211.93,166c.68-.39,1.23-.07,1.23.71v.49a2.7,2.7,0,0,1-1.23,2.13l-52.37,30.24c-.68.39-1.23.07-1.23-.71v-.49A2.7,2.7,0,0,1,159.56,196.23Z"/><path id="_Path_56" data-name="&lt;Path&gt;" class="cls-23" d="M159.56,206.41l52.37-30.24c.68-.39,1.23-.07,1.23.71v.49a2.74,2.74,0,0,1-1.23,2.14l-52.37,30.23c-.68.39-1.23.07-1.23-.71v-.49A2.7,2.7,0,0,1,159.56,206.41Z"/></g></g></g></g><path class="cls-24" d="M260.19,73.92a5.6,5.6,0,0,1,2.06,5.36c-.32,1.77-1.48,3.57-.78,5.23s2.88,2.08,4.65,2.6a6.66,6.66,0,0,1,3.56,2.17,3.39,3.39,0,0,1,.26,4c-1,1.37-3.3,1.81-3.51,3.49-.18,1.41,1.36,2.57,1.31,4a2.55,2.55,0,0,1-1.83,2.15,7.46,7.46,0,0,1-3,.18,12.38,12.38,0,0,1-4.07-.75,4.24,4.24,0,0,1-2.63-3,8.58,8.58,0,0,1,.56-3.44,3.49,3.49,0,0,0-.49-3.32c-.52-.53-1.29-.73-1.84-1.22-1.2-1.07-1-3-.39-4.49s1.34-3.1.87-4.63c-.31-1-1.17-1.84-1.65-2.83C251.11,74.93,256.4,71.06,260.19,73.92Z"/><path class="cls-25" d="M235,172.24c.05,1.11.8,11.41,1.38,19.38,0,.44.07.89.1,1.31s0,.56.06.84c0,.46.07.91.1,1.35l.06.77c0,.39,0,.77.08,1.12h4.11l.06-.33c.07-.35.14-.71.21-1.1.24-1.24.5-2.62.75-4,.29-1.62.55-3.17.7-4.33.35-2.62.65-5.25.79-7.89a39.87,39.87,0,0,0-.55-7.88c.49-1,.86-2.05,1.25-3,.86-2,2-3.94,2.84-6a63.49,63.49,0,0,0,4.8-15.37c.71-4.79,1.91-9.19-.09-14a8.69,8.69,0,0,0-1.44-2.48,6.42,6.42,0,0,0-5.73-2c-4.32.75-4.39,4.58-5.05,7.87-.62,3.12-1.26,6.24-1.83,9.37-.61,3.33-2.11,19.46-2.24,22.2,0,.09,0,.19,0,.28C234.74,169.55,234.92,170.83,235,172.24Z"/><path class="cls-26" d="M253.61,124.74a6,6,0,0,1,6,.74,9.23,9.23,0,0,1,2,2.26c3,4.58,2.82,9.49,3.18,14.69a73.65,73.65,0,0,1-1.3,17.27c-.4,2.32-1.05,4.59-1.45,6.91-.51,3-.52,7.39-4.88,6.84-3-.38-3.32-2.68-3.73-5.16-.47-2.91-2.57-20.19-2.71-23.83-.14-3.42-.2-6.85-.29-10.27C250.34,130.59,249.56,126.55,253.61,124.74Z"/><polygon class="cls-27" points="261.34 202.98 261.22 208.51 260.35 208.51 260.18 204.13 261.34 202.98"/><path class="cls-28" d="M253.6,207.22s-3.78,5.19-3.24,6,4.66,1,7.17,0,2.57-7.14,3.7-9.79c.48-1.12-.54-4.4-2-4.64a6.42,6.42,0,0,0-3.11.51S257.62,203.1,253.6,207.22Z"/><path class="cls-29" d="M256.06,200c-.12-1.72-.33-4.49-.56-7.61H261c-.62,3.42-1.37,7.12-1.51,8a12.84,12.84,0,0,1,0,2c-.12,2.16-1.14,5.73-2.45,7s-4.54.8-4.66.32,2.45-4.42,2.93-6.15A31.17,31.17,0,0,0,256.06,200Z"/><path class="cls-30" d="M261.73,188.08c-.33,2.51-1.17,6.87-1.72,9.71H255.9c-.56-7.6-1.72-23.38-1.78-24.77-.08-1.9-.38-3.55,1.25-4.91a3.64,3.64,0,0,1,1.53-.74l.17,0c2.61-.42,4.41,1.6,4.75,3.95a43.54,43.54,0,0,1,.7,8.89C262.38,182.82,262.08,185.46,261.73,188.08Z"/><polygon class="cls-31" points="242.2 202.2 242.08 207.73 241.21 207.73 241.04 203.35 242.2 202.2"/><path class="cls-32" d="M234.46,206.44s-3.78,5.18-3.24,6,4.66,1,7.17,0,2.57-7.14,3.7-9.79c.48-1.12-.54-4.4-2-4.64a6.37,6.37,0,0,0-3.1.51S238.48,202.32,234.46,206.44Z"/><path class="cls-33" d="M233.31,208.88c.12.48,3.35.91,4.66-.32s2.33-4.8,2.45-7a14.36,14.36,0,0,0,0-2c0-.24.12-.71.24-1.34.09-.45.19-1,.3-1.57l-.06.33h-4.11c.06.85.12,1.6.16,2.22a30.62,30.62,0,0,1-.68,3.49,22.76,22.76,0,0,1-1.78,3.71v0A9.78,9.78,0,0,0,233.31,208.88Z"/><path class="cls-34" d="M256.9,73.79a9.16,9.16,0,0,1,1.33,7,12.05,12.05,0,0,1-4.29,6.77c-2.33,1.81-5,1.72-7.51.26a11.14,11.14,0,0,1-4-4.05c-3.53-5.95,1.89-14.46,8.76-13.58A8.12,8.12,0,0,1,256.9,73.79Z"/><path class="cls-35" d="M240.06,106.52c.22-2.33,5-12.92,5-12.92a16.86,16.86,0,0,0,2.14-.54,9.86,9.86,0,0,0,.13-3.44l4.92-4.9c-.58,5.37,1.58,7.29,1.58,7.29.77,0,3.27.17,4.41.32a5.84,5.84,0,0,1,1.85.56,2.77,2.77,0,0,1,1.4,3.15c-.83,3.31-2.56,10.71-2.69,15-.17,5.64,3.14,18.12,3.14,18.12l-20.38-.06a135.08,135.08,0,0,0,2.32-13.64C244.42,111.17,239.66,110.76,240.06,106.52Z"/><path class="cls-36" d="M239.6,106.52C239.82,104.19,245,94,245,94a3.11,3.11,0,0,1,2.44-.51s.65,5.07.65,5.07l4.81-5.74,2.36-.36c.77,0,1.78.12,2.92.27h.05v37.47A20.36,20.36,0,0,1,253,131.4a22.63,22.63,0,0,1-12.3-2.33c1.39-5.86,3.15-13.61,3.15-13.61C244.42,111.17,239.2,110.76,239.6,106.52Z"/><path class="cls-37" d="M252.75,135.31c-2.16-1.47-1.76-6.86-1.76-9.53l0-31.15c1.14-1.18,2.75-2.78,4.25-2.57.77,0,1.78.12,2.92.27a5.9,5.9,0,0,1,1.86.56A2.77,2.77,0,0,1,261.46,96c-.83,3.31-2.56,10.71-2.69,15-.17,5.64,5.45,21.35,5.45,21.35C261.91,133.27,255,136.84,252.75,135.31Z"/><path class="cls-38" d="M239.6,106.52c.22-2.33,5.43-12.92,5.43-12.92a2.94,2.94,0,0,1,2.32-.31c0,2-.18,5.61-.21,7.63l-.23,13.39c-.07,4.53-.51,9.79-.58,14.32,0,1.68.21,4.74-1.66,5.65-.62.31-5.44-1.4-5.38-1.64,1.39-5.64,3.1-16.78,3.1-16.78C243,111.58,239.2,110.76,239.6,106.52Z"/><path class="cls-39" d="M239.74,108.51a28.81,28.81,0,0,1,3.31,1.36,4,4,0,0,1,.55.34v0s12.69-10.2,17.08-12.11a1.87,1.87,0,0,0,.32-.15c-.62,2.62-1.41,6.25-1.87,9.43a51.74,51.74,0,0,1-4.13,3.25,36.38,36.38,0,0,1-8.05,4.34c-.17.06-3.33.58-3.33.57h0a3.64,3.64,0,0,1-1.21.15C242.74,112.3,240.39,111.1,239.74,108.51Z"/><path class="cls-40" d="M243,77.14c-.5,2.88-1.48,10,1.58,12.74,0,0,6.6.8,9.71-4.73S244.06,70.94,243,77.14Z"/><polygon class="cls-41" points="244.06 81 244.06 85.37 241.97 85.37 244.06 81"/><path class="cls-42" d="M246.67,73.81a3.27,3.27,0,0,0,1,3.21A44.44,44.44,0,0,0,252,80.86l1,2,1.67-3.76a7.77,7.77,0,0,0,2.11-1.2,7.7,7.7,0,0,0-1.4-5.57,5.38,5.38,0,0,0-4.79-1.67A4.63,4.63,0,0,0,246.67,73.81Z"/><path class="cls-43" d="M253,81.24s1.1-2.36,2.33-1.29.38,5.5-2.33,6.4Z"/><path class="cls-44" d="M248.12,98.54l-1.82-1.72,1-5.13S248.21,98.43,248.12,98.54Z"/><polygon class="cls-45" points="247.35 91.69 246.3 96.82 243.26 97.53 247.35 91.69"/><polygon class="cls-46" points="254.75 91.9 251.67 98.83 249.05 96.29 254.03 91.33 254.75 91.9"/><polygon class="cls-47" points="249.05 96.29 248.12 98.54 250.02 97.23 249.05 96.29"/><path class="cls-48" d="M247.71,116.78s2.73-1.69,2.86-1.81a36.16,36.16,0,0,0,5.77-7.1,51,51,0,0,0,3.52-6.61c.88-2,4-7.25-.79-8.55-1.07-.29-1.55.65-2.29,1.41-3.32,3.45-11.12,17.74-11.12,17.74A53.13,53.13,0,0,0,247.71,116.78Z"/><path class="cls-49" d="M224.52,123.36l-.47.37-.06,0-4.21,2.64a.69.69,0,0,1-.61,0L212.83,124a.71.71,0,0,1-.28-.21h0a.68.68,0,0,1,.32-1.07l.71-.22a.62.62,0,0,1,.38,0l2.18.78a.69.69,0,0,0,.47,0,34.53,34.53,0,0,1,6.18-2.34.67.67,0,0,1,.77.4Z"/><path class="cls-50" d="M248.94,115.73s0-4.84-4.05-3.93-11.37,4.59-22.89,8.8l2,3.86S246.53,119.88,248.94,115.73Z"/><path class="cls-51" d="M251,84.38l-1.88.79-.17-.41,1.88-.78a3,3,0,0,0,1.8-2.2l.05-1.61h.45l-.06,1.61A3.36,3.36,0,0,1,251,84.38Z"/><path class="cls-51" d="M249.82,84.62a.72.72,0,0,1-.5.85.7.7,0,0,1-.95-.24c-.13-.3.1-.68.5-.85A.71.71,0,0,1,249.82,84.62Z"/><path class="cls-52" d="M242.4,75.37a5.09,5.09,0,0,1,4.49-2.4,6.58,6.58,0,0,1,6,5.87l.87-.07s.06-3.92-2.65-5.85c-2-1.42-4.2-1.47-7.22-.15A8.15,8.15,0,0,0,242.4,75.37Z"/><path class="cls-53" d="M242.4,75.37s1.57-2.86,4.6-2.7a6.56,6.56,0,0,1,6,5.86l.87-.07s.06-3.92-2.65-5.85a6.48,6.48,0,0,0-5.47-1A4,4,0,0,0,243,73.85,10.58,10.58,0,0,0,242.4,75.37Z"/><path class="cls-52" d="M255.31,80a1.91,1.91,0,1,1-2.06-2.17A2.15,2.15,0,0,1,255.31,80Z"/><path class="cls-53" d="M255.85,79.93a1.92,1.92,0,1,1-2.06-2.18A2.14,2.14,0,0,1,255.85,79.93Z"/></g></g></g></svg>