<svg xmlns="http://www.w3.org/2000/svg" xmlns:xlink="http://www.w3.org/1999/xlink" viewBox="0 0 88.18 97.2"><defs><style>.cls-1{fill:url(#radial-gradient);}.cls-2{fill:url(#radial-gradient-2);}.cls-3{fill:url(#radial-gradient-3);}.cls-4{fill:url(#radial-gradient-4);}.cls-5{fill:url(#radial-gradient-5);}.cls-6{fill:url(#radial-gradient-6);}.cls-7{opacity:0.3;}.cls-8{fill:url(#radial-gradient-7);}.cls-9{fill:url(#radial-gradient-8);}.cls-10{fill:url(#radial-gradient-9);}.cls-11{fill:url(#radial-gradient-10);}.cls-12{fill:url(#radial-gradient-11);}.cls-13{fill:url(#radial-gradient-12);}.cls-14{fill:url(#radial-gradient-13);}.cls-15{fill:url(#radial-gradient-14);}.cls-16{fill:url(#radial-gradient-15);}.cls-17{fill:url(#radial-gradient-16);}.cls-18{fill:url(#radial-gradient-17);}.cls-19{fill:url(#radial-gradient-18);}.cls-20{opacity:0.6;}.cls-21{fill:url(#radial-gradient-19);}.cls-22{fill:url(#radial-gradient-20);}.cls-23{fill:url(#radial-gradient-21);}.cls-24{fill:url(#radial-gradient-22);}.cls-25{fill:url(#radial-gradient-23);}</style><radialGradient id="radial-gradient" cx="-1413.85" cy="778.33" r="7.36" gradientTransform="matrix(-0.67, 0.74, 0.74, 0.67, -1502.7, 556.77)" gradientUnits="userSpaceOnUse"><stop offset="0.03" stop-color="#e9e400"/><stop offset="1" stop-color="#eaca8e"/></radialGradient><radialGradient id="radial-gradient-2" cx="-1398.56" cy="787.82" r="7.07" xlink:href="#radial-gradient"/><radialGradient id="radial-gradient-3" cx="-1390.75" cy="825.21" r="10.31" xlink:href="#radial-gradient"/><radialGradient id="radial-gradient-4" cx="-1428.27" cy="830.35" r="12.62" xlink:href="#radial-gradient"/><radialGradient id="radial-gradient-5" cx="-1429.04" cy="791.16" r="5.07" xlink:href="#radial-gradient"/><radialGradient id="radial-gradient-6" cx="-1420.59" cy="843.81" r="5.01" xlink:href="#radial-gradient"/><radialGradient id="radial-gradient-7" cx="-1442.05" cy="820.61" r="7.44" xlink:href="#radial-gradient"/><radialGradient id="radial-gradient-8" cx="-1441.35" cy="796.65" r="4.48" xlink:href="#radial-gradient"/><radialGradient id="radial-gradient-9" cx="-1403.78" cy="779.55" r="5.16" xlink:href="#radial-gradient"/><radialGradient id="radial-gradient-10" cx="-1390.46" cy="794.61" r="4.49" xlink:href="#radial-gradient"/><radialGradient id="radial-gradient-11" cx="-1387.62" cy="815.09" r="6.75" xlink:href="#radial-gradient"/><radialGradient id="radial-gradient-12" cx="-1395.07" cy="838.66" r="7.56" xlink:href="#radial-gradient"/><radialGradient id="radial-gradient-13" cx="-1366.34" cy="830.35" r="5.46" xlink:href="#radial-gradient"/><radialGradient id="radial-gradient-14" cx="-1458.68" cy="821.36" r="4.15" xlink:href="#radial-gradient"/><radialGradient id="radial-gradient-15" cx="-1375.45" cy="792.4" r="2.8" xlink:href="#radial-gradient"/><radialGradient id="radial-gradient-16" cx="-1396.31" cy="769.53" r="2.83" xlink:href="#radial-gradient"/><radialGradient id="radial-gradient-17" cx="-1405.25" cy="851.94" r="2.33" xlink:href="#radial-gradient"/><radialGradient id="radial-gradient-18" cx="-1441.88" cy="780.13" r="2.56" xlink:href="#radial-gradient"/><radialGradient id="radial-gradient-19" cx="-1381.06" cy="807.61" r="14" xlink:href="#radial-gradient"/><radialGradient id="radial-gradient-20" cx="-1408.8" cy="830.48" r="8.92" xlink:href="#radial-gradient"/><radialGradient id="radial-gradient-21" cx="-1440.62" cy="807.98" r="8.67" xlink:href="#radial-gradient"/><radialGradient id="radial-gradient-22" cx="-1424.88" cy="779.2" r="4.25" xlink:href="#radial-gradient"/><radialGradient id="radial-gradient-23" cx="-1444.21" cy="838.11" r="2.84" xlink:href="#radial-gradient"/></defs><title>Asset 13</title><g id="Layer_2" data-name="Layer 2"><g id="Layer_1-2" data-name="Layer 1"><path class="cls-1" d="M29.6,26.69a.9.9,0,0,0-.06-1.25c-.34-.31-8.32-7.52-17.85-7.06a.89.89,0,1,0,.08,1.78c8.8-.43,16.49,6.52,16.57,6.59a.89.89,0,0,0,1.25-.06Z"/><path class="cls-2" d="M26.6,40.51a1,1,0,0,0,.21-.45.89.89,0,0,0-.74-1c-.52-.08-12.78-2-18,1.08a.87.87,0,0,0-.32,1.21.89.89,0,0,0,1.21.33c4.72-2.74,16.75-.88,16.87-.87A.87.87,0,0,0,26.6,40.51Z"/><path class="cls-3" d="M41.09,85.06a.92.92,0,0,0,.19-.86,51.9,51.9,0,0,1-1.15-26.11A.88.88,0,0,0,39.51,57a.88.88,0,0,0-1.09.62,52.69,52.69,0,0,0,1.15,27.11.9.9,0,0,0,1.12.58A1,1,0,0,0,41.09,85.06Z"/><path class="cls-4" d="M85.12,52.53a.88.88,0,0,0,0-1.2C71.83,37.2,52.9,40.53,52.72,40.56A.89.89,0,0,0,53,42.31c.18,0,18.17-3.17,30.78,10.24a.9.9,0,0,0,1.26,0Z"/><path class="cls-5" d="M39.78,26.37a.88.88,0,0,0,.2-.83h0s-.9-3.45,1.78-11.19a.89.89,0,0,0-1.68-.58c-2.9,8.38-1.86,12.11-1.82,12.26a.9.9,0,0,0,1.11.6A.77.77,0,0,0,39.78,26.37Z"/><path class="cls-6" d="M78.13,66.58a.81.81,0,0,0,.2-.39c.6-2.56-5.4-7.95-8-10.15a.86.86,0,0,0-1.25.11.89.89,0,0,0,.1,1.25c4.17,3.51,7.65,7.44,7.44,8.39a.86.86,0,0,0,.66,1.06A.88.88,0,0,0,78.13,66.58Z"/><g class="cls-7"><path class="cls-8" d="M80.47,29a.93.93,0,0,0,.19-.37A.89.89,0,0,0,80,27.53a22.62,22.62,0,0,0-19.09,3.12.91.91,0,0,0-.15,1.25.89.89,0,0,0,1.24.16,21.23,21.23,0,0,1,17.55-2.81A.9.9,0,0,0,80.47,29Z"/><path class="cls-9" d="M50.91,19.76a.88.88,0,0,0,.22-.55,14.9,14.9,0,0,1,3.93-8.91.92.92,0,0,0,0-1.26.9.9,0,0,0-1.26,0c-4.06,4-4.44,9.85-4.45,10.09a.89.89,0,0,0,1.55.64Z"/><path class="cls-10" d="M21.18,32.42a.82.82,0,0,0,.16-.25A.9.9,0,0,0,20.86,31c-.93-.38-9.18-3.71-12.79-1.61a.92.92,0,0,0-.32,1.22A.89.89,0,0,0,9,30.93c2.42-1.41,8.91.76,11.21,1.71A.87.87,0,0,0,21.18,32.42Z"/><path class="cls-11" d="M21.59,48.14a.89.89,0,0,0-1.17-1.32c-.74.5-7.21,5-8.33,7.22a.89.89,0,0,0,1.59.81c.67-1.33,5.12-4.74,7.75-6.57A.7.7,0,0,0,21.59,48.14Z"/><path class="cls-12" d="M29.09,75.47a.94.94,0,0,0,.22-.73C28.22,68,32.76,59.1,32.81,59a.89.89,0,0,0-1.58-.82c-.2.38-4.86,9.49-3.69,16.82a.89.89,0,0,0,1,.73A.86.86,0,0,0,29.09,75.47Z"/><path class="cls-13" d="M56.35,86.52a.81.81,0,0,0,.21-.5c.73-7.3-5.7-18.1-6-18.56a.9.9,0,0,0-1.22-.31.88.88,0,0,0-.31,1.22c.06.11,6.4,10.76,5.74,17.47a.89.89,0,0,0,1.55.68Z"/><path class="cls-14" d="M24.87,96.58c.59-1.09,1.51-3.88-2.73-6.16a.42.42,0,0,1-.17-.57.43.43,0,0,1,.57-.17c4.23,2.28,6.06,0,6.65-1.12a.42.42,0,0,1,.74.4c-.59,1.09-1.5,3.89,2.73,6.17a.4.4,0,0,1,.17.56.42.42,0,0,1-.56.18c-4.24-2.29-6.06,0-6.66,1.12a.43.43,0,0,1-.57.16A.43.43,0,0,1,24.87,96.58Z"/></g><path class="cls-15" d="M78.65,19c1-.37,3-1.61,1.65-5.34a.34.34,0,0,1,.2-.44.33.33,0,0,1,.45.2c1.4,3.72,3.79,3.28,4.76,2.91a.35.35,0,0,1,.44.21A.34.34,0,0,1,86,17c-1,.37-3,1.61-1.63,5.34a.36.36,0,0,1-.21.45.36.36,0,0,1-.45-.2c-1.41-3.73-3.8-3.29-4.76-2.92a.37.37,0,0,1-.45-.2A.36.36,0,0,1,78.65,19Z"/><path class="cls-16" d="M2.35,60.51c.78,0,2.57-.42,2.47-3.42a.26.26,0,0,1,.52,0c.11,3,1.92,3.27,2.7,3.24a.27.27,0,0,1,.27.26.25.25,0,0,1-.26.26c-.77,0-2.56.42-2.46,3.42a.27.27,0,0,1-.25.28.26.26,0,0,1-.27-.26C5,61.27,3.14,61,2.37,61a.28.28,0,0,1-.28-.25A.27.27,0,0,1,2.35,60.51Z"/><path class="cls-17" d="M.08,31.12c.52-.38,1.54-1.49.05-3.46a.22.22,0,0,1,0-.31.23.23,0,0,1,.31,0c1.49,2,2.84,1.29,3.35.9a.21.21,0,0,1,.29,0,.22.22,0,0,1,0,.31c-.51.38-1.54,1.49,0,3.47a.22.22,0,0,1,0,.3.23.23,0,0,1-.31,0c-1.49-2-2.84-1.27-3.34-.9a.21.21,0,0,1-.31,0A.22.22,0,0,1,.08,31.12Z"/><path class="cls-18" d="M67.12,77.8c.64,0,2.14-.11,2.33-2.57a.22.22,0,0,1,.23-.2.21.21,0,0,1,.2.23c-.19,2.47,1.27,2.84,1.91,2.89a.21.21,0,0,1,.2.23.21.21,0,0,1-.24.2c-.62,0-2.13.11-2.32,2.58a.2.2,0,0,1-.23.19.21.21,0,0,1-.19-.23c.18-2.47-1.28-2.84-1.92-2.89a.22.22,0,1,1,0-.43Z"/><path class="cls-19" d="M38.1,3.59c.6-.22,1.91-1,1.07-3.3A.21.21,0,0,1,39.3,0a.22.22,0,0,1,.27.13C40.42,2.47,41.9,2.21,42.5,2a.22.22,0,0,1,.15.41c-.6.22-1.91,1-1.07,3.3a.2.2,0,0,1-.13.27.2.2,0,0,1-.27-.12C40.33,3.52,38.85,3.77,38.25,4a.21.21,0,0,1-.15-.4Z"/><g class="cls-20"><path class="cls-21" d="M12.18,83.76a1,1,0,0,0,.21-.43c4.17-21.76,17.35-32.15,17.49-32.25A.88.88,0,0,0,30,49.84a.89.89,0,0,0-1.24-.17C28.23,50.1,14.94,60.53,10.64,83a.9.9,0,0,0,1.54.77Z"/><path class="cls-22" d="M62.25,71.75a.83.83,0,0,0,.22-.57C62.82,60,51,51,50.54,50.66a.89.89,0,1,0-1.07,1.42c.11.08,11.54,8.83,11.23,19a.89.89,0,0,0,1.55.62Z"/><path class="cls-23" d="M70,16.55a.88.88,0,0,0,.17-.87.89.89,0,0,0-1.12-.58A38.11,38.11,0,0,0,50.63,28.71a.89.89,0,0,0,1.48,1A37,37,0,0,1,69.6,16.79.86.86,0,0,0,70,16.55Z"/><path class="cls-24" d="M30.48,20.18a.87.87,0,0,0,.23-.64c0-.28-.46-6.87-3.22-9.67a.9.9,0,0,0-1.26,0,.92.92,0,0,0,0,1.26c1.9,1.93,2.6,6.81,2.71,8.53a.89.89,0,0,0,.94.83A.85.85,0,0,0,30.48,20.18Z"/><path class="cls-25" d="M82.29,40.23c.76-.15,2.46-.82,1.9-3.76a.25.25,0,0,1,.2-.31.26.26,0,0,1,.31.21c.57,2.94,2.4,2.92,3.17,2.78a.25.25,0,0,1,.3.2.25.25,0,0,1-.21.31c-.75.15-2.47.81-1.9,3.76a.26.26,0,1,1-.52.1c-.56-3-2.4-2.93-3.16-2.78a.28.28,0,0,1-.31-.21A.25.25,0,0,1,82.29,40.23Z"/></g></g></g></svg>