<svg xmlns="http://www.w3.org/2000/svg" viewBox="0 0 311.28 264.39"><defs><style>.cls-1{fill:#ebf6ff;}.cls-2{fill:#c4e4ff;}.cls-12,.cls-3{fill:#fff;}.cls-4{fill:#88c9ff;}.cls-5{fill:#d8edff;}.cls-6{fill:#213f70;}.cls-7{fill:#ffc500;}.cls-8{fill:#1a2e35;}.cls-9{fill:#ffd3d2;}.cls-10{fill:#314349;}.cls-11{fill:#ffdddc;}.cls-12{opacity:0.6;}</style></defs><title>Asset 11</title><g id="Layer_2" data-name="Layer 2"><g id="Layer_1-2" data-name="Layer 1"><path class="cls-1" d="M45.59,240.58c60.78,31.75,159.33,31.75,220.11,0s60.78-83.24,0-115-159.33-31.75-220.11,0S-15.2,208.83,45.59,240.58Z"/><ellipse class="cls-2" cx="206.5" cy="235.8" rx="22.25" ry="10.6"/><path class="cls-3" d="M223.32,33.19a.57.57,0,0,1-.25-.06L221,32a.5.5,0,1,1,.5-.86l2,1.18a.49.49,0,0,1-.25.92Z"/><path class="cls-4" d="M91.54,76.2V184.14c0,1.2.84,1.69,1.88,1.09l125.89-72.68a4.2,4.2,0,0,0,1.89-3.27V1.35c0-1.21-.85-1.69-1.89-1.09L93.42,72.94A4.16,4.16,0,0,0,91.54,76.2Z"/><path class="cls-5" d="M106.27,96.15c0,3.75,2.81,5.18,6.28,3.17L212.36,41.7V28.09L112.55,85.71C109.08,87.72,106.27,92.39,106.27,96.15Z"/><path class="cls-6" d="M220.81,23.21c3.47-2,6.28-.58,6.28,3.18s-2.81,8.43-6.28,10.43l-8.45,4.88V28.09Z"/><path class="cls-3" d="M217.8,34.68a2,2,0,0,1-1-.26A2.6,2.6,0,0,1,215.63,32a7.11,7.11,0,0,1,3.27-5.65,2.32,2.32,0,0,1,3.76,2.17,7.11,7.11,0,0,1-3.27,5.65A3.19,3.19,0,0,1,217.8,34.68Zm2.69-7.8a2.3,2.3,0,0,0-1.1.35,6.25,6.25,0,0,0-2.77,4.8,1.37,1.37,0,0,0,2.28,1.32,6.25,6.25,0,0,0,2.77-4.8A1.67,1.67,0,0,0,221,27,1.06,1.06,0,0,0,220.49,26.88Z"/><path class="cls-7" d="M222.26,53l-96.42,55.67a4.17,4.17,0,0,0-1.89,3.26v29.68c0,1.2.85,1.69,1.89,1.08L222.26,87a4.19,4.19,0,0,0,1.88-3.27V54.09C224.14,52.88,223.3,52.4,222.26,53Z"/><path class="cls-5" d="M222.26,53l-96.42,55.67a4.17,4.17,0,0,0-1.89,3.26v29.68c0,1.2.85,1.69,1.89,1.08L222.26,87a4.19,4.19,0,0,0,1.88-3.27V54.09C224.14,52.88,223.3,52.4,222.26,53Z"/><path class="cls-3" d="M160.88,93.37l17.49-10.1c.87-.5,1.57-.14,1.57.8a3.38,3.38,0,0,1-1.57,2.61L160.88,96.77c-.86.5-1.57.15-1.57-.79A3.39,3.39,0,0,1,160.88,93.37Z"/><path class="cls-3" d="M159.31,102.78c0,.94.71,1.3,1.57.8l52.85-30.52a3.34,3.34,0,0,0,1.57-2.6c0-.94-.7-1.3-1.57-.8l-52.85,30.51A3.39,3.39,0,0,0,159.31,102.78Z"/><path class="cls-3" d="M159.31,109.59c0,.94.71,1.29,1.57.79l52.85-30.51a3.36,3.36,0,0,0,1.57-2.61c0-.94-.7-1.29-1.57-.79L160.88,107A3.39,3.39,0,0,0,159.31,109.59Z"/><path class="cls-3" d="M159.31,116.39c0,.94.71,1.3,1.57.79l52.85-30.51a3.36,3.36,0,0,0,1.57-2.6c0-.94-.7-1.3-1.57-.8l-52.85,30.51A3.39,3.39,0,0,0,159.31,116.39Z"/><path class="cls-3" d="M128.78,110.37l22.76-13.14c1-.6,1.88-.11,1.88,1.09v22.87a4.16,4.16,0,0,1-1.88,3.26l-22.76,13.14c-1,.6-1.88.11-1.88-1.09V113.63A4.16,4.16,0,0,1,128.78,110.37Z"/><path class="cls-7" d="M222.26,97.23,125.84,152.9a4.17,4.17,0,0,0-1.89,3.27v29.67c0,1.2.85,1.69,1.89,1.09l96.42-55.67a4.16,4.16,0,0,0,1.88-3.26V98.32C224.14,97.12,223.3,96.63,222.26,97.23Z"/><path class="cls-5" d="M222.26,97.23,125.84,152.9a4.17,4.17,0,0,0-1.89,3.27v29.67c0,1.2.85,1.69,1.89,1.09l96.42-55.67a4.16,4.16,0,0,0,1.88-3.26V98.32C224.14,97.12,223.3,96.63,222.26,97.23Z"/><path class="cls-3" d="M160.88,137.6l17.49-10.09c.87-.5,1.57-.15,1.57.79a3.36,3.36,0,0,1-1.57,2.61L160.88,141c-.86.5-1.57.14-1.57-.8A3.39,3.39,0,0,1,160.88,137.6Z"/><path class="cls-3" d="M159.31,147c0,.94.71,1.29,1.57.79l52.85-30.51a3.36,3.36,0,0,0,1.57-2.61c0-.94-.7-1.29-1.57-.79l-52.85,30.51A3.39,3.39,0,0,0,159.31,147Z"/><path class="cls-3" d="M159.31,153.82c0,.94.71,1.3,1.57.8l52.85-30.52a3.34,3.34,0,0,0,1.57-2.6c0-.94-.7-1.3-1.57-.8l-52.85,30.51A3.39,3.39,0,0,0,159.31,153.82Z"/><path class="cls-3" d="M159.31,160.63c0,.93.71,1.29,1.57.79l52.85-30.51a3.36,3.36,0,0,0,1.57-2.61c0-.94-.7-1.3-1.57-.79L160.88,158A3.39,3.39,0,0,0,159.31,160.63Z"/><path class="cls-3" d="M128.78,154.6l22.76-13.13c1-.6,1.88-.12,1.88,1.09v22.86a4.16,4.16,0,0,1-1.88,3.27l-22.76,13.14c-1,.6-1.88.11-1.88-1.09V157.87A4.17,4.17,0,0,1,128.78,154.6Z"/><path class="cls-6" d="M221.2,6V1.35c0-1.21-.85-1.69-1.89-1.09L93.42,72.94a4.16,4.16,0,0,0-1.88,3.26v4.63Z"/><g id="_Group_" data-name="&lt;Group&gt;"><path class="cls-5" d="M205.76,9.86a3.08,3.08,0,0,0-1.4,2.42c0,.89.62,1.25,1.4.81a3.09,3.09,0,0,0,1.39-2.42C207.15,9.78,206.53,9.41,205.76,9.86Z"/></g><g id="_Group_2" data-name="&lt;Group&gt;"><path class="cls-5" d="M211.3,6.66a3.08,3.08,0,0,0-1.39,2.42c0,.89.62,1.25,1.39.81a3.08,3.08,0,0,0,1.4-2.42C212.7,6.57,212.08,6.21,211.3,6.66Z"/></g><g id="_Group_3" data-name="&lt;Group&gt;"><path class="cls-5" d="M216.85,3.46a3.09,3.09,0,0,0-1.4,2.42c0,.89.63,1.25,1.4.8a3.09,3.09,0,0,0,1.4-2.42C218.25,3.37,217.62,3,216.85,3.46Z"/></g><g id="_Group_4" data-name="&lt;Group&gt;"><g id="_Group_5" data-name="&lt;Group&gt;"><path class="cls-8" d="M223.21,231a7.56,7.56,0,0,1,.45,1.73,3.88,3.88,0,0,1,.13,1.91,3.75,3.75,0,0,1-2.15,1.68,4.8,4.8,0,0,1-3.8-.73,15.68,15.68,0,0,0-4.2-2.29,9.39,9.39,0,0,1-3.71-1.69c-1.05-.83-2.44-3.15-.45-3.69s6.35,1.36,10.29,1.53Z"/></g></g><g id="_Group_6" data-name="&lt;Group&gt;"><path class="cls-9" d="M223,228.41s.23,2.77.23,3.11c0,.93-3.45,2.19-4.09,0l-.55-3Z"/></g><path class="cls-10" d="M218.78,167.6A55.71,55.71,0,0,1,222,173s.34,4,.34,6.72c0,4.93-.76,8.74-1.46,18.46a13.83,13.83,0,0,1,1.87,6.28c.29,4.41.29,4.38.32,24.67a5.61,5.61,0,0,1-4.32.42l-6.55-28.44L211.53,190l-2.05-13.88Z"/><g id="_Group_7" data-name="&lt;Group&gt;"><g id="_Group_8" data-name="&lt;Group&gt;"><path class="cls-8" d="M203.33,236.1c.23.24.15.7.26,1.53a6.74,6.74,0,0,1,.1,1.86,3.81,3.81,0,0,1-1.93,1.94,4.82,4.82,0,0,1-3.86-.26,15.32,15.32,0,0,0-4.46-1.74,9.55,9.55,0,0,1-3.89-1.22c-1.14-.7-2.81-2.82-.9-3.6s6.71.63,10.65.31Z"/></g></g><g id="_Group_9" data-name="&lt;Group&gt;"><path class="cls-9" d="M204.24,232.62s-.74,3.16-.92,3.87c-.44,1.69-4.19,1.78-4.19-.18l.25-4.49Z"/></g><path class="cls-10" d="M210.31,168.44c1.89,3.68,3.7,6.94,3.76,10.88.13,8.32-3.32,17.48-4.59,23.5a26.73,26.73,0,0,1,.32,6.6c-.25,2.51-6,25.37-6,25.37s-3.19.66-4.55-.77L200.87,190l.44-12.79Z"/><g id="_Group_10" data-name="&lt;Group&gt;"><polygon class="cls-11" points="207.73 145.92 208.92 152.46 214.83 152.03 213.59 144.61 207.73 145.92"/></g><g id="_Group_11" data-name="&lt;Group&gt;"><path class="cls-6" d="M221.08,151.55c-.59-1.78-2.84-3.71-5.1-3.29a65.79,65.79,0,0,0-9.9,2.47c-2.07.74-4,2.52-4.12,9.33l-.65,17.12a7.35,7.35,0,0,0,3.12,1.65,17.11,17.11,0,0,0,10,.34c6.22-1.36,7.7-5.12,7.7-5.12s-.24-9.06-.42-14C221.54,155.87,221.48,152.77,221.08,151.55Z"/></g><path class="cls-8" d="M205.21,137.55l-30.14-8.18c-2.73-.46-3.87,6.19-1.14,6.66l31,3.13Z"/><path class="cls-11" d="M196.54,151.36l-6.16.19s.93-9.16,1.5-10.36,2-1.45,3.31-1.84,1.36-1,1.36-1l-1.23-.12a1.6,1.6,0,0,1-1-2.36c.22-.42.58-1.08,1.23-.91l1.63.44a3.76,3.76,0,0,0-.52-2c-.54-.6-.9-.41-2-.79a5.73,5.73,0,0,0-3.78-.24c-1.33.55-2.34,3-2.67,4.8a30.39,30.39,0,0,1-1.67,6,65.35,65.35,0,0,0-3.09,12.65c-.08,1.24,0,2,1.42,2.31s11.51.35,11.51.35Z"/><g id="_Group_12" data-name="&lt;Group&gt;"><path class="cls-11" d="M203.35,138.16s-1.43,2.12-1.25,2.35a3.6,3.6,0,0,0,1.08.47Z"/></g><g id="_Group_13" data-name="&lt;Group&gt;"><path class="cls-11" d="M207.73,131.44c-1.38.7-3.76,2-4.42,7s.21,6.85.92,7.54c.47.46,3,.49,4.33.1,1.61-.48,5.25-1.86,6.91-4.52,1.95-3.14,2.39-7.33.18-9A8.26,8.26,0,0,0,207.73,131.44Z"/></g><path class="cls-8" d="M211.78,194l3.14-8.88a15.52,15.52,0,0,0,6.35-4.23s-.7,2.53-5.69,5.13l-3.44,8.4,0,4.67Z"/><g id="_Group_14" data-name="&lt;Group&gt;"><g id="_Group_15" data-name="&lt;Group&gt;"><path class="cls-8" d="M203,133.18c.46,1.24,1.22,4.28,4.4,5.55,0,0,.45-1.94,2.08-1.73s1.91,2.29.91,3.57-2,.83-2,.83-.22,2.78,1.64,4a5.19,5.19,0,0,0,4.61.33c1.07-.49,2.58-3.05,3.47-5.15,1.88-4.44,2.14-8-.69-9.12a3.37,3.37,0,0,0-3.09-3.16c-3.93-.81-6.9,1.77-10.21,1.32C202.44,129.42,202.51,131.75,203,133.18Z"/></g></g><g id="_Group_16" data-name="&lt;Group&gt;"><g id="_Group_17" data-name="&lt;Group&gt;"><path class="cls-8" d="M217.52,132.17l1.86-1.15a1.09,1.09,0,0,0-1.86,1.15Z"/></g></g><path class="cls-6" d="M195.16,151.24s8.67-.5,10.92-.51,4.57,3.76,3.18,6.33c-.91,1.7-3.76,2.28-7.35,2.45s-7.22.17-7.22.17S191.43,156,195.16,151.24Z"/><path class="cls-10" d="M202,159.51s5.5-.07,7.29-2.45a4.28,4.28,0,0,1-2.55,2.35,16.07,16.07,0,0,1-4.77,1Z"/><path class="cls-6" d="M175.07,129.37c-2.73-.46-3.87,6.19-1.14,6.66l4.32.43c-1.77-.18-.54-6.37.81-6h0Z"/><path class="cls-6" d="M284.84,127.6a6.72,6.72,0,0,1-11.64,4.57l-.44-.54h0a6.72,6.72,0,0,1,10.31-8.6l.45.55a0,0,0,0,1,0,0A6.73,6.73,0,0,1,284.84,127.6Z"/><path class="cls-6" d="M284.84,127.6a6.72,6.72,0,0,1-11.64,4.57l-.44-.54h0l-28-33.77L256.56,91l26.49,32,.45.55a0,0,0,0,1,0,0A6.73,6.73,0,0,1,284.84,127.6Z"/><path class="cls-7" d="M261.7,118.28A6.72,6.72,0,0,0,272,109.69h0l-3.46-4.17h0a6.72,6.72,0,0,1-10.31,8.59Z"/><path class="cls-8" d="M256.12,37.93a15.56,15.56,0,0,1,6,2l-8.51-5h0c-5.71-3.92-13.93-3.69-23.06,1.58-17.25,10-31.23,34.19-31.23,54.1,0,9.79,3.33,16.78,8.82,20.11l.12.07,9.08,5.23a15.61,15.61,0,0,1-4.14-3.94,20.25,20.25,0,0,0,6.69-.38c.8-.18,1.61-.39,2.42-.65-.1,0-.21-.07-.31-.12a8.46,8.46,0,0,1-1.24-.71,8.86,8.86,0,0,1-1.89-1.79,12.6,12.6,0,0,1-1.77-3.08,12.27,12.27,0,0,1-1.79.13,9.71,9.71,0,0,1-4.1-.82,8.18,8.18,0,0,1-.88-.47q-.39-.25-.75-.54a34.59,34.59,0,0,1-.76-7.47c0-19.92,14-44.14,31.24-54.1A34.87,34.87,0,0,1,247,39,7.88,7.88,0,0,1,248.85,40a8.74,8.74,0,0,1,1.59,1.57,12.76,12.76,0,0,1,1.78,3.08,13.8,13.8,0,0,1,1.79-.12,9.25,9.25,0,0,1,4.7,1.14,7.74,7.74,0,0,1,1,.68c-.13-.58-.27-1.15-.44-1.7A20.58,20.58,0,0,0,256.12,37.93Z"/><path class="cls-6" d="M262.12,39.89c-.16-.1-.33-.19-.49-.27a15.55,15.55,0,0,0-5.51-1.69,20.16,20.16,0,0,0-6.19.28c-1,.19-1.91.44-2.9.74a34.87,34.87,0,0,0-7,3.13c-17.26,10-31.24,34.18-31.24,54.1a34.59,34.59,0,0,0,.76,7.47c.09.44.2.86.31,1.29a21.12,21.12,0,0,0,3.31,7.14,15.75,15.75,0,0,0,2.35,2.59,15.26,15.26,0,0,0,1.79,1.35c5.69,3.67,13.76,3.36,22.71-1.81,17.25-9.95,31.24-34.18,31.24-54.1C271.29,50.13,267.78,43.13,262.12,39.89Zm-3.41,5.79a7.74,7.74,0,0,1,1,.68,10.49,10.49,0,0,1,1.49,1.49c2.17,2.73,3.32,7,3.32,12.26,0,17.44-12.76,39.55-27.88,48.28a21.94,21.94,0,0,1-10.58,3.36,9.73,9.73,0,0,1-3.79-.7c-.1,0-.21-.07-.31-.12a8.46,8.46,0,0,1-1.24-.71,7.94,7.94,0,0,1-1.35-1.18h0c-.18-.19-.36-.4-.53-.61a12.6,12.6,0,0,1-1.77-3.08,24.1,24.1,0,0,1-1.56-9.17c0-.23,0-.46,0-.7.32-17.33,12.95-39,27.86-47.58l1-.57a23.07,23.07,0,0,1,7.76-2.67,13.8,13.8,0,0,1,1.79-.12,9.82,9.82,0,0,1,3.77.69A8,8,0,0,1,258.71,45.68Z"/><path class="cls-10" d="M264.56,60.11c0,17.44-12.76,39.55-27.88,48.28a29.06,29.06,0,0,1-2.82,1.45h0a19.21,19.21,0,0,1-7.74,1.9,9.73,9.73,0,0,1-3.79-.7c-.1,0-.21-.07-.31-.12a8.46,8.46,0,0,1-1.24-.71,8.86,8.86,0,0,1-1.89-1.79c-.19-.25-.38-.5-.56-.78.34,0,.7,0,1.06,0A21.93,21.93,0,0,0,230,104.33c15.12-8.73,27.88-30.84,27.88-48.28,0-4.79-.95-8.72-2.76-11.45a8.47,8.47,0,0,1,3.64,1.08,7.74,7.74,0,0,1,1,.68,10.49,10.49,0,0,1,1.49,1.49c1.91,2.41,3,6,3.27,10.4C264.54,58.85,264.56,59.48,264.56,60.11Z"/><path class="cls-12" d="M261.65,58.1c0,17.44-12.77,39.55-27.88,48.28a22,22,0,0,1-10.58,3.36,9.61,9.61,0,0,1-3.78-.7h0c-.18-.19-.36-.4-.53-.61a12.6,12.6,0,0,1-1.77-3.08,24.1,24.1,0,0,1-1.56-9.17c0-.23,0-.46,0-.7.32-17.33,12.95-39,27.86-47.58l1-.57a23.07,23.07,0,0,1,7.76-2.67,13.8,13.8,0,0,1,1.79-.12,9.82,9.82,0,0,1,3.77.69,6.48,6.48,0,0,1,.54.62C260.5,48.58,261.65,52.82,261.65,58.1Z"/></g></g></svg>