<svg xmlns="http://www.w3.org/2000/svg" viewBox="0 0 292.61 250.5"><defs><style>.cls-1{isolation:isolate;}.cls-2{fill:#c4e4ff;}.cls-3{fill:#88c9ff;}.cls-4{fill:#999;}.cls-25,.cls-5{opacity:0.5;}.cls-6,.cls-9{opacity:0.3;}.cls-7{opacity:0.7;}.cls-19,.cls-8{fill:#ebf6ff;}.cls-15,.cls-9{fill:#1a2e35;}.cls-10{opacity:0.1;}.cls-11,.cls-21{opacity:0.4;}.cls-12{opacity:0.45;}.cls-13{fill:#9cd2ff;}.cls-14{fill:#213f70;}.cls-16{fill:#314349;}.cls-17{fill:#ffc500;}.cls-18{fill:#d8edff;}.cls-19{stroke:#b4ddff;stroke-miterlimit:10;stroke-width:0.49px;}.cls-20{fill:#b4ddff;}.cls-21{fill:#fff;}.cls-22{opacity:0.2;}.cls-23{fill:#ffd3d2;}.cls-24{fill:#ffdddc;}.cls-25{mix-blend-mode:multiply;}.cls-26{opacity:0.15;}</style></defs><title>Asset 8</title><g class="cls-1"><g id="Layer_2" data-name="Layer 2"><g id="Layer_1-2" data-name="Layer 1"><ellipse id="Floor" class="cls-2" cx="146.31" cy="156.66" rx="146.31" ry="93.84"/><path id="Shadow" class="cls-3" d="M57,182.2l76.63,44.24a6,6,0,0,0,5.41,0l126.29-72.7c1.5-.86,1.5-2.26,0-3.12l-76.63-44.24a6,6,0,0,0-5.4,0L57,179.08C55.47,179.94,55.47,181.33,57,182.2Z"/><ellipse id="Shadow-2" data-name="Shadow" class="cls-3" cx="211.9" cy="207.81" rx="31.96" ry="18.45"/><g id="Laptop"><path id="_Path_" data-name="&lt;Path&gt;" class="cls-4" d="M63.46,175.21a6.57,6.57,0,0,0,3.06,5.08l66.62,38.47a6.74,6.74,0,0,0,6.12,0L256.58,151a5.75,5.75,0,0,0,0-10.16L190,102.39a6.8,6.8,0,0,0-6.12,0L66.52,170.13A6.55,6.55,0,0,0,63.46,175.21Z"/><path id="_Path_2" data-name="&lt;Path&gt;" class="cls-5" d="M259.64,146a6.57,6.57,0,0,1-3.06,5.08L139.26,218.76a6.2,6.2,0,0,1-3,.73v-6.62a6.2,6.2,0,0,0,3-.74L256.58,144.4c1.48-.85,1.67-2.17.56-3.14A6.54,6.54,0,0,1,259.64,146Z"/><path id="_Path_3" data-name="&lt;Path&gt;" class="cls-6" d="M67.15,173.66l66.62,38.47a6.74,6.74,0,0,0,6.12,0L257.21,144.4c1.69-1,1.69-2.56,0-3.53l-66.63-38.48a6.8,6.8,0,0,0-6.12,0L67.15,170.13C65.46,171.1,65.46,172.68,67.15,173.66Z"/><path id="_Path_4" data-name="&lt;Path&gt;" class="cls-7" d="M136.21,212.87v6.62a6.21,6.21,0,0,1-3.06-.73L66.52,180.29a5.74,5.74,0,0,1-.31-10c-1.37,1-1.27,2.43.31,3.34l66.63,38.47A6.21,6.21,0,0,0,136.21,212.87Z"/><path id="_Path_5" data-name="&lt;Path&gt;" class="cls-4" d="M60.59,170.24c-1.58-.92-1.5-2.47-1.5-4.42v-92a6.76,6.76,0,0,1,3.06-5.3L179.47.77A6.53,6.53,0,0,1,185.4.66c1.58.91,1.5,2.46,1.5,4.41v92a6.76,6.76,0,0,1-3.06,5.3L66.52,170.13A6.59,6.59,0,0,1,60.59,170.24Z"/><path id="_Path_6" data-name="&lt;Path&gt;" class="cls-6" d="M186.9,5.07c0-1.95-1.37-2.74-3.06-1.77L66.52,71a6.1,6.1,0,0,0-2.16,2.28L60,70.78h0a6.18,6.18,0,0,1,2.16-2.28L179.47.77A6.53,6.53,0,0,1,185.4.66C187,1.57,186.9,3.12,186.9,5.07Z"/><path id="_Path_7" data-name="&lt;Path&gt;" class="cls-5" d="M63.46,76.34v92c0,1.95,1.37,2.74,3.06,1.77l117.32-67.74a6.76,6.76,0,0,0,3.06-5.3v-92c0-1.95-1.37-2.74-3.06-1.77L66.52,71A6.74,6.74,0,0,0,63.46,76.34Z"/><path id="_Path_8" data-name="&lt;Path&gt;" class="cls-7" d="M66.16,170.31a6.56,6.56,0,0,1-5.57-.08c-1.58-.91-1.5-2.46-1.5-4.41v-92a6.13,6.13,0,0,1,.9-3l4.37,2.52h0a6.3,6.3,0,0,0-.9,3v92C63.46,170.17,64.64,171,66.16,170.31Z"/><path id="_Path_9" data-name="&lt;Path&gt;" class="cls-8" d="M68.17,74.57,181.28,9.28c1-.59,1.83-.11,1.83,1.06V90.67a4.06,4.06,0,0,1-1.83,3.18L68.17,159.14c-1,.58-1.84.11-1.84-1.06V77.75A4,4,0,0,1,68.17,74.57Z"/><path id="_Path_10" data-name="&lt;Path&gt;" class="cls-9" d="M75,170.31l108.89-62.87a3.37,3.37,0,0,1,3.06,0l1.82,1a.94.94,0,0,1,0,1.77L79.85,173.06a3.37,3.37,0,0,1-3.06,0l-1.8-1A.93.93,0,0,1,75,170.31Z"/><g id="_Group_" data-name="&lt;Group&gt;"><path id="_Path_11" data-name="&lt;Path&gt;" class="cls-9" d="M83.53,175.39l108.89-62.88a3.17,3.17,0,0,1,2.8-.15l28.34,16.37c.7.4.58,1.12-.26,1.61L114.53,193.13a3.16,3.16,0,0,1-2.8.15L83.27,177C82.57,176.59,82.69,175.87,83.53,175.39Z"/><path id="_Compound_Path_" data-name="&lt;Compound Path&gt;" class="cls-4" d="M177.89,138.92l3.41-2c.14-.08.16-.21,0-.28l-3.26-1.89a.59.59,0,0,0-.5,0l-3.41,2c-.14.08-.16.21,0,.28l3.26,1.89A.59.59,0,0,0,177.89,138.92Zm-5-6.81-3.41,2c-.14.08-.16.21,0,.28l3.26,1.89a.59.59,0,0,0,.5,0l3.41-2c.14-.08.16-.21,0-.28l-3.26-1.89A.59.59,0,0,0,172.91,132.11Zm-11,6.36-5.76,3.33c-.15.08-.16.21,0,.29l3.26,1.88a.53.53,0,0,0,.49,0l5.77-3.33c.15-.08.16-.21,0-.28l-3.26-1.89A.59.59,0,0,0,161.89,138.47Zm6-3.48-3.41,2c-.15.08-.16.21,0,.28l3.26,1.88a.55.55,0,0,0,.5,0l3.4-2c.15-.08.16-.21,0-.29L168.42,135A.53.53,0,0,0,167.93,135Zm-13.38,7.72-3.41,2c-.14.08-.16.21,0,.28l3.26,1.89a.59.59,0,0,0,.5,0l3.41-2c.14-.08.16-.21,0-.28l-3.26-1.89A.59.59,0,0,0,154.55,142.71Zm-5,2.88-3.41,2c-.15.08-.16.21,0,.28l3.26,1.88a.55.55,0,0,0,.5,0l3.41-2c.14-.08.15-.21,0-.29l-3.27-1.88A.53.53,0,0,0,149.57,145.59Zm12.78,7.68,3.41-2c.15-.08.16-.21,0-.28l-3.26-1.89a.56.56,0,0,0-.49,0l-3.41,2c-.15.08-.16.21,0,.28l3.26,1.89A.56.56,0,0,0,162.35,153.27Zm-5,2.88,3.41-2c.14-.08.16-.21,0-.29L157.55,152a.55.55,0,0,0-.5,0l-3.41,2c-.14.08-.16.21,0,.28l3.27,1.89A.56.56,0,0,0,157.37,156.15Zm-5,2.88,3.41-2c.14-.09.15-.21,0-.29l-3.27-1.88a.53.53,0,0,0-.49,0l-3.41,2c-.15.09-.16.21,0,.29l3.26,1.88A.55.55,0,0,0,152.39,159Zm-5,2.87,3.41-2c.15-.08.16-.21,0-.28l-3.26-1.89a.56.56,0,0,0-.49,0l-3.41,2c-.15.08-.16.21,0,.29l3.26,1.88A.53.53,0,0,0,147.4,161.9Zm25.51-20.1,3.4-2c.15-.08.16-.21,0-.29l-3.26-1.88a.53.53,0,0,0-.49,0l-3.41,2c-.15.08-.16.21,0,.28l3.26,1.89A.59.59,0,0,0,172.91,141.8Zm-5.57,8.59,7.6-4.39c.15-.08.16-.21,0-.28l-7.92-4.58a.59.59,0,0,0-.5,0l-3.93,2.27c-.14.09-.16.21,0,.29l4.2,2.42c.12.07.11.2,0,.28l-3.15,1.82c-.15.09-.16.21,0,.29l3.26,1.88A.52.52,0,0,0,167.34,150.39Zm-22.75-1.93-3.41,2c-.15.09-.16.21,0,.29l3.26,1.88a.5.5,0,0,0,.49,0l3.41-2c.15-.09.16-.22,0-.29l-3.26-1.88A.53.53,0,0,0,144.59,148.46Zm-5,2.88-3.41,2c-.14.08-.16.21,0,.29l3.27,1.88a.53.53,0,0,0,.49,0l3.41-2c.14-.08.16-.21,0-.28l-3.26-1.89A.59.59,0,0,0,139.6,151.34ZM112,182.06a.56.56,0,0,0,.49,0l3.41-2c.15-.08.16-.21,0-.28l-3.26-1.89a.59.59,0,0,0-.5,0l-3.41,2c-.14.08-.15.21,0,.28Zm-12.29-7.7-3.41,2c-.15.08-.16.21,0,.28l3.26,1.88a.55.55,0,0,0,.5,0l3.41-2c.14-.08.15-.21,0-.29l-3.26-1.88A.53.53,0,0,0,99.74,174.36Zm6.32,5.76a.53.53,0,0,0,.49,0l3.41-2c.15-.08.16-.21,0-.29L106.73,176a.55.55,0,0,0-.5,0l-3.41,2c-.14.08-.15.21,0,.28Zm13.74,3.1,3.41-2c.15-.09.16-.21,0-.29L120,179.08a.53.53,0,0,0-.49,0l-3.41,2c-.15.08-.16.21,0,.28l3.26,1.88A.53.53,0,0,0,119.8,183.22Zm-5.47,2.89a.5.5,0,0,0,.49,0l3.41-2c.15-.09.16-.22,0-.29L115,182a.55.55,0,0,0-.5,0l-3.41,2c-.14.09-.15.21,0,.29Zm-9.61-14.63-3.41,2c-.14.08-.16.21,0,.28l3.26,1.89a.59.59,0,0,0,.5,0l3.41-2c.14-.08.16-.21,0-.28l-3.26-1.89A.59.59,0,0,0,104.72,171.48Zm24.92-14.39-3.41,2c-.15.09-.16.21,0,.29l3.26,1.88a.53.53,0,0,0,.49,0l3.41-2c.15-.09.16-.21,0-.29l-3.26-1.88A.53.53,0,0,0,129.64,157.09ZM109.7,168.6l-3.41,2c-.14.08-.15.21,0,.29l3.27,1.88a.53.53,0,0,0,.49,0l3.41-2c.15-.09.16-.22,0-.29l-3.26-1.88A.55.55,0,0,0,109.7,168.6Zm24.92-14.38-3.41,2c-.15.08-.16.21,0,.28l3.26,1.89a.59.59,0,0,0,.5,0l3.41-2c.14-.08.15-.21,0-.29l-3.27-1.88A.53.53,0,0,0,134.62,154.22Zm-10,5.75-3.41,2c-.14.08-.15.21,0,.29l3.27,1.88a.53.53,0,0,0,.49,0l3.41-2c.15-.08.16-.21,0-.28L125.15,160A.59.59,0,0,0,124.65,160Zm-5,2.88-3.41,2c-.14.08-.16.21,0,.28l3.26,1.89a.59.59,0,0,0,.5,0l3.41-2c.14-.08.16-.21,0-.28l-3.26-1.89A.59.59,0,0,0,119.67,162.85Zm-5,2.88-3.41,2c-.15.09-.16.22,0,.29l3.26,1.88a.53.53,0,0,0,.49,0l3.41-2c.15-.09.16-.21,0-.29l-3.26-1.88A.5.5,0,0,0,114.69,165.73Zm22.75,1.93,3.41-2c.14-.09.16-.21,0-.29l-3.27-1.88a.51.51,0,0,0-.49,0l-3.41,2c-.14.09-.16.22,0,.29l3.26,1.88A.55.55,0,0,0,137.44,167.66Zm46.49-41.91-3.41,2c-.15.08-.16.21,0,.29l3.26,1.88a.56.56,0,0,0,.49,0l3.41-2c.15-.08.16-.21,0-.28l-3.26-1.89A.56.56,0,0,0,183.93,125.75Zm-6,3.48-3.41,2c-.14.09-.15.21,0,.29l3.27,1.88a.5.5,0,0,0,.49,0l3.41-2c.15-.09.16-.22,0-.29l-3.26-1.88A.55.55,0,0,0,177.89,129.23Zm11-6.36-3.41,2c-.15.09-.16.21,0,.29l3.26,1.88a.52.52,0,0,0,.5,0l3.41-2c.14-.09.15-.22,0-.29l-3.27-1.88A.53.53,0,0,0,188.91,122.87Zm-27.54,25.59,3.4-2c.15-.08.16-.21,0-.28l-3.26-1.89a.56.56,0,0,0-.49,0l-3.41,2c-.15.08-.16.21,0,.28l3.26,1.89A.59.59,0,0,0,161.37,148.46Zm33-28.48a.55.55,0,0,0-.5,0l-3.41,2c-.14.08-.16.21,0,.28l3.26,1.88a.55.55,0,0,0,.5,0l3.41-2c.14-.08.16-.21,0-.29Zm-52,44.8,3.41-2c.15-.08.16-.21,0-.29l-3.26-1.88a.55.55,0,0,0-.5,0l-3.41,2c-.14.08-.15.21,0,.28l3.27,1.89A.56.56,0,0,0,142.42,164.78Zm61.11-35.28,3.41-2c.14-.08.16-.21,0-.29l-3.26-1.88a.55.55,0,0,0-.5,0l-3.41,2c-.14.08-.16.21,0,.28l3.26,1.88A.55.55,0,0,0,203.53,129.5Zm-9.64.18,3.41-2c.14-.09.15-.22,0-.29l-3.27-1.88a.53.53,0,0,0-.49,0l-3.41,2c-.15.09-.16.21,0,.29l3.26,1.88A.52.52,0,0,0,193.89,129.68Zm5.16-7a.55.55,0,0,0-.5,0l-3.41,2c-.14.08-.16.21,0,.28l3.26,1.88a.55.55,0,0,0,.5,0l3.41-2c.14-.08.16-.21,0-.29Zm1-.61,7.92,4.58a.56.56,0,0,0,.49,0l3.41-2c.15-.08.16-.21,0-.28L204,119.79a.59.59,0,0,0-.5,0l-3.4,2C200,121.86,200,122,200.1,122.06Zm-11.51,6.38-3.41,2c-.15.08-.16.21,0,.29l3.26,1.88a.53.53,0,0,0,.49,0l3.41-2c.15-.08.16-.21,0-.28l-3.26-1.89A.56.56,0,0,0,188.59,128.44Zm-37.51,21.65-3.41,2c-.14.09-.16.21,0,.29l3.26,1.88a.52.52,0,0,0,.5,0l3.41-2c.14-.09.16-.22,0-.29l-3.26-1.88A.55.55,0,0,0,151.08,150.09Zm47-17.7a.55.55,0,0,0,.5,0l3.41-2c.14-.09.15-.22,0-.29l-3.27-1.88a.53.53,0,0,0-.49,0l-3.41,2c-.15.09-.16.21,0,.29Zm-42,14.83-3.41,2c-.14.08-.15.21,0,.28l3.26,1.88a.53.53,0,0,0,.49,0l3.41-2c.15-.08.16-.21,0-.29l-3.26-1.88A.55.55,0,0,0,156.06,147.22Zm-39,32a.52.52,0,0,0,.5,0l3.41-2c.14-.09.15-.22,0-.29L117.68,175a.53.53,0,0,0-.49,0l-3.41,2c-.15.09-.16.21,0,.29Zm-5.79-6.07-3.41,2c-.15.08-.16.21,0,.28l3.26,1.89a.56.56,0,0,0,.49,0l3.41-2c.15-.08.16-.21,0-.28l-3.26-1.89A.56.56,0,0,0,111.22,173.11Zm11.27,3.18,3.41-2c.14-.08.16-.21,0-.29l-3.26-1.88a.55.55,0,0,0-.5,0l-3.41,2c-.14.09-.16.22,0,.29L122,176.3A.55.55,0,0,0,122.49,176.29Zm5-2.88,3.41-2c.15-.08.16-.21,0-.28l-3.26-1.89a.59.59,0,0,0-.5,0l-3.41,2c-.14.08-.15.21,0,.28l3.27,1.89A.56.56,0,0,0,127.47,173.41Zm5-2.88,3.41-2c.15-.08.16-.21,0-.28l-3.26-1.88a.53.53,0,0,0-.49,0l-3.41,2c-.15.08-.16.21,0,.29l3.26,1.88A.53.53,0,0,0,132.45,170.53Zm-16.25-.3-3.41,2c-.15.09-.16.21,0,.29l3.26,1.88a.55.55,0,0,0,.5,0l3.41-2c.14-.09.15-.22,0-.29l-3.27-1.88A.53.53,0,0,0,116.2,170.23Zm5-2.87-3.41,2c-.14.09-.16.22,0,.29l3.27,1.88a.53.53,0,0,0,.49,0l3.41-2c.14-.09.16-.21,0-.29l-3.26-1.88A.52.52,0,0,0,121.18,167.36Zm19.93-11.51-3.4,2c-.15.08-.16.21,0,.28l3.26,1.89a.56.56,0,0,0,.49,0l3.41-2c.15-.08.16-.21,0-.29l-3.26-1.88A.55.55,0,0,0,141.11,155.85Zm-5,2.88-3.41,2c-.14.09-.16.22,0,.29l3.26,1.88a.55.55,0,0,0,.5,0l3.41-2c.14-.09.16-.21,0-.29l-3.26-1.88A.52.52,0,0,0,136.13,158.73Zm10-5.76-3.41,2c-.15.08-.16.21,0,.29l3.26,1.88a.55.55,0,0,0,.5,0l3.41-2c.14-.08.15-.21,0-.28L146.59,153A.56.56,0,0,0,146.1,153Zm-19.93,11.51-3.41,2c-.15.08-.16.21,0,.28l3.26,1.89a.56.56,0,0,0,.49,0l3.41-2c.15-.08.16-.21,0-.28l-3.26-1.89A.56.56,0,0,0,126.17,164.48Zm5-2.88-3.41,2c-.15.08-.16.21,0,.29l3.26,1.88a.55.55,0,0,0,.5,0l3.41-2c.14-.08.15-.21,0-.28l-3.27-1.88A.53.53,0,0,0,131.15,161.6Zm-6.36,18.74,3.41-2c.14-.08.16-.21,0-.28L125,176.2a.56.56,0,0,0-.49,0l-3.41,2c-.14.08-.16.21,0,.28l3.26,1.89A.59.59,0,0,0,124.79,180.34ZM98.51,179.1l-3.26-1.88a.55.55,0,0,0-.5,0l-3.41,2c-.14.09-.15.21,0,.29l3.26,1.88a.5.5,0,0,0,.49,0l3.41-2C98.63,179.3,98.64,179.17,98.51,179.1Zm6.5,1.63-3.27-1.88a.53.53,0,0,0-.49,0l-5.25,3c-.14.09-.15.21,0,.29l3.26,1.88a.5.5,0,0,0,.49,0l5.25-3C105.12,180.93,105.14,180.8,105,180.73Zm-11.37-5.35-3.26-1.88a.53.53,0,0,0-.49,0l-4.2,2.43c-.15.08-.16.21,0,.28l3.26,1.89a.59.59,0,0,0,.5,0l4.19-2.42C93.76,175.58,93.77,175.45,93.64,175.38Zm3.22-1.86a.53.53,0,0,0,.49,0l3.41-2c.15-.09.16-.21,0-.29l-3.26-1.88a.5.5,0,0,0-.49,0l-3.41,2c-.15.09-.16.22,0,.29ZM111,182.66l-3.26-1.88a.55.55,0,0,0-.5,0l-6.56,3.78c-.14.09-.15.21,0,.29l3.26,1.88a.53.53,0,0,0,.49,0L111,183C111.09,182.87,111.11,182.74,111,182.66Zm2.3,4.06L110,184.83a.59.59,0,0,0-.5,0l-4.2,2.42c-.14.09-.15.22,0,.29l3.27,1.88a.53.53,0,0,0,.49,0l4.2-2.43C113.39,186.92,113.41,186.79,113.28,186.72Zm20.63-34.59a.53.53,0,0,0,.49,0l3.41-2c.15-.09.16-.21,0-.29L134.58,148a.53.53,0,0,0-.49,0l-3.41,2c-.15.09-.16.22,0,.29Zm-10,5.76a.59.59,0,0,0,.5,0l3.41-2c.14-.08.16-.21,0-.28l-3.26-1.89a.59.59,0,0,0-.5,0l-3.41,2c-.14.08-.16.21,0,.28Zm-22.1,12.76a.59.59,0,0,0,.5,0l3.41-2c.14-.08.16-.21,0-.29l-3.26-1.88a.55.55,0,0,0-.5,0l-3.41,2c-.14.08-.16.21,0,.28ZM128.93,155a.53.53,0,0,0,.49,0l3.41-2c.15-.08.16-.21,0-.28l-3.26-1.89a.59.59,0,0,0-.5,0l-3.41,2c-.14.08-.15.21,0,.29Zm-10,5.75a.55.55,0,0,0,.5,0l3.41-2c.14-.09.15-.21,0-.29l-3.26-1.88a.5.5,0,0,0-.49,0l-3.41,2c-.15.09-.16.22,0,.29Zm-3.24,26.16a.51.51,0,0,0-.49,0L110,190c-.14.09-.15.22,0,.29l3.27,1.88a.53.53,0,0,0,.49,0l5.25-3c.14-.09.15-.21,0-.29Zm-3.91-22a.53.53,0,0,0,.49,0l3.41-2c.15-.09.16-.21,0-.29l-3.26-1.88a.53.53,0,0,0-.49,0l-3.41,2c-.15.09-.16.21,0,.29Zm-5,2.88a.53.53,0,0,0,.49,0l3.41-2c.15-.08.16-.21,0-.28l-3.26-1.89a.59.59,0,0,0-.5,0l-3.41,2c-.14.08-.15.21,0,.29ZM208,133.62a.53.53,0,0,0-.49,0l-8.39,4.85c-.15.08-.16.21,0,.29l3.26,1.88a.53.53,0,0,0,.49,0l8.4-4.84c.14-.09.15-.21,0-.29ZM197,140a.55.55,0,0,0-.5,0l-3.41,2c-.14.09-.15.21,0,.29l3.27,1.88a.53.53,0,0,0,.49,0l3.41-2c.15-.09.16-.21,0-.29Zm-67.26,37.48,3.41-2c.15-.08.16-.21,0-.28L130,173.33a.55.55,0,0,0-.5,0l-3.41,2c-.14.08-.15.21,0,.29l3.27,1.88A.53.53,0,0,0,129.77,177.46Zm57.29-31.73a.56.56,0,0,0-.49,0l-3.41,2c-.15.08-.16.21,0,.28l3.26,1.89a.56.56,0,0,0,.49,0l3.41-2c.15-.08.16-.21,0-.28Zm26-15a.55.55,0,0,0-.5,0l-3.41,2c-.14.08-.16.21,0,.28l3.26,1.89a.59.59,0,0,0,.5,0l3.41-2c.14-.08.16-.21,0-.29Zm8.24-1-7.92-4.58a.59.59,0,0,0-.5,0l-3.41,2c-.14.08-.15.21,0,.28l7.92,4.58a.53.53,0,0,0,.49,0l3.41-2C221.39,130,221.4,129.82,221.27,129.75Zm-52.83,26.73a.56.56,0,0,0-.49,0l-4.2,2.42c-.15.09-.16.21,0,.29l3.26,1.88a.52.52,0,0,0,.5,0l4.19-2.42c.15-.08.16-.21,0-.28ZM181,149.21a.59.59,0,0,0-.5,0l-5.24,3c-.15.08-.16.21,0,.29l3.26,1.88a.55.55,0,0,0,.5,0l5.24-3c.15-.08.16-.21,0-.28ZM156.9,163.15a.53.53,0,0,0-.49,0l-28.07,16.2c-.14.09-.16.22,0,.29l3.27,1.88a.53.53,0,0,0,.49,0l28.06-16.21c.15-.08.16-.21,0-.28Zm-29.64,17.11a.53.53,0,0,0-.49,0l-4.2,2.43c-.14.08-.16.21,0,.28l3.27,1.88a.53.53,0,0,0,.49,0l4.2-2.43c.14-.08.15-.21,0-.28Zm35.41-20.45a.56.56,0,0,0-.49,0l-4.2,2.42c-.15.09-.16.22,0,.29l3.26,1.88a.55.55,0,0,0,.5,0L165.9,162c.15-.08.16-.21,0-.28Zm-41.18,23.78a.53.53,0,0,0-.49,0L116.8,186c-.14.08-.16.21,0,.28L120,188.2a.56.56,0,0,0,.49,0l4.2-2.42c.14-.09.15-.22,0-.29Zm52.72-30.44a.53.53,0,0,0-.49,0l-4.2,2.42c-.15.08-.16.21,0,.29l3.26,1.88a.55.55,0,0,0,.5,0l4.19-2.42c.15-.08.16-.21,0-.29ZM192,142.85a.56.56,0,0,0-.49,0l-3.41,2c-.15.08-.16.21,0,.29l3.26,1.88a.55.55,0,0,0,.5,0l3.41-2c.14-.08.15-.21,0-.28Zm11.17-7.78,3.41-2c.14-.09.15-.21,0-.29l-3.27-1.88a.53.53,0,0,0-.49,0l-3.41,2c-.15.09-.16.21,0,.29l3.26,1.88A.55.55,0,0,0,203.21,135.07Zm-20.34,1,3.41-2c.15-.09.16-.22,0-.29l-3.26-1.88a.55.55,0,0,0-.5,0l-3.41,2c-.14.09-.15.21,0,.29l3.27,1.88A.51.51,0,0,0,182.87,136Zm-13.23,18.41,10-5.76c.15-.08.16-.21,0-.28l-3.26-1.89a.59.59,0,0,0-.5,0l-10,5.76c-.15.08-.16.21,0,.28l3.26,1.88A.55.55,0,0,0,169.64,154.45ZM197.73,138a.53.53,0,0,0,.49,0l3.41-2c.15-.08.16-.21,0-.28l-3.26-1.89a.56.56,0,0,0-.49,0l-3.41,2c-.15.08-.16.21,0,.29Zm-4.17-2.71,3.41-2c.15-.08.16-.21,0-.28l-3.26-1.89a.56.56,0,0,0-.49,0l-3.41,2c-.15.08-.16.21,0,.29l3.26,1.88A.53.53,0,0,0,193.56,135.25Zm-28.91,22.07,3.41-2c.15-.09.16-.22,0-.29l-3.26-1.88a.55.55,0,0,0-.5,0l-3.41,2c-.14.09-.15.21,0,.29l3.26,1.88A.5.5,0,0,0,164.65,157.32Zm22.06-13a.55.55,0,0,0,.5,0l3.41-2c.14-.08.16-.21,0-.28l-3.27-1.89a.56.56,0,0,0-.49,0l-3.41,2c-.14.08-.16.21,0,.29Zm-47,27.39,3.41-2c.14-.08.15-.21,0-.29l-3.27-1.88a.53.53,0,0,0-.49,0l-3.41,2c-.15.08-.16.21,0,.28l3.26,1.89A.59.59,0,0,0,139.74,171.71Zm5-2.88,3.41-2c.14-.08.16-.21,0-.28l-3.26-1.89a.59.59,0,0,0-.5,0l-3.41,2c-.14.08-.16.21,0,.29l3.27,1.88A.53.53,0,0,0,144.72,168.83Zm-10,5.76,3.41-2c.15-.09.16-.21,0-.29l-3.26-1.88a.5.5,0,0,0-.49,0l-3.41,2c-.15.09-.16.22,0,.29l3.26,1.88A.53.53,0,0,0,134.75,174.59Zm19.94-11.51,3.41-2c.14-.08.15-.21,0-.29l-3.27-1.88a.53.53,0,0,0-.49,0l-3.41,2c-.15.08-.16.21,0,.28l3.26,1.89A.59.59,0,0,0,154.69,163.08Zm-5,2.87,3.41-2c.15-.09.16-.21,0-.29l-3.26-1.88a.55.55,0,0,0-.5,0l-3.4,2c-.15.09-.16.21,0,.29l3.26,1.88A.5.5,0,0,0,149.7,166Zm10-5.75,3.41-2c.14-.08.16-.21,0-.28l-3.26-1.89a.59.59,0,0,0-.5,0l-3.41,2c-.14.08-.16.21,0,.28l3.26,1.89A.59.59,0,0,0,159.67,160.2Zm27.19-40a.59.59,0,0,0,.5,0l3.41-2c.14-.08.16-.21,0-.28l-.87-.5a.55.55,0,0,0-.5,0l-3.41,2c-.14.08-.15.21,0,.29Zm-24.77,15.68a.55.55,0,0,0,.5,0l3.41-2c.14-.08.16-.21,0-.28l-3.26-1.88a.55.55,0,0,0-.5,0l-3.41,2c-.14.08-.16.21,0,.29Zm10-5.75a.59.59,0,0,0,.5,0l3.41-2c.14-.08.15-.21,0-.29L172.73,126a.53.53,0,0,0-.49,0l-3.41,2c-.15.08-.16.21,0,.28ZM156,139.37a.55.55,0,0,0,.5,0l3.4-2c.15-.09.16-.21,0-.29l-3.26-1.88a.5.5,0,0,0-.49,0l-3.41,2c-.15.09-.16.22,0,.29ZM167.08,133a.53.53,0,0,0,.49,0l3.41-2c.15-.09.16-.21,0-.29l-3.26-1.88a.52.52,0,0,0-.5,0l-3.4,2c-.15.09-.16.22,0,.29Zm-21,12.15a.59.59,0,0,0,.5,0l3.41-2c.14-.08.16-.21,0-.28L146.72,141a.59.59,0,0,0-.5,0l-3.41,2c-.14.08-.16.21,0,.28Zm5-2.88a.53.53,0,0,0,.49,0l3.41-2c.15-.08.16-.21,0-.28l-3.26-1.88a.55.55,0,0,0-.5,0l-3.41,2c-.14.08-.15.21,0,.29Zm25.87-16.32a.53.53,0,0,0,.49,0l3.41-2c.15-.09.16-.21,0-.29l-.87-.5a.53.53,0,0,0-.49,0l-3.41,2c-.15.08-.16.21,0,.28Zm14.95-8.63a.51.51,0,0,0,.49,0l3.41-2c.15-.09.16-.22,0-.29l-.87-.5a.5.5,0,0,0-.49,0l-3.41,2c-.15.09-.16.22,0,.29Zm6.85,4a.56.56,0,0,0,.49,0l3.41-2c.15-.08.16-.21,0-.28l-3.26-1.89a.59.59,0,0,0-.5,0l-3.4,2c-.15.08-.16.21,0,.28Zm9.49,10.93,3.41-2c.14-.08.16-.21,0-.29l-3.26-1.88a.55.55,0,0,0-.5,0l-3.41,2c-.14.08-.16.21,0,.28l3.26,1.89A.59.59,0,0,0,208.19,132.19Zm-26.31-9.13a.56.56,0,0,0,.49,0l3.41-2c.15-.08.16-.21,0-.29l-.86-.5a.59.59,0,0,0-.5,0l-3.41,2c-.14.08-.16.21,0,.28ZM141.06,148a.55.55,0,0,0,.5,0l3.41-2c.14-.09.15-.21,0-.29l-3.26-1.88a.5.5,0,0,0-.49,0l-3.41,2c-.15.09-.16.22,0,.29Z"/><path id="_Compound_Path_2" data-name="&lt;Compound Path&gt;" class="cls-10" d="M177.89,138.92l3.41-2c.14-.08.16-.21,0-.28l-3.26-1.89a.59.59,0,0,0-.5,0l-3.41,2c-.14.08-.16.21,0,.28l3.26,1.89A.59.59,0,0,0,177.89,138.92Zm-5-6.81-3.41,2c-.14.08-.16.21,0,.28l3.26,1.89a.59.59,0,0,0,.5,0l3.41-2c.14-.08.16-.21,0-.28l-3.26-1.89A.59.59,0,0,0,172.91,132.11Zm-11,6.36-5.76,3.33c-.15.08-.16.21,0,.29l3.26,1.88a.53.53,0,0,0,.49,0l5.77-3.33c.15-.08.16-.21,0-.28l-3.26-1.89A.59.59,0,0,0,161.89,138.47Zm6-3.48-3.41,2c-.15.08-.16.21,0,.28l3.26,1.88a.55.55,0,0,0,.5,0l3.4-2c.15-.08.16-.21,0-.29L168.42,135A.53.53,0,0,0,167.93,135Zm-13.38,7.72-3.41,2c-.14.08-.16.21,0,.28l3.26,1.89a.59.59,0,0,0,.5,0l3.41-2c.14-.08.16-.21,0-.28l-3.26-1.89A.59.59,0,0,0,154.55,142.71Zm-5,2.88-3.41,2c-.15.08-.16.21,0,.28l3.26,1.88a.55.55,0,0,0,.5,0l3.41-2c.14-.08.15-.21,0-.29l-3.27-1.88A.53.53,0,0,0,149.57,145.59Zm12.78,7.68,3.41-2c.15-.08.16-.21,0-.28l-3.26-1.89a.56.56,0,0,0-.49,0l-3.41,2c-.15.08-.16.21,0,.28l3.26,1.89A.56.56,0,0,0,162.35,153.27Zm-5,2.88,3.41-2c.14-.08.16-.21,0-.29L157.55,152a.55.55,0,0,0-.5,0l-3.41,2c-.14.08-.16.21,0,.28l3.27,1.89A.56.56,0,0,0,157.37,156.15Zm-5,2.88,3.41-2c.14-.09.15-.21,0-.29l-3.27-1.88a.53.53,0,0,0-.49,0l-3.41,2c-.15.09-.16.21,0,.29l3.26,1.88A.55.55,0,0,0,152.39,159Zm-5,2.87,3.41-2c.15-.08.16-.21,0-.28l-3.26-1.89a.56.56,0,0,0-.49,0l-3.41,2c-.15.08-.16.21,0,.29l3.26,1.88A.53.53,0,0,0,147.4,161.9Zm25.51-20.1,3.4-2c.15-.08.16-.21,0-.29l-3.26-1.88a.53.53,0,0,0-.49,0l-3.41,2c-.15.08-.16.21,0,.28l3.26,1.89A.59.59,0,0,0,172.91,141.8Zm-5.57,8.59,7.6-4.39c.15-.08.16-.21,0-.28l-7.92-4.58a.59.59,0,0,0-.5,0l-3.93,2.27c-.14.09-.16.21,0,.29l4.2,2.42c.12.07.11.2,0,.28l-3.15,1.82c-.15.09-.16.21,0,.29l3.26,1.88A.52.52,0,0,0,167.34,150.39Zm-22.75-1.93-3.41,2c-.15.09-.16.21,0,.29l3.26,1.88a.5.5,0,0,0,.49,0l3.41-2c.15-.09.16-.22,0-.29l-3.26-1.88A.53.53,0,0,0,144.59,148.46Zm-5,2.88-3.41,2c-.14.08-.16.21,0,.29l3.27,1.88a.53.53,0,0,0,.49,0l3.41-2c.14-.08.16-.21,0-.28l-3.26-1.89A.59.59,0,0,0,139.6,151.34ZM112,182.06a.56.56,0,0,0,.49,0l3.41-2c.15-.08.16-.21,0-.28l-3.26-1.89a.59.59,0,0,0-.5,0l-3.41,2c-.14.08-.15.21,0,.28Zm-12.29-7.7-3.41,2c-.15.08-.16.21,0,.28l3.26,1.88a.55.55,0,0,0,.5,0l3.41-2c.14-.08.15-.21,0-.29l-3.26-1.88A.53.53,0,0,0,99.74,174.36Zm6.32,5.76a.53.53,0,0,0,.49,0l3.41-2c.15-.08.16-.21,0-.29L106.73,176a.55.55,0,0,0-.5,0l-3.41,2c-.14.08-.15.21,0,.28Zm13.74,3.1,3.41-2c.15-.09.16-.21,0-.29L120,179.08a.53.53,0,0,0-.49,0l-3.41,2c-.15.08-.16.21,0,.28l3.26,1.88A.53.53,0,0,0,119.8,183.22Zm-5.47,2.89a.5.5,0,0,0,.49,0l3.41-2c.15-.09.16-.22,0-.29L115,182a.55.55,0,0,0-.5,0l-3.41,2c-.14.09-.15.21,0,.29Zm-9.61-14.63-3.41,2c-.14.08-.16.21,0,.28l3.26,1.89a.59.59,0,0,0,.5,0l3.41-2c.14-.08.16-.21,0-.28l-3.26-1.89A.59.59,0,0,0,104.72,171.48Zm24.92-14.39-3.41,2c-.15.09-.16.21,0,.29l3.26,1.88a.53.53,0,0,0,.49,0l3.41-2c.15-.09.16-.21,0-.29l-3.26-1.88A.53.53,0,0,0,129.64,157.09ZM109.7,168.6l-3.41,2c-.14.08-.15.21,0,.29l3.27,1.88a.53.53,0,0,0,.49,0l3.41-2c.15-.09.16-.22,0-.29l-3.26-1.88A.55.55,0,0,0,109.7,168.6Zm24.92-14.38-3.41,2c-.15.08-.16.21,0,.28l3.26,1.89a.59.59,0,0,0,.5,0l3.41-2c.14-.08.15-.21,0-.29l-3.27-1.88A.53.53,0,0,0,134.62,154.22Zm-10,5.75-3.41,2c-.14.08-.15.21,0,.29l3.27,1.88a.53.53,0,0,0,.49,0l3.41-2c.15-.08.16-.21,0-.28L125.15,160A.59.59,0,0,0,124.65,160Zm-5,2.88-3.41,2c-.14.08-.16.21,0,.28l3.26,1.89a.59.59,0,0,0,.5,0l3.41-2c.14-.08.16-.21,0-.28l-3.26-1.89A.59.59,0,0,0,119.67,162.85Zm-5,2.88-3.41,2c-.15.09-.16.22,0,.29l3.26,1.88a.53.53,0,0,0,.49,0l3.41-2c.15-.09.16-.21,0-.29l-3.26-1.88A.5.5,0,0,0,114.69,165.73Zm22.75,1.93,3.41-2c.14-.09.16-.21,0-.29l-3.27-1.88a.51.51,0,0,0-.49,0l-3.41,2c-.14.09-.16.22,0,.29l3.26,1.88A.55.55,0,0,0,137.44,167.66Zm46.49-41.91-3.41,2c-.15.08-.16.21,0,.29l3.26,1.88a.56.56,0,0,0,.49,0l3.41-2c.15-.08.16-.21,0-.28l-3.26-1.89A.56.56,0,0,0,183.93,125.75Zm-6,3.48-3.41,2c-.14.09-.15.21,0,.29l3.27,1.88a.5.5,0,0,0,.49,0l3.41-2c.15-.09.16-.22,0-.29l-3.26-1.88A.55.55,0,0,0,177.89,129.23Zm11-6.36-3.41,2c-.15.09-.16.21,0,.29l3.26,1.88a.52.52,0,0,0,.5,0l3.41-2c.14-.09.15-.22,0-.29l-3.27-1.88A.53.53,0,0,0,188.91,122.87Zm-27.54,25.59,3.4-2c.15-.08.16-.21,0-.28l-3.26-1.89a.56.56,0,0,0-.49,0l-3.41,2c-.15.08-.16.21,0,.28l3.26,1.89A.59.59,0,0,0,161.37,148.46Zm33-28.48a.55.55,0,0,0-.5,0l-3.41,2c-.14.08-.16.21,0,.28l3.26,1.88a.55.55,0,0,0,.5,0l3.41-2c.14-.08.16-.21,0-.29Zm-52,44.8,3.41-2c.15-.08.16-.21,0-.29l-3.26-1.88a.55.55,0,0,0-.5,0l-3.41,2c-.14.08-.15.21,0,.28l3.27,1.89A.56.56,0,0,0,142.42,164.78Zm61.11-35.28,3.41-2c.14-.08.16-.21,0-.29l-3.26-1.88a.55.55,0,0,0-.5,0l-3.41,2c-.14.08-.16.21,0,.28l3.26,1.88A.55.55,0,0,0,203.53,129.5Zm-9.64.18,3.41-2c.14-.09.15-.22,0-.29l-3.27-1.88a.53.53,0,0,0-.49,0l-3.41,2c-.15.09-.16.21,0,.29l3.26,1.88A.52.52,0,0,0,193.89,129.68Zm5.16-7a.55.55,0,0,0-.5,0l-3.41,2c-.14.08-.16.21,0,.28l3.26,1.88a.55.55,0,0,0,.5,0l3.41-2c.14-.08.16-.21,0-.29Zm1-.61,7.92,4.58a.56.56,0,0,0,.49,0l3.41-2c.15-.08.16-.21,0-.28L204,119.79a.59.59,0,0,0-.5,0l-3.4,2C200,121.86,200,122,200.1,122.06Zm-11.51,6.38-3.41,2c-.15.08-.16.21,0,.29l3.26,1.88a.53.53,0,0,0,.49,0l3.41-2c.15-.08.16-.21,0-.28l-3.26-1.89A.56.56,0,0,0,188.59,128.44Zm-37.51,21.65-3.41,2c-.14.09-.16.21,0,.29l3.26,1.88a.52.52,0,0,0,.5,0l3.41-2c.14-.09.16-.22,0-.29l-3.26-1.88A.55.55,0,0,0,151.08,150.09Zm47-17.7a.55.55,0,0,0,.5,0l3.41-2c.14-.09.15-.22,0-.29l-3.27-1.88a.53.53,0,0,0-.49,0l-3.41,2c-.15.09-.16.21,0,.29Zm-42,14.83-3.41,2c-.14.08-.15.21,0,.28l3.26,1.88a.53.53,0,0,0,.49,0l3.41-2c.15-.08.16-.21,0-.29l-3.26-1.88A.55.55,0,0,0,156.06,147.22Zm-39,32a.52.52,0,0,0,.5,0l3.41-2c.14-.09.15-.22,0-.29L117.68,175a.53.53,0,0,0-.49,0l-3.41,2c-.15.09-.16.21,0,.29Zm-5.79-6.07-3.41,2c-.15.08-.16.21,0,.28l3.26,1.89a.56.56,0,0,0,.49,0l3.41-2c.15-.08.16-.21,0-.28l-3.26-1.89A.56.56,0,0,0,111.22,173.11Zm11.27,3.18,3.41-2c.14-.08.16-.21,0-.29l-3.26-1.88a.55.55,0,0,0-.5,0l-3.41,2c-.14.09-.16.22,0,.29L122,176.3A.55.55,0,0,0,122.49,176.29Zm5-2.88,3.41-2c.15-.08.16-.21,0-.28l-3.26-1.89a.59.59,0,0,0-.5,0l-3.41,2c-.14.08-.15.21,0,.28l3.27,1.89A.56.56,0,0,0,127.47,173.41Zm5-2.88,3.41-2c.15-.08.16-.21,0-.28l-3.26-1.88a.53.53,0,0,0-.49,0l-3.41,2c-.15.08-.16.21,0,.29l3.26,1.88A.53.53,0,0,0,132.45,170.53Zm-16.25-.3-3.41,2c-.15.09-.16.21,0,.29l3.26,1.88a.55.55,0,0,0,.5,0l3.41-2c.14-.09.15-.22,0-.29l-3.27-1.88A.53.53,0,0,0,116.2,170.23Zm5-2.87-3.41,2c-.14.09-.16.22,0,.29l3.27,1.88a.53.53,0,0,0,.49,0l3.41-2c.14-.09.16-.21,0-.29l-3.26-1.88A.52.52,0,0,0,121.18,167.36Zm19.93-11.51-3.4,2c-.15.08-.16.21,0,.28l3.26,1.89a.56.56,0,0,0,.49,0l3.41-2c.15-.08.16-.21,0-.29l-3.26-1.88A.55.55,0,0,0,141.11,155.85Zm-5,2.88-3.41,2c-.14.09-.16.22,0,.29l3.26,1.88a.55.55,0,0,0,.5,0l3.41-2c.14-.09.16-.21,0-.29l-3.26-1.88A.52.52,0,0,0,136.13,158.73Zm10-5.76-3.41,2c-.15.08-.16.21,0,.29l3.26,1.88a.55.55,0,0,0,.5,0l3.41-2c.14-.08.15-.21,0-.28L146.59,153A.56.56,0,0,0,146.1,153Zm-19.93,11.51-3.41,2c-.15.08-.16.21,0,.28l3.26,1.89a.56.56,0,0,0,.49,0l3.41-2c.15-.08.16-.21,0-.28l-3.26-1.89A.56.56,0,0,0,126.17,164.48Zm5-2.88-3.41,2c-.15.08-.16.21,0,.29l3.26,1.88a.55.55,0,0,0,.5,0l3.41-2c.14-.08.15-.21,0-.28l-3.27-1.88A.53.53,0,0,0,131.15,161.6Zm-6.36,18.74,3.41-2c.14-.08.16-.21,0-.28L125,176.2a.56.56,0,0,0-.49,0l-3.41,2c-.14.08-.16.21,0,.28l3.26,1.89A.59.59,0,0,0,124.79,180.34ZM98.51,179.1l-3.26-1.88a.55.55,0,0,0-.5,0l-3.41,2c-.14.09-.15.21,0,.29l3.26,1.88a.5.5,0,0,0,.49,0l3.41-2C98.63,179.3,98.64,179.17,98.51,179.1Zm6.5,1.63-3.27-1.88a.53.53,0,0,0-.49,0l-5.25,3c-.14.09-.15.21,0,.29l3.26,1.88a.5.5,0,0,0,.49,0l5.25-3C105.12,180.93,105.14,180.8,105,180.73Zm-11.37-5.35-3.26-1.88a.53.53,0,0,0-.49,0l-4.2,2.43c-.15.08-.16.21,0,.28l3.26,1.89a.59.59,0,0,0,.5,0l4.19-2.42C93.76,175.58,93.77,175.45,93.64,175.38Zm3.22-1.86a.53.53,0,0,0,.49,0l3.41-2c.15-.09.16-.21,0-.29l-3.26-1.88a.5.5,0,0,0-.49,0l-3.41,2c-.15.09-.16.22,0,.29ZM111,182.66l-3.26-1.88a.55.55,0,0,0-.5,0l-6.56,3.78c-.14.09-.15.21,0,.29l3.26,1.88a.53.53,0,0,0,.49,0L111,183C111.09,182.87,111.11,182.74,111,182.66Zm2.3,4.06L110,184.83a.59.59,0,0,0-.5,0l-4.2,2.42c-.14.09-.15.22,0,.29l3.27,1.88a.53.53,0,0,0,.49,0l4.2-2.43C113.39,186.92,113.41,186.79,113.28,186.72Zm20.63-34.59a.53.53,0,0,0,.49,0l3.41-2c.15-.09.16-.21,0-.29L134.58,148a.53.53,0,0,0-.49,0l-3.41,2c-.15.09-.16.22,0,.29Zm-10,5.76a.59.59,0,0,0,.5,0l3.41-2c.14-.08.16-.21,0-.28l-3.26-1.89a.59.59,0,0,0-.5,0l-3.41,2c-.14.08-.16.21,0,.28Zm-22.1,12.76a.59.59,0,0,0,.5,0l3.41-2c.14-.08.16-.21,0-.29l-3.26-1.88a.55.55,0,0,0-.5,0l-3.41,2c-.14.08-.16.21,0,.28ZM128.93,155a.53.53,0,0,0,.49,0l3.41-2c.15-.08.16-.21,0-.28l-3.26-1.89a.59.59,0,0,0-.5,0l-3.41,2c-.14.08-.15.21,0,.29Zm-10,5.75a.55.55,0,0,0,.5,0l3.41-2c.14-.09.15-.21,0-.29l-3.26-1.88a.5.5,0,0,0-.49,0l-3.41,2c-.15.09-.16.22,0,.29Zm-3.24,26.16a.51.51,0,0,0-.49,0L110,190c-.14.09-.15.22,0,.29l3.27,1.88a.53.53,0,0,0,.49,0l5.25-3c.14-.09.15-.21,0-.29Zm-3.91-22a.53.53,0,0,0,.49,0l3.41-2c.15-.09.16-.21,0-.29l-3.26-1.88a.53.53,0,0,0-.49,0l-3.41,2c-.15.09-.16.21,0,.29Zm-5,2.88a.53.53,0,0,0,.49,0l3.41-2c.15-.08.16-.21,0-.28l-3.26-1.89a.59.59,0,0,0-.5,0l-3.41,2c-.14.08-.15.21,0,.29ZM208,133.62a.53.53,0,0,0-.49,0l-8.39,4.85c-.15.08-.16.21,0,.29l3.26,1.88a.53.53,0,0,0,.49,0l8.4-4.84c.14-.09.15-.21,0-.29ZM197,140a.55.55,0,0,0-.5,0l-3.41,2c-.14.09-.15.21,0,.29l3.27,1.88a.53.53,0,0,0,.49,0l3.41-2c.15-.09.16-.21,0-.29Zm-67.26,37.48,3.41-2c.15-.08.16-.21,0-.28L130,173.33a.55.55,0,0,0-.5,0l-3.41,2c-.14.08-.15.21,0,.29l3.27,1.88A.53.53,0,0,0,129.77,177.46Zm57.29-31.73a.56.56,0,0,0-.49,0l-3.41,2c-.15.08-.16.21,0,.28l3.26,1.89a.56.56,0,0,0,.49,0l3.41-2c.15-.08.16-.21,0-.28Zm26-15a.55.55,0,0,0-.5,0l-3.41,2c-.14.08-.16.21,0,.28l3.26,1.89a.59.59,0,0,0,.5,0l3.41-2c.14-.08.16-.21,0-.29Zm8.24-1-7.92-4.58a.59.59,0,0,0-.5,0l-3.41,2c-.14.08-.15.21,0,.28l7.92,4.58a.53.53,0,0,0,.49,0l3.41-2C221.39,130,221.4,129.82,221.27,129.75Zm-52.83,26.73a.56.56,0,0,0-.49,0l-4.2,2.42c-.15.09-.16.21,0,.29l3.26,1.88a.52.52,0,0,0,.5,0l4.19-2.42c.15-.08.16-.21,0-.28ZM181,149.21a.59.59,0,0,0-.5,0l-5.24,3c-.15.08-.16.21,0,.29l3.26,1.88a.55.55,0,0,0,.5,0l5.24-3c.15-.08.16-.21,0-.28ZM156.9,163.15a.53.53,0,0,0-.49,0l-28.07,16.2c-.14.09-.16.22,0,.29l3.27,1.88a.53.53,0,0,0,.49,0l28.06-16.21c.15-.08.16-.21,0-.28Zm-29.64,17.11a.53.53,0,0,0-.49,0l-4.2,2.43c-.14.08-.16.21,0,.28l3.27,1.88a.53.53,0,0,0,.49,0l4.2-2.43c.14-.08.15-.21,0-.28Zm35.41-20.45a.56.56,0,0,0-.49,0l-4.2,2.42c-.15.09-.16.22,0,.29l3.26,1.88a.55.55,0,0,0,.5,0L165.9,162c.15-.08.16-.21,0-.28Zm-41.18,23.78a.53.53,0,0,0-.49,0L116.8,186c-.14.08-.16.21,0,.28L120,188.2a.56.56,0,0,0,.49,0l4.2-2.42c.14-.09.15-.22,0-.29Zm52.72-30.44a.53.53,0,0,0-.49,0l-4.2,2.42c-.15.08-.16.21,0,.29l3.26,1.88a.55.55,0,0,0,.5,0l4.19-2.42c.15-.08.16-.21,0-.29ZM192,142.85a.56.56,0,0,0-.49,0l-3.41,2c-.15.08-.16.21,0,.29l3.26,1.88a.55.55,0,0,0,.5,0l3.41-2c.14-.08.15-.21,0-.28Zm11.17-7.78,3.41-2c.14-.09.15-.21,0-.29l-3.27-1.88a.53.53,0,0,0-.49,0l-3.41,2c-.15.09-.16.21,0,.29l3.26,1.88A.55.55,0,0,0,203.21,135.07Zm-20.34,1,3.41-2c.15-.09.16-.22,0-.29l-3.26-1.88a.55.55,0,0,0-.5,0l-3.41,2c-.14.09-.15.21,0,.29l3.27,1.88A.51.51,0,0,0,182.87,136Zm-13.23,18.41,10-5.76c.15-.08.16-.21,0-.28l-3.26-1.89a.59.59,0,0,0-.5,0l-10,5.76c-.15.08-.16.21,0,.28l3.26,1.88A.55.55,0,0,0,169.64,154.45ZM197.73,138a.53.53,0,0,0,.49,0l3.41-2c.15-.08.16-.21,0-.28l-3.26-1.89a.56.56,0,0,0-.49,0l-3.41,2c-.15.08-.16.21,0,.29Zm-4.17-2.71,3.41-2c.15-.08.16-.21,0-.28l-3.26-1.89a.56.56,0,0,0-.49,0l-3.41,2c-.15.08-.16.21,0,.29l3.26,1.88A.53.53,0,0,0,193.56,135.25Zm-28.91,22.07,3.41-2c.15-.09.16-.22,0-.29l-3.26-1.88a.55.55,0,0,0-.5,0l-3.41,2c-.14.09-.15.21,0,.29l3.26,1.88A.5.5,0,0,0,164.65,157.32Zm22.06-13a.55.55,0,0,0,.5,0l3.41-2c.14-.08.16-.21,0-.28l-3.27-1.89a.56.56,0,0,0-.49,0l-3.41,2c-.14.08-.16.21,0,.29Zm-47,27.39,3.41-2c.14-.08.15-.21,0-.29l-3.27-1.88a.53.53,0,0,0-.49,0l-3.41,2c-.15.08-.16.21,0,.28l3.26,1.89A.59.59,0,0,0,139.74,171.71Zm5-2.88,3.41-2c.14-.08.16-.21,0-.28l-3.26-1.89a.59.59,0,0,0-.5,0l-3.41,2c-.14.08-.16.21,0,.29l3.27,1.88A.53.53,0,0,0,144.72,168.83Zm-10,5.76,3.41-2c.15-.09.16-.21,0-.29l-3.26-1.88a.5.5,0,0,0-.49,0l-3.41,2c-.15.09-.16.22,0,.29l3.26,1.88A.53.53,0,0,0,134.75,174.59Zm19.94-11.51,3.41-2c.14-.08.15-.21,0-.29l-3.27-1.88a.53.53,0,0,0-.49,0l-3.41,2c-.15.08-.16.21,0,.28l3.26,1.89A.59.59,0,0,0,154.69,163.08Zm-5,2.87,3.41-2c.15-.09.16-.21,0-.29l-3.26-1.88a.55.55,0,0,0-.5,0l-3.4,2c-.15.09-.16.21,0,.29l3.26,1.88A.5.5,0,0,0,149.7,166Zm10-5.75,3.41-2c.14-.08.16-.21,0-.28l-3.26-1.89a.59.59,0,0,0-.5,0l-3.41,2c-.14.08-.16.21,0,.28l3.26,1.89A.59.59,0,0,0,159.67,160.2Zm27.19-40a.59.59,0,0,0,.5,0l3.41-2c.14-.08.16-.21,0-.28l-.87-.5a.55.55,0,0,0-.5,0l-3.41,2c-.14.08-.15.21,0,.29Zm-24.77,15.68a.55.55,0,0,0,.5,0l3.41-2c.14-.08.16-.21,0-.28l-3.26-1.88a.55.55,0,0,0-.5,0l-3.41,2c-.14.08-.16.21,0,.29Zm10-5.75a.59.59,0,0,0,.5,0l3.41-2c.14-.08.15-.21,0-.29L172.73,126a.53.53,0,0,0-.49,0l-3.41,2c-.15.08-.16.21,0,.28ZM156,139.37a.55.55,0,0,0,.5,0l3.4-2c.15-.09.16-.21,0-.29l-3.26-1.88a.5.5,0,0,0-.49,0l-3.41,2c-.15.09-.16.22,0,.29ZM167.08,133a.53.53,0,0,0,.49,0l3.41-2c.15-.09.16-.21,0-.29l-3.26-1.88a.52.52,0,0,0-.5,0l-3.4,2c-.15.09-.16.22,0,.29Zm-21,12.15a.59.59,0,0,0,.5,0l3.41-2c.14-.08.16-.21,0-.28L146.72,141a.59.59,0,0,0-.5,0l-3.41,2c-.14.08-.16.21,0,.28Zm5-2.88a.53.53,0,0,0,.49,0l3.41-2c.15-.08.16-.21,0-.28l-3.26-1.88a.55.55,0,0,0-.5,0l-3.41,2c-.14.08-.15.21,0,.29Zm25.87-16.32a.53.53,0,0,0,.49,0l3.41-2c.15-.09.16-.21,0-.29l-.87-.5a.53.53,0,0,0-.49,0l-3.41,2c-.15.08-.16.21,0,.28Zm14.95-8.63a.51.51,0,0,0,.49,0l3.41-2c.15-.09.16-.22,0-.29l-.87-.5a.5.5,0,0,0-.49,0l-3.41,2c-.15.09-.16.22,0,.29Zm6.85,4a.56.56,0,0,0,.49,0l3.41-2c.15-.08.16-.21,0-.28l-3.26-1.89a.59.59,0,0,0-.5,0l-3.4,2c-.15.08-.16.21,0,.28Zm9.49,10.93,3.41-2c.14-.08.16-.21,0-.29l-3.26-1.88a.55.55,0,0,0-.5,0l-3.41,2c-.14.08-.16.21,0,.28l3.26,1.89A.59.59,0,0,0,208.19,132.19Zm-26.31-9.13a.56.56,0,0,0,.49,0l3.41-2c.15-.08.16-.21,0-.29l-.86-.5a.59.59,0,0,0-.5,0l-3.41,2c-.14.08-.16.21,0,.28ZM141.06,148a.55.55,0,0,0,.5,0l3.41-2c.14-.09.15-.21,0-.29l-3.26-1.88a.5.5,0,0,0-.49,0l-3.41,2c-.15.09-.16.22,0,.29Z"/></g><polygon id="_Path_12" data-name="&lt;Path&gt;" class="cls-11" points="155.81 173.7 156.51 174.11 175.07 184.82 208.1 165.76 208.78 165.37 189.52 154.25 155.81 173.7"/><g id="_Group_2" data-name="&lt;Group&gt;"><polygon id="_Path_13" data-name="&lt;Path&gt;" class="cls-4" points="156.51 174.11 175.07 184.82 208.1 165.76 189.52 155.04 156.51 174.11"/><polygon id="_Path_14" data-name="&lt;Path&gt;" class="cls-12" points="156.51 174.11 175.07 184.82 208.1 165.76 189.52 155.04 156.51 174.11"/></g><path id="_Path_15" data-name="&lt;Path&gt;" class="cls-4" d="M60.59,170.23a4.43,4.43,0,0,0,.94.4,4.41,4.41,0,0,1-.94-.39,2.9,2.9,0,0,1-.29-.19Z"/><path id="_Path_16" data-name="&lt;Path&gt;" class="cls-4" d="M66,170.52a.07.07,0,0,1,0,0l0,0Z"/></g><g id="Window"><path id="_Path_17" data-name="&lt;Path&gt;" class="cls-13" d="M177.13,27.66l-2-1.16L73.2,85.34v60a1.49,1.49,0,0,0,.63,1.38h0l2,1.16h0a1.47,1.47,0,0,0,1.5-.15L175,91.35a4.68,4.68,0,0,0,2.13-3.69Z"/><g id="_Group_3" data-name="&lt;Group&gt;"><path class="cls-8" d="M76.38,147.79c-.58,0-.93-.48-.93-1.28V86.65L176.88,28.08V87.66a4.46,4.46,0,0,1-2,3.48L77.21,147.53a1.7,1.7,0,0,1-.83.26Z"/><path class="cls-3" d="M176.64,28.51V87.66a4.23,4.23,0,0,1-1.89,3.27L77.09,147.32a1.56,1.56,0,0,1-.71.22c-.62,0-.69-.72-.69-1V86.79L176.64,28.51m.49-.85L75.2,86.51v60c0,1,.48,1.52,1.18,1.52a1.88,1.88,0,0,0,1-.29L175,91.35a4.68,4.68,0,0,0,2.13-3.69v-60Z"/></g><g id="_Group_4" data-name="&lt;Group&gt;"><polygon id="_Path_18" data-name="&lt;Path&gt;" class="cls-3" points="75.2 86.51 75.2 95.73 177.13 36.88 177.13 27.66 75.2 86.51"/><path id="_Path_19" data-name="&lt;Path&gt;" class="cls-8" d="M139.16,53.2v2c0,.4.29.57.64.36l31.34-18.09V34L139.8,52.09A1.43,1.43,0,0,0,139.16,53.2Z"/><path id="_Path_20" data-name="&lt;Path&gt;" class="cls-14" d="M174.49,32.06c.36-.2.64,0,.64.37v2a1.39,1.39,0,0,1-.64,1.1l-3.35,1.94V34Z"/><path id="_Compound_Path_3" data-name="&lt;Compound Path&gt;" class="cls-8" d="M174.24,34.78l-.37-.11a2.05,2.05,0,0,0,.06-.49.88.88,0,0,0-.34-.8.55.55,0,0,0-.55,0,1.92,1.92,0,0,0-.75,1.56.89.89,0,0,0,.35.8.46.46,0,0,0,.23.06.61.61,0,0,0,.31-.09,1.59,1.59,0,0,0,.61-.81l.37.12h0a.15.15,0,0,0,.14-.1A.15.15,0,0,0,174.24,34.78Zm-1.2.72a.27.27,0,0,1-.27,0,.67.67,0,0,1-.2-.56,1.68,1.68,0,0,1,.61-1.32.41.41,0,0,1,.17,0l.1,0a.68.68,0,0,1,.2.56A1.67,1.67,0,0,1,173,35.5Z"/><path id="_Path_21" data-name="&lt;Path&gt;" class="cls-15" d="M174.53,20.67a1.49,1.49,0,0,0-1.53.13L75.34,77.19a4.71,4.71,0,0,0-2.14,3.69v4.46l2,1.17L177.13,27.66V23.2a1.52,1.52,0,0,0-.62-1.38Z"/><path id="_Path_22" data-name="&lt;Path&gt;" class="cls-16" d="M75.2,82a4.73,4.73,0,0,1,2.13-3.69L175,22c1.18-.68,2.13-.13,2.13,1.23v4.46L75.2,86.51Z"/><path id="_Path_23" data-name="&lt;Path&gt;" class="cls-14" d="M176.53,21.83A1.47,1.47,0,0,0,175,22L77.33,78.35a4.34,4.34,0,0,0-1.5,1.59l-2-1.15a4.32,4.32,0,0,1,1.51-1.6L173,20.8a1.49,1.49,0,0,1,1.53-.13l2,1.15Z"/><g id="_Group_5" data-name="&lt;Group&gt;"><g id="_Group_6" data-name="&lt;Group&gt;"><path class="cls-17" d="M165.14,30a2.21,2.21,0,0,0-1,1.73c0,.64.45.9,1,.58a2.23,2.23,0,0,0,1-1.73C166.14,29.9,165.69,29.64,165.14,30Z"/><path class="cls-17" d="M168.64,28a2.17,2.17,0,0,0-1,1.73c0,.63.44.89,1,.57a2.2,2.2,0,0,0,1-1.73C169.64,27.89,169.19,27.63,168.64,28Z"/><path class="cls-17" d="M172.13,25.93a2.23,2.23,0,0,0-1,1.73c0,.64.45.9,1,.58a2.18,2.18,0,0,0,1-1.73C173.13,25.87,172.69,25.61,172.13,25.93Z"/></g></g></g><g id="_Group_7" data-name="&lt;Group&gt;"><path class="cls-18" d="M76.38,147.79c-.58,0-.93-.48-.93-1.28V95.87L94.94,84.62v52.67L77.21,147.53a1.7,1.7,0,0,1-.83.26Z"/><path class="cls-3" d="M94.7,85v52.11L77.09,147.32a1.56,1.56,0,0,1-.71.22c-.62,0-.69-.72-.69-1V96l19-11m.49-.85-20,11.54v50.78c0,1,.48,1.52,1.18,1.52a1.88,1.88,0,0,0,1-.29l17.86-10.31V84.19Z"/></g><g id="_Group_8" data-name="&lt;Group&gt;"><g id="_Group_9" data-name="&lt;Group&gt;"><g id="_Group_10" data-name="&lt;Group&gt;"><path id="_Path_24" data-name="&lt;Path&gt;" class="cls-3" d="M81.84,96.52,91.4,91c.35-.2.64,0,.64.37v.83a1.43,1.43,0,0,1-.64,1.11l-9.56,5.52c-.36.21-.64,0-.64-.36v-.84A1.41,1.41,0,0,1,81.84,96.52Z"/><path id="_Path_25" data-name="&lt;Path&gt;" class="cls-3" d="M79.2,98.78v.83a1.43,1.43,0,0,1-.64,1.11l-.72.41c-.35.21-.64,0-.64-.37v-.83a1.43,1.43,0,0,1,.64-1.11l.72-.41C78.91,98.21,79.2,98.37,79.2,98.78Z"/></g><g id="_Group_11" data-name="&lt;Group&gt;"><path id="_Path_26" data-name="&lt;Path&gt;" class="cls-3" d="M81.84,101.12l9.56-5.53c.35-.21.64,0,.64.37v.83a1.43,1.43,0,0,1-.64,1.11l-9.56,5.52c-.36.21-.64,0-.64-.37v-.83A1.41,1.41,0,0,1,81.84,101.12Z"/><path id="_Path_27" data-name="&lt;Path&gt;" class="cls-3" d="M79.2,103.38v.83a1.43,1.43,0,0,1-.64,1.11l-.72.41c-.35.2-.64,0-.64-.37v-.83a1.43,1.43,0,0,1,.64-1.11l.72-.41C78.91,102.8,79.2,103,79.2,103.38Z"/></g><g id="_Group_12" data-name="&lt;Group&gt;"><path id="_Path_28" data-name="&lt;Path&gt;" class="cls-3" d="M81.84,105.71l9.56-5.52c.35-.21.64,0,.64.37v.83a1.4,1.4,0,0,1-.64,1.1L81.84,108c-.36.21-.64,0-.64-.37v-.83A1.43,1.43,0,0,1,81.84,105.71Z"/><path id="_Path_29" data-name="&lt;Path&gt;" class="cls-3" d="M79.2,108v.84a1.41,1.41,0,0,1-.64,1.1l-.72.42c-.35.2-.64,0-.64-.37v-.83a1.43,1.43,0,0,1,.64-1.11l.72-.41C78.91,107.4,79.2,107.57,79.2,108Z"/></g></g><g id="_Group_13" data-name="&lt;Group&gt;"><g id="_Group_14" data-name="&lt;Group&gt;"><polygon id="_Path_30" data-name="&lt;Path&gt;" class="cls-17" points="81.2 110.73 81.2 112.17 82.44 110.73 81.2 110.73"/><path id="_Path_31" data-name="&lt;Path&gt;" class="cls-3" d="M83.2,110.44c0,.26.19.37.42.23l8-4.6a.91.91,0,0,0,.43-.73c0-.27-.19-.38-.43-.24l-8,4.61A.93.93,0,0,0,83.2,110.44Z"/></g><g id="_Group_15" data-name="&lt;Group&gt;"><polygon id="_Path_32" data-name="&lt;Path&gt;" class="cls-17" points="81.2 113.04 81.2 114.47 82.44 113.04 81.2 113.04"/><path id="_Path_33" data-name="&lt;Path&gt;" class="cls-3" d="M83.2,112.74c0,.27.19.38.42.24l8-4.6a.91.91,0,0,0,.43-.73c0-.27-.19-.38-.43-.25l-8,4.62A.93.93,0,0,0,83.2,112.74Z"/></g><g id="_Group_16" data-name="&lt;Group&gt;"><polygon id="_Path_34" data-name="&lt;Path&gt;" class="cls-17" points="81.2 115.35 81.2 116.78 82.44 115.35 81.2 115.35"/><path id="_Path_35" data-name="&lt;Path&gt;" class="cls-3" d="M83.2,115.05c0,.27.19.37.42.24l8-4.6A1,1,0,0,0,92,110c0-.27-.19-.37-.43-.24l-8,4.61A1,1,0,0,0,83.2,115.05Z"/></g><g id="_Group_17" data-name="&lt;Group&gt;"><polygon id="_Path_36" data-name="&lt;Path&gt;" class="cls-17" points="81.2 117.65 81.2 119.09 82.44 117.65 81.2 117.65"/><path id="_Path_37" data-name="&lt;Path&gt;" class="cls-3" d="M83.2,117.36c0,.26.19.37.42.23l8-4.59a1,1,0,0,0,.43-.74c0-.27-.19-.38-.43-.24l-8,4.61A.94.94,0,0,0,83.2,117.36Z"/></g></g></g><g id="_Group_18" data-name="&lt;Group&gt;"><g id="_Group_19" data-name="&lt;Group&gt;"><g id="_Group_20" data-name="&lt;Group&gt;"><path id="_Path_38" data-name="&lt;Path&gt;" class="cls-3" d="M101.19,86.94V99c0,.5.35.7.78.45l13.23-7.63a1.77,1.77,0,0,0,.79-1.37V80.53c0-.5-.36-.7-.79-.45l-7.68,4.43c-.43.25-.79,0-.79-.46v-.31c0-.51-.35-.71-.78-.46l-4,2.3A1.74,1.74,0,0,0,101.19,86.94Z"/><path id="_Path_39" data-name="&lt;Path&gt;" class="cls-3" d="M103.78,101.24V102c0,.37.27.53.6.34l9.91-5.73a1.31,1.31,0,0,0,.6-1v-.77c0-.38-.27-.53-.6-.35l-9.91,5.73A1.32,1.32,0,0,0,103.78,101.24Z"/></g><g id="_Group_21" data-name="&lt;Group&gt;"><path id="_Path_40" data-name="&lt;Path&gt;" class="cls-3" d="M119.57,76.39v12c0,.5.35.71.79.46l13.22-7.64a1.72,1.72,0,0,0,.79-1.36V70c0-.51-.35-.71-.79-.46L125.91,74c-.44.25-.79,0-.79-.45v-.32c0-.5-.36-.71-.79-.45l-4,2.29A1.73,1.73,0,0,0,119.57,76.39Z"/><path id="_Path_41" data-name="&lt;Path&gt;" class="cls-3" d="M122.17,90.68v.77c0,.38.26.53.59.34l9.92-5.73a1.3,1.3,0,0,0,.59-1v-.77c0-.38-.27-.53-.59-.34l-9.92,5.72A1.3,1.3,0,0,0,122.17,90.68Z"/></g><g id="_Group_22" data-name="&lt;Group&gt;"><path id="_Path_42" data-name="&lt;Path&gt;" class="cls-3" d="M138.17,65.25v12c0,.51.35.71.79.46l13.22-7.63a1.79,1.79,0,0,0,.79-1.37V58.84c0-.5-.36-.71-.79-.46l-7.67,4.43c-.44.26-.79,0-.79-.45v-.31c0-.51-.36-.71-.79-.46l-4,2.29A1.74,1.74,0,0,0,138.17,65.25Z"/><path id="_Path_43" data-name="&lt;Path&gt;" class="cls-3" d="M140.55,80.12v.77c0,.38.27.53.59.34l9.92-5.72a1.3,1.3,0,0,0,.59-1v-.77c0-.37-.26-.53-.59-.34l-9.92,5.73A1.33,1.33,0,0,0,140.55,80.12Z"/></g><g id="_Group_23" data-name="&lt;Group&gt;"><path id="_Path_44" data-name="&lt;Path&gt;" class="cls-3" d="M156.33,55.27v12c0,.5.36.71.79.45l13.23-7.63a1.74,1.74,0,0,0,.78-1.37V48.86c0-.5-.35-.7-.78-.45l-7.68,4.43c-.43.25-.79,0-.79-.46v-.31c0-.5-.35-.71-.78-.46l-4,2.3A1.75,1.75,0,0,0,156.33,55.27Z"/><path id="_Path_45" data-name="&lt;Path&gt;" class="cls-3" d="M158.93,69.57v.77c0,.37.27.53.59.34L169.44,65a1.3,1.3,0,0,0,.59-1v-.77c0-.38-.26-.53-.59-.34l-9.92,5.72A1.33,1.33,0,0,0,158.93,69.57Z"/></g></g><g id="_Group_24" data-name="&lt;Group&gt;"><path id="_Path_46" data-name="&lt;Path&gt;" class="cls-3" d="M102.55,127.27V128c0,.38.27.53.59.34l9.92-5.72a1.3,1.3,0,0,0,.59-1v-.77c0-.38-.26-.53-.59-.34l-9.92,5.73A1.3,1.3,0,0,0,102.55,127.27Z"/><g id="_Group_25" data-name="&lt;Group&gt;"><g id="_Group_26" data-name="&lt;Group&gt;"><path id="_Path_47" data-name="&lt;Path&gt;" class="cls-19" d="M102.8,110.37l10.29-5.94c.47-.27.85-.05.85.49V116.8a1.91,1.91,0,0,1-.85,1.48l-10.29,5.94c-.47.27-.85,0-.85-.5V111.85A1.88,1.88,0,0,1,102.8,110.37Z"/><path id="_Path_48" data-name="&lt;Path&gt;" class="cls-3" d="M114.3,106l-2.3,1.32a1.88,1.88,0,0,0-.85,1.48v2.64c0,.55.38.77.85.5l2.3-1.33a1.87,1.87,0,0,0,.85-1.47v-2.65C115.15,106,114.77,105.76,114.3,106Z"/></g><path id="_Path_49" data-name="&lt;Path&gt;" class="cls-20" d="M103.58,111.65l5.16-3c.23-.14.42,0,.42.25v.16a1,1,0,0,1-.42.74l-5.16,3c-.23.13-.42,0-.42-.25v-.17A1,1,0,0,1,103.58,111.65Z"/><path id="_Path_50" data-name="&lt;Path&gt;" class="cls-20" d="M103.58,114l5.16-3c.23-.13.42,0,.42.25v.16a.93.93,0,0,1-.42.74l-5.16,3c-.23.14-.42,0-.42-.24v-.17A.93.93,0,0,1,103.58,114Z"/><path id="_Path_51" data-name="&lt;Path&gt;" class="cls-20" d="M103.58,116.26l5.16-3c.23-.14.42,0,.42.24v.17a1,1,0,0,1-.42.74l-5.16,3c-.23.13-.42,0-.42-.25V117A1,1,0,0,1,103.58,116.26Z"/><path id="_Path_52" data-name="&lt;Path&gt;" class="cls-20" d="M103.58,118.57l8.56-4.94c.24-.13.43,0,.43.25V114a.92.92,0,0,1-.43.74l-8.56,4.94c-.23.14-.42,0-.42-.24v-.17A.93.93,0,0,1,103.58,118.57Z"/><path id="_Path_53" data-name="&lt;Path&gt;" class="cls-20" d="M103.58,120.87l8.56-4.93c.24-.14.43,0,.43.24v.17a1,1,0,0,1-.43.74L103.58,122c-.23.13-.42,0-.42-.25v-.17A1,1,0,0,1,103.58,120.87Z"/></g></g><g id="_Group_27" data-name="&lt;Group&gt;"><path id="_Path_54" data-name="&lt;Path&gt;" class="cls-3" d="M120.54,116.89v.77c0,.37.26.53.59.34l9.92-5.73a1.33,1.33,0,0,0,.59-1v-.77c0-.38-.27-.53-.59-.34l-9.92,5.72A1.3,1.3,0,0,0,120.54,116.89Z"/><g id="_Group_28" data-name="&lt;Group&gt;"><g id="_Group_29" data-name="&lt;Group&gt;"><path id="_Path_55" data-name="&lt;Path&gt;" class="cls-19" d="M120.79,100l10.28-5.94c.47-.27.86,0,.86.49v11.88a1.89,1.89,0,0,1-.86,1.47l-10.28,5.94c-.47.27-.86,0-.86-.49V101.46A1.89,1.89,0,0,1,120.79,100Z"/><path id="_Path_56" data-name="&lt;Path&gt;" class="cls-3" d="M132.28,95.65,130,97a1.87,1.87,0,0,0-.85,1.47v2.65c0,.54.38.76.85.49l2.29-1.32a1.9,1.9,0,0,0,.86-1.48V96.14C133.14,95.6,132.75,95.38,132.28,95.65Z"/></g><path id="_Path_57" data-name="&lt;Path&gt;" class="cls-20" d="M121.57,101.27l5.15-3c.24-.13.43,0,.43.25v.16a.92.92,0,0,1-.43.74l-5.15,3c-.24.14-.43,0-.43-.24V102A.92.92,0,0,1,121.57,101.27Z"/><path id="_Path_58" data-name="&lt;Path&gt;" class="cls-20" d="M121.57,103.57l5.15-3c.24-.14.43,0,.43.25V101a1,1,0,0,1-.43.74l-5.15,3c-.24.13-.43,0-.43-.25v-.17A1,1,0,0,1,121.57,103.57Z"/><path id="_Path_59" data-name="&lt;Path&gt;" class="cls-20" d="M121.57,105.88l5.15-3c.24-.13.43,0,.43.25v.16a.92.92,0,0,1-.43.74l-5.15,3c-.24.14-.43,0-.43-.24v-.17A.92.92,0,0,1,121.57,105.88Z"/><path id="_Path_60" data-name="&lt;Path&gt;" class="cls-20" d="M121.57,108.18l8.56-4.93c.24-.14.43,0,.43.24v.17a1,1,0,0,1-.43.74l-8.56,4.94c-.24.13-.43,0-.43-.25v-.17A1,1,0,0,1,121.57,108.18Z"/><path id="_Path_61" data-name="&lt;Path&gt;" class="cls-20" d="M121.57,110.49l8.56-4.94c.24-.13.43,0,.43.25V106a.92.92,0,0,1-.43.74l-8.56,4.94c-.24.14-.43,0-.43-.24v-.17A.92.92,0,0,1,121.57,110.49Z"/></g></g></g><g id="_Group_30" data-name="&lt;Group&gt;"><polygon id="_Path_62" data-name="&lt;Path&gt;" class="cls-3" points="75.2 86.51 73.2 85.34 73.2 94.58 75.2 95.73 75.2 86.51"/><polygon id="_Path_63" data-name="&lt;Path&gt;" class="cls-10" points="75.2 86.51 73.2 85.34 73.2 94.58 75.2 95.73 75.2 86.51"/></g></g><g id="Letter"><g id="_Group_31" data-name="&lt;Group&gt;"><g id="_Group_32" data-name="&lt;Group&gt;"><path id="_Path_64" data-name="&lt;Path&gt;" class="cls-17" d="M45.08,128.66a1.67,1.67,0,0,1,.75-1.3L84.3,105.15a1.65,1.65,0,0,1,1.5,0l.85.49a1.64,1.64,0,0,1,.75,1.3v29.49a1.69,1.69,0,0,1-.75,1.3L48.18,159.94a1.65,1.65,0,0,1-1.5,0l-.85-.49a1.69,1.69,0,0,1-.75-1.3Z"/></g></g><path id="_Path_65" data-name="&lt;Path&gt;" class="cls-21" d="M45.3,127.92l2.13,1.23,39.75-23a1.43,1.43,0,0,0-.53-.56l-.85-.49a1.65,1.65,0,0,0-1.5,0L45.83,127.36A1.43,1.43,0,0,0,45.3,127.92Z"/><path id="_Path_66" data-name="&lt;Path&gt;" class="cls-10" d="M45.08,128.66v29.49a1.67,1.67,0,0,0,.75,1.3l.85.49a1.21,1.21,0,0,0,.2.09,1.55,1.55,0,0,0,.31.07,1.72,1.72,0,0,0,.6,0l.14,0,.09,0a.44.44,0,0,1-.36,0,.54.54,0,0,1-.23-.5V130a.66.66,0,0,1,.39-.64l-.39-.23-2.13-1.23A1.47,1.47,0,0,0,45.08,128.66Z"/><path id="_Path_67" data-name="&lt;Path&gt;" class="cls-22" d="M47.43,129.15l17.82,6.66a2.89,2.89,0,0,0,3.43-1.14l2.86-4.38,15.78-24.17-15.2,24.34,15.28,6a1.56,1.56,0,0,1-.23.75l-15.1-6.67-3.32,5.32A2.91,2.91,0,0,1,65.12,137l-2.36-1.05L47.66,160a.54.54,0,0,1-.23-.5V159l15.25-23.13Z"/></g><g id="Chat"><g id="_Group_33" data-name="&lt;Group&gt;"><g id="_Group_34" data-name="&lt;Group&gt;"><g id="_Group_35" data-name="&lt;Group&gt;"><path id="_Path_68" data-name="&lt;Path&gt;" class="cls-15" d="M207.83,78.15l-3.59-2.08a.33.33,0,0,1-.17-.14l-.66-1.16,2.13-1.23-.07.19Z"/></g><path id="_Path_69" data-name="&lt;Path&gt;" class="cls-16" d="M205.21,73.72,207.7,78a.37.37,0,0,0,.67-.06L211,70.38Z"/><path id="_Path_70" data-name="&lt;Path&gt;" class="cls-16" d="M216.94,50.76a3.83,3.83,0,0,0-1.74-3l-1.41-.82a3.88,3.88,0,0,0-3.48,0L182.2,63.15a3.83,3.83,0,0,0-1.74,3V80.4a3.85,3.85,0,0,0,1.74,3l1.41.81a3.79,3.79,0,0,0,3.47,0l28.28-16.33A2.7,2.7,0,0,0,216.94,65Z"/><path id="_Path_71" data-name="&lt;Path&gt;" class="cls-15" d="M180.46,80.4a3.85,3.85,0,0,0,1.74,3l1.41.81a3.91,3.91,0,0,0,3.18.15c-.82.31-1.44-.16-1.44-1.15V69a3.58,3.58,0,0,1,.5-1.71L181,64.45a3.45,3.45,0,0,0-.51,1.71Z"/><path id="_Path_72" data-name="&lt;Path&gt;" class="cls-14" d="M216.88,50.26c-.2-.73-.88-1-1.68-.51L187.08,66a3.49,3.49,0,0,0-1.22,1.3L181,64.45a3.59,3.59,0,0,1,1.23-1.3l28.11-16.22a3.85,3.85,0,0,1,3.47,0l1.42.82A3.82,3.82,0,0,1,216.88,50.26Z"/></g><g id="_Group_36" data-name="&lt;Group&gt;"><path id="_Path_73" data-name="&lt;Path&gt;" class="cls-17" d="M190,70,210.1,58.36c.58-.34,1.05-.18,1.05.34a2.11,2.11,0,0,1-1.05,1.56L190,71.91c-.58.34-1,.18-1-.34A2.11,2.11,0,0,1,190,70Z"/><path id="_Path_74" data-name="&lt;Path&gt;" class="cls-17" d="M190,74.78,210.1,63.13c.58-.33,1.05-.18,1.05.34A2.09,2.09,0,0,1,210.1,65L190,76.68c-.58.34-1,.18-1-.34A2.11,2.11,0,0,1,190,74.78Z"/></g></g></g><g id="Pencil"><path id="Shadow-3" data-name="Shadow" class="cls-3" d="M42.86,183.06l82.77,47.65a2.23,2.23,0,0,1,.65,2.56,7.41,7.41,0,0,1-4.69,4.88,5.89,5.89,0,0,1-5-.68L33.09,188.7,22.41,175.84A.53.53,0,0,1,23,175Z"/><g id="Pencil-2" data-name="Pencil"><g id="_Group_37" data-name="&lt;Group&gt;"><g id="_Group_38" data-name="&lt;Group&gt;"><path id="_Path_75" data-name="&lt;Path&gt;" class="cls-23" d="M34.46,185.5,24.19,173.32a.49.49,0,0,1,.48-.79L40.32,176Z"/><path id="_Path_76" data-name="&lt;Path&gt;" class="cls-24" d="M24.58,172.53h.09L40.32,176l-3.1,5-1.68-1L24.6,173.09Z"/><path id="_Path_77" data-name="&lt;Path&gt;" class="cls-15" d="M24.67,172.53a.49.49,0,0,0-.48.79l2,2.38h0a2.7,2.7,0,0,1,1.57-2.32l.25-.11Z"/><path id="_Path_78" data-name="&lt;Path&gt;" class="cls-16" d="M111.13,218.72l-1.26-.76-1.52-.93L40.32,176A7,7,0,0,0,36,178.87c-1.64,2.18-2.3,5-1.54,6.63l68,41,2.91,1.76C103.55,227.05,109.29,217.5,111.13,218.72Z"/><path id="_Path_79" data-name="&lt;Path&gt;" class="cls-14" d="M111.13,218.72l-1.26-.76-1.52-.93L40.32,176a7.55,7.55,0,0,0-5,3.89l71,43.31c-.1.18-.07.26.08.27C107.85,220.73,110.1,218,111.13,218.72Z"/><path id="_Path_80" data-name="&lt;Path&gt;" class="cls-20" d="M106.34,215.8l-2.83-1.7c-.8-.52-2.37.91-3.77,2.81-1.85,2.52-3,6.11-2,6.8L99.86,225l.75.44c-1.06-.69.1-4.28,2-6.8,1.34-1.82,2.85-3.21,3.67-2.85h0Z"/><path id="_Path_81" data-name="&lt;Path&gt;" class="cls-16" d="M105.63,215.38c-1.86-1.21-7.59,8.39-5.73,9.6l2.82,1.71c-1.86-1.21,3.87-10.81,5.73-9.6Z"/><path id="_Path_82" data-name="&lt;Path&gt;" class="cls-20" d="M111.13,218.72,108.35,217c-1.82-1.2-7.42,8-5.89,9.5a.27.27,0,0,0,.1.08l2.81,1.68C103.55,227.05,109.29,217.5,111.13,218.72Z"/><path id="_Path_83" data-name="&lt;Path&gt;" class="cls-24" d="M24.17,172.72a.47.47,0,0,1,.4-.2A.47.47,0,0,0,24.17,172.72Z"/><path id="_Path_84" data-name="&lt;Path&gt;" class="cls-16" d="M123,225.87l-11.82-7.15c-.79-.52-2.35.88-3.75,2.76-1.86,2.52-3,6.1-2,6.81,0,0,0,0,0,0l11.86,7.17c2.36,1.42,5.83-3,6.57-6.47A2.87,2.87,0,0,0,123,225.87Z"/></g></g><path id="_Path_85" data-name="&lt;Path&gt;" class="cls-10" d="M119.35,227.05c-2,1.91-3.28,5.11-2.8,7.15a2,2,0,0,0,1.08,1.45c2.34.76,5.48-3.38,6.18-6.65a2.89,2.89,0,0,0-.81-3.08C122.1,225.39,120.73,225.75,119.35,227.05Z"/></g></g><g id="Character"><g id="_Group_39" data-name="&lt;Group&gt;"><g id="_Group_40" data-name="&lt;Group&gt;"><path id="_Path_86" data-name="&lt;Path&gt;" class="cls-24" d="M203.52,199.76s1,6.68,2.93,9.17c1.77,2.24,3,5.09,5.13,7.43.45.5,1.48,1.45,1.86,1.86a.8.8,0,0,1-.07,1.24c-.89.89-4.75,1.16-7-.42s-4.37-4.64-5.69-5.92L199,211.41a1.75,1.75,0,0,1-.46-1.66c0-.17.09-.37.14-.6.27-1.25-1.46-6.34-1.46-6.34Z"/><path class="cls-15" d="M198.86,212.75a3.44,3.44,0,0,0,.22,1.2,5.29,5.29,0,0,0,2,1.53,4.5,4.5,0,0,1,2.24,2.32,8.08,8.08,0,0,0,3.81,3.67,11.52,11.52,0,0,0,6.85.58c2.85-.57,3-2.26,3-2.26s.12-1.59-.6-1.83S198.86,212.75,198.86,212.75Z"/><path id="_Path_87" data-name="&lt;Path&gt;" class="cls-14" d="M198.12,205.78a15.36,15.36,0,0,1,.2,4.1,4.26,4.26,0,0,0,.54,2.87c.87,1.15,2.68,1.5,3.86,3.07s2.93,4.42,6.69,5.09,6.58-.57,7.25-1.65,0-2.07-2.41-3.32-6-5.36-6-5.36a14.56,14.56,0,0,1-2.43-4l-.91-2.91c-.2-.56-4.24.66-4.67,1.46l.49,2.58-1-2.43A2.63,2.63,0,0,0,198.12,205.78Z"/><path class="cls-8" d="M207,220.06a4.75,4.75,0,0,1,2.69-4.11c2.8-1.5,4.53-.61,5.41,0,1,.72,2.54,2.24,1.67,3.38s-2.48,1.83-5.36,1.93A6.81,6.81,0,0,1,207,220.06Z"/><path class="cls-8" d="M202.93,211.39a.34.34,0,0,0,.25-.14c.32-.45,2.34-2.16,4.33-1.65.1-.23-.07-.46-.48-.7a5.81,5.81,0,0,0-4.39,2,.31.31,0,0,0,.09.43A.37.37,0,0,0,202.93,211.39Z"/><path class="cls-8" d="M208.68,211.07a1,1,0,0,0-.58-.68,6,6,0,0,0-4.12,2,.3.3,0,0,0,.09.43.29.29,0,0,0,.2,0,.3.3,0,0,0,.25-.14A5,5,0,0,1,208.68,211.07Z"/><path class="cls-8" d="M206.62,208.24a.57.57,0,0,0-.41-.77c-2.28-.5-4.5,1.34-4.9,1.93a.3.3,0,0,0,.09.43.27.27,0,0,0,.19,0,.31.31,0,0,0,.26-.14C202.18,209.26,204.49,207.32,206.62,208.24Z"/><path class="cls-8" d="M211.86,214.22a1.83,1.83,0,0,0-.91-.81,5.87,5.87,0,0,0-4.3,2,.3.3,0,0,0,.1.43.26.26,0,0,0,.19.05.31.31,0,0,0,.26-.14C207.53,215.29,209.76,213.41,211.86,214.22Z"/><path class="cls-8" d="M205.6,214.4a.38.38,0,0,0,.26-.14c.31-.45,2.29-2.12,4.26-1.66a1.09,1.09,0,0,0-.68-.7,5.87,5.87,0,0,0-4.12,2,.3.3,0,0,0,.09.43A.45.45,0,0,0,205.6,214.4Z"/><path id="_Path_88" data-name="&lt;Path&gt;" class="cls-16" d="M163.72,152.46c-.46,4.18-1.43,6.74.24,10.4s6.48,6.51,11.77,9.88c4.91,3.13,9.68,6.68,10.9,7.5a4,4,0,0,1,2.26,3.56c.32,2.54,1.52,6.62,4.21,11.94,3.07,6.07,4.26,9.11,4.26,9.11s3.94-1.29,6.94-2.55c0,0-5.34-24.67-6.54-28s-13.95-13.91-13.95-13.91,1.25-5.32,2.17-9.19Z"/></g><g id="_Group_41" data-name="&lt;Group&gt;"><path id="_Path_89" data-name="&lt;Path&gt;" class="cls-24" d="M220.29,193.93a62.3,62.3,0,0,0,3.19,8,38.89,38.89,0,0,0,5,7.3c.44.5,1.46,1.42,1.83,1.82a.8.8,0,0,1-.07,1.23c-.88.87-4.67,1.14-6.82-.42s-4.3-4.55-5.59-5.81l-1.7-1.68a1.71,1.71,0,0,1-.45-1.63c0-.16.08-.36.13-.59.27-1.23-1.43-6.23-1.43-6.23Z"/><path id="_Path_90" data-name="&lt;Path&gt;" class="cls-16" d="M180.92,145.08c-.69,3.88-.9,6.07.46,10s4.54,10.14,10,13.2c4.53,2.54,10.42,5.66,11.68,6.4s2,1.55,2.46,4.36c.39,2.54,1.72,5.42,4.66,10.61a76.63,76.63,0,0,1,4.28,8.47,39.72,39.72,0,0,1,6.76-2.47s-6.51-24.26-7.7-27.58-9.86-8.21-13.57-10.35-5.8-3.48-10-6.35Z"/><path class="cls-15" d="M216,205.69a3.5,3.5,0,0,0,.21,1.18,5.21,5.21,0,0,0,2,1.5,4.51,4.51,0,0,1,2.2,2.28,7.92,7.92,0,0,0,3.74,3.6,11.3,11.3,0,0,0,6.73.57c2.79-.56,3-2.22,3-2.22s.12-1.56-.59-1.79S216,205.69,216,205.69Z"/><path id="_Path_91" data-name="&lt;Path&gt;" class="cls-14" d="M215.24,198.84a15.33,15.33,0,0,1,.2,4,4.1,4.1,0,0,0,.53,2.81c.85,1.13,2.63,1.47,3.79,3s2.88,4.34,6.57,5,6.46-.56,7.12-1.62,0-2-2.37-3.26-5.9-5.26-5.9-5.26a14.41,14.41,0,0,1-2.37-4l-.75-2.69c-.2-.56-4.23.48-4.65,1.27l.49,2.46-1.1-2.31Z"/><path class="cls-8" d="M223.93,212.87a4.67,4.67,0,0,1,2.64-4c2.75-1.47,4.45-.59,5.31,0,1,.71,2.5,2.2,1.64,3.32s-2.43,1.8-5.25,1.89A6.74,6.74,0,0,1,223.93,212.87Z"/><path class="cls-8" d="M220,204.35a.3.3,0,0,0,.25-.13c.31-.45,2.3-2.13,4.25-1.62.1-.23-.07-.46-.47-.69a5.7,5.7,0,0,0-4.31,2,.3.3,0,0,0,.09.42A.34.34,0,0,0,220,204.35Z"/><path class="cls-8" d="M225.61,204a1,1,0,0,0-.57-.67,5.84,5.84,0,0,0-4,2,.31.31,0,0,0,.29.47.32.32,0,0,0,.25-.14A4.87,4.87,0,0,1,225.61,204Z"/><path class="cls-8" d="M223.58,201.26a.56.56,0,0,0-.39-.76c-2.24-.48-4.42,1.32-4.82,1.9a.29.29,0,0,0,.09.42.27.27,0,0,0,.19.05.31.31,0,0,0,.25-.13C219.23,202.26,221.5,200.36,223.58,201.26Z"/><path class="cls-8" d="M228.73,207.14a1.78,1.78,0,0,0-.89-.81,5.79,5.79,0,0,0-4.22,2,.29.29,0,0,0,.09.42.27.27,0,0,0,.19.05.3.3,0,0,0,.25-.13C224.48,208.18,226.67,206.34,228.73,207.14Z"/><path class="cls-8" d="M222.59,207.31a.35.35,0,0,0,.25-.14c.3-.44,2.25-2.08,4.18-1.63a1.06,1.06,0,0,0-.66-.69,5.79,5.79,0,0,0-4.05,2,.29.29,0,0,0,.09.42A.41.41,0,0,0,222.59,207.31Z"/></g><path id="_Path_92" data-name="&lt;Path&gt;" class="cls-16" d="M186.55,156.93a31.28,31.28,0,0,1-2.74,3.47l.78.65A11,11,0,0,0,186.55,156.93Z"/></g><path id="_Path_93" data-name="&lt;Path&gt;" class="cls-3" d="M188.3,119.3c3.47.53,5.48,2.36,5.58,5.1s-4.22,13.24-4.22,13.24q3.18,2.88,6.55,5.53c.87.68,1.74,1.35,2.63,2,.49.37,2.1,1.17,2.18,1.82a1.12,1.12,0,0,1-.14.61c-.83,1.79-2.76,3.36-4.72,2.58-1.68-.67-3.53-1.55-5.19-2.39a43.42,43.42,0,0,1-5.07-2.86,10,10,0,0,1-2.86-2.25C181.83,141,188.3,119.3,188.3,119.3Z"/><path id="_Path_94" data-name="&lt;Path&gt;" class="cls-18" d="M170.79,122.9c-1.19,1.78-4.77,12.19-7.39,31.84,3.5,3.8,21.18,4.73,26.53-3.38,0,0,2.33-17.85,2.29-21.73,0-2.69.79-8.72-3.92-10.44l-7.06-.47-8.07,1.11A25.71,25.71,0,0,0,170.79,122.9Z"/><path class="cls-17" d="M180.36,123.4a6.7,6.7,0,0,0,4.82,1.16c1.39-.38,1.89-1.69,2-3l-1.61.23-.61,1-.81-.63Z"/><path class="cls-6" d="M180.36,123.4a6.7,6.7,0,0,0,4.82,1.16c1.39-.38,1.89-1.69,2-3l-1.61.23-.61,1-.81-.63Z"/><g id="_Group_42" data-name="&lt;Group&gt;"><g id="_Group_43" data-name="&lt;Group&gt;"><circle id="_Path_95" data-name="&lt;Path&gt;" class="cls-15" cx="187.71" cy="102.35" r="7.26" transform="translate(13.06 225.66) rotate(-63.83)"/><path id="_Path_96" data-name="&lt;Path&gt;" class="cls-15" d="M174.93,106.91a62.26,62.26,0,0,0,1.34,6.51,2.49,2.49,0,0,0,1.39,1.23l.1-3.89Z"/><path id="_Path_97" data-name="&lt;Path&gt;" class="cls-15" d="M176.78,99.07a2.74,2.74,0,0,0-2.29.69c-1,.94-.62,4.06.44,7.15l2.2.36Z"/><path id="_Path_98" data-name="&lt;Path&gt;" class="cls-24" d="M177.61,107.34c-.48-.07-.63-.84-1.15-1.43a2.18,2.18,0,0,0-3.49.53c-1,1.87.58,4.48,2,5,2.38.87,2.82-.67,2.82-.67l-.23,8.76c1.4,1.71,6.75,2.58,7.4,3.22a4.42,4.42,0,0,0,.5-3.08l.12-2.66a15,15,0,0,0,3.26.32c1.8-.19,3-1.54,3.62-3.45,1-3.06,1.46-5.54,1-11.68-.49-6.72-8.26-7.15-12.58-4.71S177.61,107.34,177.61,107.34Z"/><path id="_Path_99" data-name="&lt;Path&gt;" class="cls-15" d="M177.76,108.05c-.42-.08-.77-1.62-1.3-2.14-.73-.74.32-6.84.32-6.84a3,3,0,0,1,.89-3.15,6.3,6.3,0,0,1,6.09-1.76,59.46,59.46,0,0,0,5.86,1,13.39,13.39,0,0,0,6.06-.71,6.13,6.13,0,0,1-.38,3.21,5,5,0,0,1-2.08,2.28,8.2,8.2,0,0,1-4.26,1,24.45,24.45,0,0,1-7.91-.85c-.82-.15-1,.64-1.58,2.8C179,104.84,179.68,108.44,177.76,108.05Z"/><path id="_Path_100" data-name="&lt;Path&gt;" class="cls-15" d="M176.76,99.56,174.14,98a1.49,1.49,0,0,1,2.07-.58A1.6,1.6,0,0,1,176.76,99.56Z"/><path id="_Path_101" data-name="&lt;Path&gt;" class="cls-23" d="M185.55,117a30.39,30.39,0,0,1-5.3-1.8,4.57,4.57,0,0,1-1.83-2,6.12,6.12,0,0,0,1,2.29c1,1.35,6.09,2.56,6.09,2.56Z"/><path class="cls-16" d="M195.15,105.28l-.34,0a10.05,10.05,0,0,0-3.34.28,12.14,12.14,0,0,1-2.08.79c-.63,0-1-.31-2.11-.58a11,11,0,0,0-3.56.08l-.36.06a.65.65,0,0,0-.44.61,1.16,1.16,0,0,0,.29.66.69.69,0,0,1,.1.27,11.36,11.36,0,0,0,.3,1.87,1.89,1.89,0,0,0,.41.65,1.3,1.3,0,0,0,.22.19l.12.09a2,2,0,0,0,.39.16l.07,0,.1,0,.11,0,.35,0h.34a2.82,2.82,0,0,0,2.54-1.53c.41-.74.39-1.74,1.07-1.78h.12c.49.09.36,1,.63,1.67a2.18,2.18,0,0,0,.43.71l.1.11.06,0,.06,0,.05,0,.06,0,0,0,0,0a2.25,2.25,0,0,0,.57.21h0a3.2,3.2,0,0,0,.71,0,2.39,2.39,0,0,0,2.16-1.42,14,14,0,0,0,.56-1.91.55.55,0,0,1,.14-.25,1.51,1.51,0,0,0,.36-.72C195.51,105.56,195.33,105.29,195.15,105.28Zm-7.22,3a2.48,2.48,0,0,1-.58,1h0a2.33,2.33,0,0,1-1.64.65,1.57,1.57,0,0,1-1.48-.65l0-.07,0-.07a.21.21,0,0,1,0-.06.14.14,0,0,1,0-.06s0,0,0,0a.08.08,0,0,1,0,0l0-.07h0l-.06-.21h0l0-.12c0-.08,0-.14,0-.2v-.08c-.07-.49-.14-1.47.13-1.7a3.07,3.07,0,0,1,2-.45h.12a4.1,4.1,0,0,1,.49.06l.19,0a4.49,4.49,0,0,1,.47.13l.15,0,.15.07,0,0,.06,0a.9.9,0,0,1,.31.24A2.29,2.29,0,0,1,187.93,108.31Zm6.37-.54a2.49,2.49,0,0,1-1.14,1.66,2.19,2.19,0,0,1-.83.22,1.56,1.56,0,0,1-1.57-.67h0l0,0,0-.05,0,0,0-.08a.36.36,0,0,1,0-.09s0,0,0,0v-.09a1.84,1.84,0,0,1-.07-.37,2.36,2.36,0,0,1,.14-1.51,3.4,3.4,0,0,1,1.84-.83,5,5,0,0,1,.5-.07h.58l.24,0H194l.07,0,.11,0h0a.78.78,0,0,1,.26.16C194.65,106.28,194.44,107.27,194.3,107.77Z"/><path class="cls-16" d="M183.36,105.94l-7.75-.55a2.22,2.22,0,0,1,1.12.88l6.46.6Z"/><g id="_Group_44" data-name="&lt;Group&gt;"><path id="_Path_102" data-name="&lt;Path&gt;" class="cls-15" d="M186.56,107.67a.7.7,0,0,1-.77.64.72.72,0,1,1,.77-.64Z"/></g><g id="_Group_45" data-name="&lt;Group&gt;"><path id="_Path_103" data-name="&lt;Path&gt;" class="cls-23" d="M185.67,112.24l2.33,1.18a1.29,1.29,0,0,1-1.73.62A1.37,1.37,0,0,1,185.67,112.24Z"/></g><g id="_Group_46" data-name="&lt;Group&gt;"><path id="_Path_104" data-name="&lt;Path&gt;" class="cls-15" d="M192.94,104.76l-1.75-.49a.88.88,0,0,1,1.15-.61A.87.87,0,0,1,192.94,104.76Z"/></g><g id="_Group_47" data-name="&lt;Group&gt;"><path id="_Path_105" data-name="&lt;Path&gt;" class="cls-15" d="M186.26,104.51l-1.74.53a.89.89,0,0,1,.64-1.14A.88.88,0,0,1,186.26,104.51Z"/></g><g id="_Group_48" data-name="&lt;Group&gt;"><path id="_Path_106" data-name="&lt;Path&gt;" class="cls-15" d="M192.58,107.54a.69.69,0,1,1-1.38-.15.69.69,0,0,1,.76-.64A.71.71,0,0,1,192.58,107.54Z"/></g><g id="_Group_49" data-name="&lt;Group&gt;"><path id="_Path_107" data-name="&lt;Path&gt;" class="cls-23" d="M189.11,107.25l-.17,4.29,2.67-.72-2.22-3.63A.43.43,0,0,0,189.11,107.25Z"/></g></g></g><g id="_Group_50" data-name="&lt;Group&gt;"><g id="_Group_51" data-name="&lt;Group&gt;"><g id="_Group_52" data-name="&lt;Group&gt;"><path id="_Path_108" data-name="&lt;Path&gt;" class="cls-20" d="M175.44,163.38v.51a1.44,1.44,0,0,0,.71,1.24L189.84,173a1.46,1.46,0,0,0,1.44,0l25.11-14.5a1.44,1.44,0,0,0,.72-1.24v-.35l-26.55,15.32Z"/></g><g id="_Group_53" data-name="&lt;Group&gt;"><path id="_Path_109" data-name="&lt;Path&gt;" class="cls-8" d="M217.11,156.92l-14.89-8.6a.88.88,0,0,0-.86,0l-25.83,14.92a.2.2,0,0,0,0,.33l15,8.67Z"/></g><g id="_Group_54" data-name="&lt;Group&gt;"><path id="_Path_110" data-name="&lt;Path&gt;" class="cls-24" d="M196.16,150.18c1.15.44,1.34.95,2.27,1.48a6.79,6.79,0,0,0,3.35.91,11.19,11.19,0,0,1,2.15,1,2.94,2.94,0,0,0,3.25.54c1.67-.52.49-2.17,0-3a27.72,27.72,0,0,0-2.55-3.51c-.53-.49-3.3-.92-5.69-2.38C197.09,146,196.3,147.75,196.16,150.18Z"/></g><g id="_Group_55" data-name="&lt;Group&gt;"><polygon id="_Path_111" data-name="&lt;Path&gt;" class="cls-3" points="190.42 170.98 182.39 166.35 205.87 152.79 213.95 157.4 190.42 170.98"/></g><g id="_Group_56" data-name="&lt;Group&gt;"><polygon id="_Path_112" data-name="&lt;Path&gt;" class="cls-3" points="186.48 158.1 186.63 158.18 190.56 160.45 197.56 156.41 197.71 156.33 193.62 153.97 186.48 158.1"/></g><g id="_Group_57" data-name="&lt;Group&gt;"><polygon id="_Path_113" data-name="&lt;Path&gt;" class="cls-13" points="186.63 158.18 190.56 160.45 197.56 156.41 193.62 154.14 186.63 158.18"/></g><g id="_Group_58" data-name="&lt;Group&gt;"><path id="_Path_114" data-name="&lt;Path&gt;" class="cls-20" d="M190.56,172.24v1a1.41,1.41,0,0,0,.72-.19l25.11-14.5a1.44,1.44,0,0,0,.72-1.24v-.35Z"/></g><g id="_Group_59" data-name="&lt;Group&gt;" class="cls-25"><path id="_Path_115" data-name="&lt;Path&gt;" class="cls-3" d="M190.56,172.24v1a1.41,1.41,0,0,0,.72-.19l25.11-14.5a1.44,1.44,0,0,0,.72-1.24v-.35Z"/></g><g id="_Group_60" data-name="&lt;Group&gt;"><path id="_Path_116" data-name="&lt;Path&gt;" class="cls-20" d="M191,172.46a1.71,1.71,0,0,0,1.46-.12l25-14.43a1.71,1.71,0,0,0,.83-1.19L221,140.4a1.33,1.33,0,0,0,0-.28,1.73,1.73,0,0,0-.51-1.21l-26,15a1.3,1.3,0,0,0-.61.88Z"/></g><g id="_Group_61" data-name="&lt;Group&gt;"><path id="_Path_117" data-name="&lt;Path&gt;" class="cls-8" d="M190.56,172.24l.17.1.24.12,2.95-17.67a1.3,1.3,0,0,1,.61-.88l26-15a1.7,1.7,0,0,0-.34-.26l-26,15a1.3,1.3,0,0,0-.61.88Z"/></g><g id="_Group_62" data-name="&lt;Group&gt;"><path id="_Path_118" data-name="&lt;Path&gt;" class="cls-18" d="M205.05,157.39a5.54,5.54,0,0,1,2.51-3.24c1.21-.7,2-.38,1.86.71a5.46,5.46,0,0,1-2.52,3.24C205.69,158.8,204.86,158.48,205.05,157.39Z"/></g></g></g><g id="_Group_63" data-name="&lt;Group&gt;"><path id="_Path_119" data-name="&lt;Path&gt;" class="cls-24" d="M177.76,157.34c-2.79-1.42-12.53-6.25-15.68-8.11-2.6-1.55-3.66-2.94-3.36-4.88s4.36-15.24,6-18.68c1.45-3,4.83-4.83,8.14-5.58,2.28,2.66.64,10.57-1.61,13.46a102.94,102.94,0,0,0-3.55,9.72s4.56,3.53,8.69,6.06c2.25,1.38,4.28,3,6.11,4a21.17,21.17,0,0,1,4.44,3c.43.57,2.55,4,3,4.82,1.34,2.2.17,2.66-1.56,2.86-1.58.19-2.67-.67-3.73-1.73a15,15,0,0,1-1.36-1.64,6,6,0,0,1-3.37-1.36C179.13,158.54,177.76,157.34,177.76,157.34Z"/></g><path class="cls-3" d="M160.23,138s2-6.85,3-9.57c1.38-3.76,2-4.8,4.15-6.87,1.9-1.84,5.76-1.7,5.76-1.7,1.59,1.35,1.86,3.62,1.22,7.58a15.83,15.83,0,0,1-2.68,6.6l-3.62,9,10.94,8a7.73,7.73,0,0,0-3.59,5.09s-9.66-4.61-12.74-6.23-4.61-2.7-4.19-5.35A53,53,0,0,1,160.23,138Z"/><path class="cls-3" d="M177.61,116.58c-.82.22-1.5,1.73-2,2.37s.71,3.44,3.12,4.78a9.18,9.18,0,0,0,3.9,1.34,6.1,6.1,0,0,1,.73-2.17,1.23,1.23,0,0,1,1.57-.16s0-1.16-1.57-1.38-4.74-1.6-5.78-3.58Z"/><path class="cls-3" d="M184.93,122.74a2.5,2.5,0,0,1,.24-1.31,4.36,4.36,0,0,0,.26-1.77l.1-2.29a1.67,1.67,0,0,1,.82.41,9.48,9.48,0,0,1,1,2.12c.2.74.23,3.25-.37,4.09,0,0-.33-1.44-.8-1.75C185.54,121.79,184.93,122.74,184.93,122.74Z"/><path class="cls-14" d="M184.22,125.78c-.58,3.8-2,17.19-1.92,18.39s1.77,6,2.77,5.26c.54-.42,2.69-5.43,2.6-6.7s-1.58-17.4-1.58-17.4S185.1,124.11,184.22,125.78Z"/><path class="cls-26" d="M186.09,125.33s-1-1.22-1.87.45c-.08.53-.18,1.25-.28,2.09a7.15,7.15,0,0,1,.87-1.86A3.3,3.3,0,0,1,186.09,125.33Z"/><path class="cls-14" d="M184.93,122.32c-1.05.2-1.55.58-1.52,1.31a5.13,5.13,0,0,0,.81,2.15,2.5,2.5,0,0,1,1.87-.45,4.21,4.21,0,0,0,.47-1.85C186.58,122.4,186.16,122.08,184.93,122.32Z"/></g></g></g></g></svg>