<svg xmlns="http://www.w3.org/2000/svg" xmlns:xlink="http://www.w3.org/1999/xlink" viewBox="0 0 1920.29 634.74"><defs><style>.cls-1{opacity:0.55;}.cls-2{opacity:0.45;fill:url(#linear-gradient);}.cls-3{opacity:0.24;fill:url(#linear-gradient-2);}</style><linearGradient id="linear-gradient" x1="960.57" y1="849.63" x2="960.57" y2="1423.27" gradientTransform="translate(1920.57 1482.18) rotate(180)" gradientUnits="userSpaceOnUse"><stop offset="0" stop-color="#eab53c"/><stop offset="0.48" stop-color="#eab53c" stop-opacity="0.59"/><stop offset="0.83" stop-color="#eab53c" stop-opacity="0.31"/><stop offset="1" stop-color="#eab53c" stop-opacity="0.2"/></linearGradient><linearGradient id="linear-gradient-2" x1="960.29" y1="847.44" x2="960.29" y2="1482.18" xlink:href="#linear-gradient"/></defs><title>bg-1</title><g id="Layer_2" data-name="Layer 2"><g id="Layer_1-2" data-name="Layer 1"><g class="cls-1"><path class="cls-2" d="M0,632.55V173.41a997.63,997.63,0,0,0,463.1-17.56l37.36-10.44,178-49.74a997.67,997.67,0,0,1,589.06,16.2l117.43,39.93,79.3,26.95A997.12,997.12,0,0,0,1920,222.54v410Z"/><path class="cls-3" d="M.29,634.74V7.86a884.2,884.2,0,0,1,471.62,66l24.5,10.72,4.33,1.87A884.53,884.53,0,0,0,972,150.14l413.27-57.26,388.17-53.79a885.63,885.63,0,0,1,146.9-8V634.74Z"/></g></g></g></svg>