<svg xmlns="http://www.w3.org/2000/svg" xmlns:xlink="http://www.w3.org/1999/xlink" viewBox="0 0 1920 646.8"><defs><style>.cls-1{opacity:0.76;}.cls-2{opacity:0.26;fill:url(#linear-gradient);}.cls-3{opacity:0.22;fill:url(#linear-gradient-2);}</style><linearGradient id="linear-gradient" x1="960" y1="570.72" x2="960" y2="1217.52" gradientTransform="translate(1920 1217.52) rotate(180)" gradientUnits="userSpaceOnUse"><stop offset="0" stop-color="#eab53c"/><stop offset="0.48" stop-color="#eab53c" stop-opacity="0.59"/><stop offset="0.83" stop-color="#eab53c" stop-opacity="0.31"/><stop offset="1" stop-color="#eab53c" stop-opacity="0.2"/></linearGradient><linearGradient id="linear-gradient-2" x1="960" y1="570.72" x2="960" y2="1217.52" xlink:href="#linear-gradient"/></defs><title>bg-2</title><g id="Layer_2" data-name="Layer 2"><g id="Layer_1-2" data-name="Layer 1"><g class="cls-1"><path class="cls-2" d="M0,646.8V116.67A979.64,979.64,0,0,0,463.1,98.78l37.36-10.64,178-50.68A979.9,979.9,0,0,1,1267.5,54l117.43,40.68,79.3,27.47A979.74,979.74,0,0,0,1920,166.74V646.8Z"/><path class="cls-3" d="M0,646.8V8a869.36,869.36,0,0,1,471.63,67.3l24.5,10.92,4.33,1.91A869.5,869.5,0,0,0,971.66,153l413.27-58.35,388.18-54.81A868.69,868.69,0,0,1,1920,31.67V646.8Z"/></g></g></g></svg>