<svg xmlns="http://www.w3.org/2000/svg" viewBox="0 0 19.03 23.1"><defs><style>.cls-1{fill:#064b77;}</style></defs><title>Asset 16</title><g id="Layer_2" data-name="Layer 2"><g id="Layer_1-2" data-name="Layer 1"><path class="cls-1" d="M19,20.61a1.75,1.75,0,0,1-.7,1.11l-1.07.75a1.19,1.19,0,0,0-.2.08,5.36,5.36,0,0,1-1.26.43,5.53,5.53,0,0,1-1.4.12L14,23.05c-1.55-.25-5.62-1.49-9.84-7.36C.44,10.58-.65,7.08.35,3.61A5.8,5.8,0,0,1,.91,2.32a6,6,0,0,1,.8-1,.68.68,0,0,0,.17-.21l1-.74A1.7,1.7,0,0,1,4.19,0,1.61,1.61,0,0,1,5.27.67L8,4.44a1.68,1.68,0,0,1-.43,2.34l-1.22.88A1.14,1.14,0,0,0,5.93,9a16.41,16.41,0,0,0,2,3.95,15.78,15.78,0,0,0,3.1,3.19,1.14,1.14,0,0,0,.54.24,1.19,1.19,0,0,0,.83-.2l1.22-.88A1.73,1.73,0,0,1,14.94,15a1.62,1.62,0,0,1,1.08.65l2.7,3.77A1.57,1.57,0,0,1,19,20.61"/></g></g></svg>