<svg xmlns="http://www.w3.org/2000/svg" viewBox="0 0 289.67 287.54"><defs><style>.cls-1{fill:#d8edff;}.cls-2{fill:#88c9ff;}.cls-3{fill:#ffc500;}.cls-4{fill:#b4ddff;}.cls-5{fill:#213f70;}.cls-13,.cls-6{fill:#314349;}.cls-7{opacity:0.1;}.cls-8{fill:#ebf6ff;}.cls-9{opacity:0.05;}.cls-10{fill:#1a2e35;}.cls-11{fill:#fff;opacity:0.4;}.cls-12{opacity:0.15;}.cls-13{opacity:0.5;}.cls-14{fill:#ffb9b8;}.cls-15{opacity:0.35;}.cls-16{fill:#ffaaa8;}.cls-17{opacity:0.2;}.cls-18{fill:#ffdddc;}.cls-19{fill:#ffd3d2;}</style></defs><title>Asset 5</title><g id="Layer_2" data-name="Layer 2"><g id="Layer_1-2" data-name="Layer 1"><path id="Floor" class="cls-1" d="M42.42,265.38c56.56,29.55,148.27,29.55,204.83,0s56.56-77.45,0-107S99,128.83,42.42,158.38-14.14,235.83,42.42,265.38Z"/><ellipse id="Shadow" class="cls-2" cx="195.78" cy="226.79" rx="26.87" ry="15.52"/><ellipse id="Shadow-2" data-name="Shadow" class="cls-2" cx="244.89" cy="201.81" rx="23.77" ry="13.72"/><g id="Pen"><g id="_Group_" data-name="&lt;Group&gt;"><path id="_Compound_Path_" data-name="&lt;Compound Path&gt;" class="cls-3" d="M162.5,178.4a8.16,8.16,0,0,0,3.68,6.38,3,3,0,0,0,2.12.45,1.72,1.72,0,0,1-.4.31l.89-.5a.1.1,0,0,1,.05,0l.13-.09a1.07,1.07,0,0,0,.16-.14l.1-.1s0,0,0,0l.09-.1a2.22,2.22,0,0,0,.3-.55,1.34,1.34,0,0,0,.07-.18l0-.09,0-.16a4.32,4.32,0,0,0,.1-.92,8.14,8.14,0,0,0-3.69-6.38,3.35,3.35,0,0,0-1.65-.5h-.24l-.21,0-.13,0-.07,0-.15.06h0l-.15.08-.77.44a1.19,1.19,0,0,1,.4-.14A2.92,2.92,0,0,0,162.5,178.4Zm6.07,6.74.06,0Z"/><path id="_Path_" data-name="&lt;Path&gt;" class="cls-4" d="M86,220.8l5.2,9,.88-.51,75.83-43.78a1.72,1.72,0,0,0,.4-.31,3,3,0,0,0,.68-2.08,8.14,8.14,0,0,0-3.68-6.37,3.29,3.29,0,0,0-1.65-.51,1.84,1.84,0,0,0-.47.06,1.19,1.19,0,0,0-.4.14l-.06,0h0Z"/><path id="_Path_2" data-name="&lt;Path&gt;" class="cls-3" d="M88.6,221.05c-2-1.17-3.68-.22-3.68,2.13a8.11,8.11,0,0,0,3.68,6.38c2,1.17,3.68.22,3.68-2.13A8.17,8.17,0,0,0,88.6,221.05Z"/></g><path id="_Path_3" data-name="&lt;Path&gt;" class="cls-2" d="M80.68,226.53l.09-.11,4.7-5.17h0l0,0,.08-.09.05-.05h0c.67-.65,1.73-.7,2.94,0a8.17,8.17,0,0,1,3.68,6.38c0,1.37-.56,2.26-1.42,2.53h0l-.27.06h-.08l-6.81,1.49a1.63,1.63,0,0,1-1.19-.26,4.66,4.66,0,0,1-2.11-3.64A1.73,1.73,0,0,1,80.68,226.53Z"/><g id="_Group_2" data-name="&lt;Group&gt;"><path id="_Path_4" data-name="&lt;Path&gt;" class="cls-5" d="M140.89,193a0,0,0,0,1,0,0l.12-.07a1,1,0,0,1,.86.12,2.92,2.92,0,0,1,1.31,2.27,1,1,0,0,1-.3.79h0l-.16.09-56,32.31-3.69-2.12Z"/><path id="_Path_5" data-name="&lt;Path&gt;" class="cls-6" d="M92,225.49l-5.19,3-3.69-2.12,7-4.06A8.75,8.75,0,0,1,92,225.49Z"/></g><g id="_Group_3" data-name="&lt;Group&gt;"><g id="_Group_4" data-name="&lt;Group&gt;"><path id="_Path_6" data-name="&lt;Path&gt;" class="cls-3" d="M78.83,229h0l4.27-4.69a.63.63,0,0,1,.11-.12,1.66,1.66,0,0,1,2.1,0,5.76,5.76,0,0,1,2.61,4.51,1.71,1.71,0,0,1-1,1.79h0l-.17,0-6.25,1.36h0a.93.93,0,0,1-.67-.15,2.6,2.6,0,0,1-1.19-2.05A.92.92,0,0,1,78.83,229Z"/><path id="_Path_7" data-name="&lt;Path&gt;" class="cls-7" d="M78.83,229h0l4.27-4.69a.63.63,0,0,1,.11-.12,1.66,1.66,0,0,1,2.1,0,5.76,5.76,0,0,1,2.61,4.51,1.71,1.71,0,0,1-1,1.79h0l-.17,0-6.25,1.36h0a.93.93,0,0,1-.67-.15,2.6,2.6,0,0,1-1.19-2.05A.92.92,0,0,1,78.83,229Z"/></g><g id="_Group_5" data-name="&lt;Group&gt;"><path id="_Path_8" data-name="&lt;Path&gt;" class="cls-3" d="M78.59,229.66a2.6,2.6,0,0,0,1.19,2.05.93.93,0,0,0,.67.15h0l3.16-.69c.5-.11.82-.57.82-1.33a4.18,4.18,0,0,0-1.89-3.28,1.23,1.23,0,0,0-1.52,0l-.08.1L78.82,229h0A.93.93,0,0,0,78.59,229.66Z"/><path id="_Path_9" data-name="&lt;Path&gt;" class="cls-7" d="M79.78,229c-.66-.38-1.19-.08-1.19.68a2.6,2.6,0,0,0,1.19,2.05c.65.38,1.18.07,1.18-.68A2.6,2.6,0,0,0,79.78,229Z"/></g></g><g id="_Group_6" data-name="&lt;Group&gt;"><path id="_Path_10" data-name="&lt;Path&gt;" class="cls-8" d="M154.83,184.94a.9.9,0,0,1,.92.09,2.83,2.83,0,0,1,1.3,2.25.9.9,0,0,1-.38.85h0l-13.77,8a1,1,0,0,0,.3-.79,2.92,2.92,0,0,0-1.31-2.27,1,1,0,0,0-.86-.12Z"/><path id="_Path_11" data-name="&lt;Path&gt;" class="cls-1" d="M154.45,185.78a2.89,2.89,0,0,0,1.3,2.26.93.93,0,0,0,.91.09.9.9,0,0,0,.39-.85,2.83,2.83,0,0,0-1.3-2.25.79.79,0,0,0-1.3.75Z"/></g><path id="_Path_12" data-name="&lt;Path&gt;" class="cls-3" d="M157.36,180.2h0l0,0,.06,0,5.43-3.13.13-.08h0a2.4,2.4,0,0,1,2.25.28,7.33,7.33,0,0,1,3.31,5.74,2.31,2.31,0,0,1-1,2.15h0l-5.5,3.18h0l0,0h0a2.35,2.35,0,0,1-2.3-.26,7.3,7.3,0,0,1-3.31-5.74A2.37,2.37,0,0,1,157.36,180.2Z"/><path id="_Path_13" data-name="&lt;Path&gt;" class="cls-9" d="M157.36,180.2h0l0,0,.06,0,5.43-3.13.13-.08h0a2.4,2.4,0,0,1,2.25.28,7.33,7.33,0,0,1,3.31,5.74,2.31,2.31,0,0,1-1,2.15h0l-5.5,3.18h0l0,0h0a2.35,2.35,0,0,1-2.3-.26,7.3,7.3,0,0,1-3.31-5.74A2.37,2.37,0,0,1,157.36,180.2Z"/><path id="_Path_14" data-name="&lt;Path&gt;" class="cls-7" d="M159.77,180.39c-1.83-1.06-3.31-.2-3.31,1.91a7.3,7.3,0,0,0,3.31,5.74c1.83,1.06,3.32.2,3.32-1.91A7.34,7.34,0,0,0,159.77,180.39Z"/><g id="_Group_7" data-name="&lt;Group&gt;"><path id="_Path_15" data-name="&lt;Path&gt;" class="cls-5" d="M77.09,231h0l2.25-1.35h0a.42.42,0,0,1,.44,0,1.37,1.37,0,0,1,.6,1.06.42.42,0,0,1-.17.39h0L78,232.44h0a.88.88,0,0,1-.42.11.86.86,0,0,1-.46-1.59Z"/><path id="_Path_16" data-name="&lt;Path&gt;" class="cls-10" d="M77,231.06h0l.12-.1h0a.48.48,0,0,1,.39.06,1.35,1.35,0,0,1,.61,1.06.4.4,0,0,1-.18.38l0,0,0,0a.88.88,0,0,1-1.14-.82A.84.84,0,0,1,77,231.06Z"/></g></g><g id="Contract"><g id="_Group_8" data-name="&lt;Group&gt;"><path id="_Path_17" data-name="&lt;Path&gt;" class="cls-2" d="M33.57,237l-2.29-1.32A2.9,2.9,0,0,1,30,233.37V63.44a2.86,2.86,0,0,1,1.31-2.26L136.7.31a2.92,2.92,0,0,1,2.61,0l2.3,1.33a2.89,2.89,0,0,1,1.31,2.26V173.83a2.9,2.9,0,0,1-1.31,2.27L36.19,237A2.88,2.88,0,0,1,33.57,237Z"/><path id="_Path_18" data-name="&lt;Path&gt;" class="cls-11" d="M142.9,3.69c-.09-.68-.64-.92-1.29-.54L36.19,64a2.75,2.75,0,0,0-.93,1l-4.91-2.84a2.69,2.69,0,0,1,.92-1L136.69.31a2.94,2.94,0,0,1,2.62,0l2.3,1.33A2.91,2.91,0,0,1,142.9,3.69Z"/><path id="_Path_19" data-name="&lt;Path&gt;" class="cls-12" d="M36,237.07s-.06,0-.08,0l-.13.05h-.06a.94.94,0,0,1-.24.06h0a2.94,2.94,0,0,1-1.56-.12l-.29-.14-2.3-1.32a2.92,2.92,0,0,1-1.3-2.27V63.44a2.66,2.66,0,0,1,.38-1.29L35.26,65a2.63,2.63,0,0,0-.38,1.29V236.21a1.07,1.07,0,0,0,.2.69.68.68,0,0,0,.7.22Z"/></g><g id="_Group_9" data-name="&lt;Group&gt;"><path id="_Compound_Path_2" data-name="&lt;Compound Path&gt;" class="cls-5" d="M110,31.6l-.19-.11-2.18-1.26a8.46,8.46,0,0,0-2.54-.9c-.37-.08-.71-.18-1-.27a8.2,8.2,0,0,1-1-.4l.16-.2h0L100.81,27h0a2.45,2.45,0,0,0-.64-.26c-.93-.22-2.31.32-3.7.16A3.52,3.52,0,0,1,94,25.45c-.84-1.13-1.34-3.12-2.09-4.75l.65-1a1.39,1.39,0,0,0-.21-.11l-2.25-1.31A2.47,2.47,0,0,0,88.8,18a4.79,4.79,0,0,0-2.36.77c-5.4,3.12-5.58,10.52-7.53,15.39s-4.69,6.39-6.19,8.49-1.6,3.65-4.92,8.22-3.45,5.7-3.45,6.56v6.82l2.45,1.41L111,40.13ZM69.48,57.88c-.58.32-1-.12-1-1a2.75,2.75,0,0,1,1-2.21c.57-.33,1,.12,1,1A2.79,2.79,0,0,1,69.48,57.88ZM88.89,38.75a2.23,2.23,0,0,1-3.41-1c-1.71.33-3-1.33-3-4.17,0-3.35,1.76-7.08,3.94-8.33a2.22,2.22,0,0,1,3.4,1c1.71-.33,3,1.32,3,4.17C92.82,33.76,91.06,37.49,88.89,38.75Zm14.67-.55c-.58.33-1-.12-1-1a2.73,2.73,0,0,1,1-2.21c.58-.33,1,.12,1,1A2.75,2.75,0,0,1,103.56,38.2Z"/><path id="_Path_20" data-name="&lt;Path&gt;" class="cls-13" d="M69.25,59.1,64.5,56.35a3.33,3.33,0,0,0-.15,1.06v6.82l2.45,1.41,2.45-1.41Z"/><path id="_Path_21" data-name="&lt;Path&gt;" class="cls-13" d="M74.16,50.59l2.46-5.67-3.9-2.29h0c-1.15,1.59-1.48,2.87-3,5.38Z"/><path id="_Path_22" data-name="&lt;Path&gt;" class="cls-13" d="M84,39.25l.31-1.65c-1.08-.46-1.8-1.92-1.8-4.06a11.26,11.26,0,0,1,3-7.6l-3.4-2c-1.46,3.31-2,7.21-3.18,10.17a17.51,17.51,0,0,1-.79,1.73Z"/><path id="_Compound_Path_3" data-name="&lt;Compound Path&gt;" class="cls-6" d="M110,31.6l-.19-.11a9.82,9.82,0,0,0-2.27-.74,7.13,7.13,0,0,1-3.46-1.69,4.91,4.91,0,0,0-.8-.6,2.33,2.33,0,0,0-.66-.26c-1.48-.36-4.19,1.26-6.14-1.26l-.06-.08c-1.36-1.83-1.85-5.92-3.89-7.12a1.39,1.39,0,0,0-.21-.11c-.84-.4-1.93-.32-3.42.53-5.4,3.12-5.58,10.53-7.53,15.39s-4.7,6.4-6.19,8.5-1.6,3.64-4.93,8.22S66.8,58,66.8,58.83v6.81L111,40.13V33.32A1.72,1.72,0,0,0,110,31.6ZM71.93,59.29c-.58.33-1-.11-1-1a2.75,2.75,0,0,1,1-2.21c.58-.34,1,.12,1,1A2.73,2.73,0,0,1,71.93,59.29Zm17-20.54a2.23,2.23,0,0,1-3.41-1A6.41,6.41,0,0,1,85,35c0-3.35,1.76-7.08,3.94-8.34a3.26,3.26,0,0,1,1-.38c1.71-.33,3,1.32,3,4.17C92.82,33.76,91.06,37.49,88.89,38.75Zm17.12.86c-.58.33-1-.12-1-1a2.71,2.71,0,0,1,1-2.2c.58-.34,1,.11,1,1A2.73,2.73,0,0,1,106,39.61Z"/><path id="_Path_23" data-name="&lt;Path&gt;" class="cls-10" d="M92.82,30.41c0,3.35-1.76,7.08-3.93,8.34a2.23,2.23,0,0,1-3.41-1,3.14,3.14,0,0,0,1-.38c2.17-1.26,3.93-5,3.93-8.33a6.43,6.43,0,0,0-.53-2.76C91.55,25.91,92.82,27.56,92.82,30.41Z"/><path id="_Path_24" data-name="&lt;Path&gt;" class="cls-10" d="M71.93,59.29c-.58.33-1.05-.12-1.05-1a2.74,2.74,0,0,1,1.05-2.21c.57-.33,1,.12,1,1a2.76,2.76,0,0,1-1,2.2"/><path id="_Path_25" data-name="&lt;Path&gt;" class="cls-10" d="M106,39.61c-.58.34-1.05-.11-1.05-1A2.77,2.77,0,0,1,106,36.4c.57-.33,1,.12,1,1a2.74,2.74,0,0,1-1,2.2"/></g><g id="_Group_10" data-name="&lt;Group&gt;"><path id="_Path_26" data-name="&lt;Path&gt;" class="cls-1" d="M43,79.91l91.73-53a1.74,1.74,0,0,1,1.57,0l.89.52a1.73,1.73,0,0,1,.78,1.36v140a1.76,1.76,0,0,1-.78,1.36l-91.73,53a1.74,1.74,0,0,1-1.57,0l-.89-.51a1.72,1.72,0,0,1-.79-1.36V81.27A1.72,1.72,0,0,1,43,79.91Z"/><path id="_Path_27" data-name="&lt;Path&gt;" class="cls-8" d="M138,28.58c-.1-.32-.4-.43-.76-.22l-91.73,53a1.59,1.59,0,0,0-.56.59L42.48,80.5a1.43,1.43,0,0,1,.55-.59l91.74-53a1.66,1.66,0,0,1,1.56,0l.89.5A1.77,1.77,0,0,1,138,28.58Z"/><path id="_Path_28" data-name="&lt;Path&gt;" class="cls-2" d="M45.3,223.17a1.38,1.38,0,0,1-.29.08l-.15,0a2.57,2.57,0,0,1-.48,0,1.38,1.38,0,0,1-.29-.08l-.18-.08-.88-.51a1.76,1.76,0,0,1-.78-1.36V81.27a1.49,1.49,0,0,1,.23-.77l2.45,1.41a1.66,1.66,0,0,0-.23.77v140C44.7,223.06,45,223.27,45.3,223.17Z"/></g><g id="_Group_11" data-name="&lt;Group&gt;"><path id="_Compound_Path_4" data-name="&lt;Compound Path&gt;" class="cls-5" d="M117.34,46.77l-2.44-1.42a2.67,2.67,0,0,0-2.46.07c-2.85,1.26-4.08,1.83-5.56,2.45l-1.06.43c-.58.23-1.73,0-1.37-2l3.79-10.21-.06,0-2.4-1.39a1,1,0,0,0-.4-.14l-.26,0c-1.56,0-2-10-2-10.36h0L103,24.1l-2.37-1.36a2.7,2.7,0,0,0-1.36-.35A5,5,0,0,0,97,23c-3.73,2-7.49,7.76-8.41,13-.58,3.29-3.89,8.35-5.8,10.21a6.12,6.12,0,0,0-2,3.42l-1.49,8.43-.48,2.69a8.8,8.8,0,0,1-2.41,4L68.7,70.48c-4.82,4-6.18,8-7.11,13v0c0,.17,0,.29.08.34a.1.1,0,0,0,.09,0h0l1-.56L115.7,52.81a1.2,1.2,0,0,0,.48-.74,0,0,0,0,0,0,0h0c.3-1.83,1.19-5.25,1.19-5.25ZM102,31.3c-.56,3.2-2.87,6.77-5.17,8-1.58.83-2.74.31-3.13-1.15A1.8,1.8,0,0,1,92,37.91c-.74-.58,6-12.15,6.56-11.9a1.93,1.93,0,0,1,1,1.38C101.47,26.82,102.54,28.42,102,31.3Z"/><path id="_Path_29" data-name="&lt;Path&gt;" class="cls-13" d="M69.25,76.11,65.4,73.88c-2.24,3-3.14,6-3.81,9.64v0c0,.17,0,.29.08.34a.1.1,0,0,0,.09,0h0l3-2.41Z"/><path id="_Path_30" data-name="&lt;Path&gt;" class="cls-13" d="M78.55,61.63,84,64.77l2.45-14.18-4.9-2.83a4.55,4.55,0,0,0-.77,1.87l-1.49,8.43-.48,2.69A4.63,4.63,0,0,1,78.55,61.63Z"/><path id="_Path_31" data-name="&lt;Path&gt;" class="cls-13" d="M91.19,29.23A21.11,21.11,0,0,0,88.61,36a17,17,0,0,1-1.92,4.81l4.66,2.69,2.32-5.35A1.8,1.8,0,0,1,92,37.91c-.38-.3,1.22-3.5,2.94-6.51Z"/><path id="_Compound_Path_5" data-name="&lt;Compound Path&gt;" class="cls-6" d="M117.38,46.78h0a2.64,2.64,0,0,0-2.44.08c-3.5,1.54-4.56,2-6.63,2.87-.56.22-1.68,0-1.39-1.85a.51.51,0,0,1,0-.13l.48-2.7,1.32-7.34s.3-1.15-.46-1.59l-.06,0a1.32,1.32,0,0,0-.61-.13,3,3,0,0,1-2.19-1.4,5.54,5.54,0,0,1-.82-4.2c.56-3.15,0-5.36-1.45-6.18L103,24.1a3.78,3.78,0,0,0-3.52.35c-3.73,2-7.5,7.76-8.42,13-.58,3.29-3.88,8.35-5.79,10.21a6.1,6.1,0,0,0-2,3.42l-1.48,8.43-.48,2.69a8.78,8.78,0,0,1-2.42,4L71.15,71.9a18.61,18.61,0,0,0-6.33,9.58s-2.88,2.24-3.06,2.42h0l1-.56,53.09-30.52s.61-.33.74-.42,2.27-2.1,2.27-2.1C118.77,48.56,118.26,47.32,117.38,46.78ZM102,31.3c-.56,3.2-2.87,6.77-5.17,8-1.58.83-2.74.31-3.13-1.15a6,6,0,0,1,0-2.48c.57-3.2,2.88-6.78,5.18-8a4.59,4.59,0,0,1,.66-.29C101.47,26.82,102.54,28.42,102,31.3Z"/><path id="_Path_32" data-name="&lt;Path&gt;" class="cls-10" d="M102,31.3c-.56,3.2-2.87,6.77-5.17,8-1.58.83-2.74.31-3.13-1.15a3.69,3.69,0,0,0,.68-.27c2.29-1.21,4.61-4.78,5.17-8a5.89,5.89,0,0,0,0-2.49C101.47,26.82,102.54,28.42,102,31.3Z"/><path id="_Compound_Path_6" data-name="&lt;Compound Path&gt;" class="cls-10" d="M99.82,27.53h0a1.28,1.28,0,0,1,1.11.54c.95,1.35,0,4.8-.36,5.9-.55,1.53-4.11,5.13-5.09,5.13a2.44,2.44,0,0,1-1.61-1,6.18,6.18,0,0,1,0-2.39c.56-3.17,2.85-6.7,5.1-7.87a3.54,3.54,0,0,1,.62-.27h.22m0-.15h-.25a4.59,4.59,0,0,0-.66.29c-2.3,1.19-4.61,4.77-5.18,8a6,6,0,0,0,0,2.48,2.6,2.6,0,0,0,1.74,1.12h0c1.07,0,4.65-3.63,5.22-5.23s1.82-6.64-.89-6.64Z"/><path id="_Path_33" data-name="&lt;Path&gt;" class="cls-10" d="M61.76,83.91l54.08-31.09.75-.42c.13-.08,2.27-2.11,2.27-2.11l-54,31.19S61.55,84,61.76,83.91Z"/></g><g id="_Group_12" data-name="&lt;Group&gt;"><g id="_Group_13" data-name="&lt;Group&gt;"><g id="_Group_14" data-name="&lt;Group&gt;"><path id="_Path_34" data-name="&lt;Path&gt;" class="cls-2" d="M54.52,105.7v1.23c0,.67.47.94,1,.61l71.57-41.32a2.31,2.31,0,0,0,1-1.81V63.17c0-.66-.47-.93-1-.6L55.57,103.89A2.31,2.31,0,0,0,54.52,105.7Z"/><path id="_Path_35" data-name="&lt;Path&gt;" class="cls-2" d="M54.52,113.13v1.23c0,.67.47.94,1,.61l71.57-41.32a2.31,2.31,0,0,0,1-1.81V70.6c0-.66-.47-.93-1-.6L55.57,111.32A2.31,2.31,0,0,0,54.52,113.13Z"/><path id="_Path_36" data-name="&lt;Path&gt;" class="cls-2" d="M54.52,120.52v1.23c0,.67.47.94,1,.61L127.14,81a2.31,2.31,0,0,0,1-1.81V78c0-.66-.47-.93-1-.6L55.57,118.71A2.31,2.31,0,0,0,54.52,120.52Z"/></g></g><g id="_Group_15" data-name="&lt;Group&gt;"><g id="_Group_16" data-name="&lt;Group&gt;"><path id="_Path_37" data-name="&lt;Path&gt;" class="cls-2" d="M54.52,136.89v1.23c0,.67.47.94,1,.61l71.57-41.32a2.31,2.31,0,0,0,1-1.81V94.36c0-.66-.47-.94-1-.6L55.57,135.08A2.3,2.3,0,0,0,54.52,136.89Z"/><path id="_Path_38" data-name="&lt;Path&gt;" class="cls-2" d="M54.52,144.32v1.23c0,.67.47.94,1,.61l71.57-41.32a2.31,2.31,0,0,0,1-1.81v-1.24c0-.66-.47-.94-1-.6L55.57,142.51A2.31,2.31,0,0,0,54.52,144.32Z"/><path id="_Path_39" data-name="&lt;Path&gt;" class="cls-2" d="M54.52,151.71v1.23c0,.67.47.94,1,.61l71.57-41.32a2.31,2.31,0,0,0,1-1.81v-1.24c0-.66-.47-.94-1-.6L55.57,149.9A2.3,2.3,0,0,0,54.52,151.71Z"/></g></g><g id="_Group_17" data-name="&lt;Group&gt;"><g id="_Group_18" data-name="&lt;Group&gt;"><path id="_Path_40" data-name="&lt;Path&gt;" class="cls-2" d="M54.52,168.08v1.23c0,.67.47.94,1,.61l71.57-41.32a2.33,2.33,0,0,0,1-1.81v-1.24c0-.67-.47-.94-1-.6L55.57,166.27A2.3,2.3,0,0,0,54.52,168.08Z"/><path id="_Path_41" data-name="&lt;Path&gt;" class="cls-2" d="M54.52,175.51v1.23c0,.67.47.94,1,.61L127.14,136a2.33,2.33,0,0,0,1-1.81V133c0-.67-.47-.94-1-.6L55.57,173.7A2.3,2.3,0,0,0,54.52,175.51Z"/><path id="_Path_42" data-name="&lt;Path&gt;" class="cls-2" d="M54.52,182.9v1.23c0,.67.47.94,1,.61l71.57-41.32a2.33,2.33,0,0,0,1-1.81v-1.24c0-.67-.47-.94-1-.6L55.57,181.09A2.3,2.3,0,0,0,54.52,182.9Z"/></g></g></g><polygon id="_Path_43" data-name="&lt;Path&gt;" class="cls-2" points="91.35 183.89 128.18 162.63 128.18 163.34 91.35 184.6 91.35 183.89"/><path class="cls-5" d="M99.92,172.85c1.53-1,3.24-2.75,3-4.8a1.56,1.56,0,0,0-2.31-1.28c-2.25.86-3.66,4.24-4.45,6.27-.68,1.78-1.55,5.14,1.12,5.71,3.14.67,5.57-3.93,6.27-6.33.1-.34-.44-.52-.6-.22-.28.54-2.13,4.14-.09,3.69.72-.15,1.14-1.28,1.39-1.85.47-1,.7-2.45,1.42-3.33l-.53-.25a3.27,3.27,0,0,0,.63,2.33.32.32,0,0,0,.45.07c1-1,1.11-2.53,2.25-3.41l-.47-.22c0,.3-.13,1.16-.16,1.57,0,.18.26.31.41.25a.89.89,0,0,0,.66-.57l-.5-.18c.43,2.32,2.41,0,3.09-.88a14.73,14.73,0,0,0,3.43-8.82c0-.27-.51-.4-.51-.08,0,2.59-1.18,5-1.91,7.4q-1.17,4-2,8l.47.17a16.39,16.39,0,0,1,1.44-5.53,10.85,10.85,0,0,1,2.49-4.15l-.43-.17a4.7,4.7,0,0,1-1,3.83c-.14.18.17.51.31.33.72-.91,1.91-1.19,2.68-2.07a23,23,0,0,0,1.94-3.13l-.35-.18c0,2.21,2-1.24,2.32-1.61l-.35-.13c.14.46.33.76.84.76,1,0,1.4-1.48,2.17-1.65,0,0,.34.28.45.29a1.83,1.83,0,0,0,1.23-.23,5.81,5.81,0,0,0,2-2.24c.11-.21-.29-.47-.42-.25-.5.86-2.08,3.12-3.23,2-.07-.06-.22-.12-.3,0-.31.38-2.07,2.41-2.4,1.34,0-.14-.23-.28-.34-.13-.27.35-.49.75-.74,1.12-.13.2-.91,1.5-.88.84,0-.16-.24-.34-.35-.18-.72,1.1-1.24,2.54-2.24,3.43-.74.67-1.72.91-2.36,1.71l.31.33a5.07,5.07,0,0,0,1.2-4.15c0-.18-.29-.3-.43-.16a11,11,0,0,0-2.53,4.24,16.41,16.41,0,0,0-1.48,5.65c0,.2.42.43.47.16a81,81,0,0,1,2.16-8.65c.72-2.28,1.71-4.48,1.75-6.92l-.51-.08a12.76,12.76,0,0,1-2.28,7c-.37.58-.76,1.14-1.18,1.69-.19.24-1.81,2.37-2,1.13,0-.18-.38-.42-.49-.18l-.48.42.41.25c0-.53.14-1,.16-1.57a.31.31,0,0,0-.46-.22c-1.16.89-1.25,2.46-2.3,3.42l.45.08a3.61,3.61,0,0,1-.5-2c0-.23-.35-.46-.53-.24-.8,1-1.05,2.49-1.58,3.61-.29.61-1.34,2.24-1,.5a8.14,8.14,0,0,1,.92-2l-.6-.22c-.62,2.09-2.27,5.26-4.52,5.94-2.88.86-2.38-2.71-1.85-4.29a17.73,17.73,0,0,1,2.74-5.15,6.63,6.63,0,0,1,.74-.85c.59-.53.76-.63,1.58-.19s.85.72.62,1.6a4.69,4.69,0,0,1-.53,1.24,8.13,8.13,0,0,1-1.94,2.07c-.1.08,0,.36.17.28Z"/></g><g id="Characters"><g id="_Group_19" data-name="&lt;Group&gt;"><g id="_Group_20" data-name="&lt;Group&gt;"><g id="_Group_21" data-name="&lt;Group&gt;"><path id="_Path_44" data-name="&lt;Path&gt;" class="cls-14" d="M188.21,131.85c-2.38-.56-5,1.13-6.53,4.87s-4.59,13.27-5.23,15.77c-.29,1.12,8.2,11,7.9,10.87-.09-.05,2.77-4.83,2.77-4.83L183,152.19l2.58-6.89Z"/></g><g id="_Group_22" data-name="&lt;Group&gt;"><g id="_Group_23" data-name="&lt;Group&gt;"><path id="_Path_45" data-name="&lt;Path&gt;" class="cls-10" d="M182.73,220.44c-.33.13-.41.74-.46,2,0,.93-.23,2.54.85,2.86a3.37,3.37,0,0,0,3.36-.71c.87-1.09,1.46-2.05,2.69-3.37a9.5,9.5,0,0,0,2.67-3.84c.39-1.46.06-2.09-.93-2.52-1.37-.58-3.52,1.32-4.59,1.62S183.05,220.32,182.73,220.44Z"/></g><g id="_Group_24" data-name="&lt;Group&gt;"><path id="_Path_46" data-name="&lt;Path&gt;" class="cls-14" d="M182.73,219.31v1.5a3.68,3.68,0,0,0,3.79.11c.06-.15.39-2.15.39-2.15Z"/></g><g id="_Group_25" data-name="&lt;Group&gt;"><path id="_Path_47" data-name="&lt;Path&gt;" class="cls-10" d="M193.89,228.42a24.83,24.83,0,0,0-.66,2.44,6.67,6.67,0,0,0-.14,3.11c.32.68,1.56,1.12,3.48,1.1a11.27,11.27,0,0,1,4.51,1.58,7,7,0,0,0,4.31.6c1.71-.2,3.48-1.19,3.75-1.9s-.07-1-4.1-2.77c0,0-4.25-1.91-6.2-4.06Z"/></g><g id="_Group_26" data-name="&lt;Group&gt;"><path id="_Path_48" data-name="&lt;Path&gt;" class="cls-14" d="M193.89,226.79v1.75c0,.64.74,1.59,2.69,1.52,1.36-.05,2.32-.42,2.26-1.54V226.9Z"/></g><g id="_Group_27" data-name="&lt;Group&gt;"><path id="_Path_49" data-name="&lt;Path&gt;" class="cls-5" d="M181.25,198.52a35.94,35.94,0,0,1,1.83-7.72s-.85-6.63-1.34-13c-.88-11.42-.17-15.16,2.08-20.28,0,0,19.17-1.95,19.76,6,.72,9.92-.24,29.1-.51,32.61s-.59,5.08-1.83,12.41c-.94,5.57-2.4,18.35-2.4,18.35a5.25,5.25,0,0,1-5-.11s-1.57-15.95-1.41-20A34.73,34.73,0,0,1,194,198s-1.19-16.18-1.54-18.75c0,0-.6,5.13-.86,8.64s-1.3,6.85-2.32,13.36c-.88,5.65-2.51,18.27-2.51,18.27-2.55,1.38-4.06-.18-4.06-.18S180.56,203.42,181.25,198.52Z"/></g><g id="_Group_28" data-name="&lt;Group&gt;" class="cls-15"><path id="_Path_50" data-name="&lt;Path&gt;" d="M181.25,198.52a35.94,35.94,0,0,1,1.83-7.72s-.85-6.63-1.34-13c-.88-11.42-.17-15.16,2.08-20.28,0,0,19.17-1.95,19.76,6,.72,9.92-.24,29.1-.51,32.61s-.59,5.08-1.83,12.41c-.94,5.57-2.4,18.35-2.4,18.35a5.25,5.25,0,0,1-5-.11s-1.57-15.95-1.41-20A34.73,34.73,0,0,1,194,198s-1.19-16.18-1.54-18.75c0,0-.6,5.13-.86,8.64s-1.3,6.85-2.32,13.36c-.88,5.65-2.51,18.27-2.51,18.27-2.55,1.38-4.06-.18-4.06-.18S180.56,203.42,181.25,198.52Z"/></g></g><g id="_Group_29" data-name="&lt;Group&gt;"><g id="_Group_30" data-name="&lt;Group&gt;"><polygon id="_Path_51" data-name="&lt;Path&gt;" class="cls-14" points="198.03 129.27 197.13 136.68 190.62 136.09 191.36 127.87 198.03 129.27"/></g></g><g id="_Group_31" data-name="&lt;Group&gt;"><g id="_Group_32" data-name="&lt;Group&gt;"><path id="_Path_52" data-name="&lt;Path&gt;" class="cls-4" d="M183.47,135.56c.72-1.94,3.15-4.12,5.66-3.65l1.84.34c.05,1.71,3.27,2.59,6.48,1.55,1,.28,1.84.56,2.64.85,2.3.82,3.22,4.63,3.27,11s.73,22.26.73,22.26l-2.68.84-1.26-4.65-.5,5.57a20,20,0,0,1-9.26,0c-6.89-1.51-9-5.23-9-5.23a33.68,33.68,0,0,1,4.91-12C182.82,143.18,182.41,138.46,183.47,135.56Z"/></g></g><g id="_Group_33" data-name="&lt;Group&gt;"><g id="_Group_34" data-name="&lt;Group&gt;"><path id="_Path_53" data-name="&lt;Path&gt;" class="cls-10" d="M202.87,119.86a5.7,5.7,0,0,0-.49-5.51c-2.18-3.43-6.4-4-11.39-2.68a8.87,8.87,0,0,0-6.25,8c-.24,3.66,10,6.36,9.74,8.87Z"/></g><g id="_Group_35" data-name="&lt;Group&gt;"><path id="_Path_54" data-name="&lt;Path&gt;" class="cls-16" d="M203.09,121.25s1.39,2.23,1.19,2.45a3.31,3.31,0,0,1-1.11.45Z"/></g><g id="_Group_36" data-name="&lt;Group&gt;"><path id="_Path_55" data-name="&lt;Path&gt;" class="cls-14" d="M198.86,114.21c1.39.76,3.78,2.17,4.27,7.36s-.74,7.14-1.48,7.82c-.5.46-3,.56-4.33.12-1.64-.56-5.15-2.42-6.75-5.2-1.88-3.28-2.17-7.59.14-9.22A8.51,8.51,0,0,1,198.86,114.21Z"/></g><g id="_Group_37" data-name="&lt;Group&gt;"><path id="_Path_56" data-name="&lt;Path&gt;" class="cls-10" d="M199.27,114.44s1.1,4.88-.45,7.91c0,0-.81-1.92-2.45-1.42s-1.56,2.69-.3,3.84a2.42,2.42,0,0,0,2.52.6,10.89,10.89,0,0,1-2.44,3.68s-4.85,2.17-9.06-2.58c-3.81-4.3-3.1-11.81,2.74-13.58A9.93,9.93,0,0,1,199.27,114.44Z"/></g><path id="_Path_57" data-name="&lt;Path&gt;" class="cls-10" d="M185.43,115a1.14,1.14,0,0,1,.12,1.61l-1.74-1.49A1.15,1.15,0,0,1,185.43,115Z"/></g></g><g id="_Group_38" data-name="&lt;Group&gt;"><path id="_Path_58" data-name="&lt;Path&gt;" class="cls-14" d="M216.58,146.38c.94-1.08,1.3-3.48,2.56-5.12s1.72-2.85,2.22-2.13c.66,1-.83,2.85-.5,3a9.83,9.83,0,0,1,1.69,4.09c.13,1.39-3.56,4.89-3.56,4.89Z"/></g><g id="_Group_39" data-name="&lt;Group&gt;"><path id="_Path_59" data-name="&lt;Path&gt;" class="cls-14" d="M220.76,142s4.46-.39,5.11,0,.45,2.31,0,3.49-2.73,2-4.84,3.38C221,148.62,220.76,142,220.76,142Z"/></g><g id="_Group_40" data-name="&lt;Group&gt;"><path id="_Path_60" data-name="&lt;Path&gt;" class="cls-14" d="M199.52,134.45c1.92.67,3.59,1.44,5.38,4.8,2.3,4.31,6.47,12.77,6.47,12.77l5.21-5.64s.76-1.06,2.16,1.26.79,3,.79,3-6.05,8.11-7.17,9.14-2.93.23-4.12-1.4-8.72-11-8.72-11S195.42,141.93,199.52,134.45Z"/></g><path id="_Path_61" data-name="&lt;Path&gt;" class="cls-17" d="M192.48,179.22l-.36-3.88a14.65,14.65,0,0,1-5.85-2.21,8,8,0,0,0,4.66,2.91l.36,4.93.21,8.08Z"/><path id="_Path_62" data-name="&lt;Path&gt;" class="cls-10" d="M178.83,133.42h0a6.75,6.75,0,0,0,6.75-6.74V116.43h0a5.17,5.17,0,0,0-6.75,4.91Z"/><path id="_Path_63" data-name="&lt;Path&gt;" class="cls-2" d="M203.51,152.34s-3.74-4.82-4.94-6.77l5.07,10.7Z"/></g><g id="_Group_41" data-name="&lt;Group&gt;"><g id="_Group_42" data-name="&lt;Group&gt;"><path id="_Path_64" data-name="&lt;Path&gt;" class="cls-18" d="M236.3,112.73c-1.42,4.18-4.45,16.66-4.45,16.66s-5.78,7.69-7.37,9.15c-.88.82-2.88,2.29-2.88,2.29l1.66,1.22s2.77-.84,3,.68a83.94,83.94,0,0,0,8.15-7.5,5.2,5.2,0,0,0,1.29-2.41l2.48-10.61s0-8.55,1.31-9.67.79-3.64.79-3.64C239.39,108.92,237.41,109.44,236.3,112.73Z"/></g><g id="_Group_43" data-name="&lt;Group&gt;"><path id="_Path_65" data-name="&lt;Path&gt;" class="cls-5" d="M240.34,108.48a24.12,24.12,0,0,0,1.46,3.3c.58,1-3.85,18.84-4.14,20.17s-8.88,9.06-8.88,9.06a6.43,6.43,0,0,1-3.43-3.45l6.2-8.05s1.92-8.46,2.93-12.33S236.57,108.9,240.34,108.48Z"/><g id="_Group_44" data-name="&lt;Group&gt;"><path id="_Path_66" data-name="&lt;Path&gt;" class="cls-7" d="M240.34,108.48a24.12,24.12,0,0,0,1.46,3.3c.58,1-3.85,18.84-4.14,20.17s-8.88,9.06-8.88,9.06a6.43,6.43,0,0,1-3.43-3.45l6.2-8.05s1.92-8.46,2.93-12.33S236.57,108.9,240.34,108.48Z"/></g><g id="_Group_45" data-name="&lt;Group&gt;"><g id="_Group_46" data-name="&lt;Group&gt;"><rect id="_Rectangle_" data-name="&lt;Rectangle&gt;" class="cls-18" x="254.18" y="192.33" width="4.27" height="7.32"/><polygon id="_Path_67" data-name="&lt;Path&gt;" class="cls-18" points="240.97 194.11 236.7 194.25 236.48 186.51 240.97 186.36 240.97 194.11"/><path id="_Path_68" data-name="&lt;Path&gt;" class="cls-6" d="M257.85,140.09c0,4.08.28,27.82.28,27.82.1,1.17,1.24,3.26,1.32,7.49.13,6.14-.81,20.59-.81,20.59a5.63,5.63,0,0,1-4.76.09s-3.36-20.44-4.13-26.51c-.67-5.3-3-19.45-3-19.45L243.51,168a24.24,24.24,0,0,1,.53,6.8c-.2,2.81-2.8,16.88-2.8,16.88a5.87,5.87,0,0,1-4.94.38s-.25-22.09-.3-24.67c-.06-2.94,1.22-28.22,1.22-28.22Z"/><path id="_Path_69" data-name="&lt;Path&gt;" class="cls-10" d="M254.18,197.54v-.61c-.23,0-.37.22-.46.77a12,12,0,0,1-.25,1.21,14.63,14.63,0,0,1-.75,2.19,13.24,13.24,0,0,1-2.49,3.78,17.34,17.34,0,0,0-1.33,1.53c-.26.46-.35,1.74.09,2a7.41,7.41,0,0,0,5.8.6,3.5,3.5,0,0,0,2.52-2.83c.06-.39,0-.79.08-1.19a5.66,5.66,0,0,1,1.07-2.48,7.85,7.85,0,0,0,.82-1.35,4.47,4.47,0,0,0-.15-2.75c-.2-.75-.42-1.58-.68-1.51v.46a3.33,3.33,0,0,1-2.13.73C255.69,198.14,254.17,198,254.18,197.54Z"/><path id="_Path_70" data-name="&lt;Path&gt;" class="cls-10" d="M236.65,192.94c-.22,0-.4.32-.89.85a9.32,9.32,0,0,1-2.52,1.81c-1.6.8-4.71,2-6.12,2.66-.88.4-.84,1.46.07,2.07a8.28,8.28,0,0,0,5.75.45c1.43-.32,3.3-1.65,4.49-1.58s3.39.06,4.27-.55.52-1.88.27-3-.6-3.09-1-3v.41c-.51.78-3.17,1.1-4.3.53Z"/><path id="_Path_71" data-name="&lt;Path&gt;" class="cls-10" d="M246.78,150.12a15.87,15.87,0,0,1-5.95-3.42,12.22,12.22,0,0,0,4.56,4.15l-1.65,15.94Z"/></g><g id="_Group_47" data-name="&lt;Group&gt;"><path id="_Path_72" data-name="&lt;Path&gt;" class="cls-1" d="M250.44,108.77c1.45.35,4.39.83,5,3.73a84.88,84.88,0,0,1,1,11.06l.27,16.86c-2.94,2.14-13.75,3.31-20-1.22,0,0,.76-20.24.76-23.4s1.75-6.93,6.58-7.21Z"/><path id="_Path_73" data-name="&lt;Path&gt;" class="cls-5" d="M244.26,108.26a8.63,8.63,0,0,0-2.76,4.27c-.59,2.55-.68,31-.68,31a12.93,12.93,0,0,1-4.44-1.67s.18-22.48.47-26.2c.44-5.63.39-7.26,7.41-7.85Z"/><path id="_Path_74" data-name="&lt;Path&gt;" class="cls-5" d="M251.72,107.84s-4,2.48-4.08,12.34c0,8.53-.32,23.38-.32,23.38s6.67,1,10.89-1.55c0,0,.51-20.67.43-23.87-.09-3.67-.95-8.41-2.13-8.88A34,34,0,0,0,251.72,107.84Z"/><g id="_Group_48" data-name="&lt;Group&gt;"><g id="_Group_49" data-name="&lt;Group&gt;"><path id="_Path_75" data-name="&lt;Path&gt;" class="cls-18" d="M266.7,130.49c-4-16.4-7-21.86-11.85-21.8-1.42,1.7-1,6.84,1.22,10,0,0,5,10.57,5.81,14.33a52.53,52.53,0,0,1,1.45,10.3,2.07,2.07,0,0,1-.56,1.35c-.91,1-.92,1.79-1.51,2.89-.46.85-1,1.18-.83,1.37a1.12,1.12,0,0,0,1.51.11,5.41,5.41,0,0,0,1.14-1.09,11.47,11.47,0,0,1-.91,3c-1,2.32-.77,3.5,2.36,2.67,2-.51,3.19-2.15,3.49-6.86a37.26,37.26,0,0,0,.05-5.22A89.71,89.71,0,0,0,266.7,130.49Z"/></g><path id="_Path_76" data-name="&lt;Path&gt;" class="cls-5" d="M254,108.42s3.23-.14,5,1.62,4.11,5.49,6.39,13.63a74.43,74.43,0,0,1,3.1,18.64,6.43,6.43,0,0,1-5.5-.19s-1.17-7.07-2.21-10.84-4.91-11.7-4.91-11.7S252.17,114.09,254,108.42Z"/><path id="_Path_77" data-name="&lt;Path&gt;" class="cls-7" d="M254,108.42s3.23-.14,5,1.62,4.11,5.49,6.39,13.63a74.43,74.43,0,0,1,3.1,18.64,6.43,6.43,0,0,1-5.5-.19s-1.17-7.07-2.21-10.84-4.91-11.7-4.91-11.7S252.17,114.09,254,108.42Z"/></g><polygon id="_Path_78" data-name="&lt;Path&gt;" class="cls-7" points="252.17 113.23 250.32 115.52 251.24 118.12 248.82 124.33 251.74 118.12 250.72 115.66 252.17 113.23"/><polygon id="_Path_79" data-name="&lt;Path&gt;" class="cls-7" points="239.15 112.5 239.55 114.86 237.96 116.94 240.18 123.94 238.46 117.02 239.93 115.07 239.15 112.5"/></g><g id="_Group_50" data-name="&lt;Group&gt;"><g id="_Group_51" data-name="&lt;Group&gt;"><circle id="_Path_80" data-name="&lt;Path&gt;" class="cls-10" cx="243.52" cy="94.72" r="5.88" transform="translate(111.02 319.92) rotate(-80.78)"/><path id="_Path_81" data-name="&lt;Path&gt;" class="cls-10" d="M253.68,98.9a50.67,50.67,0,0,1-1.33,5.2,2.05,2.05,0,0,1-1.18,1l.07-3.15Z"/><path id="_Path_82" data-name="&lt;Path&gt;" class="cls-10" d="M252.48,92.49a2.2,2.2,0,0,1,1.83.64c.78.8.34,3.31-.63,5.77l-1.79.2Z"/><path id="_Path_83" data-name="&lt;Path&gt;" class="cls-18" d="M251.35,99.1c.36.22.87-.47,1.31-.94a1.57,1.57,0,0,1,2.62.43c.73,1.55-.64,3.6-1.78,4-2,.62-2.26-.64-2.26-.64l-.14,7.3h0c-1.36,1.74-4.41,3.79-6.06,3.5-1.31-.24-1.59-2.45-.34-3.9v-2.16a12.6,12.6,0,0,1-2.65.14,3.61,3.61,0,0,1-2.79-2.93c-.71-2.51-1-4.54-.38-9.48.66-5.41,7-5.47,10.35-3.33S251.35,99.1,251.35,99.1Z"/><path id="_Path_84" data-name="&lt;Path&gt;" class="cls-10" d="M251.35,99.71c.18,0,.87-1.14,1.31-1.55.62-.56-.18-5.67-.18-5.67a2.48,2.48,0,0,0-.42-2.76c-.85-.94-2-2.08-5.89-1.62-2.75.32-5.74,1.18-8.16,0a4.12,4.12,0,0,0,1.43,4.37,8.22,8.22,0,0,0,3.18.85,33.48,33.48,0,0,0,6.37-.13c.67-.09.81.56,1.17,2.33C250.48,97.07,250.74,99.7,251.35,99.71Z"/><path id="_Path_85" data-name="&lt;Path&gt;" class="cls-10" d="M252.48,92.88l2.17-1.16a1.19,1.19,0,0,0-1.64-.55A1.3,1.3,0,0,0,252.48,92.88Z"/><path id="_Path_86" data-name="&lt;Path&gt;" class="cls-19" d="M244.71,106.64a24.75,24.75,0,0,0,4.35-1.25,3.76,3.76,0,0,0,1.56-1.54,5,5,0,0,1-.89,1.82c-.82,1-5,1.83-5,1.83Z"/></g><g id="_Group_52" data-name="&lt;Group&gt;"><path id="_Path_87" data-name="&lt;Path&gt;" class="cls-10" d="M245.48,98.3a.66.66,0,0,0,.65.67.67.67,0,0,0,.64-.68.66.66,0,0,0-.64-.67A.67.67,0,0,0,245.48,98.3Z"/><path id="_Path_88" data-name="&lt;Path&gt;" class="cls-10" d="M246.17,95.86l1.38.76a.83.83,0,0,0-.32-1.1A.77.77,0,0,0,246.17,95.86Z"/><path id="_Path_89" data-name="&lt;Path&gt;" class="cls-19" d="M245,102.76l-1.48.55a.77.77,0,0,0,1,.49A.83.83,0,0,0,245,102.76Z"/><path id="_Path_90" data-name="&lt;Path&gt;" class="cls-10" d="M239.72,96.39l1.26-1a.77.77,0,0,0-1.1-.16A.83.83,0,0,0,239.72,96.39Z"/><path id="_Path_91" data-name="&lt;Path&gt;" class="cls-10" d="M240.11,98.11a.65.65,0,1,0,.64-.67A.66.66,0,0,0,240.11,98.11Z"/><polygon id="_Path_92" data-name="&lt;Path&gt;" class="cls-19" points="243.4 97.5 243.19 101.39 241.16 100.69 243.4 97.5"/></g><g id="_Group_53" data-name="&lt;Group&gt;"><path id="_Path_93" data-name="&lt;Path&gt;" class="cls-5" d="M242.7,112.25c.39.94,1.13,1.33,2.45,1.48a5,5,0,0,0,3.67-1.28l-1.65-1.64-2.09,1.57-.18-1.75Z"/><path id="_Path_94" data-name="&lt;Path&gt;" class="cls-7" d="M242.7,112.25c.39.94,1.13,1.33,2.45,1.48a5,5,0,0,0,3.67-1.28l-1.65-1.64-2.09,1.57-.18-1.75Z"/><g id="_Group_54" data-name="&lt;Group&gt;"><path id="_Path_95" data-name="&lt;Path&gt;" class="cls-5" d="M243.74,111.74a4.34,4.34,0,0,0-.22,1.76,3,3,0,0,0,.59,1.47,1.6,1.6,0,0,0,1.42.16,3.92,3.92,0,0,0,1.36-2.95l-1.81.2Z"/><path id="_Path_96" data-name="&lt;Path&gt;" class="cls-5" d="M244.11,115s-2.15,11.84-2.24,12.8,1.24,4.35,2.06,4.38,2.42-3.05,2.44-3.91-.84-13.11-.84-13.11Z"/><path id="_Path_97" data-name="&lt;Path&gt;" class="cls-7" d="M245.53,115.13a1.42,1.42,0,0,1-1.42-.16l0,.19a1.65,1.65,0,0,0,1.49.29Z"/></g><g id="_Group_55" data-name="&lt;Group&gt;"><g id="_Group_56" data-name="&lt;Group&gt;"><path id="_Path_98" data-name="&lt;Path&gt;" class="cls-2" d="M245.08,112.38l6-4.6,0-1.37s1.41.53,1.72,3a10.64,10.64,0,0,1-4.71,5l-1.27-2.26Z"/><path id="_Path_99" data-name="&lt;Path&gt;" class="cls-2" d="M244.71,107a3,3,0,0,0-2,1.2c-.61,1-.47,4.81-.47,4.81l1.45-1.31,1.34.64c-.13-1.27-.38-3.58-.38-3.58Z"/></g></g></g></g></g></g><g id="_Group_57" data-name="&lt;Group&gt;"><path id="_Path_100" data-name="&lt;Path&gt;" class="cls-18" d="M221.12,148.87a5.29,5.29,0,0,0,1-2.7c.16-1.24,3.57-2.58,3.68-1.65s.42,1.7-.63,2.82S222.68,149.7,221.12,148.87Z"/><path id="_Path_101" data-name="&lt;Path&gt;" class="cls-18" d="M221.27,140.84c-.81,1.06-1.32,3.1-1.75,3.79s-.94,1.29,0,1.41,2.32-1.71,2.84-2.83a2.93,2.93,0,0,1,.88-1.13,2.25,2.25,0,0,1,.49-.29c-.44-.15-.21-1.92-.52-2.17C223.21,139.62,221.6,140.28,221.27,140.84Z"/></g></g></g></g></g></svg>