<svg xmlns="http://www.w3.org/2000/svg" viewBox="0 0 20.63 16.91"><defs><style>.cls-1{fill:#595958;}</style></defs><title>Asset 19</title><g id="Layer_2" data-name="Layer 2"><g id="Layer_1-2" data-name="Layer 1"><path class="cls-1" d="M18.79,14.73V0l-.56.05a21.5,21.5,0,0,0-6.56,1.59l-1,.42V16.73l.72-.3a22.67,22.67,0,0,1,6.78-1.65Z"/><path class="cls-1" d="M20.63,2.18H19.52V15.07a.36.36,0,0,1-.33.37l-1,.08-.81.08-.26,0-.55.08-.32,0-.48.09-.34.07L15,16l-.34.09-.45.12-.34.1-.44.13-.34.11-.44.15-.33.12-.15.06h8.44Z"/><path class="cls-1" d="M2.4.05,1.84,0V14.73l.66.06a22,22,0,0,1,6.77,1.66l.68.28V2.06L9,1.64A21.5,21.5,0,0,0,2.4.05Z"/><path class="cls-1" d="M0,2.18V16.91H8.45l-.14-.05L8,16.74l-.45-.16-.33-.1-.45-.14-.33-.1L6,16.12,5.65,16l-.47-.11-.33-.07-.48-.08-.32-.06-.54-.08-.27,0-.81-.09-1-.08a.36.36,0,0,1-.33-.37V2.18Z"/></g></g></svg>