<svg xmlns="http://www.w3.org/2000/svg" viewBox="0 0 23 19.51"><defs><style>.cls-1{fill:#595958;}</style></defs><title>Asset 18</title><g id="Layer_2" data-name="Layer 2"><g id="Layer_1-2" data-name="Layer 1"><path class="cls-1" d="M19.68,10.53H17.9a4.71,4.71,0,0,1,.28,1.59v6.73a2.08,2.08,0,0,1-.11.66H21a2,2,0,0,0,2-2V13.85A3.32,3.32,0,0,0,19.68,10.53Z"/><path class="cls-1" d="M4.82,12.12a4.71,4.71,0,0,1,.28-1.59H3.32A3.32,3.32,0,0,0,0,13.85v3.67a2,2,0,0,0,2,2H4.93a2.08,2.08,0,0,1-.11-.66Z"/><path class="cls-1" d="M13.53,8.8H9.47a3.32,3.32,0,0,0-3.32,3.32v6.73a.66.66,0,0,0,.66.66h9.38a.66.66,0,0,0,.66-.66V12.12A3.32,3.32,0,0,0,13.53,8.8Z"/><path class="cls-1" d="M11.5,0a4,4,0,1,0,4,4A4,4,0,0,0,11.5,0Z"/><path class="cls-1" d="M4.49,3.72a3,3,0,1,0,0,6A3,3,0,0,0,7.12,8.11a2.91,2.91,0,0,0,.35-1.4A3,3,0,0,0,4.49,3.72Z"/><path class="cls-1" d="M18.51,3.72a3,3,0,0,0-3,3,2.91,2.91,0,0,0,.35,1.4,3,3,0,0,0,1.45,1.34,2.93,2.93,0,0,0,1.18.24,3,3,0,1,0,0-6Z"/></g></g></svg>