<svg xmlns="http://www.w3.org/2000/svg" viewBox="0 0 22 22"><defs><style>.cls-1{fill:#595958;}.cls-2{fill:none;stroke:#595958;stroke-miterlimit:10;}.cls-3{fill:#fff;}</style></defs><title>Asset 22</title><g id="Layer_2" data-name="Layer 2"><g id="Layer_1-2" data-name="Layer 1"><circle class="cls-1" cx="11" cy="11" r="9.5"/><circle class="cls-2" cx="11" cy="11" r="10.5"/><path class="cls-3" d="M12.88,10.38a16.28,16.28,0,0,0-1.65-.74,3.68,3.68,0,0,1-.91-.51.79.79,0,0,1,.2-1.41,1.68,1.68,0,0,1,.55-.11A4.19,4.19,0,0,1,13.16,8c.33.16.44.11.55-.23s.21-.73.32-1.1a.39.39,0,0,0-.25-.51,5.06,5.06,0,0,0-1.31-.39c-.6-.09-.6-.1-.6-.7,0-.84,0-.84-.85-.84h-.37c-.4,0-.47.08-.48.48v.54c0,.53,0,.52-.51.7A2.84,2.84,0,0,0,7.59,8.59a2.69,2.69,0,0,0,1.52,2.57A16.24,16.24,0,0,0,11,12a2.68,2.68,0,0,1,.69.41,1,1,0,0,1-.22,1.66,2.31,2.31,0,0,1-1.22.16,5.28,5.28,0,0,1-1.86-.56c-.35-.18-.45-.13-.56.24s-.19.65-.28,1-.08.54.34.74a5.71,5.71,0,0,0,1.67.48c.45.08.47.09.47.56,0,.22,0,.43,0,.64a.38.38,0,0,0,.41.43c.31,0,.62,0,.94,0a.37.37,0,0,0,.39-.41c0-.29,0-.58,0-.87a.45.45,0,0,1,.4-.52,3.15,3.15,0,0,0,1.64-1.06A3,3,0,0,0,12.88,10.38Z"/></g></g></svg>