<svg xmlns="http://www.w3.org/2000/svg" viewBox="0 0 191 75.53"><defs><style>.cls-1{fill:#ffc711;}.cls-2{fill:#ffc90d;}.cls-3{fill:#ffc80e;}.cls-4{fill:#fff;}</style></defs><title>Logo footer</title><g id="Layer_2" data-name="Layer 2"><g id="Layer_1-2" data-name="Layer 1"><path class="cls-1" d="M82.06,42.46l-.2,0c-3.14-.56-6.17-2.4-9-5.44a1.13,1.13,0,0,1,0-1.48,18.93,18.93,0,0,1,8.87-5.89,1.12,1.12,0,0,1,1.22.45c2.32,3.32,6.1,4.37,8.86,4.65a1.14,1.14,0,0,1,0,2.27c-4,.25-6.93,1.89-8.68,4.89A1.13,1.13,0,0,1,82.06,42.46ZM75.25,36.2A14.11,14.11,0,0,0,81.52,40a11.31,11.31,0,0,1,5.15-4.23A12.64,12.64,0,0,1,81.53,32,16.72,16.72,0,0,0,75.25,36.2Z"/><path class="cls-1" d="M94.86,33.89h0a1.13,1.13,0,0,1-1.11-1.07c-.25-4-1.9-6.93-4.9-8.67A1.15,1.15,0,0,1,88.28,23c.57-3.15,2.4-6.17,5.44-9a1.14,1.14,0,0,1,1.49-.06,19.12,19.12,0,0,1,5.89,8.88,1.12,1.12,0,0,1-.45,1.22c-3.33,2.32-4.37,6.09-4.66,8.86A1.14,1.14,0,0,1,94.86,33.89ZM90.68,22.63a11.37,11.37,0,0,1,4.24,5.14,12.56,12.56,0,0,1,3.76-5.12,16.74,16.74,0,0,0-4.16-6.29A14.2,14.2,0,0,0,90.68,22.63Z"/><path class="cls-1" d="M95.12,58.17a1.18,1.18,0,0,1-.71-.25A19,19,0,0,1,88.52,49,1.14,1.14,0,0,1,89,47.82c3.32-2.31,4.37-6.1,4.66-8.86a1.15,1.15,0,0,1,1.15-1A1.14,1.14,0,0,1,95.89,39c.25,4,1.89,6.93,4.89,8.67a1.14,1.14,0,0,1,.55,1.18c-.56,3.15-2.39,6.18-5.44,9A1.1,1.1,0,0,1,95.12,58.17Zm-4.19-9a16.77,16.77,0,0,0,4.17,6.28,14.2,14.2,0,0,0,3.83-6.26,11.38,11.38,0,0,1-4.23-5.15A12.68,12.68,0,0,1,90.93,49.19Z"/><path class="cls-1" d="M107.65,42.25a1.12,1.12,0,0,1-.93-.49c-2.33-3.33-6.1-4.37-8.86-4.66a1.13,1.13,0,0,1-1-1.15,1.14,1.14,0,0,1,1.06-1.12c4-.24,6.93-1.89,8.68-4.89a1.15,1.15,0,0,1,1.18-.55c3.14.57,6.17,2.4,9,5.44a1.14,1.14,0,0,1,.06,1.49,19.06,19.06,0,0,1-8.87,5.89A1,1,0,0,1,107.65,42.25ZM103,36a12.56,12.56,0,0,1,5.13,3.76,16.6,16.6,0,0,0,6.28-4.16,14.08,14.08,0,0,0-6.26-3.84A11.4,11.4,0,0,1,103,36Z"/><path class="cls-1" d="M81,52.22l-1,0a1.13,1.13,0,0,1-1.09-1c0-.3-.75-7.34,3.32-12.18A11.31,11.31,0,0,1,86.7,35.8c-4.1-1.7-8.51-5.62-8.18-14.63a1.13,1.13,0,0,1,1-1.09A14.46,14.46,0,0,1,81.07,20c2.78,0,10.9.65,13.86,7.8,1.69-4.09,5.64-8.52,14.63-8.18a1.15,1.15,0,0,1,1.09,1c0,.3.75,7.35-3.32,12.18A11.39,11.39,0,0,1,102.92,36c4.09,1.7,8.51,5.62,8.17,14.64a1.13,1.13,0,0,1-1,1.08,14.56,14.56,0,0,1-1.55.07h0c-2.78,0-10.89-.64-13.85-7.8C93.05,48,89.36,52.22,81,52.22Zm-.24-29.94c.07,9.33,6,11.93,11,12.45a1.14,1.14,0,0,1,0,2.27A10.44,10.44,0,0,0,84,40.48C81.4,43.6,81.15,48,81.18,50c9.34-.07,11.93-6,12.45-11a1.17,1.17,0,0,1,1.15-1A1.14,1.14,0,0,1,95.89,39c.59,9.51,9,10.54,12.65,10.54h.3c-.07-9.32-6-11.93-11-12.45a1.13,1.13,0,0,1-1-1.15,1.14,1.14,0,0,1,1.06-1.12,10.42,10.42,0,0,0,7.68-3.46c2.63-3.11,2.89-7.53,2.85-9.49-9.34.07-11.92,6-12.44,11a1.13,1.13,0,0,1-2.26,0c-.59-9.51-9-10.54-12.66-10.54Z"/><path class="cls-2" d="M190.19,53.53a10.17,10.17,0,0,1-4.11-.91,9.07,9.07,0,0,1-2.92-2.07,9.41,9.41,0,0,1-2.29-4.11c-.49-1.65-.83-3.9.29-5.41l1.07-1.44H184c.36,0,3.61.12,3.64,4.3a2.81,2.81,0,0,0,.07.65,2.48,2.48,0,0,0,2.65,1.86Z"/><path class="cls-3" d="M31.16,47.25l-1.32.57c-2.29,3.85-7.3,6.2-12.33,6.2A17.09,17.09,0,0,1,5.1,49C1.7,45.67,0,41.31,0,36s1.7-9.68,5.1-13A17.06,17.06,0,0,1,17.51,18c5,0,10,2.14,12.13,5.91V18.77h6.64V44.66ZM26.08,27.64a11.75,11.75,0,0,0-8-3,11,11,0,0,0-8,3.17,10.82,10.82,0,0,0-3.18,8.13,11.28,11.28,0,0,0,3.26,8.28,10.84,10.84,0,0,0,8,3.25,11.46,11.46,0,0,0,8.13-3.11,10.92,10.92,0,0,0,3.32-8.42A10.44,10.44,0,0,0,26.08,27.64Z"/><path class="cls-3" d="M53.87,38.06C47.29,36.28,44,33,44.63,26.82a8.61,8.61,0,0,1,3.84-6.27A13.3,13.3,0,0,1,56.6,18c6.43,0,11.38,3.18,12,9.75H62.14c-.37-2.43-2.66-3.91-5.39-3.91s-4.66,1.25-5.17,3.1a3.78,3.78,0,0,0,.07,2.74c.51,1.11,1.92,2,4.06,2.65l5.1,1.26c6,1.48,8.94,4.81,8.94,10.05a9,9,0,0,1-3.92,7.54A15.72,15.72,0,0,1,56.38,54a14.14,14.14,0,0,1-8.87-3,10,10,0,0,1-4-8.06h6.14a5.05,5.05,0,0,0,2.8,3.92A8.86,8.86,0,0,0,57.93,48c3.18-.22,5.17-2.07,5.25-4.51s-1.7-3.69-4.59-4.35Z"/><path class="cls-3" d="M127.9,36.43V53.28h-6.65V0h6.65V30.82l11.9-12H149L134.19,33.7l18.32,19.58h-8.87Z"/><path class="cls-2" d="M38.72,53.6a9.59,9.59,0,0,1-9.34-7.14c-.48-1.64-.8-3.88.31-5.37l1.07-1.44h1.8c.37,0,3.62.12,3.64,4.29a4.32,4.32,0,0,0,.07.64,2.5,2.5,0,0,0,2.66,1.87Z"/><path class="cls-3" d="M182.64,47.25l-1.29.58C179.06,51.67,174,54,169,54a17.11,17.11,0,0,1-12.41-5c-3.4-3.32-5.09-7.68-5.09-13s1.69-9.68,5.09-13A17.08,17.08,0,0,1,169,18c5,0,10,2.14,12.12,5.91V18.77h6.65V44.66Zm-5.08-19.61a11.81,11.81,0,0,0-8-3,11,11,0,0,0-8.06,3.17,10.82,10.82,0,0,0-3.17,8.13,11.28,11.28,0,0,0,3.25,8.28,10.87,10.87,0,0,0,8,3.25,11.48,11.48,0,0,0,8.13-3.11A11,11,0,0,0,181,35.91,10.48,10.48,0,0,0,177.56,27.64Z"/><path class="cls-4" d="M127.61,75.53V61.92h2.3V73.35h6.22v2.18Z"/><path class="cls-4" d="M150.7,72.44l-1.37,3.09h-2.45l6-13.61h2.46l6,13.61h-2.45l-1.36-3.09Zm5.88-2.13L154.1,64.7l-2.47,5.61Z"/><path class="cls-4" d="M177,71.71l3-9.79h2.07l3,9.79,3.43-9.79H191l-4.75,13.61H184L181.1,66.2H181l-2.87,9.33h-2.27l-4.76-13.61h2.48Z"/></g></g></svg>