<svg xmlns="http://www.w3.org/2000/svg" viewBox="0 0 60 44.1"><defs><style>.cls-1{fill:#66caff;}.cls-2{fill:#bae7ff;}</style></defs><title>Asset 1</title><g id="Layer_2" data-name="Layer 2"><g id="Layer_1-2" data-name="Layer 1"><path class="cls-1" d="M60,44.1H31.78V15.83H60ZM43.8,37.65,55.34,26.11l-2.46-2.48-9.17,9.18-4.91-5-2.4,2.41Z"/><path class="cls-2" d="M28.19,15.87V44.06H0V15.87Zm-14,16.48,6.89,6.9,2.37-2.38L16.55,30l6.9-6.88L21,20.63,14.11,27.5,7.23,20.61l-2.49,2.5L11.64,30,4.81,36.82l2.43,2.45Z"/><path class="cls-1" d="M17.46,10.52V0H41.91V10.52Z"/><path class="cls-2" d="M13.88,0V10.48C11.17,10.8,9,10.26,7.65,8a5.26,5.26,0,0,1,4.2-8C12.5,0,13.17,0,13.88,0Z"/><path class="cls-1" d="M45.5,10.68V.05A1.84,1.84,0,0,1,46.94.3C48.82,1.56,50.72,2.79,52.63,4a1,1,0,0,1,.47.85A2,2,0,0,1,51.92,7c-1.7,1-3.31,2.15-5,3.19A5.8,5.8,0,0,1,45.5,10.68Z"/></g></g></svg>