<svg xmlns="http://www.w3.org/2000/svg" viewBox="0 0 63.02 54.9"><defs><style>.cls-1{fill:#bae7ff;}.cls-2{fill:#66caff;}</style></defs><title>Asset 3</title><g id="Layer_2" data-name="Layer 2"><g id="Layer_1-2" data-name="Layer 1"><path class="cls-1" d="M0,28.43c.29-.56.59-1.12.87-1.69Q5.54,17.13,10.19,7.5l.32-.63,7,1.69A3.67,3.67,0,0,1,17.3,9c-.6.95-1.23,1.89-1.82,2.85A8.1,8.1,0,0,0,29,20.73c1.07-1.55,2.08-3.14,3.12-4.72l.4-.58,4.88,3.17q8.05,5.25,16.12,10.5a4.14,4.14,0,0,1-1.1,7.49,3.89,3.89,0,0,1-3.14-.4l-.83-.49c1.45,2.47,1.46,4.16.06,5.72a4.06,4.06,0,0,1-2.92,1.37,4.79,4.79,0,0,1-3.11-1.12c1.52,2.34,1.55,4.16.16,5.75s-3.11,1.77-6,.42a4.58,4.58,0,0,1,1.14,2.91A4.1,4.1,0,0,1,32,54.49a43.71,43.71,0,0,1-4.06-2.56c.75-1.17,1.47-2.27,2.17-3.37a8.11,8.11,0,0,0-6-12.62.88.88,0,0,1-.55-.35,8.11,8.11,0,0,0-6.35-4.13.89.89,0,0,1-.61-.38,8.11,8.11,0,0,0-13.82-.56,1.48,1.48,0,0,1-.17.2L0,28.55Z"/><path class="cls-2" d="M63,18.71c-1.43,1-2.86,2.05-4.28,3.09S55.91,23.9,54.47,25L31.4,10c-.14.21-.27.39-.39.58-1.73,2.62-3.44,5.25-5.19,7.85a3.93,3.93,0,0,1-4.16,1.79,3.93,3.93,0,0,1-3.23-2.85A3.76,3.76,0,0,1,18.82,14Q22.89,7.62,27,1.29A.93.93,0,0,1,27.66,1l15-.49C47.4.33,52.13.18,56.87,0a.67.67,0,0,1,.8.58c1.68,5.74,3.39,11.47,5.09,17.2.07.23.17.45.26.68Z"/><path class="cls-2" d="M13.24,36.78c1.86-1.52,3.65-1.78,5.29-.8s2.26,2.65,1.71,5.29a4.17,4.17,0,0,1,4.24-1.22A4.07,4.07,0,0,1,27,46c-1.44,2.41-3,4.76-4.57,7.08a4,4,0,0,1-5.11,1.22,4.12,4.12,0,0,1-2.15-4.86c0-.18.11-.35.18-.56-2.08,1.54-3.77,1.79-5.37.7-1.88-1.27-2.31-3.06-1.59-5.25A4.18,4.18,0,0,1,4,45.55a4.06,4.06,0,0,1-2.35-5.92c1.43-2.39,3-4.72,4.53-7a4,4,0,0,1,5.15-1.26,4.13,4.13,0,0,1,2.13,4.87C13.37,36.39,13.31,36.56,13.24,36.78Z"/></g></g></svg>