<svg xmlns="http://www.w3.org/2000/svg" viewBox="0 0 61.85 61.76"><defs><style>.cls-1{fill:#bae7ff;}.cls-2{fill:#66caff;}</style></defs><title>Asset 4</title><g id="Layer_2" data-name="Layer 2"><g id="Layer_1-2" data-name="Layer 1"><path class="cls-1" d="M31,15A15.86,15.86,0,1,1,15.08,30.79,15.83,15.83,0,0,1,31,15Zm1.61,25.16c0-.61,0-1.17,0-1.73,0-.34.11-.48.46-.55a6.14,6.14,0,0,0,2.74-1.32A3.88,3.88,0,0,0,34.81,30a15.13,15.13,0,0,0-2-.63c-.87-.23-1.77-.38-2.63-.64-.26-.09-.65-.5-.61-.67a1.12,1.12,0,0,1,.69-.69,4.11,4.11,0,0,1,1.67-.1c1.1.2,2.17.53,3.32.83l1.4-3.38-4.08-1.16V21.61h-2.8c0,.58,0,1.12,0,1.66,0,.35-.11.47-.46.54a6.25,6.25,0,0,0-3,1.34c-1.9,1.59-2.26,5.42,1.06,6.71a30.32,30.32,0,0,0,3,.86,14.39,14.39,0,0,1,1.73.52.84.84,0,0,1,.4.64c0,.18-.28.42-.48.52a2.3,2.3,0,0,1-.83.14,9.45,9.45,0,0,1-5-1.23l-1.5,3.4a4.08,4.08,0,0,0,.69.35c1.26.34,2.51.71,3.79,1,.48.09.65.21.61.7s0,1,0,1.46Z"/><path class="cls-2" d="M14,21.13,0,12.32,19.55,0V5.32h.76c4.69,0,9.38,0,14.07,0A12.2,12.2,0,0,1,46.2,13.7a14.3,14.3,0,0,1,.51,5.67c-4.3-5.44-9.85-8.28-16.81-7.92S17.72,15.25,14,21.13Z"/><path class="cls-2" d="M15.18,42.42C19.47,47.86,25,50.69,32,50.31s12.14-3.79,15.86-9.69l14,8.82L42.3,61.76V56.42h-.75c-4.77,0-9.54,0-14.31,0a12,12,0,0,1-11.93-9.74A34.64,34.64,0,0,1,15,42.45Z"/></g></g></svg>