<svg xmlns="http://www.w3.org/2000/svg" viewBox="0 0 39.6 43.69"><defs><style>.cls-1{fill:#212331;}</style></defs><title>phone icon black</title><g id="Layer_2" data-name="Layer 2"><g id="Layer_1-2" data-name="Layer 1"><path class="cls-1" d="M39.59,38.08a3.42,3.42,0,0,1-1.21,2.29L36.4,42a1.66,1.66,0,0,0-.38.18,11,11,0,0,1-2.4,1,10.82,10.82,0,0,1-2.72.45,6.75,6.75,0,0,1-.82,0c-3.09-.26-11.25-2-20.46-12.91C1.62,21.3-1.06,14.6.37,7.65A11.64,11.64,0,0,1,1.25,5,10.7,10.7,0,0,1,2.67,2.87,2.21,2.21,0,0,0,3,2.42L4.88.81A3.39,3.39,0,0,1,7.34,0a3.22,3.22,0,0,1,2.22,1.1l5.9,7A3.32,3.32,0,0,1,15,12.74l-2.26,1.93a2.24,2.24,0,0,0-.58,2.62,31.28,31.28,0,0,0,4.62,7.43,31.25,31.25,0,0,0,6.57,5.78,2.31,2.31,0,0,0,1.08.38,2.24,2.24,0,0,0,1.6-.52l2.26-1.91a3.4,3.4,0,0,1,2.47-.82A3.24,3.24,0,0,1,33,28.75l5.89,7a3.25,3.25,0,0,1,.74,2.37"/></g></g></svg>