<?xml version="1.0" encoding="utf-8"?>
<!-- Generator: Adobe Illustrator 22.0.0, SVG Export Plug-In . SVG Version: 6.00 Build 0)  -->
<svg version="1.1" id="Layer_5" xmlns="http://www.w3.org/2000/svg" xmlns:xlink="http://www.w3.org/1999/xlink" x="0px" y="0px"
	 viewBox="0 0 512 512" style="enable-background:new 0 0 512 512;" xml:space="preserve">
<style type="text/css">
	.st0{fill:#FFC911;}
	.st1{fill:#3D3D3D;}
</style>
<path class="st0" d="M256,400c-57.3,0-104-46.7-104-104s46.7-104,104-104s104,46.7,104,104S313.3,400,256,400z"/>
<path class="st1" d="M218.7,362.2l-16.5-12.3l18-41.3l-38.9-25.6l7.5-18.9l44.4-0.1l11-40H266l11.2,40l44.2,0l7.6,18.9L290,308.5
	l18,41.3l-16.5,12.3l-36.4-29.9L218.7,362.2z M255.1,311.5l29.3,24.1L270,302.5l34.2-22.5l-39.2,0l-9.9-35.4l-9.8,35.4l-39.4,0.1
	l34.2,22.5l-14.4,33.1L255.1,311.5z"/>
<path class="st1" d="M168,200h-16v-16h16V200z M168,168h-16v-16h16V168z M168,136h-16v-16h16V136z"/>
<path class="st1" d="M360,440h-16v-16h16V440z M360,408h-16v-16h16V408z M360,376h-16v-16h16V376z"/>
<path class="st1" d="M504,96c0-35.9-56.2-64-128-64c-14.2,0-28.1,1.2-41.3,3.4L307.3,8H204.7L120,92.7V504h272V159.5
	C455.9,155.6,504,129.2,504,96L504,96z M211.3,24h89.4l64,64h-69.5c-3.7-18.2-19.9-32-39.2-32s-35.5,13.8-39.2,32h-69.5L211.3,24z
	 M264,96c0-6.9,3.9-12.9,8.3-17.5C277,82.9,280,89.1,280,96c0,6.8-2.9,13-7.5,17.3C267,107.7,264,101.8,264,96z M257,119.9
	c-0.3,0-0.7,0.1-1,0.1c-13.2,0-24-10.8-24-24s10.8-24,24-24c0.3,0,0.6,0.1,0.9,0.1c-5.8,7.5-8.9,15.6-8.9,23.9
	C248,104.5,251.2,112.5,257,119.9z M295.2,104H376v40c-39.1,0-71.1-8.9-90.8-20.9C290.1,117.8,293.7,111.3,295.2,104z M376,456H168
	v16h208v16H136v-16h16v-16h-16V104h80.8c3.7,18.2,19.9,32,39.2,32c5.3,0,10.4-1.1,15-3c22.9,16.4,61,27,105,27V456z M392,143.4V92.7
	l-43.1-43.1c8.8-1,17.9-1.5,27.1-1.5c66,0,112,25.3,112,48C488,116.8,449.3,139.7,392,143.4z"/>
</svg>
