<svg xmlns="http://www.w3.org/2000/svg" viewBox="0 0 496 497.98"><defs><style>.cls-1{fill:#3d3d3d;}.cls-2{fill:#ffc911;}</style></defs><title>TVLS</title><g id="Layer_2" data-name="Layer 2"><g id="Layer_1-2" data-name="Layer 1"><path class="cls-1" d="M377.57,498l14-42H190.76A30.8,30.8,0,0,1,160,425.24V320h16V425.24A14.78,14.78,0,0,0,190.76,440h223l-7.34,22,36.69-22h22.13A14.77,14.77,0,0,0,480,425.24V294.76A14.78,14.78,0,0,0,465.24,280H296V264H465.24A30.8,30.8,0,0,1,496,294.76V425.25A30.79,30.79,0,0,1,465.24,456H447.55Z"/><path class="cls-2" d="M184,184H304V297.24A30.8,30.8,0,0,1,273.24,328H264l16,40-72-40H30.76A30.8,30.8,0,0,1,0,297.24V166.76A30.8,30.8,0,0,1,30.76,136H168v32Z"/><path class="cls-1" d="M377.57,234l14-42H190.76A30.8,30.8,0,0,1,160,161.24V30.76A30.8,30.8,0,0,1,190.76,0H465.25A30.79,30.79,0,0,1,496,30.76V161.25A30.79,30.79,0,0,1,465.24,192H447.55ZM190.76,16A14.78,14.78,0,0,0,176,30.76V161.25A14.77,14.77,0,0,0,190.76,176h223l-7.34,22,36.69-22h22.13A14.77,14.77,0,0,0,480,161.24V30.76A14.78,14.78,0,0,0,465.24,16Z"/><rect class="cls-1" x="200" y="48" width="256" height="16"/><rect class="cls-1" x="200" y="88" width="256" height="16"/><rect class="cls-1" x="200" y="128" width="216" height="16"/><rect class="cls-1" x="440" y="128" width="16" height="16"/><rect class="cls-1" x="40" y="184" width="104" height="16"/><rect class="cls-1" x="40" y="224" width="224" height="16"/><rect class="cls-1" x="40" y="264" width="184" height="16"/><rect class="cls-1" x="248" y="264" width="16" height="16"/><rect class="cls-1" x="328" y="312" width="128" height="16"/><rect class="cls-1" x="304" y="352" width="152" height="16"/><rect class="cls-1" x="200" y="392" width="216" height="16"/><rect class="cls-1" x="440" y="392" width="16" height="16"/></g></g></svg>