<?xml version="1.0" encoding="utf-8"?>
<!-- Generator: Adobe Illustrator 22.0.0, SVG Export Plug-In . SVG Version: 6.00 Build 0)  -->
<svg version="1.1" id="Layer_1" xmlns="http://www.w3.org/2000/svg" xmlns:xlink="http://www.w3.org/1999/xlink" x="0px" y="0px"
	 viewBox="0 0 682 682" style="enable-background:new 0 0 682 682;" xml:space="preserve">
<style type="text/css">
	.st0{fill:#FFC911;}
	.st1{fill:#3D3D3D;}
</style>
<polygon class="st0" points="375.3,36.7 303.3,189 298.7,202.7 368.7,207.3 360,349 492,146 422.7,157 405.3,141 457.3,50 
	468.7,32.7 "/>
<path class="st1" d="M637.6,407.7l-25.3-25.3c-13.4-13.4-20.8-31.2-20.8-50.1c0-49.7-21.9-96.5-60.1-128.3
	c-14.1-11.8-29.7-21.3-46.5-28.6l13.2-21.6c2.4-3.9,2.4-8.7,0.2-12.7c-2.2-4-6.4-6.4-10.9-6.4h-63.7l54.1-95
	c2.2-3.9,2.2-8.7-0.1-12.5c-2.2-3.9-6.4-6.2-10.9-6.2h-90.8c-4.9,0-9.3,2.8-11.3,7.2L322.2,118c-15.1-4.1-30.8-6.2-46.7-6.2h-4.3
	c-44.3,0-87.5,15.6-121.5,44c-38.2,31.8-60.1,78.6-60.1,128.3c0,18.9-7.4,36.7-20.8,50.1l-25.3,25.3c-6.9,6.9-8.9,17.1-5.2,26.1
	c3.7,9,12.4,14.8,22.1,14.8h13.7v84.4c0,14.1,5.5,27.3,15.4,37.3c10,10,23.2,15.4,37.3,15.4h12.4c11.2,0,20.3,9.1,20.3,20.3v41.8
	c0,6.9,5.6,12.6,12.6,12.6h52.3c6.9,0,12.6-5.6,12.6-12.6c0-6.9-5.6-12.6-12.6-12.6h-39.8v-29.2c0-25-20.4-45.4-45.4-45.4h-12.4
	c-7.4,0-14.3-2.9-19.5-8.1c-5.2-5.2-8.1-12.2-8.1-19.5v-97c0-6.9-5.6-12.6-12.6-12.6H63.3l23.4-23.4c18.1-18.1,28.1-42.2,28.1-67.9
	c0-42.2,18.6-82,51.1-109c29.5-24.6,67-38.2,105.4-38.2h4.3c12.1,0,24.1,1.4,35.7,4.2l-27.9,59c-1.4,2.9-1.6,6.2-0.6,9.2
	c-36.7,38.1-60.4,91.1-60.4,137.3c0,30.7,7.6,61.2,21.9,88.3l40.5,76.8c13.3,25.1,20.3,53.4,20.3,81.8v54.3
	c0,6.9,5.6,12.6,12.6,12.6c6.9,0,12.6-5.6,12.6-12.6v-54.3c0-32.5-8-64.8-23.2-93.5l-40.5-76.8c-12.4-23.5-19-50-19-76.6
	c0-43.7,24.9-94.8,62.4-128.6H358l-9.5,136c-0.4,5.8,3.2,11,8.7,12.8c1.3,0.4,2.6,0.6,3.9,0.6c4.2,0,8.3-2.2,10.7-5.9l49.4-79.5
	c3.7-5.9,1.9-13.6-4-17.3c-5.9-3.7-13.6-1.9-17.3,4l-22.7,36.5l6.9-99c0.2-3.5-1-6.9-3.3-9.4c-2.4-2.5-5.7-4-9.2-4h-57L384,46.1
	h61.2L391.1,141c-2.2,3.9-2.2,8.7,0.1,12.5c2.2,3.9,6.4,6.2,10.9,6.2h63l-17,27.9c-3.6,5.9-1.7,13.6,4.2,17.2
	c5.9,3.6,13.6,1.7,17.2-4.2l2.2-3.6c15.8,6.4,30.5,15.2,43.7,26.1c32.4,27,51.1,66.8,51.1,109c0,25.6,10,49.7,28.1,67.9l23.4,23.4
	h-23.5c-6.9,0-12.6,5.6-12.6,12.6v97c0,7.4-2.9,14.3-8.1,19.5c-5.2,5.2-12.1,8.1-19.5,8.1h-12.4c-25,0-45.4,20.4-45.4,45.4v41.8
	c0,6.9,5.6,12.6,12.6,12.6c6.9,0,12.6-5.6,12.6-12.6V606c0-11.2,9.1-20.3,20.3-20.3h12.4c14.1,0,27.3-5.5,37.3-15.4
	S607,547.1,607,533v-84.4h13.7c9.7,0,18.4-5.8,22.1-14.8C646.5,424.8,644.5,414.6,637.6,407.7z"/>
<path class="st1" d="M281.3,589.7l-0.3-0.3c-5.5-4.2-13.4-3.1-17.6,2.4c-4.2,5.5-3.1,13.4,2.4,17.6l0.3,0.2c2.3,1.7,4.9,2.6,7.6,2.6
	c3.8,0,7.5-1.7,10-5C287.9,601.7,286.8,593.9,281.3,589.7z"/>
<path class="st1" d="M443.1,223.9l-0.3-0.3c-5.5-4.2-13.4-3.1-17.6,2.4c-4.2,5.5-3.1,13.4,2.4,17.6l0.3,0.2c2.3,1.7,4.9,2.6,7.6,2.6
	c3.8,0,7.5-1.7,10-5C449.7,236,448.7,228.1,443.1,223.9z"/>
</svg>
