<svg xmlns="http://www.w3.org/2000/svg" viewBox="0 0 173.27 192.54"><defs><style>.cls-1{opacity:0.1;}.cls-2{fill:#213f70;}.cls-3{fill:#ffaf14;}</style></defs><title>icon-3</title><g id="Layer_2" data-name="Layer 2"><g id="Layer_1-2" data-name="Layer 1"><g class="cls-1"><path class="cls-2" d="M163.67,18.64l8.22-7.23A4.06,4.06,0,0,0,169.2,4.3h-34V2.83a2.83,2.83,0,1,0-5.66,0V40.89L106.34,53.47a8.64,8.64,0,0,0-.91-2.95l-3.27-6.38a8.94,8.94,0,0,0-12-3.88l-2.52,1.3a8.77,8.77,0,0,0-4.42,5.2,8.88,8.88,0,0,0,.54,6.8L87,59.93a9.13,9.13,0,0,0,3.21,3.5c-1.72,2.33-2.54,5.2-3.4,8.18l-.6,2.16a2.83,2.83,0,0,0,2,3.48,3.41,3.41,0,0,0,.77.11,2.84,2.84,0,0,0,2.71-2.06l.61-2.16c1.23-4.36,2-6.69,4.42-8L101,62.78l.54-.27c.17-.08.34-.19.51-.29L133,45.44A12,12,0,0,1,127.26,55L107.18,67.23s-.05,0-.07,0l-6.27,3.8a2.83,2.83,0,0,0-.94,3.87A2.8,2.8,0,0,0,103.55,76L98.81,90.36l-3.48,1.42-9.42,3.88L88.62,86a2.82,2.82,0,1,0-5.43-1.53l-4.3,15.18a2.74,2.74,0,0,0-.09.63L77.67,121a9.75,9.75,0,0,1-.23,3L65,150.25H55.88a9.64,9.64,0,0,0-9.62,9.64V168a9.34,9.34,0,0,0-4-.86h-23a9.64,9.64,0,0,0-9.63,9.62V186.9H2.83a2.82,2.82,0,1,0,0,5.64H169.2a2.82,2.82,0,1,0,0-5.64h-7.34V114.16a9.64,9.64,0,0,0-9.62-9.63H135.17V55.3A17.63,17.63,0,0,0,138,40.22a2.86,2.86,0,0,0-1.61-1.85,3.3,3.3,0,0,0-1.22-.23V33h34a4.07,4.07,0,0,0,2.69-7.11ZM99.31,57.29l-.92.5-1.93,1a3.26,3.26,0,0,1-4.4-1.43L88.78,51a3.38,3.38,0,0,1-.21-2.5,3.3,3.3,0,0,1,1.64-1.91l2.52-1.3a3.43,3.43,0,0,1,1.49-.35,3.25,3.25,0,0,1,2.91,1.78l3.27,6.37A3.3,3.3,0,0,1,99.31,57.29Zm-53,129.61h-31V176.79a4,4,0,0,1,4-4h23a4,4,0,0,1,4,4ZM111,71.53l18.52-11.26v44.26h-.32a9.64,9.64,0,0,0-9.62,9.63V133a9.29,9.29,0,0,0-3.27-.84l2.3-18.6c.44-3.63-1.4-6-3.18-8.37-.19-.25-11.16-13.27-11.16-13.27Zm-8.2,27.34s8,9.48,8.14,9.71c1.65,2.14,2.22,3,2.07,4.21l-2.39,19.28h-2l-1.59-16.15a5.93,5.93,0,0,0-3.31-4.76l-2.84-1.8Zm-3,16.48s1.33.82,1.45.88a.31.31,0,0,1,.19.26l1.53,15.6H93.52l2.79-3.72a10.61,10.61,0,0,0,2-5.05C98.43,123,99.81,115.35,99.81,115.35Zm-17.3,11.12a15.44,15.44,0,0,0,.8-5.25l1-18.83,13-5.34L95,110.19s0,.07,0,.11l-2,10.86c-.25,1.13-.46,2.83-1.17,3.76L72.78,150.25H71.21Zm.4,60.43h-31v-27a4,4,0,0,1,4-4H78.93a4,4,0,0,1,4,4Zm0-35.77a9.56,9.56,0,0,0-3.1-.84l3.1-4.11Zm69.33-41a4,4,0,0,1,4,4V186.9h-31V170a2.82,2.82,0,1,0-5.64,0V186.9h-31V141.71a4,4,0,0,1,4-4h23a4,4,0,0,1,4,4v14.16a2.82,2.82,0,0,0,5.64,0V114.16a4,4,0,0,1,4-4h23.05Zm-17.07-82.8V9.94H165l-6.42,5.66a4.06,4.06,0,0,0,0,6.1L165,27.37Z"/><path class="cls-3" d="M158.59,21.7,165,27.37H135.17V9.94H165l-6.42,5.66a4.06,4.06,0,0,0,0,6.1Z"/></g></g></g></svg>