<svg xmlns="http://www.w3.org/2000/svg" viewBox="0 0 146.44 146.44"><defs><style>.cls-1{opacity:0.1;}.cls-2{fill:#213f70;}.cls-3{fill:#ffaf14;}</style></defs><title>icon-4</title><g id="Layer_2" data-name="Layer 2"><g id="Layer_1-2" data-name="Layer 1"><g class="cls-1"><path class="cls-2" d="M146.33,106.43v0l0,0v0L125.17,34.65h0a3,3,0,0,0-.44-.9,2.87,2.87,0,0,0-2.29-1.15H85.64A16.24,16.24,0,0,0,89.58,22V15.45a3.4,3.4,0,0,0-.08-.65A16.36,16.36,0,0,0,75.72.21l-.1,0A11.29,11.29,0,0,0,74.17,0h0a7.24,7.24,0,0,0-.94,0,6.41,6.41,0,0,0-.88,0A12.41,12.41,0,0,0,71,.17s0,0-.07,0A16.39,16.39,0,0,0,56.94,14.8a2.32,2.32,0,0,0-.08.65V22a16.2,16.2,0,0,0,4,10.62H24a2.93,2.93,0,0,0-2.26,1.15,2.78,2.78,0,0,0-.44.9h0L.13,106.37v0l0,0v0a3,3,0,0,0-.11.8,24,24,0,1,0,48.05,0,2.63,2.63,0,0,0-.13-.8,0,0,0,0,1,0,0l0,0v0L41.66,85.18a2.86,2.86,0,1,0-5.48,1.62l5.17,17.56H6.68L24,45.59l.55,1.89a3.36,3.36,0,0,0,.19.46l5.1,17a2.85,2.85,0,1,0,5.47-1.63L31.21,49.53H56.63v79.76h-11a2.84,2.84,0,0,0-2.85,2.85v11.43a2.86,2.86,0,0,0,2.85,2.87h55.1a2.86,2.86,0,0,0,2.87-2.87V132.14a2.85,2.85,0,0,0-2.87-2.85h-11V119.08a2.86,2.86,0,1,0-5.72,0v10.21h-8v-35a2.86,2.86,0,1,0-5.72,0v35h-8V85.71H84.09v10.9a2.86,2.86,0,0,0,5.72,0V49.53h25.48L98.52,106.37v0l0,0,0,0a3,3,0,0,0-.13.8,24,24,0,1,0,48.05,0A3,3,0,0,0,146.33,106.43ZM42.1,110.09a18.3,18.3,0,0,1-36.16,0ZM71.34,5.9a9.72,9.72,0,0,1,1.87-.18,10.16,10.16,0,0,1,1.92.18h0a10.59,10.59,0,0,1,7.62,5.8L79.13,9.55a2.86,2.86,0,0,0-3.64.64,12,12,0,0,1-9.17,4.26H62.74A10.64,10.64,0,0,1,71.34,5.9ZM62.59,20.18h3.73a17.57,17.57,0,0,0,11.85-4.56L83.86,19v3a10.64,10.64,0,0,1-21.27,0ZM75,61.94l-1.74,2.94-1.72-2.94L73.25,52ZM97.91,135v5.73H48.53V135ZM87,43.8a2.87,2.87,0,0,0-2.87,2.88V80H62.36V46.68a2.88,2.88,0,0,0-2.88-2.88h-30l-1.64-5.47h42L65.71,62a2.85,2.85,0,0,0,.34,1.94L70.78,72a2.87,2.87,0,0,0,4.94,0l4.73-8.1A2.85,2.85,0,0,0,80.79,62L76.66,38.33h41.93L117,43.8Zm34.9,3.68.56-1.89,17.34,58.77H105.09Zm.56,78.06a18.33,18.33,0,0,1-18.08-15.45h36.17A18.33,18.33,0,0,1,122.42,125.54Z"/><path class="cls-3" d="M140.51,110.09a18.31,18.31,0,0,1-36.17,0Z"/><path class="cls-3" d="M42.1,110.09a18.3,18.3,0,0,1-36.16,0Z"/></g></g></g></svg>