<svg xmlns="http://www.w3.org/2000/svg" viewBox="0 0 572.23 276.82"><defs><style>.cls-1{opacity:0.39;}.cls-2{fill:#727272;}.cls-3,.cls-4{fill:none;stroke:#727272;stroke-linecap:round;stroke-miterlimit:10;stroke-width:1.56px;}.cls-4{stroke-dasharray:3.93 6.29;}</style></defs><title>Asset 20</title><g id="Layer_2" data-name="Layer 2"><g id="Layer_1-2" data-name="Layer 1"><g class="cls-1"><path class="cls-2" d="M.31,275.79a2.13,2.13,0,0,1,0-2.18L29.84,223a1.07,1.07,0,0,1,1.85,1.09L3.47,272.43l33.78-21.1a1.07,1.07,0,1,1,1.13,1.82L4.09,274.57,22,273.65l23.79-.09a1.1,1.1,0,0,0,.85-.42,1,1,0,0,0,.17-.89l-3.58-15.31-1.9-7.38a1.06,1.06,0,0,1,.77-1.3.93.93,0,0,1,.23,0v0l13.82-1.51-16.57-7.47-23,23A1.07,1.07,0,1,1,15,260.73l23.1-23.13-4.85-19.8a1.08,1.08,0,0,1,2.09-.51l4.86,19.91L57,244.76A2.14,2.14,0,0,1,58.24,247v0a2.11,2.11,0,0,1-.75,1.3l-.09.1-12,8.73,3.45,14.56a3.1,3.1,0,0,1-.55,2.71,3.19,3.19,0,0,1-2.54,1.26L22,275.79l-19.74,1A2.15,2.15,0,0,1,.31,275.79Zm52.33-26.54-9,1,1,3.72.23,1Z"/></g><g class="cls-1"><path class="cls-3" d="M61.29,246.65l1.3-1.45"/><path class="cls-4" d="M66.92,240.64c26.48-27.2,143.7-135.92,292-97.62C524.28,185.74,590,80.6,567,5.62"/><path class="cls-3" d="M566,2.62c-.21-.62-.43-1.23-.65-1.84"/></g></g></g></svg>