<svg xmlns="http://www.w3.org/2000/svg" viewBox="0 0 149.07 149.07"><defs><style>.cls-1{opacity:0.2;}.cls-2{fill:#213f70;}.cls-3{fill:#ffaf14;}</style></defs><title>icon-1</title><g id="Layer_2" data-name="Layer 2"><g id="Layer_1-2" data-name="Layer 1"><g class="cls-1"><path class="cls-2" d="M42.84,20.06a3.07,3.07,0,0,1-.9,2.17,2.55,2.55,0,0,1-.47.4,3.45,3.45,0,0,1-.54.28,2.69,2.69,0,0,1-.57.17,3.93,3.93,0,0,1-.6.07,4.39,4.39,0,0,1-.61-.07,3.08,3.08,0,0,1-.57-.17,2.87,2.87,0,0,1-.52-.28,2.26,2.26,0,0,1-.47-.4,3.07,3.07,0,0,1-.9-2.17,3,3,0,0,1,.05-.6,3.08,3.08,0,0,1,.17-.57,5.44,5.44,0,0,1,.28-.54,3.09,3.09,0,0,1,.4-.47,2.18,2.18,0,0,1,.47-.38,2.36,2.36,0,0,1,.52-.28,2,2,0,0,1,.59-.17,2.66,2.66,0,0,1,1.19,0,1.88,1.88,0,0,1,.57.17,2.77,2.77,0,0,1,.54.28,2.45,2.45,0,0,1,.47.38,2.18,2.18,0,0,1,.38.47,3.06,3.06,0,0,1,.28.54,4.23,4.23,0,0,1,.19.57A3.94,3.94,0,0,1,42.84,20.06Z"/><path class="cls-2" d="M112.38,20.06a3.07,3.07,0,0,1-.9,2.17,2.26,2.26,0,0,1-.47.4,3.35,3.35,0,0,1-.53.28,3,3,0,0,1-.58.17,3.79,3.79,0,0,1-.6.07,4.57,4.57,0,0,1-.61-.07,3.08,3.08,0,0,1-.57-.17,3.25,3.25,0,0,1-.52-.28,2.55,2.55,0,0,1-.47-.4,3.07,3.07,0,0,1-.9-2.17,3.94,3.94,0,0,1,0-.6c0-.19.11-.38.17-.57a5.44,5.44,0,0,1,.28-.54,3.09,3.09,0,0,1,.4-.47,2.45,2.45,0,0,1,.47-.38,2.61,2.61,0,0,1,.52-.28,2,2,0,0,1,.59-.17,2.66,2.66,0,0,1,1.19,0,2,2,0,0,1,.58.17,2.69,2.69,0,0,1,.53.28,2.87,2.87,0,0,1,.85.85,2.51,2.51,0,0,1,.28.54,3.18,3.18,0,0,1,.19.57A3,3,0,0,1,112.38,20.06Z"/><path class="cls-2" d="M42.84,129a3.07,3.07,0,0,1-.9,2.16,2.55,2.55,0,0,1-.47.4,2.77,2.77,0,0,1-.54.28,2.69,2.69,0,0,1-.57.17,3,3,0,0,1-.6.07,3.26,3.26,0,0,1-.61-.07,3.08,3.08,0,0,1-.57-.17,2.36,2.36,0,0,1-.52-.28,2.26,2.26,0,0,1-.47-.4,3.07,3.07,0,0,1-.9-2.16,3,3,0,0,1,.05-.61,3.08,3.08,0,0,1,.17-.57c.09-.19.18-.37.28-.54a3.67,3.67,0,0,1,.4-.47,2.18,2.18,0,0,1,.47-.38,2.87,2.87,0,0,1,.52-.28,2.36,2.36,0,0,1,.59-.17,2.66,2.66,0,0,1,1.19,0,2.21,2.21,0,0,1,.57.17,3.45,3.45,0,0,1,.54.28,2.87,2.87,0,0,1,.85.85,3.45,3.45,0,0,1,.28.54,4.23,4.23,0,0,1,.19.57A4,4,0,0,1,42.84,129Z"/><path class="cls-2" d="M112.38,129a3.07,3.07,0,0,1-.9,2.16,2.26,2.26,0,0,1-.47.4,2.69,2.69,0,0,1-.53.28,3,3,0,0,1-.58.17,2.9,2.9,0,0,1-.6.07,3.36,3.36,0,0,1-.61-.07,3.08,3.08,0,0,1-.57-.17,2.61,2.61,0,0,1-.52-.28,2.55,2.55,0,0,1-.47-.4,3.07,3.07,0,0,1-.9-2.16,4,4,0,0,1,0-.61c0-.19.11-.38.17-.57s.18-.37.28-.54a3.67,3.67,0,0,1,.4-.47,2.45,2.45,0,0,1,.47-.38,3.25,3.25,0,0,1,.52-.28,2.36,2.36,0,0,1,.59-.17,2.66,2.66,0,0,1,1.19,0,2.41,2.41,0,0,1,.58.17,3.35,3.35,0,0,1,.53.28,2.18,2.18,0,0,1,.47.38,2.45,2.45,0,0,1,.38.47,2.77,2.77,0,0,1,.28.54,3.18,3.18,0,0,1,.19.57A3,3,0,0,1,112.38,129Z"/><path class="cls-2" d="M131.51,93.39a2.9,2.9,0,0,0-3.5-.46,11.42,11.42,0,0,0-2.77-5,3.79,3.79,0,0,1-1-1.83l-2.42-11.59L124.27,63a3.79,3.79,0,0,1,1-1.83,11.42,11.42,0,0,0,2.77-5,2.89,2.89,0,0,0,3.5-.46L148.22,39a2.92,2.92,0,0,0,0-4.11l-34-34a2.94,2.94,0,0,0-4.13,0L93.39,17.54a2.91,2.91,0,0,0-.11,4,14.12,14.12,0,0,0-7.87,4L74.53,36.41,63.66,25.54a14.11,14.11,0,0,0-7.87-4,2.93,2.93,0,0,0-.11-4L39,.85a2.94,2.94,0,0,0-4.13,0l-34,34A2.92,2.92,0,0,0,.85,39L17.56,55.68a2.89,2.89,0,0,0,3.5.46,11.42,11.42,0,0,0,2.77,5,3.79,3.79,0,0,1,1,1.83l2.42,11.58L24.8,86.12a3.79,3.79,0,0,1-1,1.83,11.42,11.42,0,0,0-2.77,5,2.9,2.9,0,0,0-3.5.46L.85,110.08a2.94,2.94,0,0,0,0,4.13l34,34a2.85,2.85,0,0,0,2.06.85,2.9,2.9,0,0,0,2.07-.85l16.69-16.71a2.9,2.9,0,0,0,.11-4,14.11,14.11,0,0,0,7.87-4l10.87-10.87,10.88,10.87a14.11,14.11,0,0,0,7.87,4,2.9,2.9,0,0,0,.11,4l16.69,16.71a2.9,2.9,0,0,0,2.07.85,2.85,2.85,0,0,0,2.06-.85l34-34a2.94,2.94,0,0,0,0-4.13Zm4.9-60.45a4,4,0,0,1,2.82,1.16,4,4,0,1,1-5.62,0A3.9,3.9,0,0,1,136.41,32.94ZM112.15,7,132.9,27.78A9.85,9.85,0,0,0,129.48,30a9.55,9.55,0,0,0-2.34,3.79l-8.08-8.1a2.92,2.92,0,1,0-4.13,4.13l17.12,17.1-2.59,2.59-4.4-4.4L105.5,25.54l-5.93-5.93ZM89.52,29.65a8.37,8.37,0,0,1,11.85,0l19.56,19.56a5.68,5.68,0,0,1,.1,7.89,9.43,9.43,0,0,0-2.46,4.66l-4.46,21.33a3.25,3.25,0,0,1-6.25-1.76.9.9,0,0,0,0-.16l1-4.65a2.92,2.92,0,0,0-1.47-3.16,2.88,2.88,0,0,0-3.44.5L82.91,95l-.5.49s0,0,0,0a3,3,0,0,1-4.21-.15,3,3,0,0,1,0-4.13.71.71,0,0,1,.12-.13L90.26,79.12l3.82-3.82A2.91,2.91,0,0,0,90,71.19L86,75.12a.07.07,0,0,0-.05,0l-14.11,14a3,3,0,0,1-3.78,0L67.88,89a3,3,0,0,1-.14-4.06s0,0,0-.07L85.69,66.93a2.93,2.93,0,0,0,0-4.12,2.9,2.9,0,0,0-4.11,0L63.71,80.68a1.25,1.25,0,0,0-.12.08,3,3,0,0,1-3.27.41,3.34,3.34,0,0,1-.79-.56s0,0,0,0a1.17,1.17,0,0,0-.21-.23l0-.07a1.7,1.7,0,0,1-.17-.23v0a2.63,2.63,0,0,1-.28-.62,1.74,1.74,0,0,1-.12-.46s0,0,0,0,0-.12,0-.18,0-.17,0-.25a3.05,3.05,0,0,1,0-.52s0,0,0,0a3.69,3.69,0,0,1,.11-.45c0-.08.07-.16.1-.23h0A1.05,1.05,0,0,1,59,77s0,0,.05-.09a.29.29,0,0,1,.08-.13s0,0,0,0l.14-.18v0l6-6.09s0,0,0,0,0,0,0,0L77.29,58.58a2.91,2.91,0,1,0-4.11-4.11L61.35,66.28a3,3,0,0,1-3.61.13v0a3.28,3.28,0,0,1-.45-.37l-.21-.28a.16.16,0,0,1-.06-.08c0-.07-.09-.14-.14-.2l0-.1a1.51,1.51,0,0,1-.12-.26s0-.08-.05-.12,0-.16-.06-.24a1,1,0,0,1,0-.13,1.66,1.66,0,0,1,0-.22s0-.08,0-.11,0-.23,0-.34v0a2.1,2.1,0,0,1,0-.36v0c0-.12,0-.25.08-.38a5.67,5.67,0,0,1,.26-.66s0,0,0-.05a2.26,2.26,0,0,1,.16-.26l0,0,.22-.27a1.31,1.31,0,0,0,.11-.12ZM15.46,39.74a4,4,0,0,1-5.62,0v0a3.87,3.87,0,0,1-1.16-2.8,4,4,0,0,1,4-4,4,4,0,0,1,2.8,6.8ZM24,45.1l-4.4,4.4L17,46.91l17.12-17.1A2.92,2.92,0,1,0,30,25.68l-8.08,8.1A9.55,9.55,0,0,0,19.59,30a10.21,10.21,0,0,0-3.42-2.23L36.92,7,49.5,19.61l-5.93,5.93Zm4.13,4.11L47.7,29.65a8.4,8.4,0,0,1,11.85,0L70.42,40.53l-17.1,17.1L53,58l-.16.2a1.31,1.31,0,0,0-.12.11A10.07,10.07,0,0,0,51.63,60a.35.35,0,0,1-.05.08.91.91,0,0,1-.08.18c-.08.18-.16.38-.24.58L47,65.1a9.08,9.08,0,0,0-1-2.74,9,9,0,0,0-5.5-4.22,5.29,5.29,0,0,0-.54-.13.42.42,0,0,1-.15,0,2.63,2.63,0,0,1-.39-.06l-.17,0-.46,0H37.43l-.39,0a.22.22,0,0,0-.12,0,6.71,6.71,0,0,0-1,.18.35.35,0,0,1-.12,0l-.39.11-.11.05-.41.13-.08,0a5.32,5.32,0,0,0-.5.21h0a4.34,4.34,0,0,0-.43.23l-.11,0-.35.2a.31.31,0,0,0-.11.08,3.85,3.85,0,0,0-.38.23l0,0a3,3,0,0,0-.42.31.19.19,0,0,0-.07.06,3.88,3.88,0,0,0-.31.26l-.12.1-.27.27-.1.09a3.25,3.25,0,0,0-.31.35l0,0c-.11.13-.21.26-.32.41s-.05.07-.09.11-.14.2-.21.3l0,.08,0-.11A9.43,9.43,0,0,0,28,57.1,5.68,5.68,0,0,1,28.14,49.21ZM9.84,115a4,4,0,0,1,2.82-6.8A4,4,0,1,1,9.84,115Zm27.08,27.08L16.17,121.29a9.85,9.85,0,0,0,3.42-2.21,9.55,9.55,0,0,0,2.34-3.79l8.08,8.1a2.93,2.93,0,0,0,4.13,0,2.94,2.94,0,0,0,0-4.13L17,102.16l2.59-2.59L24,104l19.56,19.56,5.93,5.93Zm22.63-22.63a8.37,8.37,0,0,1-11.85,0L28.14,99.86A5.68,5.68,0,0,1,28,92a9.43,9.43,0,0,0,2.46-4.66L35,66a3.26,3.26,0,0,1,4-2.22l.31.09.05,0,.25.09s0,0,0,0a3.27,3.27,0,0,1,1.79,3.08v0a2.3,2.3,0,0,0,0,.26.08.08,0,0,1,0,.06,1.83,1.83,0,0,1-.07.32.9.9,0,0,1,0,.16l-1,4.65a2.91,2.91,0,0,0,4.91,2.66l6.77-6.77a7.62,7.62,0,0,0,.59.89l.05.06c.06.08.13.15.18.23l.11.12,0,.06a6.87,6.87,0,0,0,0,.79,8.92,8.92,0,0,0,.93,3.94s0,0,0,.07l-.15.33,0,.1c-.05.13-.11.27-.16.42a.54.54,0,0,0,0,.1,2.79,2.79,0,0,0-.12.34.78.78,0,0,1,0,.14c0,.11-.05.23-.08.34a.45.45,0,0,0,0,.11c0,.15-.07.3-.1.46V77c0,.13-.05.26-.07.39s0,.1,0,.15,0,.21,0,.33V78c0,.15,0,.32,0,.46v.41c0,.12,0,.22,0,.33v0l0,0c-.05.05-.08.1-.13.16a1.26,1.26,0,0,0-.13.17.46.46,0,0,0-.11.16L52.3,80l-.11.17a.67.67,0,0,0-.11.18.83.83,0,0,0-.12.16,1.45,1.45,0,0,1-.1.18,1,1,0,0,1-.1.18,1.5,1.5,0,0,1-.09.18l-.1.18a1.67,1.67,0,0,0-.08.2,1.5,1.5,0,0,0-.09.18l-.08.18c0,.07,0,.13-.06.2a.56.56,0,0,0-.07.18,1.46,1.46,0,0,0-.07.19,1.52,1.52,0,0,0-.06.2c0,.06,0,.13-.05.2a.37.37,0,0,0,0,.18.46.46,0,0,0-.05.21s0,.11,0,.18a1.77,1.77,0,0,0,0,.21.62.62,0,0,0,0,.18c0,.07,0,.15,0,.22a1,1,0,0,0,0,.18,1.6,1.6,0,0,0,0,.23v.16a.93.93,0,0,0,0,.23.58.58,0,0,1,0,.18v.39a1,1,0,0,1,0,.23v.16a2.42,2.42,0,0,1,0,.25.39.39,0,0,0,0,.15c0,.08,0,.16,0,.26a1,1,0,0,1,0,.13,2.3,2.3,0,0,0,0,.26.79.79,0,0,1,0,.13,2.56,2.56,0,0,1,0,.27.3.3,0,0,1,0,.11c0,.1.05.2.09.28a.23.23,0,0,0,0,.11c0,.1,0,.18.08.28a.29.29,0,0,0,0,.1c0,.1.07.2.1.28s0,.07,0,.1.08.19.11.28a.56.56,0,0,0,0,.08,1.51,1.51,0,0,0,.13.29.32.32,0,0,1,0,.09c0,.09.1.19.15.27l0,.09c.05.09.1.18.16.27s0,0,0,.07l.19.29.05.07a1.7,1.7,0,0,0,.18.26.32.32,0,0,1,.08.12,1.08,1.08,0,0,1,.18.23c.09.09.18.21.28.31l.33.34,17.1,17.1Zm30,0L76.6,106.5v0L57.43,87.33s-.08-.08-.11-.13l-.25-.3,0-.09a3,3,0,0,1-.18-.3v0l-.15-.35a.19.19,0,0,0,0-.08c0-.11,0-.21-.09-.31v0l0,0a4.73,4.73,0,0,0,.46.32.11.11,0,0,1,.07,0l.44.24.1,0a5.4,5.4,0,0,0,.49.23l.1,0c.14.06.31.13.47.18s0,0,.07,0c.18,0,.36.11.54.15a.29.29,0,0,0,.1,0,4.48,4.48,0,0,0,.5.11s0,0,0,0l.55.08a.27.27,0,0,1,.12,0c.18,0,.36,0,.54,0a8.78,8.78,0,0,0,2.57,5.8s0,0,0,0a8.84,8.84,0,0,0,6,2.52,9.55,9.55,0,0,0,2.07-.18A8.65,8.65,0,0,0,74,99.3c.1.12.21.23.31.33l.12.1a1.51,1.51,0,0,0,.23.21l.13.12a1.92,1.92,0,0,1,.21.16l.15.12.21.14a.88.88,0,0,0,.17.12.74.74,0,0,0,.21.13l.16.1c.07,0,.15.08.21.13l.19.1.21.1.18.09a.67.67,0,0,0,.21.09l.18.08.21.08.2.07.23.08.18.06.23.05.18,0,.25.07.18,0a1,1,0,0,0,.24,0,.53.53,0,0,0,.18,0l.25,0h.18a1,1,0,0,0,.24,0,.62.62,0,0,0,.18,0h.84l.21,0a.68.68,0,0,0,.2,0h.21l.2,0a.79.79,0,0,0,.2,0,.82.82,0,0,0,.21,0,.63.63,0,0,1,.19,0l.2,0,.2,0a.73.73,0,0,0,.19-.07l.2,0c.07,0,.13,0,.2-.06l.19-.07.2-.08a1.52,1.52,0,0,1,.2-.06l.19-.1.18-.08.2-.1c.05,0,.12,0,.16-.09l.22-.11.16-.1.2-.13.15-.1.21-.14.15-.1.21-.18a.31.31,0,0,0,.11-.08l.33-.28.18-.17.85-.85a1,1,0,0,0,.1-.11L102.09,84a9.94,9.94,0,0,0,.33,1.15.43.43,0,0,1,0,0c.07.18.13.34.2.49l.05.15c.07.14.13.29.21.44a1.09,1.09,0,0,1,.08.15,3.27,3.27,0,0,0,.17.31,9,9,0,0,0,3.67,3.52h0a8.76,8.76,0,0,0,1.13.49l.12,0,.57.18c.22.07.43.1.66.15a.42.42,0,0,0,.13,0c.21,0,.43.07.64.09h.1c.18,0,.37,0,.57,0h.87c.19,0,.39,0,.59-.07h0c.21,0,.41-.06.62-.11l.13,0a5.66,5.66,0,0,0,.59-.15l.09,0c.18,0,.36-.12.52-.18a.25.25,0,0,0,.11,0c.18-.08.37-.15.55-.24l.13,0c.16-.08.34-.18.5-.28l0,0a5.54,5.54,0,0,0,.51-.33.23.23,0,0,0,.12-.08l.49-.34s0,0,.06-.07.28-.23.43-.36l.08-.08a5.7,5.7,0,0,0,.43-.42l.1-.1c.11-.15.24-.28.36-.45l0,0c.14-.17.25-.33.37-.5l0-.06,0,.1A9.42,9.42,0,0,0,121,92a5.68,5.68,0,0,1-.1,7.89l-19.56,19.56A8.4,8.4,0,0,1,89.52,119.42Zm22.63,22.63L99.57,129.46l5.93-5.93L125.06,104l4.4-4.4,2.59,2.59-17.12,17.1a2.94,2.94,0,0,0,0,4.13,2.93,2.93,0,0,0,4.13,0l8.08-8.1a9.55,9.55,0,0,0,2.34,3.79,9.85,9.85,0,0,0,3.42,2.21ZM139.23,115a4,4,0,1,1,0-5.64v0a3.87,3.87,0,0,1,1.16,2.8A4,4,0,0,1,139.23,115Z"/><path class="cls-3" d="M43.57,123.53,24,104l-4.4-4.4L17,102.16l17.12,17.1a2.94,2.94,0,0,1,0,4.13,2.93,2.93,0,0,1-4.13,0l-8.08-8.1a9.55,9.55,0,0,1-2.34,3.79,9.85,9.85,0,0,1-3.42,2.21l20.75,20.76L49.5,129.46Zm-1,6.05a3.8,3.8,0,0,1-.18.54,2.73,2.73,0,0,1-.26.51,2.86,2.86,0,0,1-.8.8,2.73,2.73,0,0,1-.51.26,2.43,2.43,0,0,1-.54.17,2.17,2.17,0,0,1-.57.06,2.38,2.38,0,0,1-.58-.06,2.81,2.81,0,0,1-.54-.17,2.85,2.85,0,0,1-1.29-1.06,2.84,2.84,0,0,1-.28-.51,2.76,2.76,0,0,1-.16-.54,2.81,2.81,0,0,1,0-.57,2.65,2.65,0,0,1,0-.56,2.58,2.58,0,0,1,.16-.56,3.24,3.24,0,0,1,.26-.49,4.15,4.15,0,0,1,.38-.44,2.67,2.67,0,0,1,.44-.38,4.59,4.59,0,0,1,.49-.26,2.76,2.76,0,0,1,.54-.16,2.48,2.48,0,0,1,1.15,0,2.41,2.41,0,0,1,.54.16,4.89,4.89,0,0,1,.51.26,2.67,2.67,0,0,1,.44.38,2.56,2.56,0,0,1,.36.44,2.09,2.09,0,0,1,.26.49,3.33,3.33,0,0,1,.18.56,2.65,2.65,0,0,1,.05.56A2.81,2.81,0,0,1,42.62,129.58Z"/><path class="cls-3" d="M129.48,119.08a9.55,9.55,0,0,1-2.34-3.79l-8.08,8.1a2.93,2.93,0,0,1-4.13,0,2.94,2.94,0,0,1,0-4.13l17.12-17.1-2.59-2.59-4.4,4.4L105.5,123.53l-5.93,5.93,12.58,12.59,20.75-20.76A9.85,9.85,0,0,1,129.48,119.08Zm-17.32,10.5a2.76,2.76,0,0,1-.16.54,2.84,2.84,0,0,1-.28.51,1.88,1.88,0,0,1-.36.44,2.92,2.92,0,0,1-2,.85,2.17,2.17,0,0,1-.57-.06,2.43,2.43,0,0,1-.54-.17,2.73,2.73,0,0,1-.51-.26,2.86,2.86,0,0,1-.8-.8,2.73,2.73,0,0,1-.26-.51,2.81,2.81,0,0,1-.17-.54,2.26,2.26,0,0,1-.06-.57,2.14,2.14,0,0,1,.06-.56,2.6,2.6,0,0,1,.17-.56,2.09,2.09,0,0,1,.26-.49,2.56,2.56,0,0,1,.36-.44,2.67,2.67,0,0,1,.44-.38,4.89,4.89,0,0,1,.51-.26,2.41,2.41,0,0,1,.54-.16,2.86,2.86,0,0,1,2.62.8,1.88,1.88,0,0,1,.36.44,2.15,2.15,0,0,1,.28.49,2.58,2.58,0,0,1,.16.56,2.65,2.65,0,0,1,0,.56A2.81,2.81,0,0,1,112.16,129.58Z"/><path class="cls-3" d="M114.93,25.68a2.94,2.94,0,0,1,4.13,0l8.08,8.1A9.55,9.55,0,0,1,129.48,30a9.85,9.85,0,0,1,3.42-2.21L112.15,7,99.57,19.61l5.93,5.93L125.06,45.1l4.4,4.4,2.59-2.59-17.12-17.1A2.94,2.94,0,0,1,114.93,25.68Zm-3.57-3.57a2.67,2.67,0,0,1-.44.38,2.72,2.72,0,0,1-1,.42,2.32,2.32,0,0,1-1.13,0,2.41,2.41,0,0,1-.54-.16,2.73,2.73,0,0,1-.51-.26,2.67,2.67,0,0,1-.44-.38,2.91,2.91,0,0,1-.85-2.05,2.17,2.17,0,0,1,.06-.57,2.81,2.81,0,0,1,.17-.54,2.73,2.73,0,0,1,.26-.51,2.86,2.86,0,0,1,.8-.8,2.73,2.73,0,0,1,.51-.26,2.43,2.43,0,0,1,.54-.17,2.69,2.69,0,0,1,1.13,0,2.6,2.6,0,0,1,.56.17,2.84,2.84,0,0,1,.93.62,1.88,1.88,0,0,1,.36.44A2.84,2.84,0,0,1,112,19a2.76,2.76,0,0,1,.16.54,2.69,2.69,0,0,1,0,.57A2.91,2.91,0,0,1,111.36,22.11Z"/><path class="cls-3" d="M36.92,7,16.17,27.76A10.21,10.21,0,0,1,19.59,30a9.55,9.55,0,0,1,2.34,3.79L30,25.68a2.92,2.92,0,1,1,4.13,4.13L17,46.91l2.59,2.59L24,45.1,43.57,25.54l5.93-5.93Zm4.9,15.09a2.67,2.67,0,0,1-.44.38,2.73,2.73,0,0,1-.51.26,2.41,2.41,0,0,1-.54.16,2.69,2.69,0,0,1-.57.07,3.05,3.05,0,0,1-.58-.07,2.76,2.76,0,0,1-.54-.16,2.57,2.57,0,0,1-.49-.26,2.67,2.67,0,0,1-.44-.38,2.91,2.91,0,0,1-.85-2.05,2.69,2.69,0,0,1,0-.57,2.76,2.76,0,0,1,.16-.54,4.89,4.89,0,0,1,.26-.51,4.15,4.15,0,0,1,.38-.44,2.84,2.84,0,0,1,.93-.62,2.6,2.6,0,0,1,.56-.17,2.69,2.69,0,0,1,1.13,0,2.43,2.43,0,0,1,.54.17,2.73,2.73,0,0,1,.51.26,2.86,2.86,0,0,1,.8.8,2.73,2.73,0,0,1,.26.51,3.8,3.8,0,0,1,.18.54,2.69,2.69,0,0,1,.05.57A2.91,2.91,0,0,1,41.82,22.11Z"/></g></g></g></svg>