<svg xmlns="http://www.w3.org/2000/svg" viewBox="0 0 167.45 174.56"><defs><style>.cls-1{opacity:0.1;}.cls-2{fill:#213f70;}.cls-3{fill:#ffaf14;}</style></defs><title>icon-2</title><g id="Layer_2" data-name="Layer 2"><g id="Layer_1-2" data-name="Layer 1"><g class="cls-1"><path class="cls-2" d="M164,44,87.05.88a6.74,6.74,0,0,0-6.65,0L3.49,44a6.82,6.82,0,0,0,0,11.9L23.38,67.06v37.62a6.78,6.78,0,0,0,3,5.66l4.07,2.73a13,13,0,0,0-1.71,6.44v51.64a3.4,3.4,0,0,0,3.41,3.41H51.23a3.42,3.42,0,0,0,3.43-3.41V129.37l25.25,17a6.8,6.8,0,0,0,7.63,0l53.53-36a6.78,6.78,0,0,0,3-5.66V67.06L164,55.9A6.83,6.83,0,0,0,164,44ZM30.2,104.68V70.89l8.08,4.54V107a13.92,13.92,0,0,0-2.88,1.17Zm17.62,63.06H35.55V135.3H47.82Zm0-39.25H35.55v-9a6.14,6.14,0,0,1,12.27,0Zm89.43-23.81L87.13,138.42V124.28a3.41,3.41,0,0,0-6.81,0v14.14L54.66,121.15v-1.64A13,13,0,0,0,45.1,107V79.25l35.3,19.8a6.86,6.86,0,0,0,6.65,0l50.2-28.16Zm2.1-42.78a3.86,3.86,0,0,0-.66.37l-55,30.84L48.79,73.5,74.91,58.82a15.06,15.06,0,0,0,8.78,2.73c7.51,0,13.63-5.2,13.63-11.59s-6.12-11.6-13.63-11.6S70,43.58,70,50a9.5,9.5,0,0,0,.62,3.41L41.82,69.59,28.76,62.27a3.86,3.86,0,0,0-.66-.37L6.81,50,83.73,6.81,160.64,50ZM76.87,50c0-2.59,3.12-4.77,6.82-4.77S90.5,47.37,90.5,50s-3.11,4.77-6.81,4.77S76.87,52.55,76.87,50Z"/><path class="cls-3" d="M90.5,50c0,2.59-3.11,4.77-6.81,4.77S76.87,52.55,76.87,50s3.12-4.77,6.82-4.77S90.5,47.37,90.5,50Z"/><rect class="cls-3" x="35.55" y="135.3" width="12.27" height="32.44"/></g></g></g></svg>