<svg xmlns="http://www.w3.org/2000/svg" xmlns:xlink="http://www.w3.org/1999/xlink" viewBox="0 0 2128.53 640.88"><defs><style>.cls-1,.cls-12,.cls-3{fill:none;}.cls-2{fill:#f7f7f7;}.cls-12,.cls-3{stroke-miterlimit:10;}.cls-3{stroke:url(#radial-gradient);}.cls-4{clip-path:url(#clip-path);}.cls-5{fill:#ffde6e;}.cls-6{fill:#203f71;}.cls-7{fill:#ffc80e;}.cls-8{opacity:0.33;}.cls-9{clip-path:url(#clip-path-2);}.cls-10{fill:#a3a3a3;opacity:0.14;}.cls-11{fill:#bfbfbf;}.cls-12{stroke:#a3a5a6;stroke-width:1.67px;}.cls-13,.cls-18{fill:#b5b5b5;}.cls-13,.cls-16{opacity:0.23;}.cls-14{fill:#878787;}.cls-15{fill:#c4c4c4;}.cls-17{fill:#9a9a9a;}</style><radialGradient id="radial-gradient" cx="413.04" cy="362.01" r="2.22" gradientUnits="userSpaceOnUse"><stop offset="0" stop-color="#2e3180"/><stop offset="0.15" stop-color="#323582"/><stop offset="0.29" stop-color="#3d4089"/><stop offset="0.42" stop-color="#505395"/><stop offset="0.56" stop-color="#6b6da5"/><stop offset="0.69" stop-color="#8d8fba"/><stop offset="0.82" stop-color="#b7b8d4"/><stop offset="0.95" stop-color="#e8e9f1"/><stop offset="1" stop-color="#fff"/></radialGradient><clipPath id="clip-path"><rect class="cls-1" x="1785.47" y="140.43" width="273.95" height="359.47"/></clipPath><clipPath id="clip-path-2"><rect class="cls-1" x="139.42" y="120.9" width="1920" height="379.01"/></clipPath></defs><title>Asset 7</title><g id="Layer_2" data-name="Layer 2"><g id="Layer_1-2" data-name="Layer 1"><rect class="cls-2" x="143.02" y="117.79" width="1916.39" height="382.11"/><line class="cls-3" x1="409.94" y1="362.01" x2="416.15" y2="362.01"/><g class="cls-4"><path class="cls-5" d="M1972.52,634.34s174.89-115.66,35.55-342.23c-14.25-14.11-30.9-14.12-38.86,3.56-2.72,8.15-1,13.79,9,26.71,10.68,16.08,107.85,153.47-23.14,273-13.19,9.57-24.36,16.84-20.59,30.52,2.52,6,7.23,18.47,26.38,14.12C1971.05,635.82,1969.18,635.93,1972.52,634.34Z"/><path class="cls-6" d="M9.68,328.66S243.25,737.68,974.21,599c48.68-19.53,58.14-52,11.79-77.9-21.92-10.09-39.13-9.94-82,1.92-52.3,11.4-502.73,120.23-772.23-205.41-20.06-31.34-34.61-57.39-76.12-58.09C37.09,260.92-1.57,262.77.05,302.67,6.25,324.92,7,321.22,9.68,328.66Z"/><path class="cls-7" d="M1700.76,634.11S2042.69,689.9,2128.53,272c-1.42-32.13-21.6-50.36-51.11-38.35-12.46,6.58-16.65,15.12-19.09,41.19-5.12,30.52-41.8,297.8-334.85,294.53-26.74-3.21-48.44-6.92-59.26,13.23-3.64,9.74-12,29.55,16.1,45.41C1697.3,634.24,1694.93,632.32,1700.76,634.11Z"/></g><g class="cls-8"><g class="cls-9"><path class="cls-10" d="M60.78,169.3A147.4,147.4,0,1,1,228.42,293.2,147.39,147.39,0,0,1,60.78,169.3Z"/><path class="cls-11" d="M238.88,522a41.92,41.92,0,1,1,45.83,37.6A41.92,41.92,0,0,1,238.88,522Z"/><path class="cls-12" d="M118.77,491.67a69.08,69.08,0,1,1,75.52,62A69.09,69.09,0,0,1,118.77,491.67Z"/><path class="cls-13" d="M582.64,476.25a72.79,72.79,0,1,1,53.45,88A72.79,72.79,0,0,1,582.64,476.25Z"/><path class="cls-14" d="M281.89,231.43c-22.56,4.7-47.37-5-60.83-23.73-7.57-10.55-11.84-24.38-8.6-37.25,2.88-11.47,12.91-22,25.19-22.71,11-.6,22.81,7.94,23.29,19.45.58,13.71-12.64,22.86-25,24.15-24.32,2.53-48.2-13.61-61-33.22-16.6-25.33-16.61-58.33-4.68-85.55.51-1.16-1.21-2.18-1.73-1-11.55,26.36-12.38,58,2.16,83.46,12.53,21.9,37.42,40.09,63.61,38.46,12.65-.79,25.82-8.33,28.33-21.67,2.16-11.5-6.23-21.88-16.95-25.09-11.78-3.53-23.79,2.92-30.39,12.66-7.77,11.49-7.11,26.36-1.86,38.73,9.83,23.19,35.33,37.88,60.25,36.43a60.47,60.47,0,0,0,8.79-1.18c1.26-.27.72-2.2-.54-1.93Z"/><path class="cls-14" d="M265.65,248.4c6.2-5.42,12.83-10.33,19-15.75a1,1,0,0,0-.21-1.58q-10.43-4.94-20.93-9.77c-1.16-.54-2.18,1.19-1,1.72q10.5,4.83,20.93,9.78l-.2-1.57c-6.2,5.42-12.83,10.33-19,15.76-1,.84.45,2.25,1.42,1.41Z"/><path class="cls-15" d="M1413.6,128.75h-10.49a1.72,1.72,0,0,1-1.71-1.71V116.55a1.7,1.7,0,0,0-1.7-1.7h-.26a1.71,1.71,0,0,0-1.71,1.7V127a1.71,1.71,0,0,1-1.7,1.71h-10.49a1.7,1.7,0,0,0-1.7,1.7v.26a1.71,1.71,0,0,0,1.7,1.71H1396a1.7,1.7,0,0,1,1.7,1.7v10.49a1.71,1.71,0,0,0,1.71,1.7h.26a1.7,1.7,0,0,0,1.7-1.7V134.12a1.71,1.71,0,0,1,1.71-1.7h10.49a1.71,1.71,0,0,0,1.7-1.71v-.26A1.7,1.7,0,0,0,1413.6,128.75Z"/><path class="cls-15" d="M1374.78,128.75H1364.3a1.71,1.71,0,0,1-1.71-1.71V116.55a1.7,1.7,0,0,0-1.7-1.7h-.26a1.7,1.7,0,0,0-1.71,1.7V127a1.71,1.71,0,0,1-1.7,1.71h-10.49a1.71,1.71,0,0,0-1.71,1.7v.26a1.72,1.72,0,0,0,1.71,1.71h10.49a1.7,1.7,0,0,1,1.7,1.7v10.49a1.7,1.7,0,0,0,1.71,1.7h.26a1.7,1.7,0,0,0,1.7-1.7V134.12a1.7,1.7,0,0,1,1.71-1.7h10.48a1.71,1.71,0,0,0,1.71-1.71v-.26A1.7,1.7,0,0,0,1374.78,128.75Z"/><g class="cls-16"><path class="cls-17" d="M1579.69,452.59a4.51,4.51,0,1,1-6.38-.23A4.51,4.51,0,0,1,1579.69,452.59Z"/><path class="cls-17" d="M1596.48,469.92a5,5,0,1,1-7.07-.25A5,5,0,0,1,1596.48,469.92Z"/><path class="cls-17" d="M1613.27,487.26a5.49,5.49,0,1,1-7.76-.28A5.5,5.5,0,0,1,1613.27,487.26Z"/><path class="cls-17" d="M1630.05,504.6a6,6,0,1,1-8.45-.31A6,6,0,0,1,1630.05,504.6Z"/><path class="cls-17" d="M1646.84,521.93a6.47,6.47,0,1,1-9.14-.33A6.47,6.47,0,0,1,1646.84,521.93Z"/><path class="cls-17" d="M1663.62,539.27a7,7,0,1,1-9.83-.36A7,7,0,0,1,1663.62,539.27Z"/><path class="cls-17" d="M1680.41,556.61a7.44,7.44,0,1,1-10.52-.39A7.44,7.44,0,0,1,1680.41,556.61Z"/><path class="cls-17" d="M1596.59,436.88a4.51,4.51,0,1,1-6.38-.23A4.52,4.52,0,0,1,1596.59,436.88Z"/><path class="cls-17" d="M1613.38,454.22a5,5,0,1,1-7.07-.26A5,5,0,0,1,1613.38,454.22Z"/><path class="cls-17" d="M1630.16,471.55a5.49,5.49,0,1,1-7.76-.28A5.49,5.49,0,0,1,1630.16,471.55Z"/><path class="cls-17" d="M1647,488.89a6,6,0,1,1-8.45-.31A6,6,0,0,1,1647,488.89Z"/><path class="cls-17" d="M1663.73,506.22a6.47,6.47,0,1,1-9.14-.33A6.47,6.47,0,0,1,1663.73,506.22Z"/><path class="cls-17" d="M1680.52,523.56a7,7,0,1,1-9.83-.36A7,7,0,0,1,1680.52,523.56Z"/><path class="cls-17" d="M1697.3,540.9a7.44,7.44,0,1,1-10.52-.39A7.44,7.44,0,0,1,1697.3,540.9Z"/><path class="cls-17" d="M1614.07,420.63a4.51,4.51,0,1,1-6.38-.23A4.52,4.52,0,0,1,1614.07,420.63Z"/><path class="cls-17" d="M1630.85,438a5,5,0,1,1-7.07-.25A5,5,0,0,1,1630.85,438Z"/><path class="cls-17" d="M1647.64,455.3a5.49,5.49,0,1,1-7.76-.28A5.49,5.49,0,0,1,1647.64,455.3Z"/><path class="cls-17" d="M1664.43,472.64a6,6,0,1,1-8.45-.31A6,6,0,0,1,1664.43,472.64Z"/><circle class="cls-17" cx="1676.48" cy="494.38" r="6.47" transform="translate(1.23 992.9) rotate(-33)"/><circle class="cls-17" cx="1692.9" cy="512.05" r="6.96" transform="translate(-12.44 980.99) rotate(-32.2)"/><circle class="cls-17" cx="1709.33" cy="529.71" r="7.44"/><path class="cls-17" d="M1631,404.85a4.51,4.51,0,1,1-6.38-.23A4.53,4.53,0,0,1,1631,404.85Z"/><path class="cls-17" d="M1647.82,422.19a5,5,0,1,1-7.07-.26A5,5,0,0,1,1647.82,422.19Z"/><path class="cls-17" d="M1664.61,439.52a5.49,5.49,0,1,1-7.76-.28A5.5,5.5,0,0,1,1664.61,439.52Z"/><path class="cls-17" d="M1681.39,456.86a6,6,0,1,1-8.45-.31A6,6,0,0,1,1681.39,456.86Z"/><circle class="cls-17" cx="1693.44" cy="478.6" r="6.47" transform="translate(19.32 1020.94) rotate(-33.73)"/><circle class="cls-17" cx="1709.87" cy="496.27" r="6.96" transform="translate(12.63 1034.14) rotate(-33.77)"/><circle class="cls-17" cx="1726.3" cy="513.94" r="7.44"/><path class="cls-17" d="M1648.52,388.6a4.52,4.52,0,1,1-6.38-.23A4.52,4.52,0,0,1,1648.52,388.6Z"/><path class="cls-17" d="M1665.3,405.94a5,5,0,1,1-7.07-.26A5,5,0,0,1,1665.3,405.94Z"/><path class="cls-17" d="M1682.09,423.27a5.49,5.49,0,1,1-7.76-.28A5.5,5.5,0,0,1,1682.09,423.27Z"/><path class="cls-17" d="M1698.87,440.61a6,6,0,1,1-8.45-.31A6,6,0,0,1,1698.87,440.61Z"/><circle class="cls-17" cx="1710.92" cy="462.35" r="6.47" transform="translate(-8.62 891.52) rotate(-29.14)"/><circle class="cls-17" cx="1727.35" cy="480.02" r="6.96" transform="translate(-21.15 876.13) rotate(-28.29)"/><circle class="cls-17" cx="1743.78" cy="497.69" r="7.44"/></g><path class="cls-15" d="M1394.26,151.17h-11.57a1.89,1.89,0,0,1-1.89-1.88V137.71a1.88,1.88,0,0,0-1.88-1.88h-.29a1.88,1.88,0,0,0-1.88,1.88v11.58a1.88,1.88,0,0,1-1.88,1.88h-11.58a1.88,1.88,0,0,0-1.88,1.88v.29a1.88,1.88,0,0,0,1.88,1.88h11.58a1.88,1.88,0,0,1,1.88,1.88v11.58a1.89,1.89,0,0,0,1.88,1.89h.29a1.89,1.89,0,0,0,1.88-1.89V157.1a1.89,1.89,0,0,1,1.89-1.88h11.57a1.89,1.89,0,0,0,1.89-1.88v-.29A1.89,1.89,0,0,0,1394.26,151.17Z"/><path class="cls-15" d="M1427.38,165.45H1415.8a1.89,1.89,0,0,1-1.89-1.88V152a1.88,1.88,0,0,0-1.88-1.88h-.29a1.88,1.88,0,0,0-1.88,1.88v11.58a1.88,1.88,0,0,1-1.88,1.88H1396.4a1.88,1.88,0,0,0-1.88,1.88v.29a1.89,1.89,0,0,0,1.88,1.89H1408a1.88,1.88,0,0,1,1.88,1.88V183a1.88,1.88,0,0,0,1.88,1.88h.29a1.88,1.88,0,0,0,1.88-1.88V171.39a1.89,1.89,0,0,1,1.89-1.88h11.58a1.89,1.89,0,0,0,1.88-1.89v-.29A1.89,1.89,0,0,0,1427.38,165.45Z"/><path class="cls-18" d="M568.27,444a25.37,25.37,0,1,1,18.63,30.66A25.37,25.37,0,0,1,568.27,444Z"/><path class="cls-14" d="M1884.92,186.44c14.56,3,30.42-3.45,38.54-16,4.49-6.94,6.72-16.14,3.68-24.1-2.44-6.4-8.28-11.78-15.3-12.37-6.61-.55-13.59,3.94-15.33,10.44-1.9,7.11,3.17,14.09,9.52,16.82,7.54,3.25,16.49,1.61,23.76-1.57a46.07,46.07,0,0,0,17.87-14.17c12.14-15.76,12.67-37.27,4.92-55.09-.51-1.17-2.24-.16-1.73,1,6.13,14.08,7,30.89.17,44.9-5.82,11.94-17,21.55-30.2,24.09-7.65,1.47-16.78.17-21-7.13-3.91-6.66-.07-14.28,6.93-16.66,6.81-2.32,13.77,1.78,17.23,7.62,4.08,6.9,2.93,15.62-.62,22.49-7,13.42-23.15,20.77-37.85,17.77-1.26-.25-1.8,1.68-.54,1.93Z"/><path class="cls-14" d="M1896.05,193.8c-3.66-3.19-7.56-6.1-11.22-9.29l-.21,1.57q6.17-2.93,12.35-5.77c1.16-.54.15-2.26-1-1.73q-6.2,2.85-12.35,5.77a1,1,0,0,0-.2,1.57c3.67,3.19,7.56,6.1,11.23,9.29,1,.84,2.39-.57,1.41-1.41Z"/></g></g></g></g></svg>