<svg xmlns="http://www.w3.org/2000/svg" xmlns:xlink="http://www.w3.org/1999/xlink" viewBox="0 0 652.88 652.93"><defs><style>.cls-1{fill:none;}.cls-2{clip-path:url(#clip-path);}.cls-3{opacity:0.08;}.cls-4{fill:#ffba13;}</style><clipPath id="clip-path" transform="translate(0 -21.58)"><rect class="cls-1" x="265.93" width="397.54" height="689.38"/></clipPath></defs><title>Asset 6</title><g id="Layer_2" data-name="Layer 2"><g id="Layer_1-2" data-name="Layer 1"><g class="cls-2"><g class="cls-3"><path class="cls-4" d="M142.76,393.47a177.15,177.15,0,0,0-11.33,15l.1,0c.64-.95,1.29-1.89,1.95-2.83.31-.45.63-.9,1-1.34.53-.76,1.06-1.5,1.62-2.24.07-.11.16-.22.25-.34.55-.75,1.11-1.5,1.7-2.24.39-.54.81-1.08,1.23-1.6.19-.25.38-.51.59-.76.61-.77,1.22-1.53,1.85-2.3s1.42-1.73,2.15-2.58c1.4-1.64,2.82-3.24,4.26-4.82C146.28,389.43,144.49,391.42,142.76,393.47Zm166.36-.76c-.75,7.24-1.8,14.62-3.22,22,.19-.95.37-1.91.53-2.86s.3-1.66.44-2.49c.12-.68.24-1.36.35-2q.42-2.49.75-4.92c.1-.66.19-1.33.28-2,.35-2.64.67-5.24.93-7.77a3.86,3.86,0,0,1,.06-.49c0-.17,0-.33.07-.49s.07-.39.11-.58a6.6,6.6,0,0,1,.14-.67A15.16,15.16,0,0,0,309.12,392.71Zm.79-3.44a1.05,1.05,0,0,0-.06.21c.06-.2.13-.39.19-.57A1.74,1.74,0,0,0,309.91,389.27Zm.4-1.08a1,1,0,0,0-.06.16c0-.09.09-.2.13-.31Zm33.27,18.4c.08.82.19,1.62.3,2.43,0,.17.05.34.07.5C343.82,408.54,343.7,407.57,343.58,406.59Zm-34.46-13.88c-.75,7.24-1.8,14.62-3.22,22,.19-.95.37-1.91.53-2.86s.3-1.66.44-2.49c.12-.68.24-1.36.35-2q.42-2.49.75-4.92c.1-.66.19-1.33.28-2,.35-2.64.67-5.24.93-7.77a3.86,3.86,0,0,1,.06-.49c0-.17,0-.33.07-.49s.07-.39.11-.58a6.6,6.6,0,0,1,.14-.67A15.16,15.16,0,0,0,309.12,392.71Zm.79-3.44a1.05,1.05,0,0,0-.06.21c.06-.2.13-.39.19-.57A1.74,1.74,0,0,0,309.91,389.27Zm.4-1.08a1,1,0,0,0-.06.16c0-.09.09-.2.13-.31Zm33.27,18.4c.08.82.19,1.62.3,2.43,0,.17.05.34.07.5C343.82,408.54,343.7,407.57,343.58,406.59ZM521.44,287.52c-2.37,3.53-4.85,7-7.42,10.25,2.65-3.35,5.13-6.77,7.48-10.24ZM298.75,181.66a1.25,1.25,0,0,1,.15.19l1.79,2C300.05,183.14,299.39,182.4,298.75,181.66Zm44.83,224.93c.08.82.19,1.62.3,2.43,0,.17.05.34.07.5C343.82,408.54,343.7,407.57,343.58,406.59Zm-33.27-18.4a1,1,0,0,0-.06.16c0-.09.09-.2.13-.31Zm-.4,1.08a1.05,1.05,0,0,0-.06.21c.06-.2.13-.39.19-.57A1.74,1.74,0,0,0,309.91,389.27Zm-.79,3.44c-.75,7.24-1.8,14.62-3.22,22,.19-.95.37-1.91.53-2.86s.3-1.66.44-2.49c.12-.68.24-1.36.35-2q.42-2.49.75-4.92c.1-.66.19-1.33.28-2,.35-2.64.67-5.24.93-7.77a3.86,3.86,0,0,1,.06-.49c0-.17,0-.33.07-.49s.07-.39.11-.58a6.6,6.6,0,0,1,.14-.67A15.16,15.16,0,0,0,309.12,392.71Zm34.46,13.88c.08.82.19,1.62.3,2.43,0,.17.05.34.07.5C343.82,408.54,343.7,407.57,343.58,406.59Zm-33.27-18.4a1,1,0,0,0-.06.16c0-.09.09-.2.13-.31Zm-.4,1.08a1.05,1.05,0,0,0-.06.21c.06-.2.13-.39.19-.57A1.74,1.74,0,0,0,309.91,389.27Zm-.79,3.44c-.75,7.24-1.8,14.62-3.22,22,.19-.95.37-1.91.53-2.86s.3-1.66.44-2.49c.12-.68.24-1.36.35-2q.42-2.49.75-4.92c.1-.66.19-1.33.28-2,.35-2.64.67-5.24.93-7.77a3.86,3.86,0,0,1,.06-.49c0-.17,0-.33.07-.49s.07-.39.11-.58a6.6,6.6,0,0,1,.14-.67A15.16,15.16,0,0,0,309.12,392.71Zm1.19-4.52a1,1,0,0,0-.06.16c0-.09.09-.2.13-.31Zm-.4,1.08a1.05,1.05,0,0,0-.06.21c.06-.2.13-.39.19-.57A1.74,1.74,0,0,0,309.91,389.27Zm-.79,3.44c-.75,7.24-1.8,14.62-3.22,22,.19-.95.37-1.91.53-2.86s.3-1.66.44-2.49c.12-.68.24-1.36.35-2q.42-2.49.75-4.92c.1-.66.19-1.33.28-2,.35-2.64.67-5.24.93-7.77a3.86,3.86,0,0,1,.06-.49c0-.17,0-.33.07-.49s.07-.39.11-.58a6.6,6.6,0,0,1,.14-.67A15.16,15.16,0,0,0,309.12,392.71Zm0,0c-.75,7.24-1.8,14.62-3.22,22,.19-.95.37-1.91.53-2.86s.3-1.66.44-2.49c.12-.68.24-1.36.35-2q.42-2.49.75-4.92c.1-.66.19-1.33.28-2,.35-2.64.67-5.24.93-7.77a3.86,3.86,0,0,1,.06-.49c0-.17,0-.33.07-.49s.07-.39.11-.58a6.6,6.6,0,0,1,.14-.67A15.16,15.16,0,0,0,309.12,392.71Zm1.19-4.52a1,1,0,0,0-.06.16c0-.09.09-.2.13-.31Z" transform="translate(0 -21.58)"/><path class="cls-4" d="M648.42,332.05c-34.94-37.63-72-62.61-110.4-74.48,28-63,21.14-130.11,20.8-133.63a16.61,16.61,0,0,0-16-14.81C487,107,444.4,117.41,412,134.71,387.27,70.05,334.77,27.26,332.38,25.24a16.82,16.82,0,0,0-21.88.8c-37.73,35.06-62.77,72.22-74.6,110.74-43.64-19.32-88.81-22.1-111-22.1a216.7,216.7,0,0,0-22.59,1,16.74,16.74,0,0,0-14.82,16c-2.07,55.89,8.32,98.46,25.54,130.83C48.48,287.27,5.65,339.77,3.75,342.18A16.51,16.51,0,0,0,4.47,364c35.06,37.63,72.08,62.62,110.44,74.52-28.06,63-21.21,130.11-20.8,133.64A16.51,16.51,0,0,0,110,586.91c4.81.21,9.44.33,14,.33,49.09,0,87.22-10,116.82-25.82h0c24.77,64.6,77.3,107.4,79.72,109.34a16.89,16.89,0,0,0,10.49,3.75,16.3,16.3,0,0,0,11.28-4.58c37.81-35,62.8-72.14,74.61-110.69,3.43,1.52,6.87,2.93,10.3,4.26C467.59,579,507.55,581.34,528,581.34a225.23,225.23,0,0,0,22.63-1,16.78,16.78,0,0,0,14.8-16c2.09-55.92-8.28-98.46-25.5-130.82,64.58-24.83,107.35-77.3,109.35-79.68A16.82,16.82,0,0,0,648.42,332.05ZM322.2,61.08c16.38,15.87,46.67,49.5,61.12,92.29-26.82,21.45-44.13,48.21-55.28,75.21q-.39-.95-.81-1.89c-.28-.67-.57-1.33-.87-2-.48-1.07-1-2.13-1.45-3.18-.31-.65-.61-1.3-.94-1.95-.39-.81-.78-1.61-1.18-2.41q-1.12-2.24-2.3-4.4c-.64-1.2-1.3-2.38-2-3.53s-1.2-2.09-1.82-3.12c-.1-.17-.21-.33-.3-.5-.66-1.07-1.33-2.15-2-3.21-.49-.78-1-1.54-1.5-2.3-.27-.43-.56-.85-.83-1.27s-.58-.85-.88-1.26-.47-.71-.72-1.05a.09.09,0,0,1,0,0c-.67-1-1.33-1.87-2-2.81h0l-2.08-2.77q-2.76-3.59-5.66-7l-1.79-2a1.25,1.25,0,0,0-.15-.19c-.12-.14-.25-.27-.37-.4l-1.61-1.78c-.59-.63-1.17-1.27-1.77-1.89a168.36,168.36,0,0,0-29.07-24.48C274.07,121.71,292.94,90.89,322.2,61.08ZM303.14,258.4q-.93-3.13-1.95-6.18C301.89,254.25,302.53,256.31,303.14,258.4ZM281.09,213c-1.2-1.62-2.41-3.2-3.67-4.77C278.69,209.78,279.91,211.36,281.09,213ZM39.55,352.2c15.72-16.27,49.26-46.55,92.17-61C153.3,318,180,335.29,207,346.43a164.92,164.92,0,0,0-52.14,34.08q-1.87,1.82-3.68,3.67c-.64.65-1.28,1.32-1.9,2l-1.05,1.13-.17.18c-1.44,1.58-2.86,3.18-4.26,4.82-.73.85-1.44,1.71-2.15,2.58s-1.24,1.53-1.85,2.3c-.21.25-.4.51-.59.76-.42.52-.84,1.06-1.23,1.6-.59.74-1.15,1.49-1.7,2.24-.09.12-.18.23-.25.34-.56.74-1.09,1.48-1.62,2.24-.32.44-.64.89-1,1.34-.66.94-1.31,1.88-1.95,2.83l-.1,0C100.11,400.38,69.3,381.48,39.55,352.2ZM330.69,635c-16.32-15.85-46.58-49.47-61.06-92.25,26.78-21.48,44.15-48.18,55.28-75.22.07.18.15.36.22.53.28.68.56,1.35.86,2s.66,1.48,1,2.22c.06.13.12.27.18.39.24.51.46,1,.7,1.52q2.88,6.17,6.1,11.86l1.05,1.84A165.2,165.2,0,0,0,387,543C378.85,574.35,360,605.17,330.69,635Zm24.66-181.5c1,2.39,2,4.72,3.1,7C357.35,458.17,356.33,455.84,355.35,453.45Zm7.9,16.29q2.34,4.13,4.94,8.05Q365.57,473.88,363.25,469.74ZM528,548c-49.22,0-160-13.09-182.16-127.16.66,3.46,1.41,6.87,2.23,10.2A187.15,187.15,0,0,1,344,409.52c0-.16-.05-.33-.07-.5-.11-.81-.22-1.61-.3-2.43,0-.16-.05-.32-.06-.49,0-.35-.08-.69-.12-1.05-.07-.6-.14-1.21-.2-1.82-.11-1-.2-2-.29-3-.12-1.21-.21-2.44-.31-3.67l-.21-3.16c0-.36-.06-.71-.11-1.05l0-.29a7.2,7.2,0,0,0-.19-1c-.06-.29-.12-.57-.2-.85s-.11-.39-.17-.58-.18-.55-.27-.83c-.18-.49-.38-1-.6-1.43-.12-.24-.22-.46-.34-.69s-.37-.67-.59-1a15.29,15.29,0,0,0-1.34-1.85c-.25-.3-.5-.59-.76-.86l-.54-.54c-.27-.26-.54-.51-.83-.75l0,0-.05-.05c-.27-.23-.55-.43-.83-.65h0c-.26-.2-.54-.38-.81-.56s-.57-.36-.86-.51a5,5,0,0,0-.6-.32c-.2-.11-.4-.21-.61-.3A5.76,5.76,0,0,0,332,379c-.41-.18-.83-.33-1.26-.47s-.67-.2-1-.29-.71-.17-1.08-.23a10.23,10.23,0,0,0-1.11-.16l-.4,0c-.34,0-.7,0-1.06-.06a17.74,17.74,0,0,0-13.74,6.94,1.25,1.25,0,0,0-.15.19c-.15.2-.3.42-.43.63l-.25.39s0,0,0,0c-.13.2-.25.42-.36.63l-.06.1s0,0,0,0l-.23.44c-.05.09-.08.17-.13.26l-.09.2-.08.17-.13.29c0,.11-.09.22-.13.31l0,0s0,0,0,0,0,.08-.05.11a2.32,2.32,0,0,0-.13.37c-.06.18-.13.37-.19.57a.6.6,0,0,0-.05.16,4.48,4.48,0,0,0-.2.69l0,.15a6.6,6.6,0,0,0-.14.67c0,.19-.08.38-.11.58s-.05.32-.07.49a3.86,3.86,0,0,0-.06.49c-.26,2.53-.58,5.13-.93,7.77-.09.65-.18,1.32-.28,2q-.33,2.43-.75,4.92c-.11.66-.23,1.34-.35,2-.14.83-.28,1.65-.44,2.49s-.34,1.91-.53,2.86c-.14.69-.27,1.4-.42,2.09s-.29,1.41-.44,2.11-.3,1.41-.47,2.11c-8.41,38.53-27.15,77.41-65.56,103h0s0,0,0,0c-26.84,17.92-63.28,29.36-112.51,29.75-.32-24.34,2.26-74.53,26.63-117.08A147.31,147.31,0,0,1,168.27,415c.74-.88,1.49-1.75,2.27-2.61.61-.71,1.24-1.4,1.87-2.09.84-.9,1.67-1.77,2.52-2.64q1-1,2-2c.69-.68,1.39-1.35,2.09-2s1.48-1.38,2.23-2c.42-.39.85-.77,1.28-1.14.17-.15.34-.31.53-.46.43-.39.88-.76,1.32-1.12s1.06-.89,1.6-1.32,1.06-.87,1.61-1.29,1.08-.87,1.63-1.27,1.1-.85,1.66-1.24,1.12-.84,1.68-1.22c1.69-1.23,3.4-2.4,5.16-3.51.66-.42,1.3-.84,2-1.24s1.2-.75,1.81-1.11a2.14,2.14,0,0,1,.41-.25c1.21-.73,2.46-1.45,3.7-2.13a156.61,156.61,0,0,1,43.44-16c.88-.21,1.75-.39,2.63-.55,1.67-.35,3.35-.67,5.06-1,1-.18,2-.34,3-.51s1.72-.29,2.58-.39,1.55-.24,2.34-.34c.3-.05.61-.09.92-.12,1.12-.15,2.25-.3,3.38-.41l2.3-.26c1.43-.15,2.87-.28,4.33-.4l2.35-.19c1-.09,2.06-.16,3.11-.22a16.72,16.72,0,0,0,4.63-1c.49-.18,1-.39,1.43-.6a19,19,0,0,0,1.89-1c.39-.27.78-.54,1.15-.82a16.5,16.5,0,0,0,1.59-1.41c.34-.33.66-.69,1-1.05s.6-.74.87-1.12.54-.79.78-1.21.46-.83.67-1.26.41-.94.58-1.43a7.16,7.16,0,0,0,.25-.74,16.14,16.14,0,0,0,.75-4.68,16.62,16.62,0,0,0-14.86-16.9c-1-.09-1.91-.2-2.88-.32l-3-.36c-45.84-5.71-95.45-23.71-126-69.85-17.75-26.83-29-63.15-29.4-112.13h4.36c50,0,163.19,13.44,183.12,132.11-.3-1.86-.64-3.71-1-5.55.77,3.88,1.42,7.83,1.95,11.88,0,.27.07.55.11.82s.05.37.07.56c.05.46.11.91.17,1.37,0,.23.06.46.08.68.24,2,.46,3.94.63,6q.32,3.36.53,6.81a16.52,16.52,0,0,0,3.09,8.68c.23.32.47.63.73.93a15.64,15.64,0,0,0,3.11,2.91,16.91,16.91,0,0,0,9.35,3.16H327l1,0a17.07,17.07,0,0,0,9.65-3.62q.57-.46,1.11-1t1.23-1.29a16.49,16.49,0,0,0,3.88-9.08c.12-1.14.24-2.28.38-3.44.48-4.1,1.05-8.26,1.76-12.42,7-42.57,25.47-87.36,68.24-115.78,26.79-17.81,63.13-29.2,112.17-29.57.41,24.35-2.27,74.54-26.49,117a0,0,0,0,1,0,0s0,0,0,0a146,146,0,0,1-15.31,22,132,132,0,0,1-32.67,27.83c-.68.42-1.36.84-2.05,1.22s-1.17.69-1.75,1-1,.59-1.57.88c-.85.46-1.73.93-2.6,1.38-.55.3-1.11.58-1.68.86-.81.42-1.63.82-2.46,1.22s-1.38.66-2.09,1-1.42.65-2.13,1-1.53.67-2.3,1l-.29.12c-.57.25-1.16.49-1.74.72q-2.19.92-4.42,1.72-1.12.42-2.25.81c-.76.28-1.51.54-2.27.77s-1.53.53-2.29.77c-2.31.75-4.66,1.44-7,2.07-.8.23-1.59.45-2.4.64l-2.41.61c-.81.2-1.62.39-2.45.57s-1.63.38-2.45.53c-1.65.37-3.32.71-5,1-.84.16-1.69.31-2.53.45-1.7.31-3.42.59-5.15.82-.86.14-1.73.27-2.6.36-1.74.25-3.51.47-5.28.65-.89.1-1.78.19-2.68.27s-1.8.18-2.71.24q-1.12.11-2.28.18l-.44,0c-.92.09-1.82.15-2.74.2a16.69,16.69,0,0,0-.66,33.25l2.88.33c1,.1,1.93.21,2.91.34.58.07,1.17.14,1.77.23s1.51.2,2.27.31c44.66,6.25,92.26,24.51,121.9,69.26h0C520.67,462.67,532,499,532.28,548,531,548,529.5,548,528,548Zm-6.8-143.13c-21.52-26.83-48.21-44.13-75.25-55.26a165.7,165.7,0,0,0,59.33-41.49c.54-.58,1.07-1.17,1.6-1.77,1.13-1.26,2.24-2.55,3.34-3.85.63-.75,1.25-1.52,1.89-2.29s1.3-1.62,1.94-2.46c2.57-3.29,5.05-6.72,7.42-10.25h.06c31.3,8.12,62.19,27,91.82,56.24C597.65,360.1,564.06,390.43,521.17,404.89Z" transform="translate(0 -21.58)"/><path class="cls-4" d="M308.63,283.75v0Z" transform="translate(0 -21.58)"/></g></g></g></g></svg>