<svg xmlns="http://www.w3.org/2000/svg" xmlns:xlink="http://www.w3.org/1999/xlink" viewBox="0 0 821.81 602.68"><defs><style>.cls-1,.cls-10{fill:none;}.cls-2{opacity:0.28;}.cls-3{clip-path:url(#clip-path);}.cls-4,.cls-6{fill:#414aa6;}.cls-4,.cls-5{opacity:0.15;}.cls-7,.cls-9{opacity:0.36;}.cls-8,.cls-9{fill:#fff;}.cls-10{stroke:#fff;stroke-miterlimit:10;stroke-width:2px;}</style><clipPath id="clip-path"><rect class="cls-1" x="237.3" y="111.82" width="478.72" height="389.73"/></clipPath></defs><title>form background</title><g id="Layer_2" data-name="Layer 2"><g id="Layer_1-2" data-name="Layer 1"><g class="cls-2"><g class="cls-3"><ellipse class="cls-4" cx="729.67" cy="442.16" rx="92.14" ry="61.33"/><g class="cls-5"><path class="cls-6" d="M107.25,202.63c6.45-17.87,39.7-24.9,67.26-23.71s55.49,7.33,82.25,2.76c31.25-5.33,54-25.12,59.62-46.26s-3.7-43.09-19.59-61.78-38-34.62-60.09-50.3c-12.36-8.79-25.53-17.89-42.77-21.53-19.56-4.14-40.79-.49-60.16,4a568.14,568.14,0,0,0-110,37.46C16,46.88,8.2,50.83,3.87,56.4-3.6,66,1.14,77.67,6.41,87.91A561.17,561.17,0,0,0,67.73,182"/></g><g class="cls-5"><path class="cls-6" d="M524.67,580.41c16.52-35.5-3.44-79.91-54.06-95.6-43-13.34-99.67-5.07-135-26.17-17.95-10.74-25.93-26.78-34.45-41.81-10.55-18.6-23.55-37.25-45.49-50.74S201,345.32,173.2,352.66c-23.41,6.18-39.12,21.53-45.94,37.67s-6.07,33.2-5.27,49.95c1.45,30.09,2.92,60.37,12.27,89.82,4.81,15.14,12.16,30.57,28,41.89,13.33,9.51,31.59,15.31,50.07,19.54,84.78,19.41,177.6,9.62,266-.38"/></g><ellipse class="cls-4" cx="571.54" cy="361.9" rx="24.44" ry="16.27"/><ellipse class="cls-4" cx="484.72" cy="98.2" rx="9.09" ry="6.05"/><ellipse class="cls-4" cx="324.77" cy="518.9" rx="39.49" ry="26.29"/><ellipse class="cls-4" cx="711.5" cy="158.2" rx="75.53" ry="50.28"/><g class="cls-7"><path class="cls-8" d="M102.58,162.91c12,12.48,29.7,18.65,46.52,20.71,18.24,2.23,37.53-.64,53.93-9.09,7-3.62,13.73-8.41,18.65-14.68,4.66-5.93,7.49-14,1.81-20.3-5.27-5.78-14.48-7.52-21.65-4.64-5.15,2.06-10.43,7.32-9,13.36,1.74,7.13,10.43,10.84,16.78,12.53a54.25,54.25,0,0,0,27.17-.19,41.62,41.62,0,0,0,21.3-12.82c5.27-6,9.13-13.17,15.14-18.52,6.85-6.1,15.83-8.84,24.87-9.4,8.73-.53,18.36.73,25.92,5.41,3.53,2.19,9,7.05,6,11.7-1.95,3.1-6.51,4.45-9.95,4.57-4.42.14-8.2-2.18-9.47-6.54-1.06-3.65.73-7.25,3.09-10,6-6.85,15.57-10.67,24.22-12.67,9.62-2.21,19.51-3,29.25-4.57,15.18-2.41,35.57-7.49,40.31-24.56a19.54,19.54,0,0,0,.2-9.55c-.22-1-1.8-.59-1.57.44,1.79,8-2.37,15.62-8.4,20.73-7.14,6.06-16.54,8.68-25.55,10.42-17.73,3.41-37.37,2.88-53,13.08-5,3.25-10.89,8.43-10.46,15s6.41,10.39,12.63,9.71c5-.56,11.68-3.63,11.06-9.65-.78-7.44-10.19-11.56-16.39-13.35-15-4.32-33.45-2.08-45,9-5.61,5.39-9.36,12.31-14.55,18.06-6.2,6.87-14.33,10.86-23.36,12.6-9.46,1.83-19.94,1.44-28.82-2.56-3.54-1.6-7.3-3.94-9.14-7.5s-.55-7.25,2.1-9.94c6.37-6.44,18-5.9,24.35.23,7.83,7.52.59,17.76-5.61,23.59-13.11,12.3-32.16,18-49.78,19-18.27,1-37.82-3-53.25-13.14a53.65,53.65,0,0,1-9.27-7.66c-.73-.76-1.88.39-1.15,1.15Z"/></g><g class="cls-7"><path class="cls-8" d="M722.88,437.17c-6.73,21.3-24.64,37.9-45,46.23-12,4.93-25.64,7.66-38.64,6.46-5.71-.52-13.08-1.89-17-6.48a7.92,7.92,0,0,1,2.21-12.21c5.59-3.23,14.21-1.69,18.46,3.15,5.3,6-1.32,13.13-6.49,16.32-11.19,6.91-25.67,7.66-38.45,7-15.19-.79-30-4.5-45.06-6.44a121.48,121.48,0,0,0-42.3,1.47c-13.9,3.11-28,9-38.13,19.28-8.68,8.8-13.93,20.94-11.13,33.34.23,1,1.8.59,1.57-.43-3.06-13.56,4.09-26.43,14.24-35,11.33-9.58,26.2-14.6,40.67-16.89,16.79-2.66,33.35-.65,50,2.22,15.31,2.64,30.72,5.37,46.3,3.79a60.86,60.86,0,0,0,18.74-4.59c5.31-2.37,11.07-6.14,13.07-11.9,4.14-11.92-13.72-17.37-22-12.84a9.65,9.65,0,0,0-5.19,10c.83,4.91,5.24,7.79,9.55,9.49,12.47,4.89,27.81,2.74,40.35-.77,22.71-6.37,43.62-22.09,53.32-44a67.58,67.58,0,0,0,2.55-6.74c.31-1-1.26-1.44-1.58-.44Z"/></g><path class="cls-9" d="M272.74,328.61c0,4.49-5.47,8.13-12.22,8.13s-12.22-3.64-12.22-8.13,5.47-8.14,12.22-8.14S272.74,324.11,272.74,328.61Z"/><g class="cls-7"><path class="cls-10" d="M659.74,273.37c0,4.5-5.47,8.14-12.22,8.14s-12.22-3.64-12.22-8.14,5.47-8.13,12.22-8.13S659.74,268.88,659.74,273.37Z"/><polygon class="cls-8" points="625.13 265.34 642.17 255.85 645.74 271.29 625.13 265.34"/></g></g></g></g></g></svg>