<svg xmlns="http://www.w3.org/2000/svg" viewBox="0 0 27.05 17.41"><defs><style>.cls-1{fill:#545454;}</style></defs><title>Asset 6</title><g id="Layer_2" data-name="Layer 2"><g id="Layer_1-2" data-name="Layer 1"><path class="cls-1" d="M0,8.44a6.87,6.87,0,0,1,.55-.91A24.11,24.11,0,0,1,7.27,1.77,12.63,12.63,0,0,1,13.75,0a12.93,12.93,0,0,1,6.06,1.78,24.55,24.55,0,0,1,6.91,6,3.61,3.61,0,0,1,.33.65V9a7.22,7.22,0,0,1-.57.93,24,24,0,0,1-6.63,5.7,13.63,13.63,0,0,1-4.92,1.72,11.22,11.22,0,0,1-5.32-.62,18.21,18.21,0,0,1-5.55-3.28A26.81,26.81,0,0,1,.4,9.7,4.68,4.68,0,0,1,0,9Zm13.52-6a6.3,6.3,0,1,0,6.3,6.3A6.27,6.27,0,0,0,13.52,2.41Z"/><path class="cls-1" d="M9.18,8.7a4.35,4.35,0,1,1,4.33,4.35A4.33,4.33,0,0,1,9.18,8.7Zm4-2.7c-1.26-.1-2.63,1.3-2.39,2.39h1.37a1,1,0,0,1,.9-1,.18.18,0,0,0,.11-.14C13.2,6.86,13.2,6.44,13.2,6Z"/></g></g></svg>