<svg xmlns="http://www.w3.org/2000/svg" xmlns:xlink="http://www.w3.org/1999/xlink" viewBox="0 0 544.98 649.73"><defs><style>.cls-1,.cls-4,.cls-6{fill:none;}.cls-2{opacity:0.19;}.cls-3{clip-path:url(#clip-path);}.cls-4,.cls-6{stroke:#b0b0b0;stroke-miterlimit:10;}.cls-4{stroke-width:3.58px;opacity:0.49;}.cls-5,.cls-8{fill:#dbdbdb;}.cls-5{opacity:0.76;}.cls-6{stroke-width:1.7px;}.cls-7{fill:#adadad;}</style><clipPath id="clip-path"><rect class="cls-1" x="83.16" y="68.53" width="415.64" height="579" rx="9.72" ry="9.72"/></clipPath></defs><title>bg-goi-hop-dong</title><g id="Layer_2" data-name="Layer 2"><g id="Layer_1-2" data-name="Layer 1"><g class="cls-2"><g class="cls-3"><path class="cls-4" d="M106.69,28.26A67,67,0,1,1,13.56,45.54,67,67,0,0,1,106.69,28.26Z"/><circle class="cls-5" cx="125.97" cy="45.31" r="45.31" transform="translate(-7.9 44) rotate(-19.22)"/><path class="cls-6" d="M544.41,647,533,636.55a10,10,0,0,0-13.28-.07l-10.41,9.24a10,10,0,0,1-12.83.32L484,636.11a10,10,0,0,0-12.76.27l-10.3,9a10,10,0,0,1-12.68.33l-13.18-10.27a10,10,0,0,0-12.38.1l-11.93,9.61a10,10,0,0,1-12.82-.26"/><path class="cls-6" d="M544.41,629.48,533,619A10,10,0,0,0,519.7,619l-10.41,9.24a10,10,0,0,1-12.83.32L484,618.6a10,10,0,0,0-12.76.26l-10.3,9a10,10,0,0,1-12.68.34L435.11,617.9a10,10,0,0,0-12.38.1l-11.93,9.62a9,9,0,0,1-5.74,2.12,11.28,11.28,0,0,1-5.47-1.54"/><path class="cls-7" d="M134.92,617.75h-8.47a1.37,1.37,0,0,1-1.37-1.37v-8.47a1.38,1.38,0,0,0-1.38-1.38h-.21a1.38,1.38,0,0,0-1.38,1.38v8.47a1.37,1.37,0,0,1-1.37,1.37h-8.47a1.38,1.38,0,0,0-1.38,1.38v.21a1.38,1.38,0,0,0,1.38,1.38h8.47a1.37,1.37,0,0,1,1.37,1.37v8.47a1.38,1.38,0,0,0,1.38,1.38h.21a1.38,1.38,0,0,0,1.38-1.38v-8.47a1.37,1.37,0,0,1,1.37-1.37h8.47a1.38,1.38,0,0,0,1.38-1.38v-.21A1.38,1.38,0,0,0,134.92,617.75Z"/><path class="cls-8" d="M113.53,628.75H101a2,2,0,0,1-2-2V614.18a2,2,0,0,0-2-2h-.31a2,2,0,0,0-2,2v12.53a2,2,0,0,1-2,2H80a2,2,0,0,0-2,2v.31a2,2,0,0,0,2,2H92.55a2,2,0,0,1,2,2v12.52a2,2,0,0,0,2,2h.31a2,2,0,0,0,2-2V635.17a2,2,0,0,1,2-2h12.53a2,2,0,0,0,2-2v-.31A2,2,0,0,0,113.53,628.75Z"/><polygon class="cls-8" points="389.03 546.69 427.57 501.19 439.52 532.24 439.52 532.24 389.03 546.69"/><polygon class="cls-8" points="399.89 555.99 441.13 550.48 434.75 574.83 399.89 555.99"/></g></g></g></g></svg>