<svg xmlns="http://www.w3.org/2000/svg" xmlns:xlink="http://www.w3.org/1999/xlink" viewBox="0 0 465.72 561.58"><defs><style>.cls-1{fill:none;}.cls-2{opacity:0.3;}.cls-3{clip-path:url(#clip-path);}.cls-4{fill:#dbdbdb;}.cls-5{opacity:0.81;}.cls-6{fill:#d8d8d8;}</style><clipPath id="clip-path"><rect class="cls-1" x="6.22" y="5.81" width="415.64" height="579" rx="9.72" ry="9.72"/></clipPath></defs><title>bg-goi-quan-tri</title><g id="Layer_2" data-name="Layer 2"><g id="Layer_1-2" data-name="Layer 1"><g class="cls-2"><g class="cls-3"><path class="cls-4" d="M81,22.88H63.74a2.8,2.8,0,0,1-2.81-2.8V2.81A2.81,2.81,0,0,0,58.12,0h-.43a2.81,2.81,0,0,0-2.81,2.81V20.08a2.8,2.8,0,0,1-2.8,2.8H34.81A2.81,2.81,0,0,0,32,25.69v.43a2.81,2.81,0,0,0,2.81,2.81H52.08a2.8,2.8,0,0,1,2.8,2.81V49a2.8,2.8,0,0,0,2.81,2.8h.43A2.8,2.8,0,0,0,60.93,49V31.74a2.81,2.81,0,0,1,2.81-2.81H81a2.8,2.8,0,0,0,2.8-2.81v-.43A2.8,2.8,0,0,0,81,22.88Z"/><path class="cls-4" d="M38.63,37H25a2.21,2.21,0,0,1-2.21-2.21V21.18A2.22,2.22,0,0,0,20.59,19h-.34A2.21,2.21,0,0,0,18,21.18V34.8A2.21,2.21,0,0,1,15.83,37H2.21A2.21,2.21,0,0,0,0,39.22v.34a2.21,2.21,0,0,0,2.21,2.21H15.83A2.21,2.21,0,0,1,18,44V57.6a2.21,2.21,0,0,0,2.21,2.21h.34a2.22,2.22,0,0,0,2.22-2.21V44A2.21,2.21,0,0,1,25,41.77H38.63a2.22,2.22,0,0,0,2.22-2.21v-.34A2.22,2.22,0,0,0,38.63,37Z"/><g class="cls-5"><path class="cls-6" d="M364.21,486.73a2.68,2.68,0,1,1-3.79-.17A2.69,2.69,0,0,1,364.21,486.73Z"/><path class="cls-6" d="M374.07,497.11a3,3,0,1,1-4.19-.19A3,3,0,0,1,374.07,497.11Z"/><path class="cls-6" d="M383.93,507.49a3.26,3.26,0,1,1-4.6-.21A3.25,3.25,0,0,1,383.93,507.49Z"/><path class="cls-6" d="M393.8,517.86a3.55,3.55,0,1,1-5-.22A3.56,3.56,0,0,1,393.8,517.86Z"/><path class="cls-6" d="M403.66,528.24a3.84,3.84,0,1,1-5.42-.25A3.83,3.83,0,0,1,403.66,528.24Z"/><path class="cls-6" d="M413.52,538.62a4.13,4.13,0,1,1-5.83-.27A4.13,4.13,0,0,1,413.52,538.62Z"/><path class="cls-6" d="M423.38,549a4.41,4.41,0,1,1-6.24-.29A4.41,4.41,0,0,1,423.38,549Z"/><path class="cls-6" d="M374.32,477.51a2.68,2.68,0,1,1-3.79-.18A2.67,2.67,0,0,1,374.32,477.51Z"/><path class="cls-6" d="M384.18,487.88a3,3,0,1,1-4.19-.19A3,3,0,0,1,384.18,487.88Z"/><path class="cls-6" d="M394,498.26a3.26,3.26,0,1,1-4.6-.21A3.25,3.25,0,0,1,394,498.26Z"/><path class="cls-6" d="M403.91,508.64a3.55,3.55,0,1,1-5-.23A3.55,3.55,0,0,1,403.91,508.64Z"/><path class="cls-6" d="M413.77,519a3.84,3.84,0,1,1-5.42-.25A3.83,3.83,0,0,1,413.77,519Z"/><path class="cls-6" d="M423.63,529.39a4.13,4.13,0,1,1-5.83-.26A4.13,4.13,0,0,1,423.63,529.39Z"/><path class="cls-6" d="M433.49,539.77a4.42,4.42,0,1,1-6.24-.28A4.41,4.41,0,0,1,433.49,539.77Z"/><path class="cls-6" d="M384.78,468a2.68,2.68,0,1,1-3.79-.17A2.67,2.67,0,0,1,384.78,468Z"/><path class="cls-6" d="M394.64,478.34a3,3,0,1,1-4.19-.19A3,3,0,0,1,394.64,478.34Z"/><path class="cls-6" d="M404.5,488.72a3.26,3.26,0,1,1-4.6-.21A3.26,3.26,0,0,1,404.5,488.72Z"/><path class="cls-6" d="M414.37,499.09a3.55,3.55,0,1,1-5-.23A3.55,3.55,0,0,1,414.37,499.09Z"/><circle class="cls-6" cx="421.39" cy="512.06" r="3.84" transform="translate(-209.03 306.28) rotate(-32.47)"/><circle class="cls-6" cx="431.04" cy="522.63" r="4.13" transform="translate(-210.22 304.16) rotate(-31.67)"/><circle class="cls-6" cx="440.69" cy="533.2" r="4.42"/><path class="cls-6" d="M394.93,458.69a2.68,2.68,0,1,1-3.78-.17A2.69,2.69,0,0,1,394.93,458.69Z"/><path class="cls-6" d="M404.79,469.07a3,3,0,1,1-4.19-.19A3,3,0,0,1,404.79,469.07Z"/><path class="cls-6" d="M414.66,479.45a3.26,3.26,0,1,1-4.61-.21A3.27,3.27,0,0,1,414.66,479.45Z"/><path class="cls-6" d="M424.52,489.83a3.55,3.55,0,1,1-5-.23A3.54,3.54,0,0,1,424.52,489.83Z"/><circle class="cls-6" cx="431.55" cy="502.79" r="3.84" transform="translate(-204.86 318.37) rotate(-33.2)"/><circle class="cls-6" cx="441.2" cy="513.36" r="4.13" transform="translate(-209.2 325.8) rotate(-33.24)"/><circle class="cls-6" cx="450.85" cy="523.94" r="4.42"/><path class="cls-6" d="M405.39,449.15a2.68,2.68,0,1,1-3.78-.17A2.67,2.67,0,0,1,405.39,449.15Z"/><path class="cls-6" d="M415.25,459.53a3,3,0,1,1-4.19-.2A3,3,0,0,1,415.25,459.53Z"/><path class="cls-6" d="M425.11,469.9a3.26,3.26,0,1,1-4.6-.21A3.26,3.26,0,0,1,425.11,469.9Z"/><path class="cls-6" d="M435,480.28a3.55,3.55,0,1,1-5-.23A3.54,3.54,0,0,1,435,480.28Z"/><circle class="cls-6" cx="442.01" cy="493.25" r="3.84" transform="translate(-182.2 271.81) rotate(-28.6)"/><circle class="cls-6" cx="451.66" cy="503.82" r="4.13" transform="translate(-182.69 268.38) rotate(-27.76)"/><circle class="cls-6" cx="461.3" cy="514.39" r="4.42"/></g><polygon class="cls-4" points="96.95 539.2 70.99 561.58 66.99 542.88 66.99 542.88 96.95 539.2"/><polygon class="cls-4" points="91.62 532.95 67.71 532.38 73.52 519.13 91.62 532.95"/></g></g></g></g></svg>