<svg xmlns="http://www.w3.org/2000/svg" xmlns:xlink="http://www.w3.org/1999/xlink" viewBox="0 0 821.81 905.38"><defs><style>.cls-1,.cls-10{fill:none;}.cls-2{opacity:0.47;}.cls-3{clip-path:url(#clip-path);}.cls-4,.cls-6{fill:#414aa7;}.cls-4,.cls-5{opacity:0.15;}.cls-7,.cls-9{opacity:0.36;}.cls-8,.cls-9{fill:#fff;}.cls-10{stroke:#fff;stroke-miterlimit:10;stroke-width:2.45px;}</style><clipPath id="clip-path"><rect class="cls-1" x="237.3" y="154.2" width="461" height="612" rx="10.53" ry="10.53"/></clipPath></defs><title>bg-goi-giay-phep</title><g id="Layer_2" data-name="Layer 2"><g id="Layer_1-2" data-name="Layer 1"><g class="cls-2"><g class="cls-3"><circle class="cls-4" cx="729.67" cy="664.23" r="92.14"/><g class="cls-5"><path class="cls-6" d="M107.25,304.41c6.45-26.86,39.7-37.42,67.26-35.62s55.49,11,82.25,4.15c31.25-8,54-37.74,59.62-69.51s-3.7-64.73-19.59-92.8-38-52-60.09-75.57c-12.36-13.2-25.53-26.87-42.77-32.34-19.56-6.21-40.79-.74-60.16,6A456,456,0,0,0,23.76,65C16,70.43,8.2,76.36,3.87,84.73c-7.47,14.44-2.73,32,2.54,47.34a963.83,963.83,0,0,0,61.32,141.3"/></g><g class="cls-5"><path class="cls-6" d="M524.67,871.93c16.52-53.34-3.44-120.06-54.06-143.63-43-20-99.67-7.6-135-39.31-17.95-16.13-25.93-40.23-34.45-62.8-10.55-27.94-23.55-56-45.49-76.23s-54.74-31.2-82.5-20.18c-23.41,9.29-39.12,32.35-45.94,56.59s-6.07,49.88-5.27,75c1.45,45.21,2.92,90.69,12.27,134.94,4.81,22.75,12.16,45.92,28,62.92,13.33,14.29,31.59,23,50.07,29.36,84.78,29.16,177.6,14.45,266-.57"/></g><circle class="cls-4" cx="571.54" cy="543.67" r="24.44" transform="translate(-88.47 975.67) rotate(-76.77)"/><circle class="cls-4" cx="484.72" cy="147.53" r="9.09"/><circle class="cls-4" cx="324.77" cy="779.53" r="39.49"/><circle class="cls-4" cx="711.5" cy="237.66" r="75.53" transform="translate(40.34 572.72) rotate(-45)"/><g class="cls-7"><path class="cls-8" d="M102.29,244.37a70.84,70.84,0,0,0,48.15,31.48c19.26,3.06,39-2.76,54.09-15a66.75,66.75,0,0,0,18.22-22.68c4.33-9,6.42-20.14.56-28.94-4.49-6.73-13-10.73-20.68-6.88-7.06,3.54-11.08,12.22-10,19.91,1.29,9,8.81,15.78,16.87,19,9.09,3.64,19.57,3.06,28.52-.71,9.31-3.93,15.94-11.13,20.86-19.79,4.8-8.45,8.16-17.72,13.76-25.72,5.9-8.43,14.55-14.05,24.88-15.18,9.95-1.09,20.75,1.91,27.68,9.39,3.76,4.07,6.57,9.9,5.07,15.53a11.57,11.57,0,0,1-9.73,8c-5.57.56-8.44-4.43-9.55-9.21a21.43,21.43,0,0,1,2-14.23c4.57-9.24,13.61-16.3,23.06-20.06,9.91-3.94,20.77-5.12,31.09-7.57,9.7-2.31,19.41-5.7,27-12.43a43.42,43.42,0,0,0,13.61-24.6,42.69,42.69,0,0,0,.16-14c-.19-1.27-2.12-.73-1.93.53a41.48,41.48,0,0,1-6.78,29.21c-6.08,9-15.42,14.32-25.62,17.44-10,3.08-20.52,4.37-30.65,7.09-9.21,2.47-17.68,6.74-24.46,13.55-5.88,5.91-10.64,14-9.86,22.63.66,7.43,5.38,15.39,13.86,13.28,8-2,11.76-10,9.47-17.65-2.6-8.67-10.69-14.76-19-17.42a37.86,37.86,0,0,0-26,1.17c-8.45,3.55-14.45,10.3-19,18.09-4.83,8.32-8.14,17.47-13.52,25.48a38.62,38.62,0,0,1-25.48,17c-10,1.77-21.1-.66-28.44-8-6.94-7-8.28-17.74-1.6-25.39a13.21,13.21,0,0,1,12.29-4.74c4.89.88,8.89,4.48,11.23,8.73,5.69,10.32.7,22.89-5.15,32a68.84,68.84,0,0,1-48.6,30.49c-20.16,2.5-41-5.09-55.36-19.28A65.64,65.64,0,0,1,104,243.36c-.69-1.08-2.43-.08-1.73,1Z"/></g><g class="cls-7"><path class="cls-8" d="M722.7,656.81c-5.58,26.59-20,53.23-43.11,68.44-11.18,7.36-25.17,12.34-38.71,11.06-7-.66-14.87-3.55-18.48-10-2.77-4.95-2.83-11.8.35-16.57,4.13-6.21,12.35-5.54,17.34-.74,6.22,6,5.37,15.22,1.21,22.13-7.9,13.14-24.39,17.22-38.74,16.91-17.1-.37-33.23-6.81-49.87-10-15.17-2.89-30.52-2.23-45,3.3-27.77,10.57-47.28,37.2-47.32,67.2a70.07,70.07,0,0,0,.83,10.53c.19,1.27,2.12.73,1.93-.53a69.35,69.35,0,0,1,10.59-47.76,71.94,71.94,0,0,1,39.38-29.19,76.06,76.06,0,0,1,24.44-3.33c9.61.28,19,2.47,28.31,4.86,16.07,4.12,32.33,8.77,49.06,6.07,14-2.25,29.52-11.22,31.59-26.59a17.36,17.36,0,0,0-7.63-17.15c-5-3.19-11.59-3.23-16,1-3.82,3.69-5,9.51-4.27,14.62.92,6.25,5,11.1,10.5,14,12.5,6.48,28.63,3.14,40.88-2.27,26.35-11.64,43.92-38.16,52-65,1-3.44,1.91-6.94,2.65-10.46.27-1.26-1.66-1.79-1.93-.53Z"/></g><path class="cls-9" d="M272.74,493.65a12.22,12.22,0,1,1-12.22-12.22A12.22,12.22,0,0,1,272.74,493.65Z"/><g class="cls-7"><path class="cls-10" d="M659.74,410.68a12.22,12.22,0,1,1-12.22-12.22A12.22,12.22,0,0,1,659.74,410.68Z"/><polygon class="cls-8" points="625.13 398.61 642.17 384.35 645.74 407.55 625.13 398.61"/></g></g></g></g></g></svg>