<?xml version="1.0" encoding="iso-8859-1"?>
<!-- Generator: Adobe Illustrator 19.0.0, SVG Export Plug-In . SVG Version: 6.00 Build 0)  -->
<svg version="1.1" id="Capa_1" xmlns="http://www.w3.org/2000/svg" xmlns:xlink="http://www.w3.org/1999/xlink" x="0px" y="0px"
	 viewBox="0 0 435.722 435.722" style="enable-background:new 0 0 435.722 435.722;" xml:space="preserve">
<path style="fill:#4DCFE0;" d="M217.339,358.792c-48.065,0-96.131-8.359-142.106-25.6c-6.269-2.09-9.927-8.359-9.927-14.629V201.012
	h31.347v106.58c78.367,26.645,163.527,26.645,241.894,0v-106.58h31.347v117.551c0,6.792-4.18,12.539-9.927,14.629
	C313.992,350.433,265.927,358.792,217.339,358.792z"/>
<path style="fill:#1185E0;" d="M435.722,166.531c0-6.269-4.18-12.539-10.449-14.629L223.086,77.714
	c-3.657-1.045-7.314-1.045-10.971,0L10.449,151.902C4.18,153.992,0,159.739,0,166.531c0,6.269,3.657,12.539,9.927,14.629
	l202.188,78.89c2.09,0.522,3.657,1.045,5.747,1.045s3.657-0.522,5.747-1.045l180.767-70.531V304.98
	c0,8.882,6.792,15.673,15.673,15.673s15.673-6.792,15.673-15.673V168.098v-0.522C435.722,167.053,435.722,166.531,435.722,166.531z
	 M217.861,228.702l-157.78-61.649l157.78-57.992l157.78,57.992L217.861,228.702z"/>
<g>
</g>
<g>
</g>
<g>
</g>
<g>
</g>
<g>
</g>
<g>
</g>
<g>
</g>
<g>
</g>
<g>
</g>
<g>
</g>
<g>
</g>
<g>
</g>
<g>
</g>
<g>
</g>
<g>
</g>
</svg>
