<svg xmlns="http://www.w3.org/2000/svg" viewBox="0 0 63.55 40.31"><defs><style>.cls-1{fill:#4dcfe0;}.cls-2{fill:#1185e0;}</style></defs><title>truyen-thong-quang-cao</title><g id="Layer_2" data-name="Layer 2"><g id="Layer_1-2" data-name="Layer 1"><path class="cls-1" d="M50.24,25.63a1.51,1.51,0,0,1,0-3,3.57,3.57,0,1,0,0-7.13,1.51,1.51,0,0,1,0-3,6.58,6.58,0,0,1,0,13.16Z"/><path class="cls-1" d="M50.24,32.41a1.51,1.51,0,0,1,0-3,10.32,10.32,0,0,0,0-20.64,1.51,1.51,0,0,1,0-3,13.34,13.34,0,0,1,0,26.67Z"/><path class="cls-1" d="M18.08,14.09v-3H3a3,3,0,0,0-3,3V26.25a3,3,0,0,0,3,3h.71V38.5A1.48,1.48,0,0,0,5.22,40h8.14a1.48,1.48,0,0,0,1.51-1.51V29.26h3.21v-3H3V14.09ZM11.85,37H6.73V29.26h5.12Z"/><path class="cls-2" d="M39.17,40.31a1.6,1.6,0,0,1-.7-.15l-21.09-11a1.46,1.46,0,0,1-.81-1.36V12.59a1.57,1.57,0,0,1,.81-1.36L38.47.18a1.4,1.4,0,0,1,1.46.05,1.47,1.47,0,0,1,.7,1.31V38.8a1.59,1.59,0,0,1-.7,1.31A1.33,1.33,0,0,1,39.17,40.31ZM19.59,26.85l18.08,9.49V4.05L19.59,13.54V26.85Z"/><path class="cls-2" d="M45.5,28.26H39.17v-3H44V14.6H39.17v-3H45.5A1.49,1.49,0,0,1,47,13.09V26.75A1.49,1.49,0,0,1,45.5,28.26Z"/></g></g></svg>