<svg xmlns="http://www.w3.org/2000/svg" viewBox="0 0 17.05 13.98"><defs><style>.cls-1{fill:#3f3f3f;}</style></defs><title>Asset 28</title><g id="Layer_2" data-name="Layer 2"><g id="Layer_1-2" data-name="Layer 1"><path class="cls-1" d="M15.53,12.18V0l-.46,0A17.71,17.71,0,0,0,9.65,1.36l-.82.34V13.83l.6-.25A18.59,18.59,0,0,1,15,12.22Z"/><path class="cls-1" d="M17.05,1.8h-.91V12.46a.3.3,0,0,1-.28.3l-.78.07-.67.07-.22,0-.45.06-.26,0-.41.07-.27.06-.38.08-.29.07-.37.1-.28.08-.36.11-.29.1-.36.12-.27.1-.13.05h7Z"/><path class="cls-1" d="M2,0,1.52,0V12.18l.54.05a18.31,18.31,0,0,1,5.6,1.37l.56.23V1.7l-.81-.34A17.85,17.85,0,0,0,2,0Z"/><path class="cls-1" d="M0,1.8V14H7l-.11,0-.26-.1-.37-.13L6,13.62l-.38-.11-.27-.08-.38-.1-.27-.07-.39-.09L4,13.11,3.61,13l-.26,0-.44-.07-.23,0L2,12.83l-.82-.07a.3.3,0,0,1-.28-.3V1.8Z"/></g></g></svg>