<svg xmlns="http://www.w3.org/2000/svg" viewBox="0 0 19.02 16.74"><defs><style>.cls-1{fill:#3f3f3f;}</style></defs><title>Asset 29</title><g id="Layer_2" data-name="Layer 2"><g id="Layer_1-2" data-name="Layer 1"><g id="Speech_Bubble" data-name="Speech Bubble"><path class="cls-1" d="M9.54,0C3.72,0,0,4.11,0,8.16a6.76,6.76,0,0,0,3.3,5.72,3.21,3.21,0,0,1-.93,1.91l-1,.95H2.77a5,5,0,0,0,3.57-1.52,13.12,13.12,0,0,0,3.2.41c6.14,0,9.48-3.78,9.48-7.83S15.71,0,9.54,0Zm5.83,10.63a.53.53,0,0,1-.38.16H4.29a.54.54,0,0,1-.54-.54.53.53,0,0,1,.16-.38.55.55,0,0,1,.38-.15H15a.54.54,0,0,1,.54.53A.53.53,0,0,1,15.37,10.63Zm0-2.23a.56.56,0,0,1-.38.15H4.29A.54.54,0,0,1,3.75,8a.53.53,0,0,1,.16-.38.51.51,0,0,1,.38-.16H15a.54.54,0,0,1,.54.54A.53.53,0,0,1,15.37,8.4Zm0-2.31a.53.53,0,0,1-.38.16H4.29a.54.54,0,0,1-.54-.54.53.53,0,0,1,.16-.38.55.55,0,0,1,.38-.15H15a.54.54,0,0,1,.54.53A.53.53,0,0,1,15.37,6.09Z"/></g></g></g></svg>