<svg xmlns="http://www.w3.org/2000/svg" viewBox="0 0 13.2 13.65"><defs><style>.cls-1{fill:#3f3f3f;}</style></defs><title>Asset 30</title><g id="Layer_2" data-name="Layer 2"><g id="Layer_1-2" data-name="Layer 1"><path class="cls-1" d="M13,13.65H.23A.23.23,0,0,1,0,13.52a.21.21,0,0,1,0-.24L5.62,6.83.06.38A.23.23,0,0,1,0,.13.23.23,0,0,1,.23,0H13a.23.23,0,0,1,.23.23V3.64a.23.23,0,0,1-.23.23H11.38a.23.23,0,0,1-.23-.23V2.05H4.8L8.6,6.68A.26.26,0,0,1,8.6,7L4.8,11.6h6.35V10a.23.23,0,0,1,.23-.23H13a.23.23,0,0,1,.23.23v3.41a.23.23,0,0,1-.23.23Z"/></g></g></svg>