<svg xmlns="http://www.w3.org/2000/svg" viewBox="0 0 39.11 50.75"><defs><style>.cls-1{fill:#7ec3e4;}</style></defs><title>Asset 9</title><g id="Layer_2" data-name="Layer 2"><g id="Layer_1-2" data-name="Layer 1"><path class="cls-1" d="M19.56,0A19.58,19.58,0,0,0,0,19.56c0,7.71,3.23,15.5,9.33,22.54a49.15,49.15,0,0,0,9.27,8.36,1.67,1.67,0,0,0,1,.29,1.71,1.71,0,0,0,1-.29,49.27,49.27,0,0,0,9.26-8.36c6.11-7,9.33-14.83,9.33-22.54A19.57,19.57,0,0,0,19.56,0Zm0,26.81a7.51,7.51,0,1,1,7.51-7.51A7.51,7.51,0,0,1,19.56,26.81Z"/></g></g></svg>