<svg xmlns="http://www.w3.org/2000/svg" viewBox="0 0 46 46"><defs><style>.cls-1{fill:#7ec3e4;}</style></defs><title>Asset 7</title><g id="Layer_2" data-name="Layer 2"><g id="Layer_1-2" data-name="Layer 1"><path class="cls-1" d="M41.22,28a26.32,26.32,0,0,1-4.73-1,5.38,5.38,0,0,0-5.41,1.34l-2.94,2.94A33.92,33.92,0,0,1,14.73,17.86l2.94-2.94A5.38,5.38,0,0,0,19,9.51a26.32,26.32,0,0,1-1-4.73A5.39,5.39,0,0,0,12.66,0H5.4A5.42,5.42,0,0,0,0,5.42c0,.16,0,.33,0,.49a44,44,0,0,0,4.1,14.94,44.31,44.31,0,0,0,8.71,12.32,44.31,44.31,0,0,0,12.32,8.71A44,44,0,0,0,40.09,46,5.42,5.42,0,0,0,46,40.6V33.34A5.39,5.39,0,0,0,41.22,28Z"/></g></g></svg>