<svg xmlns="http://www.w3.org/2000/svg" viewBox="0 0 1922.78 917"><defs><style>.cls-1{fill:#213f70;}.cls-2{fill:#fdc80a;}.cls-3{fill:#136bb0;}.cls-4{fill:#23a5c4;}.cls-5{fill:#fff6dc;}.cls-6{fill:#2cae88;}.cls-7{fill:#0c1320;}.cls-8{fill:#131f33;}.cls-9{fill:#eb614b;}.cls-10{fill:#eb6446;}.cls-11{fill:#f7a81f;}.cls-12{fill:#0b5c99;}.cls-13{fill:#10809b;}.cls-14{fill:#e1d4ae;}.cls-15{fill:#d55234;}.cls-16{fill:#049d78;}</style></defs><title>banner_1</title><g id="Layer_2" data-name="Layer 2"><g id="Layer_1-2" data-name="Layer 1"><rect class="cls-1" width="1920" height="897"/><path class="cls-2" d="M1471.69,341.46c-.87-17.76-1.59-35.78-2.41-53.42-.39-8.4-.67-26.52-11-28.4-10.12-1.86-17.54,11.48-19.61,19.61-2.48-8.63-7.85-39-23-33.7-13.8,4.84-5.38,35,.68,42.49-12.14-3.33-26.3-5.3-27.05,10.29-.83,17,9.32,35.45,16.06,50.58,5.72,12.85,5.6,34.73,17.07,43.23,8.71,6.46,28.2,1.67,38.55,2.07,2.47.09,6.31-.68,8.79-.68-1.93-6.17-.14-13.66.67-20.12A184.26,184.26,0,0,0,1471.69,341.46Z"/><path class="cls-3" d="M1447.18,366.09a225.81,225.81,0,0,0-4.8-26.59c-.8-3.32-1.46-6.67-2.08-10,3.9-14.6,8.41-28.67,9.78-43.87a.26.26,0,0,0-.5-.07c-2.65,13.16-6.75,25.82-10.22,38.7-.82-4.61-1.67-9.22-2.81-13.77-2.42-9.67-7-19.09-8.7-28.86-.11-.63-1.16-.48-1.12.15.58,8.23,3.77,16,5.78,24,1.61,6.38,2.79,12.93,4.15,19.41-2.19-1.76-4.44-4.43-6.29-6.2-4.68-4.47-9.33-9.21-13.72-13.92a.47.47,0,0,0-.79.46,7.34,7.34,0,0,0,1.86,3.44c2.47,2.67,5,5.28,7.51,8,3.77,4.1,8,7.71,12.11,11.38.14.66.3,1.31.46,2l0,.11a1,1,0,0,0,.29,1c.38,1.57.77,3.13,1.21,4.68,2.36,8.42,3.63,18.43,4.8,27.36-2.11-2.93-5.33-5.11-7.71-7.91-3.09-3.61-8-5.07-11.4-8.24-.54-.5-1.34.3-.81.81,3.06,3,6.85,5,10.12,7.75,1.9,1.59,3.12,3.93,5,5.58a15.42,15.42,0,0,1,4.17,4.91.85.85,0,0,0,1.1.47c1.43,10.1,4.65,19.95,6.41,30.07.23,1.29,2.13.9,2.18-.29C1453.59,385.9,1448.37,376.46,1447.18,366.09Z"/><path class="cls-2" d="M1781.85,347.28c4.91-17.21-13.83-7.21-20.81-2.71,3.92-5.92,16.25-37,6.76-40.42-10.56-3.79-23.14,28.64-25,35.69-1.85-6,.51-13.59-3.51-18.92-3.91-5.16-9.45-6-12.9-.69-5.88,9.11-3.2,25.41-3.2,35.84-2.17-5.9-8.82-19.52-16.43-8.12-4.79,7.19-1,25.92-.32,34,.92,11.79,5.42,43.43,22.16,42.44,14.86-10.94,34.44-16.52,42.08-34.34,5-11.78,1.43-21.48-8.09-18.68C1771.16,365.66,1779.39,355.92,1781.85,347.28Z"/><path class="cls-3" d="M1769.32,350.89c-4.6.83-8.65,5.81-12.11,8.75-2.75,2.33-5.73,3.59-9,5a34.87,34.87,0,0,0-5.36,3.21c1.34-3.81,2.6-7.66,3.66-11.62s3.61-7.17,5-11c1.07-3.09,1.56-6.77,3.33-9.55a.17.17,0,0,0-.27-.21c-7.65,7.92-10.53,21.07-14.1,31.13l-1.2,3.29,0,0a.31.31,0,0,0-.14.48c-.42,1.14-.85,2.27-1.28,3.4.37-11.16-3.79-22.95-4.55-33.8a.54.54,0,0,0-1.08,0c-.22,7,.39,14,.56,21,.09,3.69,1.74,7.13,1.79,10.93a17.37,17.37,0,0,0,1.2,7.25q-3,7.61-6.47,15a53.15,53.15,0,0,0-1.1-9.64c-1.12-5.15-2.82-10-4.09-15a.72.72,0,0,0-1.41.19c0,4.43,1.62,8.68,2.08,13.09.62,6,1.39,11.56,1.48,17.61-2,4-4.16,8-6.49,11.85-1.12,1.87,1.9,3.61,2.9,1.7,2.19-4.18,4.28-8.35,6.33-12.53a1.33,1.33,0,0,0,.14-.19c6.46.83,11.25-2.32,16.68-5.61,5.9-3.57,11.25-5.91,16.48-10.66.51-.46-.15-1.3-.73-.94-4.55,2.81-8.79,6.28-13.64,8.57-2.51,1.18-4.83,2.59-7.25,3.93-3.58,2-6.91,2.54-10.78,3.06,3.49-7.23,6.76-14.55,9.6-22.21.89-2.42,1.77-4.82,2.64-7.22a11.22,11.22,0,0,0,2.21-1.35c3-2.19,6.47-3.31,9.82-4.8a26.67,26.67,0,0,0,5.73-4.11c2.58-2.12,6.64-6.81,9.82-7.74A.6.6,0,0,0,1769.32,350.89Z"/><path class="cls-4" d="M1610.28,357c-11.14.39-27.14-12.47-35.13-19.1-11.88-9.85-17.32-24.05-24.23-37.68-14.6-28.78-11.91-71.17-6.2-102.13a96.93,96.93,0,0,1,5.37-18.94c14.52,1.44,33.13,19.63,42.61,29.72,10.14,10.79,16.27,26.79,20.43,41.1,8.62,29.61,11.44,72.49-.66,100.94C1611.54,353.12,1611.06,354.92,1610.28,357Z"/><path class="cls-5" d="M1613.73,341.84c-6.15-7.61-9.29-20.44-12.59-29.53a122.23,122.23,0,0,1-4.12-15.77c.75-2.56,2.12-5.15,2.9-7.67.46-1.45,1.42-4,2-5.46,2.1-5.14,4.19-10.81,5.75-16.09.22-.76-.89-1-1.17-.32-2,5.32-4.49,10.95-6.82,16.2-.7,1.57-1.44,3.41-2,5.06a41.56,41.56,0,0,1-1.67,3.9,70.18,70.18,0,0,0-4.41-13.61,80.87,80.87,0,0,1-4.69-13.55,1.09,1.09,0,0,0,1-.83c2.4-8.28,7.11-15.77,8.54-24.39a.35.35,0,0,0-.67-.18c-1.66,4-3.44,8.27-5.35,12.19a74.64,74.64,0,0,0-4.28,10.1c-1.54-6.37-2.77-12.81-4.63-19.19-1.23-4.22-2.37-8.82-4.66-12.6-2.57-4.24-6.31-10.53-7.58-15.3-.19-.7-1.34-.57-1.28.17a18.45,18.45,0,0,0,3,8.79c3.77,6,5.74,13,8.12,19.59a101.93,101.93,0,0,1,3.73,14.66c-3.43-2.8-7.27-5.25-10.64-8.15-1.91-1.64-4.12-3-6.08-4.56s-5-2-7.12-3.69c-.32-.26-.92.09-.62.48a12.32,12.32,0,0,0,3.08,2.81c2.26,1.55,4.37,3.37,6.65,4.87,3,2,5.64,4.45,8.45,6.66,2.09,1.63,4.67,3.22,6.57,5a1.19,1.19,0,0,0,.46.28,74.58,74.58,0,0,0,4.72,16c.85,1.89,1.57,3.81,2.23,5.76-.86-.38-1.75-.7-2.54-1.06-5-2.24-9.84-5.05-14.63-7.61-.7-.37-1.49.56-.87,1.12a48.64,48.64,0,0,0,9.11,6.31c1.81,1,3.62,2.06,5.5,2.94,1.21.56,3.92,1.14,4.3,2.71a1.25,1.25,0,0,0,.72.92c2.64,9.84,3.93,20.06,7.67,29.53,3.14,7.93,5.75,19.6,11.63,25.79C1612.92,345.63,1615,343.41,1613.73,341.84Z"/><path class="cls-6" d="M1048.2,448.46c-14.65-2.39-31.36-26.95-37.61-38.91-8.89-17-20.05-34.6-17.65-54.54,1.47-12.15,11.52-30.34,22-36.74,12.58-7.67,23.08-2.58,35.38,1.7s20.38,13,29,22.75c7.46,8.48,17.45,22,30.26,17.53s10-19.21,16.86-28.25c6.64-8.79,18-15.38,29.28-13.56,20,3.22,29.42,32.84,51.83,18.4,9.06-5.84,19.93-8.54,30.31-4,7.08,3.1,22.16,14.63,20.61,23.36l-130,126.42c-5.75,2.94-18.26-4.66-23.15-7.67-9.75-6-18.91-12.7-28.81-18.44C1066.07,450.46,1060.23,450.41,1048.2,448.46Z"/><path class="cls-5" d="M1177.47,348.83a9.47,9.47,0,0,0-2.34,3.95c-1,3.24-3.16,5.55-5,8.37-1.58,2.47-2.42,5.36-4,7.86a26.64,26.64,0,0,1-2.46,3.1c-.9-3-1.83-6-2.69-8.91-2.22-7.53-7.82-17.7-8.13-25.56a.9.9,0,0,0-1.8,0c0,5.71,2.29,10.6,4,15.92,2.51,7.64,4.67,15.43,6.71,23.2.65,2.48,1.23,4.94,1.79,7.41-7.11-5.93-14.81-11.24-21.54-17.72a.84.84,0,0,0-1.21,1.17c7.4,8.14,15.51,14.52,23.83,21.52.65,3.15,1.27,6.3,1.87,9.49,1.32,6.94,4.22,13.35,4.4,20.48,0,1.36,2.23,1.82,2.46.35.7-4.56-.46-7.54-1.49-11.94-1.43-6.15-2.83-12.22-4.08-18.38a1.25,1.25,0,0,0-.3-1.53c-.16-.79-.32-1.57-.47-2.35-.67-3.56-1.62-7.11-2.65-10.64a45.12,45.12,0,0,0,6.85-10.46c1.31-2.81,3.34-5.09,4.93-7.72,1.26-2.1.86-4.75,2.13-6.86C1178.72,349,1177.92,348.34,1177.47,348.83Z"/><path class="cls-5" d="M1058.48,340.24a6.86,6.86,0,0,0-.86,3.66,25.26,25.26,0,0,1-1.65,8.42,27.85,27.85,0,0,0-2,6.68,23.08,23.08,0,0,1-.85,3.32c-2.68-4.67-5.29-9.37-8-14s-5.85-12.28-10.74-15.24a.69.69,0,0,0-.94.92c6.5,11.06,12.61,22.39,19.23,33.43-2.1-.93-4.29-1.81-4-1.68a97,97,0,0,0-9.23-3.24c-4.25-1.42-10.37-5.44-15-3.47-.62.27-.24,1.07.28,1.13,4.73.6,9.61,3.2,14,4.94,5.48,2.18,11.35,3.56,16.51,6.5.85,1.38,1.7,2.75,2.58,4.11,1.38,2.16,2.71,4.37,4,6.62-2.12-1-4.24-2-6.3-3.18-3.58-2-7.73-4.63-12-4.8-.81,0-.79,1.15,0,1.24,4.34.48,8.72,4.28,12.37,6.38,2.7,1.55,5.48,3,8.25,4.44,6.12,10.77,12,22,19.84,31.21,1,1.12,2.75-.27,2-1.51-5.07-8.95-10.49-17.78-16-26.54a1.14,1.14,0,0,0,1.07-2l-.07-.05a64.1,64.1,0,0,0,4.33-10.25,44.65,44.65,0,0,1,3.36-6.92c1-2,1.22-4.46,2.53-6.35.21-.3-.27-.68-.52-.4-5.7,6.5-8.11,14.87-12.19,22.3-.44-.27-.87-.53-1.31-.78q-4.28-6.76-8.56-13.51c-.22-.34-.42-.69-.63-1a1.47,1.47,0,0,0-.87-1.42c-.65-1.06-1.32-2.12-2-3.19.23-1.16,0-2.3.33-3.62.6-2.36,1.27-4.7,1.8-7.08s1.55-4.7,2-7.2c.4-2.09-.66-5.33.4-7.07C1060.27,340.17,1059,339.45,1058.48,340.24Z"/><path class="cls-7" d="M1353.22,631.5c-44.49,28.89-97.7,45.2-151.08,31.23-34.22-9-64.49-26.62-84.67-55.89a123.76,123.76,0,0,1-13.31-25.34c-10.41-26.74-12.6-56.66-14.28-85.84-6.13-107,82.08-144.56,94.8-148.54,13.91-4.34,27.77-4.58,42.17-5.94,31.85-3,60.2.24,90.83,9.25.36.08.71.2,1.07.3,53.2,15.81,77.66,88.21,86.45,136.94C1415.64,545.57,1404,598.52,1353.22,631.5Z"/><path class="cls-8" d="M1285.54,561.11c-44.49,28.91-97.7,45.22-151.07,31.22a179.35,179.35,0,0,1-30.31-10.83c-10.41-26.74-12.6-56.66-14.28-85.84-6.13-107,82.08-144.56,94.8-148.54,13.91-4.34,27.77-4.58,42.17-5.94,31.85-3,60.2.24,90.83,9.25,9.92,22.56,16.23,46.74,19.86,66.86C1348,475.19,1336.32,528.12,1285.54,561.11Z"/><path class="cls-9" d="M1213.75,466.83c19.28-16.51,54.16-7.67,66.63,2.29,17.34,13.85,22.11,37.09,16.53,58.68-13,50.15-90.52,44.48-99.89-4.32C1192.74,501.15,1197.09,481.1,1213.75,466.83Z"/><path class="cls-8" d="M1244.35,498.75c8.43-10.82,23.3,9.05,10.55,17.72C1241.17,525.81,1234,501.4,1244.35,498.75Z"/><path class="cls-5" d="M1320.6,472.8c-3.2-5.71-4.34-11.23-8.22-16.69-4-5.62-8.45-11.29-13.66-15.81-8.41-7.29-19.91-11.46-30.51-14.26a.67.67,0,0,0-.36,1.29,109.35,109.35,0,0,1,26,14.12c5.86,4.34,10.47,11,14.54,17,3.66,5.38,4.78,11.35,8,16.83C1318,478,1322.15,475.57,1320.6,472.8Z"/><path class="cls-5" d="M1340.67,465.9c-3.88-7.87-8.22-15.42-11.9-23.39-2.74-5.92-8.28-14.44-13.33-18.44-10.5-8.32-21.2-21.22-36.09-20.65a.62.62,0,0,0-.16,1.21c12.44,2.95,28.63,14.7,35.77,25.5,3.8,5.77,8.11,11.19,11,17.54,3.17,7,6.2,15.07,11.81,20.47A1.86,1.86,0,0,0,1340.67,465.9Z"/><path class="cls-5" d="M1352.33,449.83c-3.4-4.57-5.19-15.08-7-20.6-2.13-6.44-6-11.77-10.66-16.61-6.16-6.45-12.44-12.78-19.79-17.86-4-2.8-8.31-7.12-13.44-6.23-2.33.4-1.86,3.59,0,4.25,13.33,4.7,23.34,17.79,32.88,27.34,5.28,5.28,8.84,12.31,11.46,19.32,1.55,4.16,2.13,8.12,4.91,11.67C1351.41,452.06,1353.05,450.79,1352.33,449.83Z"/><path class="cls-5" d="M1353.93,406.74c-4.14-6.09-8-12.35-13.23-17.6-7.83-7.91-17.52-13.95-27-19.75-.87-.53-1.6.78-.79,1.34,7.22,5,15.25,11.19,21.16,17.69,4.51,5,8.76,9.54,12.49,15.22,3.91,6,10.17,12.63,12.74,19.3a1.42,1.42,0,0,0,2.77-.37C1362.82,416.64,1357.09,411.38,1353.93,406.74Z"/><path class="cls-5" d="M1247.71,592.5c-14.49-2.35-30-12.48-40.69-22.24-6.25-5.7-12.29-11-17.18-18a30.7,30.7,0,0,0-7.57-7.38c-1.27-.86-2.53.77-2,2,6.15,12.43,17.11,21.78,27.63,30.67,10.23,8.65,25.58,18.2,39.49,17C1248.48,594.37,1248.89,592.69,1247.71,592.5Z"/><path class="cls-5" d="M1221.56,608c-8.32-6.89-17.8-12.15-26.35-19-4.27-3.4-7.64-7.43-11.11-11.59-4.41-5.29-10.71-13.3-12.12-20.22a.75.75,0,0,0-1.47.2c.8,11.11,9.84,22.13,17.07,30.1,7.39,8.15,21.85,20.36,32.76,22.58C1221.46,610.34,1222.6,608.88,1221.56,608Z"/><path class="cls-5" d="M1214.27,624c-6.06-2.89-12.26-5.55-18.16-8.77-7.91-4.32-12.6-12.19-19.69-17.4-4.7-3.46-8.82-8.71-12.94-12.87-2.55-2.57-6-5.3-7.91-8.42a.91.91,0,0,0-1.65.7c1.18,4.29,4.45,6.3,6.89,9.78,3,4.34,7.33,9.64,11.54,12.88,7.7,5.91,13.26,13.86,21.47,19.26,4.92,3.25,13.88,9,20.07,7.77A1.61,1.61,0,0,0,1214.27,624Z"/><path class="cls-5" d="M1206.84,639.83c-10.15-5.18-20.51-9.11-30.2-15.65-5-3.4-8.87-7.89-13.73-11.39-5.71-4.12-9.7-9.11-14.79-13.69-.62-.56-1.7.17-1.2.92a107.9,107.9,0,0,0,24.86,26c8.87,6.64,22.87,17.81,34.78,15.93A1.15,1.15,0,0,0,1206.84,639.83Z"/><path class="cls-2" d="M1396.37,418.37c-3.41.09-10.14-6.59-12.65-8.92-5.84-5.43-10-13.55-12.06-21.28-2.55-9.67-2.74-26.67,4.86-34.3C1395.81,367,1416.22,398.07,1396.37,418.37Z"/><path class="cls-8" d="M1398.24,416.38c-2.49-8.6-3.39-17.73-5.8-26.48-2.25-8.2-7.46-14.07-10.79-21.51-.31-.69-1.3-.28-1.33.36-.11,2.43,1.3,3.25,2.29,5.69,2.27,5.62,4.87,10.51,6.15,16.47,1.92,8.95,2.44,18,4.83,26.75C1394.41,420.65,1399.1,419.37,1398.24,416.38Z"/><path class="cls-3" d="M1922.78,469.78V917H1265.57V645.73c5.09-3.8,13-12.47,17.89-16.38-8.27-14-3-50.33,8.49-61.52,14.26-13.92,39.41-13.35,55.34-4.37-6-16.12,7.73-26.72,22.65-26.77-18.1-17.08-7.11-54.51,11.55-67.69,20.71-14.61,46.92-8.34,67.72,1.81.31.15-.35-1,0-1Z"/><path class="cls-2" d="M1217.62,373.39c-3.74-.43-6.54-2.46-10.07-3.71-2-.72-3.51-.73-5.31-1.93a5.52,5.52,0,0,0-.31-.8c-.21-1.57-1-2.94-2.79-2.94a2.9,2.9,0,0,0-2.19,1.07,3.79,3.79,0,0,0-1.82,2.87,5.47,5.47,0,0,0-.16,2.63c-.31,2.9.59,5.62,3.64,6.46,1.29.37,3.22,0,3.87-1.36a6.47,6.47,0,0,0,.36-3.9c2,.76,4,1.31,6,2.27,3.12,1.56,5.15,3.26,8.81,3A1.82,1.82,0,0,0,1217.62,373.39Z"/><path class="cls-2" d="M1223.28,360c-4.47-.91-8.16-4.12-12.21-6.11l-.82-.41a7.4,7.4,0,0,0-.15-1.65c-.28-1.29-.57-2.36-2-2.63l-.5-.07a3.84,3.84,0,0,0-1.23-.65c-.07,0-.12-.09-.2-.13a2,2,0,0,0-2,.16,3.64,3.64,0,0,0-1.61,1.1,5.69,5.69,0,0,0-2.9,2.23c-.73,1.11-.24,2.65-.1,3.85a.5.5,0,0,0,.73.41,4.43,4.43,0,0,0,1.45,3.41,4.78,4.78,0,0,0,6.58-.57,7,7,0,0,0,1.3-2.25c.65.45,1.28.88,1.87,1.23,3.55,2.12,6.46,5.17,10.71,5.81C1224.66,364.06,1225.76,360.47,1223.28,360Z"/><path class="cls-2" d="M1234.54,342.69c-4.16-1.44-8.26-2.52-12.2-4.62-.56-.29-1.14-.63-1.74-.95a3.58,3.58,0,0,0-3.26-4.35,1.72,1.72,0,0,0-.85-.28,5.19,5.19,0,0,0-5,2.79,9.26,9.26,0,0,0-.77,4.8,3.72,3.72,0,0,0,1.33,3c0,.12,0,.24.07.36a1.58,1.58,0,0,0,1.13,1.13,3.66,3.66,0,0,0,3.69-1.57,6.14,6.14,0,0,0,1-.69,7.72,7.72,0,0,0,1.76-2.34,48.37,48.37,0,0,0,4.24,2.71c3.12,1.56,6.65,3.26,10.18,3.31C1236.08,346.05,1236.3,343.3,1234.54,342.69Z"/><path class="cls-2" d="M1241.55,324.28a5.05,5.05,0,0,0-2.88-2.41c-2-.6-3.61-1.9-5.46-2.82s-3.81-2.23-6-3.28a4.42,4.42,0,0,0,.1-.5c.2-2.16-.82-4-3.09-4.19-1.92-.17-4.36,1.31-5.6,3.22a10.69,10.69,0,0,0-1.68,2.36c-1.29,2.37-2.62,6.71.17,8.58,2.61,1.74,5.33-.91,6.87-2.82.44-.54.85-1.1,1.23-1.67,1,.64,2.07,1.21,3,1.7a49,49,0,0,1,5.23,2.86c1.11.78,3.06,1.17,3.9,2.19C1239.31,329.82,1243.23,326.77,1241.55,324.28Z"/><path class="cls-10" d="M1297.28,828.94c-26.94,14.85-65.49,13-94.11,4.56-26.64-7.83-54.9-23.14-56-54.1-.58-16.43,2.91-31,7.21-46.68,3.81-13.94,10.46-27.61,11.05-42,.81-20.1-13.51-35.94-15.29-54.77-.84-8.89,0-18.79,7.56-24.43a18.3,18.3,0,0,1,5-2.63,12.31,12.31,0,0,1,15.42,7.4c2.42,6.33,8.44,17,21.43,21.22,6.85,2.25,15.68,2.72,27-.18,11-2.84,20,11.26,31.58,13.39,4.83.91,12.28,1.72,16.88,0s7.2-6.21,11.18-8.6a22.14,22.14,0,0,1,7.22-2.9c8.4-1.71,15.32,3.12,16,13.59.73,11.74-4.63,23.73-6.37,35.12-4.06,26.51,7.16,46.66,15.34,70.92C1326.9,784.31,1323.51,814.45,1297.28,828.94Z"/><path class="cls-5" d="M1304.07,780.88c-5.74,11-18.36,11.24-29.31,10.69-22.58-1.16-53.7-4.52-67-25.05-15-23.27-3.87-47-2.86-71.92.47-11.44-1.56-22.11-4.73-32.56-2.82-9.37-2-16.35-.62-24.49,6.85,2.25,15.68,2.72,27-.18,11-2.84,20,11.26,31.58,13.39,4.83.91,12.28,1.72,16.88,0s7.2-6.21,11.18-8.6a22.14,22.14,0,0,1,7.22-2.9,23.64,23.64,0,0,1,1.75,5.86c2,12.27-.59,24.16-2.78,35.95-4.36,23.45-11.34,43.27.89,65.61C1298.43,756.19,1309.75,770.07,1304.07,780.88Z"/><path class="cls-3" d="M1283.57,770.54c5.44-6.38,20.25,3.47,13.56,10.9C1290,789.33,1276.51,778.83,1283.57,770.54Z"/><path class="cls-3" d="M1266.62,755c1.87-7.78,16.58,1.21,13.08,8.28C1275.1,772.51,1264.77,762.6,1266.62,755Z"/><path class="cls-3" d="M1267.29,731.22c2.34-7.56,12.44-.51,10.21,5.46C1275.12,743,1265,738.78,1267.29,731.22Z"/><path class="cls-3" d="M1213.73,679.69c7-1.68,14.91-2.05,22.37-2,5.46,0,20.55-.2,10.85,8-4.51,3.81-16,3.7-21.69,4.22-2.93.26-8.53.86-10.89-1.18C1211.7,686.37,1209.86,680.61,1213.73,679.69Z"/><path class="cls-3" d="M1216,710.62a6.38,6.38,0,0,1,6.24-6.62c6.92-.17,13.81-.51,20.61-.58,7.83-.08,13.77,8,6.79,14.44-4.51,4.16-19.25,2.06-25.1,1.83C1215.56,719.34,1216.28,716.28,1216,710.62Z"/><path class="cls-3" d="M1214.41,736c1.06-1.92,17.16-.67,21.69-.67,6.71,0,19-.12,14.26,10.84-2.44,5.63-17.27,5.43-23.07,6.07C1215.65,753.49,1208.7,746.32,1214.41,736Z"/><path class="cls-3" d="M1209,773.93c.51-1.15,24.2-2,28.48-2,7.83,0,21.83,5.9,14.07,16.82-4.69,6.59-21.77,3.52-29,3.52-3.91,0-11.9,1.4-14.76-1.51S1207.47,777.4,1209,773.93Z"/><path class="cls-2" d="M1216,666.18l29.56,1.5-5-269.92,13.91-16.35a15,15,0,0,0,2.27-15.74,94.1,94.1,0,0,1-7.1-33.14c4.94-4.84,15.1-16.32,7.64-24.56-9.43-10.42-18.78,2.89-22.39,10.85-5.25,11.53-8.28,23.7-13.73,35.24-4.59,9.71-9.46,18.78-12.21,28.64-3.48,12.52,11.57,13.25,17,19Z"/><path class="cls-5" d="M1883.43,527.57c0,1.7.1,3.39.18,5.09s.21,3.24.36,4.84v0c1.19,11.23,4.37,22.13,5,33.34.87,16.57.35,41-15.93,50.75-15,9-35,8.71-51.82,8.69-11.25,0-31.47,2.77-37.69-9.31-3.46-6.7-3-17.77-2.81-27,0-.9,0-1.77.06-2.6,0-1.73,0-3.33-.08-4.83L1779,551.48c-.13-2.78-.28-5.55-.42-8.33,0-.87-.1-1.74-.16-2.61-.55-9.54-1.23-19.08-1.93-28.57l-.17-2.31c-.56-7.71-1.12-15.38-1.61-23-.06-.85-.12-1.7-.16-2.53-.08-1.38-.17-2.74-.25-4.11-.37-6.28-.68-12.52-1-18.77l-.11-2.53q-.51-11.49-.9-22.89c0-.85-.07-1.68-.07-2.53-.39-11-.72-22.06-1-33.1,0-.59,0-1.17-.06-1.76q-.27-9.53-.56-19.09c0-.85,0-1.72-.08-2.59q-.35-11.39-.77-22.81c0-.88,0-1.75-.08-2.62-.21-6-.47-12-.75-18-.07-1.58-.14-3.18-.2-4.76,0-.87-.08-1.77-.1-2.64-.33-8.43-.55-16.85-.76-25.29,0-.63,0-1.28-.05-1.91-.2-8.88-.37-17.77-.62-26.65,0-.88,0-1.77-.06-2.66-.19-7.59-.44-15.19-.79-22.75v-.34c0-.69-.09-1.48-.17-2.33-.5-5.5-1.82-13.93-2.55-22.77l-.18-2.59c-1.13-17.4.66-35.45,16.15-35.5,10.25,0,20.07.11,30.16-1.37,11.35-1.64,20.92-2.47,32.37.44,10,2.56,21.68,12.26,25.18,23.33.24.78.46,1.58.62,2.37a51.12,51.12,0,0,1,.85,8.71c.15,4.76,0,9.64.9,14.4v0c.3,1.65.62,3.32.94,5,1.55,8.09,3.24,16.26,3.91,24.41,1.9,23.23-.47,46.69,1.79,70.07,1.82,18.78,1.79,37.2,4,56,1,8.1-1.31,17.05-.92,25.51l1.35,29.3c.93,20.12,1.09,40.36,2.08,60.34,0,1.14.1,2.25.13,3.37,0,.56,0,1.15.06,1.72C1883.28,513.75,1883.25,520.63,1883.43,527.57Z"/><path class="cls-8" d="M1884,506.6l-1,.17c-8.88,1.55-18.22,1.25-27.2,1.62q-15,.66-30,1.3c-16.31.72-33,2.25-49.38,2.28l-.17-2.31c16.38-1.5,33.12-1.48,49.45-2.28l30-1.46c9-.46,18.26-1.62,27.25-.87.33,0,.63,0,.94.06A.78.78,0,0,1,1884,506.6Z"/><path class="cls-8" d="M1877.27,395.38c-9.86,1.55-20.27,1.2-30.24,1.64q-14.15.66-28.28,1.24c-15.81.67-31.66,1.67-47.49,1.91,0-.59,0-1.17-.06-1.76,16.45-1.27,33-1.75,49.47-2.57q14.13-.7,28.25-1.36c9.32-.45,19-1.67,28.26-1A1,1,0,0,1,1877.27,395.38Z"/><path class="cls-8" d="M1872,295.67c-18.36,2.75-37.57,2.18-56.1,2.91-9.37.39-18.71.76-28.08,1.13-6.56.27-13.26.8-19.9.88,0-.63,0-1.28-.05-1.91,6.6-.52,13.3-.63,19.86-1q14-.75,28.06-1.46c18.52-1,37.6-3.32,56.13-2.24A.83.83,0,0,1,1872,295.67Z"/><path class="cls-8" d="M1819.49,217.59c-4.7,1-9.55.78-14.35,1a45.54,45.54,0,0,0-5.7.61,93.33,93.33,0,0,1-14.24,1.59c-7.2.19-14.36.44-21.55.35l-.18-2.59c7.72-.36,15.43-.11,23.2-.65,6.28-.43,12.55-1.67,18.88-2.41a62.07,62.07,0,0,1,13.83-.3A1.24,1.24,0,0,1,1819.49,217.59Z"/><path class="cls-8" d="M1869.23,205.68c-10.9-1.3-63.74-4.06-64.12,12.1-.3,13.3,22.77,6.73,30.37,6.33,7.36-.4,28.94.14,33.06-7C1870,214.61,1869.37,208.71,1869.23,205.68Z"/><path class="cls-8" d="M1820.67,243c-4.71.95-9.55.78-14.36,1a43.42,43.42,0,0,0-5.69.62,93.61,93.61,0,0,1-14.25,1.6c-6.67.18-13.32.41-20,.37v-.34c0-.69-.09-1.48-.17-2.33,7.2-.27,14.4-.1,21.64-.59,6.3-.46,12.56-1.68,18.88-2.42a61.57,61.57,0,0,1,13.84-.29A1.23,1.23,0,0,1,1820.67,243Z"/><path class="cls-8" d="M1870.4,231.09c-10.89-1.3-63.74-4.06-64.11,12.1-.31,13.3,22.77,6.73,30.36,6.33,7.37-.39,28.94.14,33.06-7C1871.19,240,1870.54,234.12,1870.4,231.09Z"/><path class="cls-8" d="M1821.84,268.41c-4.71.95-9.55.79-14.35,1a45.17,45.17,0,0,0-5.7.63,94.73,94.73,0,0,1-14.25,1.59c-6.79.19-13.54.4-20.31.37,0-.88,0-1.77-.06-2.66,7.26-.29,14.54-.1,21.85-.6,6.29-.45,12.55-1.68,18.87-2.42a62.17,62.17,0,0,1,13.84-.29A1.23,1.23,0,0,1,1821.84,268.41Z"/><path class="cls-8" d="M1871.57,256.5c-10.89-1.3-63.74-4.05-64.11,12.1-.31,13.3,22.77,6.74,30.36,6.33,7.37-.39,28.94.14,33.07-7C1872.36,265.43,1871.71,259.53,1871.57,256.5Z"/><path class="cls-8" d="M1824.45,324.91c-4.71.95-9.55.79-14.36,1a45.22,45.22,0,0,0-5.69.63,97.55,97.55,0,0,1-14.25,1.59c-7.14.19-14.26.43-21.39.36,0-.87-.08-1.77-.1-2.64,7.62-.33,15.27-.09,23-.61,6.3-.45,12.56-1.68,18.88-2.42a62.16,62.16,0,0,1,13.84-.29A1.23,1.23,0,0,1,1824.45,324.91Z"/><path class="cls-8" d="M1874.18,313c-10.89-1.3-63.74-4.06-64.11,12.1-.31,13.3,22.77,6.73,30.36,6.33,7.37-.39,28.94.14,33.06-7C1875,321.93,1874.32,316,1874.18,313Z"/><path class="cls-8" d="M1825.62,350.3c-4.71,1-9.57.81-14.35,1.05a49.19,49.19,0,0,0-5.7.63,96,96,0,0,1-14.25,1.59c-7.2.19-14.35.44-21.53.35,0-.88,0-1.75-.08-2.62,7.68-.35,15.35-.1,23.08-.64,6.3-.43,12.56-1.65,18.88-2.39a62.17,62.17,0,0,1,13.84-.3A1.22,1.22,0,0,1,1825.62,350.3Z"/><path class="cls-8" d="M1875.35,338.41c-10.89-1.3-63.74-4.06-64.11,12.1-.31,13.3,22.77,6.74,30.36,6.33,7.37-.39,28.94.14,33.07-7C1876.14,347.34,1875.49,341.44,1875.35,338.41Z"/><path class="cls-8" d="M1826.79,375.72c-4.71,1-9.57.8-14.35,1a47.3,47.3,0,0,0-5.7.62,96.08,96.08,0,0,1-14.24,1.6c-7.31.19-14.56.42-21.86.33,0-.85,0-1.72-.08-2.59,7.78-.38,15.57-.11,23.41-.66,6.29-.43,12.55-1.65,18.88-2.39a61.48,61.48,0,0,1,13.83-.29A1.22,1.22,0,0,1,1826.79,375.72Z"/><path class="cls-8" d="M1876.52,363.82c-10.89-1.3-63.73-4.05-64.11,12.1-.3,13.3,22.77,6.74,30.36,6.33,7.37-.39,29,.14,33.07-7C1877.31,372.76,1876.66,366.85,1876.52,363.82Z"/><path class="cls-8" d="M1829.4,432.22c-4.71,1-9.57.8-14.35,1a47.08,47.08,0,0,0-5.7.62,96.06,96.06,0,0,1-14.25,1.6c-7.6.18-15.17.45-22.75.31,0-.85-.07-1.68-.07-2.53,8.08-.44,16.16-.14,24.29-.7,6.3-.43,12.56-1.65,18.88-2.39a61.58,61.58,0,0,1,13.84-.29A1.22,1.22,0,0,1,1829.4,432.22Z"/><path class="cls-8" d="M1879.13,420.32c-10.89-1.3-63.74-4.06-64.11,12.1-.31,13.3,22.77,6.73,30.36,6.33,7.37-.39,28.94.14,33.07-7C1879.92,429.25,1879.27,423.35,1879.13,420.32Z"/><path class="cls-8" d="M1830.57,457.63c-4.71,1-9.57.81-14.35,1.05a49.43,49.43,0,0,0-5.7.63,97.42,97.42,0,0,1-14.24,1.59c-7.67.19-15.27.46-22.92.32l-.11-2.53c8.14-.44,16.3-.14,24.5-.7,6.29-.44,12.55-1.66,18.88-2.4a62.07,62.07,0,0,1,13.83-.29A1.22,1.22,0,0,1,1830.57,457.63Z"/><path class="cls-8" d="M1880.3,445.73c-10.89-1.3-63.73-4.05-64.11,12.1-.31,13.3,22.77,6.74,30.36,6.33,7.37-.39,29,.14,33.07-7C1881.09,454.66,1880.44,448.76,1880.3,445.73Z"/><path class="cls-8" d="M1831.74,483c-4.71,1-9.57.81-14.35,1a49.67,49.67,0,0,0-5.7.63,96.06,96.06,0,0,1-14.24,1.59c-7.59.19-15.15.46-22.71.32-.06-.85-.12-1.7-.16-2.53,8.08-.44,16.18-.14,24.34-.7,6.3-.43,12.56-1.66,18.88-2.39a62.07,62.07,0,0,1,13.83-.3A1.22,1.22,0,0,1,1831.74,483Z"/><path class="cls-8" d="M1881.48,471.15c-10.9-1.3-63.74-4.06-64.11,12.09-.31,13.31,22.77,6.74,30.36,6.33,7.36-.39,28.94.15,33.06-7C1882.26,480.08,1881.62,474.17,1881.48,471.15Z"/><path class="cls-8" d="M1834.35,539.54c-4.71,1-9.57.81-14.35,1.05a49.43,49.43,0,0,0-5.7.63,96,96,0,0,1-14.24,1.57c-7.16.19-14.3.44-21.45.36,0-.87-.1-1.74-.16-2.61,7.68-.36,15.34-.1,23.08-.64,6.29-.43,12.55-1.66,18.88-2.39a62.07,62.07,0,0,1,13.83-.3A1.22,1.22,0,0,1,1834.35,539.54Z"/><path class="cls-8" d="M1884.08,527.64c-10.89-1.3-63.73-4.06-64.11,12.1-.31,13.3,22.77,6.74,30.36,6.33,7.37-.39,29,.14,33.07-7C1884.87,536.57,1884.22,530.67,1884.08,527.64Z"/><path class="cls-8" d="M1835.52,565c-4.71,1-9.55.78-14.35,1a49.67,49.67,0,0,0-5.7.63,96,96,0,0,1-14.24,1.57c-7.16.19-14.28.44-21.41.36l-.12-2.61c7.64-.33,15.31-.1,23-.64,6.3-.43,12.56-1.65,18.88-2.39a61.48,61.48,0,0,1,13.83-.29A1.22,1.22,0,0,1,1835.52,565Z"/><path class="cls-8" d="M1885.26,553.05c-10.9-1.3-63.74-4-64.12,12.1-.3,13.3,22.77,6.74,30.37,6.33,7.36-.39,28.94.14,33.06-7C1886,562,1885.4,556.08,1885.26,553.05Z"/><path class="cls-8" d="M1836.69,590.37c-4.7,1-9.54.78-14.35,1a45.22,45.22,0,0,0-5.69.63,97.52,97.52,0,0,1-14.25,1.57c-7.26.19-14.48.44-21.73.35,0-.9,0-1.77.06-2.6,7.7-.36,15.39-.1,23.14-.64,6.3-.44,12.56-1.66,18.88-2.4a61.57,61.57,0,0,1,13.84-.29A1.22,1.22,0,0,1,1836.69,590.37Z"/><path class="cls-8" d="M1886.43,578.47c-10.89-1.3-63.74-4.06-64.11,12.09-.31,13.31,22.77,6.74,30.36,6.33,7.37-.39,28.94.15,33.06-6.95C1887.22,587.4,1886.57,581.5,1886.43,578.47Z"/><path class="cls-11" d="M1920.47,508.92c.8,17.05.26,36.18,1,52.84,1.29,27.82,4.11,62.1-22.36,79.59-17.07,11.26-48,7.55-67.2,5.35-12.14-1.39-24.42-2.08-36.17-6.58-6.26-2.39-14.24-8.48-16.74-15.59a12.23,12.23,0,0,1,.15-9.11c22.9-1,50.56-.12,74.29-4.79,13.2-2.6,20.2-7.26,23-20.77,2.18-10.75.86-24-.23-35.15-2.38-24.75-3.91-50-6.3-74.91-5.11-53.18-5.63-107.54-8.08-160.61-1.17-25.38-.94-50.71-2.12-76.37-1-22.65,4.48-53.47-25.64-53.83-11.41-.12-22.69,2.53-34.34,3-11.8.5-24.22,4.67-35.64,4.44a39.37,39.37,0,0,1-.44-10.92c1.17-9,7.08-13.41,18.75-18.74a122.1,122.1,0,0,1,44.5-10.48c24.5-1.15,45.57-.91,63.18,17.62s14.29,42.57,16.58,66.57c4.52,46.87,3.78,94.73,6.58,141.68,1.62,27.28,4.63,54.58,5.89,82C1919.8,479.14,1919.78,494.11,1920.47,508.92Z"/><path class="cls-2" d="M1897.06,501.25c.75,15.69.14,33.28.84,48.62,1.19,25.6,3.88,57.15-22.67,73.35-17.1,10.43-48,7.1-67.2,5.15-9.72-1-19.49-1.56-29-3.84a12.23,12.23,0,0,1,.15-9.11c22.9-1,50.56-.12,74.29-4.79,13.2-2.6,20.2-7.26,23-20.77,2.18-10.75.86-24-.23-35.15-2.38-24.75-3.91-50-6.3-74.91-5.11-53.18-5.63-107.54-8.08-160.61-1.17-25.38-.94-50.71-2.12-76.37-1-22.65,4.48-53.47-25.64-53.83-11.41-.12-22.69,2.53-34.34,3-11.8.5-24.22,4.67-35.64,4.44a39.37,39.37,0,0,1-.44-10.92,133.2,133.2,0,0,1,41.16-8.46c24.5-1.15,45.57-1,63.1,16s14.12,39.16,16.33,61.23c4.33,43.12,3.44,87.15,6.06,130.37,1.52,25.09,4.43,50.2,5.59,75.41C1896.51,473.84,1896.41,487.61,1897.06,501.25Z"/><path class="cls-3" d="M1868.08,211.36c9.14-5.76,27.09,4.89,16.31,14.9C1875.65,234.38,1857.8,217.84,1868.08,211.36Z"/><path class="cls-3" d="M1868.81,242.25c2.24-9.4,21.36-3.82,17.89,6.24C1883.46,257.91,1866.2,253.17,1868.81,242.25Z"/><path class="cls-3" d="M1870,268.21c-.63-6.23,24.94-1.61,16.19,11.94C1880.08,289.6,1863.87,278.21,1870,268.21Z"/><path class="cls-8" d="M1729,230c-.59,5.29.62,11.4.91,16.78a214.29,214.29,0,0,1,.46,22.24c-.76,16.4-.46,33.2-.46,49.54,0,26.07.61,52.49,3.2,78.12.21,2,.31,3.91.44,5.91a12.67,12.67,0,0,0,4-1c-1-3.5-.13-7.62-.5-11.27-.41-4.09-1.78-8.19-2.17-12.27-.73-7.6-.46-15.42-.46-23.16,0-15.78-.9-31.45-.9-47.24a143.25,143.25,0,0,1,1.38-19.05c.9-6.77-.93-13.64-.93-20.46,0-13.06-.42-26.5-.91-39.06C1732,229.11,1730,230,1729,230Z"/><path class="cls-12" d="M1831.62,289.09c-4.51,13.77-31.33,9.15-41.94,9.94a1.62,1.62,0,0,0-.32,0c-15.42,1.38-31,1.36-46.78,1.36-17.51,0-35-.45-52.79-.45-17.22,0-34.65,1.81-52,2.48a7.17,7.17,0,0,1-4.11-1.1.11.11,0,0,1-.09,0,7.36,7.36,0,0,1-2.19-10.55,42.57,42.57,0,0,1,10.43-9.74c8.5-5.25,19.62-5.72,29-8.19,15.58-4.12,25.91-15.54,38.71-24.53l.3-.2c12.11-8.32,29.46-9.48,41.81-1.6,14.27,9.06,22.2,24.34,40.09,27,8.72,1.3,17.49,1.18,26.23,2.37C1823.76,276.69,1834.42,280.55,1831.62,289.09Z"/><path class="cls-3" d="M1794.31,293.09a11.24,11.24,0,0,1-4.63,5.94,1.62,1.62,0,0,0-.32,0c-15.42,1.38-31,1.36-46.78,1.36-17.51,0-35-.45-52.79-.45-17.22,0-34.65,1.81-52,2.48a7.17,7.17,0,0,1-4.11-1.1.11.11,0,0,1-.09,0,7.36,7.36,0,0,1-2.19-10.55,42.57,42.57,0,0,1,10.43-9.74c8.5-5.25,19.62-5.72,29-8.19,15.58-4.12,25.91-15.54,38.71-24.53l.3-.2a34.7,34.7,0,0,1,4.51,2.39c14.26,9.07,22.19,24.35,40.08,27,8.73,1.31,17.49,1.19,26.25,2.39C1786.46,280.69,1797.11,284.54,1794.31,293.09Z"/><path class="cls-8" d="M1593.84,363a1,1,0,0,1-.35-2c5.27-1.93,7.78-6.69,10.44-11.74a61,61,0,0,1,3.72-6.42,91.39,91.39,0,0,1,6.67-8.21c3.22-3.66,6.26-7.13,8.48-11.25a1,1,0,1,1,1.79,1c-2.33,4.33-5.59,8-8.75,11.63a89.2,89.2,0,0,0-6.52,8,57.9,57.9,0,0,0-3.59,6.21c-2.73,5.16-5.54,10.5-11.54,12.69A1,1,0,0,1,1593.84,363Z"/><path class="cls-8" d="M1566.05,362a1,1,0,0,1-.33-.05c-8.41-2.85-14.76-16.65-19.86-27.74a111.59,111.59,0,0,0-5.38-10.77,1,1,0,0,1,1.72-1.08,109.3,109.3,0,0,1,5.5,11c4.94,10.74,11.09,24.1,18.67,26.67a1,1,0,0,1-.32,2Z"/><path class="cls-8" d="M1524.87,372.29c4-5.42,7.73-15.93,15.44-16.47,25.18-1.75,49.58,2.15,74.12,2.06.91,6.39,5.63,12.34,7.21,18.53C1590.12,376.43,1556.69,372.29,1524.87,372.29Z"/><path class="cls-8" d="M1625.76,689.37c1.13,8,9,19,12.58,26.77,3.8,8.17,6.69,16,10.07,23.68-3.78,0-8.58-1-12.36-1-4.43-8.48-7.83-17.17-11.61-25.73-3.09-7-9-14.58-11-21.63C1616.83,691.43,1622.32,689.37,1625.76,689.37Z"/><path class="cls-8" d="M1526.93,685.26c-7.93,15.77-15.34,32.32-22.65,48.38a88.16,88.16,0,0,1,9.26,3.09c6-15.4,15.86-38.66,28.83-49.41C1537.56,687.32,1531.73,685.26,1526.93,685.26Z"/><path class="cls-8" d="M1501.19,668.78c8.8,16.2,11,23.48,31.91,23.68,16.53.17,32.8,2.21,49.42,3.09,14.76.78,33.9,4.8,48.15,1.83,17.72-3.69,19.33-15.76,24.94-29.62-12,1.43-27.09-3.54-39.38-4.12-13.82-.66-27.7-1-41.72-1C1549.76,662.61,1524.59,669.48,1501.19,668.78Z"/><path class="cls-4" d="M1771.93,616.28c-.93,20-4.83,33.25-20.85,46.07s-32.83,13.82-52.22,14.67c-38.95,1.74-77.58,3.1-116.35,3.08-34.49,0-68.45-5.25-102.93-7-30-1.48-68.33,1-83.4-31.06a62.94,62.94,0,0,1-3.88-10.77c-3.29-12.37-3.33-25.72-3.33-38.69,0-17.34-2.29-34-3.08-50.45-.32-6.8.06-65.16,0-80.3a128.6,128.6,0,0,1,10-49.64c12.82-30.25,48.75-39.56,78.49-42,34.15-2.78,67.38.71,101.92-1,17.57-.87,35.91-.16,53.76-1,16.05-.75,30.13,2.41,46,3.71,1.75.14,3.51.26,5.3.35,30.53,1.54,66.34,3.89,81.57,34.75,7.51,15.19,7.14,34,8,50.69.91,18,2,36.44,1,54.56C1770,547.32,1773.57,581.36,1771.93,616.28Z"/><path class="cls-13" d="M1771.93,616.28c-.93,20-4.83,33.25-20.85,46.07s-32.83,13.82-52.22,14.67c-38.95,1.74-77.58,3.1-116.35,3.08-34.49,0-68.45-5.25-102.93-7-30-1.48-68.33,1-83.4-31.06a62.94,62.94,0,0,1-3.88-10.77c5.07.35,10,.67,14.34.63,79.26-.79,172.95.38,218.88-75.77,30-49.77,65-123,50.53-184.21,1.75.14,3.51.26,5.3.35,30.53,1.54,66.34,3.89,81.57,34.75,7.51,15.19,7.14,34,8,50.69.91,18,2,36.44,1,54.56C1770,547.32,1773.57,581.36,1771.93,616.28Z"/><path class="cls-2" d="M1701.84,428.34a17.54,17.54,0,0,1,15.47-15.89c13-1.58,27.17-3.44,34.27,6.95,8.91,13,6.4,37.39,8,52.81,3.7,35.54,4.5,75.39,1,111.13-1.67,16.89-4.36,33.92-7.16,50.44-1.38,8.14-1.32,13.23-9.49,17.27-5.41,2.68-18.33,4.06-23.68.54-10.54-6.94-10.46-37.22-11.15-48.64-1.1-18.07-.12-36.8-1-54.61-1.15-23.23-1.88-46-3.06-69C1704.27,464.67,1700.54,444.84,1701.84,428.34Z"/><path class="cls-14" d="M1697.82,512.55c0,23,.19,45.85-1,68.73-.87,16.7,1.38,36.19-2,52.51-6.29,30.12-62.5,21.62-87.54,21.62-51,0-100.14-.57-150.31-4.12-27-1.92-36.78-16.43-41.14-36-2.27-10-3.1-21.34-4.12-33a892.24,892.24,0,0,1-3.12-107.87c.59-17.3-1.14-34.81,6.43-50.45,7.43-15.32,25.24-25.26,40.94-30.37,35.68-11.65,78.77-7.91,116.37-5.89,18.09,1,34.42,4.12,52.46,4.12,15.5,0,30.25,2.19,43.94,8.38.79.35,1.58.73,2.37,1.12C1707.7,419.27,1697.82,478.12,1697.82,512.55Z"/><path class="cls-5" d="M1672.24,435.74c0,103.59-89.08,187.56-198.93,187.56a208.66,208.66,0,0,1-57.54-8c-2.27-10-3.1-21.34-4.12-33a892.24,892.24,0,0,1-3.12-107.87c.59-17.3-1.14-34.81,6.43-50.45,7.43-15.32,25.24-25.26,40.94-30.37,35.68-11.65,78.77-7.91,116.37-5.89,18.09,1,34.42,4.12,52.46,4.12,15.5,0,30.25,2.19,43.94,8.38A177.15,177.15,0,0,1,1672.24,435.74Z"/><path class="cls-5" d="M1714.29,483.48c11.73,0,25.91-3.72,36.88-1.88,3.94,15,.61,17.57-14.23,18.35C1727.32,500.46,1707.4,498.77,1714.29,483.48Z"/><path class="cls-5" d="M1714.29,511.33c11.73,0,25.91-3.72,36.88-1.88,3.94,15,.61,17.57-14.23,18.35C1727.32,528.31,1707.4,526.62,1714.29,511.33Z"/><path class="cls-5" d="M1714.29,539.19c11.73,0,25.91-3.72,36.88-1.88,3.94,15,.61,17.57-14.23,18.35C1727.32,556.16,1707.4,554.48,1714.29,539.19Z"/><path class="cls-4" d="M1714.33,578.39a15,15,0,0,1,11-13.55c5.11-1.45,10.52-2.84,14.7-1.11,9.13,3.77,6.81,13.25,7.21,21.67.58,12.2,7.44,37.31,1,48.33-11.15,19.12-26.28-5.55-29.07-16.42C1716.74,607.8,1713.7,591.43,1714.33,578.39Z"/><path class="cls-9" d="M1715.32,432c9.9-18.21,46,9,30.11,29.11C1728.38,482.69,1705.85,449.44,1715.32,432Z"/><path class="cls-8" d="M1772.18,628.81c4.29-3.81,9.85-4.87,14-10.4,3.21-4.29,5.62-10.19,7.18-15.33s1.84-11.29,2.12-16.83c.21-4.27-1.42-13.11-6.37-6.48-.29-4.49-1-23.5-7.42-11.38-.66-3-.08-9.84-3.94-11-3.45-1-6.16,4.38-7.57,7.1q0,.56.06,0c-1-2.65.7-11.53-3.1-12.82-3.53-1.19-6.24,6.75-7.94,8.74-3.16-2.06-4.65-6-7.8-8.39-2,1.54-2.19,4.55-2.55,6.91-4.09.43-5.53-9.31-10.33-8.24-3.57.79-4.88,9.88-5,12.69-3.27-.31-6.37-6-9.82-5.38s-2.8,5.93-3.56,8.83c-3.82.26-7.16-5.25-10.67-1.79-1.94,1.9-2.1,8.65-2.49,11.28-1.07,7.16-1.2,15.61,3,21.76,4.7,6.92,15.55,13.14,23.17,16,4.26,1.6,8.72,2.17,12.81,4,3.86,1.69,7.53,4.21,11.38,5.81S1767.92,628.08,1772.18,628.81Z"/><path class="cls-10" d="M1688.15,659.46c3.63-.3,6.59,4.47,8.58,7.24,2.7,3.77,6,1,5.43-3a12.79,12.79,0,0,0-6.07-9C1692.06,652.39,1686.55,654.18,1688.15,659.46Z"/><path class="cls-10" d="M1678.14,751.25c-4.1,6.29-15.84,10.38-22.93,8-10.46-3.49-16.06-14.29-18.14-24.24-4.24-20.37,4.52-43.26,12.29-61.77,2.92-7,6.17-14.8,9.51-21.41,1.62-3.22,3.17-5.7,4-9.13,1.08-4.36-.27-8.24,5.1-8,3.79.17,8.55,3.33,12.19,4.45,3.27,1,6.84,1.74,9.73,3.42,6.74,3.92,3.7,13.84-2,18.5-3.81,3.11-7,2.73-9.4,7.38-1.8,3.45-2.93,8-4.31,11.78-2.82,7.77-4.09,15.4-5.71,23.32-3.18,15.57,1.11,35.82,9.53,49.33C1678.06,753,1678.1,751.13,1678.14,751.25Z"/><path class="cls-8" d="M1661,627.3c5.26,3.8,12.41,5.15,18.39,7.53,4.47,1.79,9.09,3.14,13.61,4.61,2.69.87,9.22,1.63,10,4.44.57,2-1.15,4.67-1.69,6.48-.68,2.27-1.15,4.53-1.61,6.8-2-.17-4.16-1.38-6.09-2.07-3.31-1.18-6.68-2.21-10-3.32-6.16-2.06-12.22-4.34-18.39-6.43-3.21-1.09-9.77-1.8-9.4-5.67C1656.15,637,1658.13,628.08,1661,627.3Z"/><path class="cls-10" d="M1850.87,650.1c.13-4.68,6.15-9,8-13.26,2.63-5.9,4.4-12.78,6.19-19.05,3.23-11.31,4.9-22.68,7-34,3.07-16.36,4.66-34.43,5.48-51,.14-2.83.36-6.26-.52-8.91-.72-2.18,11-16.88,2-16.82-5.21,0-6,11.15-7.92,14.64-3.12-2.84-8.54-.8-10.91-3.76s-1.92-10.31-4.55-13.75c-7.36-9.6-3.94,14.88-3.91,17.66-6.31-2.91-20.06-3.88-9.73,4.88,2.73,2.32,7.9,4.13,9.94,6.91,1.81,2.47,2.19,7.82,2.34,11,.94,20.15-6.66,42.39-12.51,61.37a58.12,58.12,0,0,1-4.82,11.41c-1.67,3-6.47,8.79-6,11.85.65,3.81,9.1,9.32,11.9,11.89S1847.54,648.76,1850.87,650.1Z"/><path class="cls-10" d="M1857.18,514.86c9.8-3.54,8.13,12,6.84,17.24C1857.61,536,1855.83,518,1857.18,514.86Z"/><path class="cls-10" d="M1863.74,516.47c9.8-3.54,8.13,12,6.84,17.23C1864.17,537.61,1862.4,519.6,1863.74,516.47Z"/><path class="cls-8" d="M1729.61,675.83c-8.25-.42-19.44,7-25.73,11.85-9.16,7-18.92,13.33-28.21,20.3-3.66,2.74-7.29,5.59-11,8.31-4.5,3.32-5.17,3.59-3.5,9,2.82,9.24,4.16,18.64,8.67,27.23,1.32,2.5,3.27,7.38,6.3,7.92,4.11.75,11-5.32,14.26-7.44,9.71-6.38,20.37-11.75,29.33-19.29,7.85-6.6,10.11-21.69,10.89-31.69C1731.34,692.89,1730.12,684.26,1729.61,675.83Z"/><path class="cls-8" d="M1696.31,649.25c5.19-13.06,17.44-10.67,22.42-1.81,3.15,5.6,2.53,12.67-2.56,17-4.76,4.05-11.52,3.31-16.59.29C1694.8,661.87,1694,655.19,1696.31,649.25Z"/><path class="cls-8" d="M1780.59,661c5-7,16.28-12.89,23.26-19.3,4.65-4.26,9.09-8.74,13.75-12.89,3.35-3,6.87-7.44,10.63-9.75,7.93-4.88,16.41,8.8,20.56,14.72,2.91,4.15,5,8,8.41,11.88,2.69,3,6.09,6.41,8.13,9.87,3.54,6,1,10.11-4.07,14.88-5.93,5.64-11.43,11.47-17.21,17.32-7.93,8-17.55,14.51-25.84,22.27-2.52,2.36-.61,18.23-.5,22.16.27,10.09,1.52,20.06,2,30.17.57,13.4-.21,55.8,1.46,69,.36,2.86,2.22,10.29.53,12.6-2.67,3.66-14.54,5.69-18.74,6.33a219.23,219.23,0,0,1-44.77,2.44c-8-.38-16.08.28-24-.5s-16-2.81-24-4.56c-7.14-1.58-23-4.74-27.1-11.26-1.32-2.12,2.28-40.77,2.52-44.21a104.69,104.69,0,0,1,4.09-22.38c3.46-12.08,7.34-24.3,9.9-36.53,3.38-16.21,8-42.5,21.65-53.44,8.93-7.13,20.27-9.84,31.18-11.49C1762.14,666.82,1774.93,669,1780.59,661Z"/><path class="cls-10" d="M1785.18,670.88a29.26,29.26,0,0,1-17.43,16.84c-7.67,2.84-19.68,1.32-17-9.41,1.65-6.47,10.33-10,11-15.85.32-2.59-2.17-6.87-2.86-9.39-.17-.57-.31-1.14-.43-1.68a42.57,42.57,0,0,1-1-7.16c-.08-.86-.13-1.75-.17-2.68-.28-6.51-3.87-13.7,2.09-17.57,4.67-3,7.57-14.51,13-14-.65,7.1,11.38,28,12.17,36.17C1785.36,654.55,1788.28,662.85,1785.18,670.88Z"/><path class="cls-15" d="M1775,652.18c-1.76,2.92-5.72,3.55-8.88,3.12a11.16,11.16,0,0,1-7.63-3.91,42.57,42.57,0,0,1-1-7.16.5.5,0,0,0,.08-.07c1.62-1,3.53-2,5.13-3,3.1-2.07,6.51-4.64,7.41-8.28s.48-8.33-.31-12c1,2.51,3.51,4.54,4.59,7.32,1.4,3.65,1.52,7.38,1.52,11.32C1775.91,643,1776.82,649.18,1775,652.18Z"/><path class="cls-10" d="M1762.66,602.52c-3.57-3.84-3.86-10.48-8.82-13.68-2.36-1.53-5.51-1.88-8.73-2-6.24,2.65-10.34,8.5-16.89,10.9-5.49,2-11.1,1.8-16.78,1.72a3.34,3.34,0,0,0,.36,2.14c2.8,4.32,7.9,9.82,10.27,14.85,6.56,13.95,10.58,30.48,29.32,30.69,7.79.08,16-2.15,18.93-10.29,2.37-6.7-3-17.24-.12-22.38C1784.35,610.68,1766.76,589.77,1762.66,602.52Z"/><path class="cls-10" d="M1680.83,619.12c-4.48-.13-9.21,6.21-11.22,9.63-1.18,2-5.54,11.34.48,9.36,4.1-1.35,7.58-6.63,10-9.88C1681.31,626.67,1684.35,619.22,1680.83,619.12Z"/><path class="cls-10" d="M1687.39,622.62c-4.48-.13-9.21,6.21-11.22,9.64-1.18,2-5.54,11.34.48,9.35,4.1-1.35,7.58-6.62,10-9.88C1687.87,630.17,1690.91,622.73,1687.39,622.62Z"/><path class="cls-10" d="M1694,626.13c-4.48-.14-9.21,6.21-11.22,9.63-1.18,2-5.54,11.34.48,9.36,4.1-1.36,7.58-6.63,10-9.88C1694.43,633.68,1697.47,626.23,1694,626.13Z"/><path class="cls-10" d="M1700.51,629.63c-4.48-.13-9.21,6.21-11.22,9.64-1.18,2-5.54,11.33.48,9.35,4.1-1.35,7.58-6.62,10-9.88C1701,637.18,1704,629.74,1700.51,629.63Z"/><path class="cls-15" d="M1872.49,521.93a.36.36,0,0,0-.66-.27c-2,3.28.05,6.83-.61,10.44-.3,1.64-1.62,2.09-3.11,2.21-3.2.26-2.4-2.09-2.61-3.52a53.76,53.76,0,0,1-.39-8.79c.08-1.17-1.84-1.19-1.83,0,0,3.39.33,6.68.6,10-.33.15-.5.37-.86.88-.58.83-.79,1.19-1.89,1.16-1.75,0-1.74-1.91-1.86-3.34-.17-1.94-.12-4.06-.43-6s-.27-3.92-.76-5.77a.8.8,0,0,0-1.54,0c-.79,2.75.3,5.57.39,8.35.08,2.52-.09,5.76,1.39,7.9.85,1.23,2.84.88,4.09.85s1.61-.89,2-1.79c.92,1.47,3.06,2,4.76,1.66C1876.15,534.65,1871.38,526.23,1872.49,521.93Z"/><path class="cls-15" d="M1663.83,716.12a22.92,22.92,0,0,1-2.91,1.53,39.82,39.82,0,0,0-4.05,2.6c-2.12,1.67-3.58,4.09-5.95,5.41a.78.78,0,0,0,.18,1.41c2.45.38,3.79-2,5.21-3.65,2.34-2.67,5.5-4.37,8-6.82C1664.62,716.29,1664.15,715.83,1663.83,716.12Z"/><path class="cls-5" d="M1717.19,683.51a3.85,3.85,0,0,0-2.49,2c-1.54,2.23-2.93,4.62-4.51,6.87-3.83,5.47-6.15,13.69-7.74,20.08-.48,1.94-1.54,5.1-1.55,7.08,0,1.71-.38,6.2-1.57,7.74-1.32,1.72-2.07,4.93-2.7,7.09a46.78,46.78,0,0,0-1.58,8.79,1,1,0,0,0,1.9.51c2-4.17,2.08-8.47,3.68-12.73.92-2.48,1-4.29,1.66-6.7.63-2.22.17-4.45.81-6.72.74-2.66.81-5.48,1.58-8.16a88.61,88.61,0,0,1,3.13-8.52c1.48-3.74,2.75-7.34,5.37-10.47,1.36-1.63,2.5-5.48,4.14-6.51A.16.16,0,0,0,1717.19,683.51Z"/><path class="cls-15" d="M1770.76,606.88a4.54,4.54,0,0,0-2.38-2c-.91-.24-1.9.38-2.76.59a.77.77,0,0,0-.56.74l0,.41c0,.81,1,.88,1.35.25.4-.08.79-.19,1.19-.31.68-.2,1.12.4,1.51.87a5.35,5.35,0,0,1,1,1.91,3.32,3.32,0,0,1-.38,2.24c-.21.59.5,1,1,.74C1772.86,611.33,1771.77,608.34,1770.76,606.88Z"/><path class="cls-5" d="M1802.11,794.24c-.66-8.6-.67-17.22-1.37-25.82-1.46-17.82-3.08-35.71-3.33-53.6a.48.48,0,0,0-1,0c-.09,17.88,1.35,35.79,2.82,53.6.71,8.6.77,17.21,1.33,25.82.52,8.06,2,15.73,3.17,23.67.09.59,1.08.45,1-.14C1804.27,809.9,1802.71,802.13,1802.11,794.24Z"/><path class="cls-5" d="M1789.11,755.68c-.29,15.27-4.19,30.22-4.75,45.53-.57,15.59-.28,31.25-1.75,46.79-.06.58.81.56.88,0,2-15.49,1.77-31.2,2.18-46.79.4-15.3,4.31-30.25,4.39-45.53A.48.48,0,0,0,1789.11,755.68Z"/><path class="cls-5" d="M1829.3,629.66c-6.6,9.92-18.23,15.1-25.42,24.46-.33.43.4,1,.75.58,7.73-8.92,18.76-14.62,25.31-24.66C1830.21,629.64,1829.56,629.27,1829.3,629.66Z"/><path class="cls-5" d="M1818.81,652.41c-6.28,3-12.24,8.55-16.81,13.71-5.87,6.64-12.36,12.54-18.48,18.94a.49.49,0,0,0,.69.7c5.58-5.28,11.45-10.29,16.45-16.14,5.17-6,11.33-13,18.53-16.57C1819.62,652.83,1819.24,652.21,1818.81,652.41Z"/><path class="cls-4" d="M1580.23,813.66c-13.89-17.19-15.24-43.7-12.8-65.84,2.89-26.15,11.81-62.59,36.67-76,10.88,26.06,14.38,57.8,6.87,85.47-3.77,13.86-10.26,24.14-17.22,36.16C1591,798.23,1586.28,814.35,1580.23,813.66Z"/><path class="cls-5" d="M1591.74,746.54a1.21,1.21,0,0,0,.25-.08c3.26-1.83,5.57-6.22,7.87-9.05,3.4-4.18,5.81-9,8.84-13.4.29-.43-.38-1-.7-.55-2.78,3.43-5.3,7-7.93,10.55-1.6,2.16-3.47,4-5.19,6.1-.91,1.11-1.62,2.33-2.58,3.35.56-2.89,1.13-5.79,1.65-8.7.56-3.19,1.5-6.28,2.09-9.47.42-2.31,0-4.51.66-6.86.63-2.06,0-4.81.36-7,.48-2.55,1.1-5.06,1.53-7.62a90.37,90.37,0,0,0,1.17-13.75c0-.64-1-.81-1.13-.15-.67,4-1.47,8-1.76,12.07-.37,5.08-2.42,9.7-2.09,14.86.14,2.21-.92,4.48-.78,6.83a11.44,11.44,0,0,1-.11,2.17c-.27-1.06-.57-2.13-.86-3.22-.94-3.42-1.23-7-2.45-10.32-1.33-3.66-3.07-7.92-3.61-11.82,0-.43-.78-.42-.85,0-.48,2.93.38,6.13,1.1,9s2.07,5.4,2.67,8.34c.86,4.23,2.16,8.48,2.66,12.77a1.79,1.79,0,0,0,.12.37c-.32,1.11-.64,2.21-.84,3.24-1.26,6.27-2.52,12.49-3.58,18.79-.75,4.5-1.3,9-2.15,13.5a21.14,21.14,0,0,1-1.61-3c-1-2.51-1.87-5-2.88-7.54s-2.13-4.64-3.25-6.93c-1.33-2.73-1.25-4.43-3.48-6.31-.3-.25-.89,0-.72.42l.14.39c.1.27.55.34.62,0-.36,1.92,1.91,6.07,2.68,7.9,1.13,2.71,2.31,5.39,3.35,8.13,1.32,3.48,2.18,6.9,4.57,9.71v0a3.29,3.29,0,0,0-1.84.77c-.92.81.1,2,1.09,1.76-1.43,4.17-3.56,8.08-4.26,12.51-1.71,10.84-1,22.39-.88,33.33,0,0,0,0,0,.07a1,1,0,0,0,.11.47l0,.12c0,.07.11.13.17.2a1.44,1.44,0,0,0,.27.22h0a1.24,1.24,0,0,0,.47.15h.44a1.29,1.29,0,0,0,.47-.15h0a1.86,1.86,0,0,0,.27-.22c.06-.07.12-.13.17-.2l0-.12a1.16,1.16,0,0,0,.11-.47s0,0,0-.07c.17-11.37-.8-23,.91-34.25.66-4.34,3-8.35,4.39-12.54a4.08,4.08,0,0,0,1-.34,28.73,28.73,0,0,0,4.69-3.52c1.53-1.34,3.21-2.43,4.78-3.7,1.86-1.51,3.08-4,5-5.4a.5.5,0,0,0-.5-.86,9.18,9.18,0,0,0-3.1,2.65c-1.52,1.82-3.76,2.88-5.61,4.31s-3.61,2.78-5.48,4.09c1.23-5.4,1.67-11,2.55-16.45C1591.09,749.94,1591.42,748.24,1591.74,746.54Z"/><path class="cls-9" d="M1863.91,739.23c-9.22,1.7-14.46-13.23-13.23-20.26C1860.4,716.91,1864.52,731.94,1863.91,739.23Z"/><path class="cls-9" d="M1873,711.14c-5.36-.47-8.43-10.4-9.13-14.75-1.12-7.07,2.78-11,5.74-16.73C1884.72,681.34,1887.17,712.38,1873,711.14Z"/><path class="cls-9" d="M1866,737.12c-1.23-4.76,15.81-8.18,20.26-7.62C1886.66,741.63,1868.48,746.62,1866,737.12Z"/><path class="cls-9" d="M1847.06,763.41a1,1,0,0,1-.92-.59,1,1,0,0,1,.49-1.34c10.78-5,16.11-18.83,20-28.94,5.47-14.18,5.95-24.45,6.1-39.67a1,1,0,0,1,1-1h0a1,1,0,0,1,1,1c-.15,15.45-.65,25.88-6.23,40.38-4,10.43-9.52,24.72-21,30.05A1.11,1.11,0,0,1,1847.06,763.41Z"/><path class="cls-8" d="M1620.25,794.7c6.2-2.29,11.53-18.4,13.85-24.58,4-10.65,7.31-23.8,7.92-35.1.39-7.19-1.65-20.25-10.71-12.84s-5.51,21.74-11.06,29c-.4-5.88-6.8-10.83-11-4.76-2.56,3.66-1.11,13.65-.89,18.11C1608.65,771.24,1612.19,793.31,1620.25,794.7Z"/><path class="cls-5" d="M1631.24,737.82a.46.46,0,0,0-.91,0c-.28,10-3.53,19.73-4.86,29.65a89,89,0,0,1-3.62,15c-.19.55-.38,1.13-.58,1.72V784c0-3.75-.89-7.52-.74-11.23.22-5.34-2.82-10.82-3.37-16-.05-.44-.71-.6-.82-.11-1,4.17,1.09,9.35,1.75,13.53a126.58,126.58,0,0,1,1.12,20.61,26.21,26.21,0,0,0-.84,4.9c-.22,1.3,2.1,1.92,2.3.47,0-.2.08-.4.12-.6a.92.92,0,0,0,.52-.88v-1.79c.79-3.29,1.94-6.55,2.62-9.86,1-4.7,2.47-9.47,3-14.22.31-2.54,1.07-4.94,1.6-7.43.65-3,.53-6.16,1-9.18.37-2.61,1.37-5.14,1.91-7.71C1631.9,742.37,1631.46,740,1631.24,737.82Z"/><path class="cls-2" d="M1644.13,820c-9.18-7.07-14.2-37.45-10.36-48.45,2.23-6.39,9.74-12,16.68-8.29,5.8,3.1,8.85,13.75,9.83,19.52,2.63-9.16,6.63-39.34,22.48-35.28,17,4.35,5,35.64,3.5,45.81,2.88-9.09,18.6-9.15,20.4,1.41,2.11,12.39-10.24,21.76-19,27.36a57.8,57.8,0,0,1-25.26,9.17C1656.32,831.84,1643.79,828.32,1644.13,820Z"/><path class="cls-3" d="M1692.87,799.91c-2.08,2.52-3.46,5.45-5.52,8-2.39,2.94-5.3,5.48-7.82,8.31a63.45,63.45,0,0,1-8.6,8.51c-1,.77-2.07,1.39-3.06,2.1.6-3.24,1.11-6.52,1.86-9.68,1.28-5.4,1-11.35,1.46-16.84.62-6.62,2.4-13.32,3.86-19.81.42-1.82.38-3.55.87-5.33.63-2.29-.81-4.57.3-6.86a.58.58,0,0,0-.9-.7,3.7,3.7,0,0,0-1.42,3.06c-.06,1.76-.66,3.43-.73,5-.29,6.8-2.83,13.14-4.17,19.76-1.11,5.48-1,11.09-1.63,16.62a93.61,93.61,0,0,1-2,10.14,62.72,62.72,0,0,1-2.74-6.75c-1.38-4.28-2.38-9-4.35-13.07a19.69,19.69,0,0,1-1.86-4.69c-.25-1.26-1.28-2.23-1.41-3.47-.33-3.13-2.69-5.14-3.38-8.11a.52.52,0,0,0-1,.14c0,3.17,2.29,5.69,2.47,9,.1,2,1.58,5.12,2.65,7,2.56,4.52,3.55,10.5,5.12,15.44a65.68,65.68,0,0,0,3.8,8.76,32.18,32.18,0,0,0-.58,4.73c-1.9.34-1.09,3.23.8,2.89l.58-.1a1.47,1.47,0,0,0,1-1.05c.18-.65.32-1.32.48-2a1.21,1.21,0,0,0,.66-.5c1.48-2.31,5.41-4.24,7.51-6.08a80.38,80.38,0,0,0,7.14-7.84c2.11-2.43,4.42-4.68,6.51-7.13s3.46-5.73,5-8.77C1694.05,800.05,1693.31,799.37,1692.87,799.91Z"/><path class="cls-8" d="M1314.1,769.42c.49-6.71,5.29-14.18,7-21,1.94-7.75,2.63-15.61,4.19-23.38a244.37,244.37,0,0,0,4.25-39.15c.27-6.73-.44-29.56-9.83-30.19-10.07-.68-10.53,24.25-10.53,30.89v6.32c-5.59-9.64-8.94,0-10.69,7-2.2,8.82-.49,17.1.84,25.83C1301.68,741.09,1312.06,754.18,1314.1,769.42Z"/><path class="cls-5" d="M1322,699.68c0-6.68.43-13.62-.55-20.23,0-.34-.62-.34-.67,0-1.75,11.78-.26,24.18-.64,36.06-.19,6.08-2.92,12-4.34,17.84-.39,1.61-.87,3.35-1.44,5.1a126.13,126.13,0,0,0-1.68-12.73c-.67-3.68-1.71-7.25-2.47-10.91-.82-4-2.83-7.53-3.5-11.49-.07-.42-.65-.27-.69.09-.31,3.12.68,5.88,1.52,8.87,1,3.53,1.69,7.22,2.45,10.81s.3,7.34,1.19,10.87a43.1,43.1,0,0,1,1,10.13,26.52,26.52,0,0,1-2.56,4.38c-.9,1.21,1.13,2.37,2,1.17a17.68,17.68,0,0,0,1.73-2.89,1.19,1.19,0,0,0,1.33-1.2c0-.63,0-1.27,0-1.91.81-2.24,1.46-4.56,2.19-6.67a138.56,138.56,0,0,0,4.75-17.83C1322.78,712.88,1322,706,1322,699.68Z"/><path class="cls-2" d="M1302.86,772.23c-25.95-9-37.09-31.36-39.36-57.58a128.63,128.63,0,0,1,0-17.56c.57-10,3.6-7,10.57-3,10.28,6,19.71,9.54,27.21,19.16,12.57,16.11,19,43.2,12,62.36C1309.81,775.59,1306.09,773.35,1302.86,772.23Z"/><path class="cls-3" d="M1310.14,769.89c-2.42-.57-2.85-4.36-3.34-6.36-.59-2.37-1.93-4.42-2.91-6.64a26.77,26.77,0,0,0-3.16-4.86,1,1,0,0,0,.87-.72,25.92,25.92,0,0,0,.18-6.53c-.18-2.57.58-5,.69-7.6a57.71,57.71,0,0,0-1.5-15.57c-.06-.25-.42-.18-.44.06-.24,4.62,0,9.49.08,14.13a51.65,51.65,0,0,1-.66,5.84c-.1,1.15.65,8.33-.34,8.76-.26-.39-.53-.78-.76-1.19-1.54-2.79-3.49-5.35-5-8.16a85.61,85.61,0,0,1-5-11.71.7.7,0,0,0,.64-.83c-.73-5.31-.26-10.64-.87-16a.51.51,0,0,0-1,0c-.38,3.29-.36,6.59-.49,9.89,0,.71-.06,1.42-.06,2.13-.41-1.07-.83-2.13-1.27-3.17-1.11-2.61-3.22-4.68-5.11-6.73-2.2-2.38-3.59-5.49-5.61-8-.31-.38-.86.11-.65.5a78.11,78.11,0,0,0,4,7.29c2.49,3.72,5.32,6.38,6.94,10.76,2.07,5.58,4.1,11.11,6.68,16.42a14,14,0,0,0-2.67-.6c-1.69-.08-3.34-.39-5-.48a40.53,40.53,0,0,1-5.15-.67c-1.49-.27-2.71.75-4.22-.26-.37-.24-.78.31-.47.61.6.59.89,1,1.81,1,2,.15,3.82.74,5.75.9s3.71.9,5.51.86,3.57.65,5.46.72h.07c.54,1,1.09,2.08,1.69,3.1,3.32,5.71,8.39,11.49,9.93,18,.57,2.36,1.84,8.32,5.42,7A1,1,0,0,0,1310.14,769.89Z"/><path class="cls-10" d="M1504.27,689.44c-.52-.35-.3-2.32-.3-3,0-1.64.11-3.29.22-4.92.16-2.25.51-6.17,2.2-7.91s2.44,1.85,2.5,3a59.76,59.76,0,0,1-.46,7.91c-.09,1.09-.09,2.52-1,3.29a6.69,6.69,0,0,1-2.65,1.19Z"/><path class="cls-10" d="M1453.33,715.22c1.09,2,4.52,8.1,6.46,9.22,2.87,1.65,6.43-1.34,9.31-3,7.54-4.29,13.63-10.07,20.12-15.54,3.84-3.23,11.21-11.21,16.13-12.28,4-.86,10.82,9.23,11.51,13.7,1,6.56-11.19,14.72-15.45,18.93-6.72,6.64-13.4,13.44-20.49,19.62-5.21,4.55-13.37,12.22-20.14,14.36-9.36,3-10.54-9.1-13.24-15.35-2.27-5.27-9.25-16.11-8.22-21.79C1440.2,718.22,1448.87,716.12,1453.33,715.22Z"/><path class="cls-2" d="M1577.72,756c3.57,13.71,4.53,30.57-.12,44.24-2.23,6.6-5.82,13.76-12.6,16.54-6.18,2.53-15.25,4.28-21.89,2.73-15.62-3.61-25.72-19.49-29.25-34.14-4.18-17.4-8.28-34.43-11.48-51.69-1.63-8.72-4.12-16.88-4.83-25.74a128.77,128.77,0,0,0-4.93-27.27c-2.46-8.3-7.43-15.76-9.49-24.08a218.06,218.06,0,0,0-6.7-21.81c-2.82-7.73-6.55-9.78-14.77-10.16-7.2-.35-13.85-2.4-21.06-1.34a20.77,20.77,0,0,0-5.13,1.3c-.57-1.48-.75-2.76-.1-3,5.68-2.43,14.89-1.86,21.48-2.17s13.88-2.17,20.11.41c12.23,5.09,16,24.08,19.27,35.48,2.07,7.16,4.61,14.16,6.07,21.47,1.48,7.54,2,14.56,4.46,21.91,4.24,13,8.26,26.39,11.48,39.84,1.71,7,3,14.24,4.63,21.12,1.3,5.43,2.05,14.32,5.25,18.72,1.73,2.38,6.45,4.73,9.41,2.76s2.07-7.69,1.53-10.57a238.51,238.51,0,0,0-6-23.27c-5.7-19-7.18-40.15-7-60,.08-7.18,1.42-15.64,6.7-20.91a30,30,0,0,1,3.43-2.9c3.42-2.48,7.3-4.53,10.46-7.29,3.09,4.93,8.79,9,12.6,13.7.51.61,1,1.23,1.5,1.84,1.4,1.73,2.8,3.43,4.18,5.14,0,0,0,0,0,0,1.91,2.33,3.84,4.66,5.76,7,5.16,6.16,9.4,13,14,19.17a74.06,74.06,0,0,0-7.08,10.75,26.1,26.1,0,0,0-3.43,12.43C1574.4,735.86,1575.31,746.68,1577.72,756Z"/><path class="cls-10" d="M1509.87,705.93c0-.58.59-1.22.92-1.66a26.47,26.47,0,0,1,2.64-2.86c1.2-1.23,2.69-2.7,4.4-3.14,3.68-1,.64,4.64,0,5.84-1.18,2.17-3,4.65-5.29,5.73-1.47.69-3.43.68-3.41-1.34A4,4,0,0,1,1509.87,705.93Z"/><path class="cls-10" d="M1507.15,701.54c0-.58.59-1.21.92-1.66a27.34,27.34,0,0,1,2.63-2.86c1.21-1.23,2.7-2.69,4.41-3.14,3.68-1,.64,4.64,0,5.84-1.19,2.17-3,4.66-5.3,5.73-1.46.69-3.42.69-3.4-1.34A4,4,0,0,1,1507.15,701.54Z"/><path class="cls-10" d="M1504.42,697.15c0-.57.6-1.21.93-1.66a26.29,26.29,0,0,1,2.63-2.86c1.2-1.22,2.69-2.69,4.4-3.14,3.69-1,.65,4.64,0,5.85-1.19,2.16-3,4.65-5.3,5.73-1.47.68-3.43.68-3.4-1.35A4.06,4.06,0,0,1,1504.42,697.15Z"/><path class="cls-10" d="M1501.7,692.76c0-.57.6-1.21.92-1.65a26.47,26.47,0,0,1,2.64-2.86c1.2-1.23,2.69-2.7,4.4-3.15,3.68-1,.64,4.65,0,5.85-1.18,2.16-3,4.65-5.29,5.73-1.47.68-3.43.68-3.41-1.34A4.07,4.07,0,0,1,1501.7,692.76Z"/><path class="cls-8" d="M1410,661.35c3.3,3.88,9.83,6.37,14,9.64a123.18,123.18,0,0,1,11.8,10.07,109.2,109.2,0,0,1,16.53,21.05c1.87,3.13,4.37,6.59,5.69,10,1.8,4.75-.83,6.61-4.7,9.63-2,1.58-7.26,5.85-9.74,5s-5.81-8.48-7.24-10.62c-7.14-10.61-14.14-22-19.48-33.72-1.72-3.78-3.61-7.44-5.58-11-1.84-3.28-2.53-7.08-4.38-10.08Z"/><path class="cls-8" d="M1407.35,658.73c12.75,12.45,25.33,24.43,32.3,41.6,7.15,17.65,8.4,36.52,12.71,54.75,4.43,18.75,4.32,38.31,8.07,56.93.84,4.15,2,6.92-2.28,8.87-3.45,1.59-8.09,1.16-11.83,1.74-10.93,1.7-21.79,4.82-32.84,6.45-27,4-55.17.92-75.33-18.81-4.11-4-1.35-13.16-1.32-18.82.06-8.3,1.84-16.44,2.61-24.63,1.09-11.67,4-23,6.16-34.51,3.83-20.78,9.58-41.5,21.77-59.12C1374.64,662.68,1397.87,649.47,1407.35,658.73Z"/><path class="cls-4" d="M1512.48,737.11c1.34-4.32,11.79-1.14,8.72,5.41C1518.66,748,1510.12,744.76,1512.48,737.11Z"/><path class="cls-4" d="M1507.21,718.74c1.33-4.32,11.79-1.14,8.72,5.41C1513.38,729.58,1504.84,726.39,1507.21,718.74Z"/><path class="cls-4" d="M1496.51,671c1.34-4.32,11.79-1.14,8.72,5.41C1502.69,681.88,1494.14,678.69,1496.51,671Z"/><path class="cls-4" d="M1492.52,655.44c1.33-4.32,11.79-1.13,8.72,5.41C1498.69,666.28,1490.15,663.1,1492.52,655.44Z"/><path class="cls-10" d="M1421.36,725.73c4.65,6.81,12.4,9.61,19.27,13.9,7.34,4.58,14.84,9.46,22.77,12.82,15.66,6.64,30.64,11.22,46.87,4.49,3.48-1.44,7.2-4,10.85-4.6,5.83-.92,4.22,4.15,1.13,7.14,4,0,9.57,1.51,4.38,5.69,6.09-.24,5.26,1.72,2.08,5.59,5.3-.84,4.08,2.77,1.28,5-2.61,2.09-6.53,3.63-9.65,4.72a74,74,0,0,1-25.06,3.93c-20.67,0-42.71-6.62-61.3-15.67-11.94-5.81-23.09-11.61-32-21.46-2.73-3-3.52-2.11-1.19-5.79,2-3.1,5.24-4.43,7.84-6.68C1412.71,731.31,1415.86,726.52,1421.36,725.73Z"/><path class="cls-8" d="M1429.15,716.21c-1.92-2.27-5.41-4.24-7.67-6.35-6.74-6.3-11.48-13.45-16.76-20.91-5-7.07-11.77-14.8-19.73-18.28-3-1.3-39-8.33-16.19,40.61,3.15,6.77,6.1,13.66,9.53,20.48,2.23,4.42,5.14,8.52,7.65,12.81,1.44,2.44,3.14,7.58,6,8.68,5.25,2,16.45-4.51,20.58-7.71,6.27-4.86,11.21-12.66,15.45-19.37C1430.35,722.54,1432,719.55,1429.15,716.21Z"/><path class="cls-10" d="M1414.35,670.46c-3.2,3.1-16.94-1.54-19.7-4-4.44-3.87-3.38-14.34-4-20-.1-1.1-.23-2.25-.35-3.47-.5-5.26-.91-11.46.41-16.17,5.29-1,11.54,4.65,16.59,5.19,0,6.13-.26,12.32-.12,18.46,0,1.14.06,2.3.12,3.43.21,4.32,1.08,5.26,4,8.22C1413.3,664,1417.05,667.82,1414.35,670.46Z"/><path class="cls-15" d="M1407.23,650.47a37.69,37.69,0,0,1-16.88-7.48c-.5-5.26-.91-11.46.41-16.17,5.29-1,11.54,4.65,16.59,5.19C1407.35,638.14,1407.09,644.33,1407.23,650.47Z"/><path class="cls-11" d="M1584.72,703a74.06,74.06,0,0,0-7.08,10.75,44.24,44.24,0,0,1-7.22-7.57c-5-6.27-9.27-13-14.34-19.35-4-5-8.67-9.31-12.46-14.47-1.91-2.59-5-5.84-7.46-8.94,3.42-2.48,7.3-4.53,10.46-7.29,3.09,4.93,8.79,9,12.6,13.7.51.61,1,1.23,1.5,1.84l.49.71a40.3,40.3,0,0,0,3.69,4.43s0,0,0,0c1.91,2.33,3.84,4.66,5.76,7C1575.86,690,1580.1,696.77,1584.72,703Z"/><path class="cls-10" d="M1427.93,567.19c6,12.19,11.49,26,12.26,39.42.38,6.59,1.73,15.41-1.41,21.36s-10.9,9-17,10.07c-14.16,2.48-24.21-1.86-34.48-11-5.09-4.5-10.32-10.85-11.08-17.84-1.23-11.38,6.28-22.61,14-30.23C1400.2,569.22,1414.67,567.19,1427.93,567.19Z"/><path class="cls-8" d="M1390.7,608.36c2.14,5.77,10.1,12.2,12.28,2.19,1.45-6.69-3.07-12.35-4-18.3-1.53-9.26,7.82-10,14.56-12.25,6.19-2.08,13.32-5.34,18.38-9.72,5.94-5.14,9.79-15.2,7.8-23.24-2.69-10.84-14.38-8.9-22.25-7.44,6.25,7.9-.45,11.18-7.88,13.13-7.2,1.88-13.66,4-20,8-11.57,7.29-25,19-25.5,33.62-.3,8.53,5.3,18.23,11,24.41,6.18,6.64,12.4,11.34,20.08,14.26,0-3.5-.48-10.21-.48-13.71-3.57,2.8-9.64.65-11.38-3.94C1381.29,610.16,1388.31,601.89,1390.7,608.36Z"/><path class="cls-15" d="M1463.85,729.79c-.15-4.1-3-5.92-5.81-8.4-.24-.21-.58.12-.35.35.93.93,1.88,1.84,2.79,2.79,2.28,2.38,2,5.29,1.9,8.23-.09,3.9-.52,7.91.07,11.78a.74.74,0,0,0,1.42,0C1464.6,739.76,1464,734.62,1463.85,729.79Z"/><path class="cls-2" d="M1538.5,653.08c1.71,4.24,7.77,10,10.81,14.18,3.79,5.16,8.45,9.51,12.45,14.47,5.08,6.31,9.36,13.09,14.36,19.36,2.77,3.48,7.35,9,11.75,9.81,7.87,1.35,6-10,3.11-14.13a222.41,222.41,0,0,0-15.61-20c-2.87-3.19-6-6-8.47-9.44s-4-6.9-7.08-9.82c-3.55-3.38-7.84-8.73-12.27-10.75C1541.66,644,1536.54,648.21,1538.5,653.08Z"/><path class="cls-5" d="M1536.1,722.11c-.28-4.12-1.86-8.19-1.69-12.32.09-2-.64-4-.7-6.08-.09-3,0-5.91-.08-8.86a68,68,0,0,1,.18-7c.19-2.31.36-7.13,1.74-9,.27-.37-.32-.8-.62-.48-2.55,2.67-2.58,7.45-3.11,10.92-.8,5.17-.58,10.79-.58,16,0,4.25.82,8.42,1.45,12.6.72,4.86.93,9.84,2.42,14.57a1.21,1.21,0,0,0,2.31,0C1538.27,729.26,1536.33,725.4,1536.1,722.11Z"/><path class="cls-5" d="M1538.39,740.33a1.37,1.37,0,0,0,0,2.73A1.37,1.37,0,0,0,1538.39,740.33Z"/><path class="cls-5" d="M1404.48,749c-5.13,3.08-12.31,5.34-16.59-.05-4.5-5.66-6.55-11.4-9.15-18.1a67.55,67.55,0,0,0-2.94-6.28c-1.58-3.1-2.81-6.41-4.5-9.44-2.73-4.87-4.11-10.33-6.44-15.38-.13-.29-.58-.08-.51.22.91,3.45,2.19,6.52,3.25,9.93,1.12,3.61,3.2,6.68,4.33,10.29,1,3.31,3.34,6.51,4.81,9.69,1.64,3.54,2.55,7.33,4.14,10.9,1.78,4,4.93,11.41,9.57,12.86s11.77.35,15-3.38C1406,749.54,1405.3,748.46,1404.48,749Z"/><path class="cls-5" d="M1430.42,720.4c-1.09-5.18-4.94-9.27-8.73-12.8-2.32-2.16-4.35-4.57-6.68-6.7-2.68-2.46-5.13-4.14-7.12-7.32-1.71-2.72-3.7-5.2-5.3-8-1.49-2.63-4.53-4.53-5.15-7.59a.41.41,0,0,0-.81.11c.17,3.89,3.39,6.28,5.19,9.57,2.45,4.48,5.45,9.42,9.44,12.69a126.85,126.85,0,0,1,11.32,10.81c2.32,2.45,4.68,5.14,5.79,8.35,1.56,4.53-2,6.83-3.8,10.28-.38.74.63,1.64,1.21.93C1428.36,727.57,1431.37,724.89,1430.42,720.4Z"/><path class="cls-5" d="M1365.18,748.15l-.49.06a.47.47,0,0,0-.43.33c-2.48,6.28-3,13.45-4,20.1a113.86,113.86,0,0,0-1.12,22.82.54.54,0,0,0,1.08,0c.41-6.94.35-13.85,1.11-20.77.39-3.53,1.11-7,1.58-10.54.15-1.13.83-10.8,2.39-11.19C1365.73,748.85,1365.65,748.09,1365.18,748.15Z"/><path class="cls-5" d="M1374.52,788.35c-.72-9.19-.15-18.37.2-27.53,0-.45-.67-.45-.69,0a268.78,268.78,0,0,0-.79,27.53c.31,8,2.11,16.26,3.66,24.09a.56.56,0,0,0,1.09-.15C1377.74,804.17,1375.16,796.43,1374.52,788.35Z"/><path class="cls-5" d="M1355.67,721c-.66,5.25-3.05,10.66-4.25,15.86-1.41,6.14-3.34,12.13-4.52,18.31-.13.67.86,1,1,.28,1.51-6.1,3.26-12.14,4.69-18.26.72-3.07,1.34-6.15,2.12-9.2.61-2.42,1.71-4.46,1.58-7A.32.32,0,0,0,1355.67,721Z"/><path class="cls-16" d="M1921.11,779.81V917H1267.17L1241,836c1-3.58,6.56-11.45,14.91-20.78,17.66-19.73,47.61-46,72-51.73,12.29-2.92,22.1-4,34.08-.38,11,3.36,23.37,7.32,32.53,14.42,7.4,5.73,10.29,17.35,12.6,26.15,3-6.57,23.77-5.82,30.2-4.23,8.63,2.14,20,10.7,22.47,19.68.29-5.67,17.56-7.39,23.17-7,8.47.56,15.5,5.58,20.36,12.64.08-13,6.63-22.6,20.37-25.29,12.22-2.4,20.27,6.69,26,15.46-5-15,4.28-31.14,19.66-33,10.87-1.34,28.76,7.21,30.72,19.61-.17-16.22,27.43-19.83,38.83-18,14.79,2.36,23.91,18.18,25.24,31.44,4.85-5.76,17.17-5.64,23.19-1.58,6.93,4.68,8.52,12,11.22,19.13,3.41-6.63,17.46-9.56,24.58-9.83,11.16-.41,15.14,4.94,22.47,11.94-7.35-16.36,9.15-39.64,24.58-44.39,11.53-3.56,31.19-1.66,36.51,12.09.79-12.51,17.19-28.65,27.9-34.25s24.88-7,36.72-7.18C1891.14,760.62,1908.29,764.78,1921.11,779.81Z"/><path class="cls-6" d="M1921.11,810.7V917H1104.47c15.54-17.8,80.44-71.21,151.44-101.78,23.85-10.27,48.39-18,72-20.85,12.53-1.53,22.1-4,34.08-.37,11,3.36,23.37,7.31,32.53,14.42,7.4,5.73,10.29,17.35,12.6,26.15,3-6.58,23.77-5.82,30.2-4.23,8.63,2.14,20,10.7,22.47,19.68.29-5.67,17.56-7.39,23.17-7,8.47.55,15.5,5.58,20.36,12.64.08-13,6.63-22.61,20.37-25.3,12.22-2.39,20.27,6.7,26,15.47-5-15,4.28-31.15,19.66-33,10.87-1.34,28.76,7.21,30.72,19.61-.17-16.22,27.43-19.83,38.83-18,14.79,2.36,23.91,18.17,25.24,31.44,4.85-5.76,17.17-5.65,23.19-1.58,6.93,4.68,8.52,12,11.22,19.13,3.41-6.63,17.46-9.57,24.58-9.83,11.16-.41,15.14,4.94,22.47,11.94-7.35-16.36,9.15-39.64,24.58-44.39,11.53-3.56,31.19-1.66,36.51,12.09.79-12.51,17.19-28.66,27.9-34.25s24.88-7,36.72-7.18C1891.14,791.51,1908.29,795.67,1921.11,810.7Z"/></g></g></svg>