<svg xmlns="http://www.w3.org/2000/svg" viewBox="0 0 709.76 54.98"><defs><style>.cls-1{fill:#fff;}</style></defs><title>pha-bo-moi</title><g id="Layer_2" data-name="Layer 2"><g id="Layer_1-2" data-name="Layer 1"><path class="cls-1" d="M47.74,29.57A11.5,11.5,0,0,1,50,36.7a14.62,14.62,0,0,1-3,9.14,19.15,19.15,0,0,1-8.38,6A33.63,33.63,0,0,1,26.24,54H0L10.62.83H35.87q8.12,0,12.7,3.11a9.63,9.63,0,0,1,4.59,8.34,12.57,12.57,0,0,1-3.26,8.46,16,16,0,0,1-8.42,5A10.16,10.16,0,0,1,47.74,29.57ZM33.21,41.4a5.63,5.63,0,0,0,2.51-4.77,3.81,3.81,0,0,0-1.82-3.34,9,9,0,0,0-5-1.21H18.2L16,43.22H26.62A10.88,10.88,0,0,0,33.21,41.4Zm3-21.12a5.56,5.56,0,0,0,2-4.51,3.62,3.62,0,0,0-1.37-3A6.16,6.16,0,0,0,33,11.68H22.29L20.25,22H30.86A8,8,0,0,0,36.17,20.28Z"/><path class="cls-1" d="M104.42,28.55a21.42,21.42,0,0,1-9.78,8.23L102.07,54H86.29L81.52,39.28H71.28L68.32,54H54.45L65.06.83H89q9.09,0,14,4t4.89,11.07A23.37,23.37,0,0,1,104.42,28.55Zm-30.94-.34h10c3.38,0,6-.89,8-2.66a9.49,9.49,0,0,0,2.88-7.35,5.74,5.74,0,0,0-1.93-4.66,8.42,8.42,0,0,0-5.58-1.63H76.74Z"/><path class="cls-1" d="M159.7,11.91H131.64l-2,9.93H155l-2.2,11H127.39l-2,10.09h28.89L152,54H109.35L120,.83H161.9Z"/><path class="cls-1" d="M199.51,54l-2-9.4H174.41L169.17,54H155L186.62.83h14.25L214.37,54ZM180.32,34h14.86L191,14.71Z"/><path class="cls-1" d="M280,.83,255.77,23.36,270.1,54H253.88L244.4,33.9l-9,8.41L233,54H219.15L229.76.83h13.88l-4.55,22.83L263.2.83Z"/><path class="cls-1" d="M337.93,3.64a20.23,20.23,0,0,1,8.57,7.89,22.65,22.65,0,0,1,3,11.75,29.39,29.39,0,0,1-16.23,26.81A36.43,36.43,0,0,1,316.36,54H292.7L303.24.83h21.69A28.55,28.55,0,0,1,337.93,3.64Zm-6.1,12A11.73,11.73,0,0,0,323,12.13h-8l-6.14,30.64h10.08a15.41,15.41,0,0,0,8.23-2.31A16.34,16.34,0,0,0,333,34.05a19.54,19.54,0,0,0,2.17-9.25A12.76,12.76,0,0,0,331.83,15.62Z"/><path class="cls-1" d="M397.54,3.22a23.55,23.55,0,0,1,9.28,8.91A24.82,24.82,0,0,1,410.16,25a28.36,28.36,0,0,1-4.24,15.16A30.57,30.57,0,0,1,394.39,51a32.68,32.68,0,0,1-15.93,4,27.75,27.75,0,0,1-13.53-3.26,23.47,23.47,0,0,1-9.25-9,25.44,25.44,0,0,1-3.3-12.93,28,28,0,0,1,4.25-15.16A30.09,30.09,0,0,1,368.11,3.91,32.89,32.89,0,0,1,384,0,28,28,0,0,1,397.54,3.22ZM375,14a17.09,17.09,0,0,0-6.07,6.22,16.81,16.81,0,0,0-2.28,8.57,15.24,15.24,0,0,0,1.75,7.28,13.33,13.33,0,0,0,4.78,5.15,12.27,12.27,0,0,0,6.67,1.9,14.64,14.64,0,0,0,7.89-2.32,17,17,0,0,0,5.91-6.25,17.42,17.42,0,0,0,2.2-8.65,15.57,15.57,0,0,0-1.67-7.24,12.82,12.82,0,0,0-4.62-5.08A12,12,0,0,0,383,11.75,15.3,15.3,0,0,0,375,14Z"/><path class="cls-1" d="M485,.83h14.26L473,54H458.62l-3.57-36.32L439.2,54H425L416.3.83h14.87l3.71,38.68L451.34.91,464.91.83l3.72,38.68Z"/><path class="cls-1" d="M540.21.83H553.1L542.48,54H530.35L512.68,22.14,506.24,54h-13L503.89.83H516l17.74,32Z"/><path class="cls-1" d="M608.68,54l-2-9.4h-23L578.35,54H564.17L595.79.83h14.26L623.54,54ZM589.5,34h14.86l-4.17-19.26Z"/><path class="cls-1" d="M644.55,42.16h22.52L664.72,54h-36.4L638.94.83h13.87Z"/><path class="cls-1" d="M687.24,42.16h22.52L707.41,54H671L681.63.83h13.88Z"/></g></g></svg>