<svg xmlns="http://www.w3.org/2000/svg" viewBox="0 0 670.1 55.13"><defs><style>.cls-1{fill:#fff;}</style></defs><title>rao can phap ly</title><g id="Layer_2" data-name="Layer 2"><g id="Layer_1-2" data-name="Layer 1"><path class="cls-1" d="M16.23,42.31H38.75L36.4,54.14H0L10.62,1H24.49Z"/><path class="cls-1" d="M93,12.06H65l-2,9.93h25.4l-2.2,11H60.74L58.69,43.07H87.58l-2.2,11.07H42.69L53.31,1H95.24Z"/><path class="cls-1" d="M135.81,27h12l-4.17,21.15a41.17,41.17,0,0,1-10.54,5.08,36.34,36.34,0,0,1-11.3,1.9,27.14,27.14,0,0,1-13.38-3.26,23.31,23.31,0,0,1-9.14-9A25.66,25.66,0,0,1,96,30a27.64,27.64,0,0,1,4.32-15.09A30.78,30.78,0,0,1,112,4.09,33.88,33.88,0,0,1,128.23.15a32.13,32.13,0,0,1,11.56,2.16,27.81,27.81,0,0,1,9.44,5.8l-8.79,9.71a18.9,18.9,0,0,0-6.18-4.32,18,18,0,0,0-7.32-1.59,16,16,0,0,0-8.31,2.27,17.13,17.13,0,0,0-6.1,6.18A16.74,16.74,0,0,0,110.26,29,15.38,15.38,0,0,0,112,36.28a12.91,12.91,0,0,0,4.85,5.16,13.48,13.48,0,0,0,7.05,1.86,22.37,22.37,0,0,0,9.18-2.43Z"/><path class="cls-1" d="M189.88,54.14l-2-9.4H164.78l-5.24,9.4H145.36L177,1h14.25l13.5,53.15Zm-19.19-20h14.86l-4.17-19.26Z"/><path class="cls-1" d="M225.74,42.31h22.53l-2.35,11.83h-36.4L220.13,1H234Z"/><path class="cls-1" d="M316.78,29.73A11.45,11.45,0,0,1,319,36.85,14.62,14.62,0,0,1,316,46a19.07,19.07,0,0,1-8.38,6,33.42,33.42,0,0,1-12.36,2.12H269L279.66,1h25.25q8.11,0,12.7,3.1a9.63,9.63,0,0,1,4.59,8.35,12.56,12.56,0,0,1-3.26,8.45,16,16,0,0,1-8.42,5A10.12,10.12,0,0,1,316.78,29.73ZM302.25,41.55a5.63,5.63,0,0,0,2.51-4.77,3.81,3.81,0,0,0-1.82-3.34,9,9,0,0,0-5-1.21H287.24L285,43.37h10.62A10.88,10.88,0,0,0,302.25,41.55Zm3-21.11a5.59,5.59,0,0,0,2.05-4.52,3.62,3.62,0,0,0-1.37-3A6.14,6.14,0,0,0,302,11.83h-10.7l-2,10.31H299.9A8,8,0,0,0,305.21,20.44Z"/><path class="cls-1" d="M362.46,54.14l-2-9.4H337.36l-5.23,9.4H318L349.57,1h14.26l13.5,53.15Zm-19.18-20h14.86L354,14.86Z"/><path class="cls-1" d="M432.07,28.7a21.32,21.32,0,0,1-9.78,8.23l7.43,17.21H414l-4.78-14.71H398.94l-3,14.71H382.1L392.72,1h23.89q9.09,0,14,3.94T435.49,16A23.29,23.29,0,0,1,432.07,28.7Zm-30.93-.34h10c3.38,0,6-.88,8-2.65A9.51,9.51,0,0,0,422,18.35a5.77,5.77,0,0,0-1.93-4.66,8.42,8.42,0,0,0-5.58-1.63H404.4Z"/><path class="cls-1" d="M487,28.7a21.39,21.39,0,0,1-9.79,8.23l7.44,17.21H468.85l-4.78-14.71H453.84l-3,14.71H437L447.62,1h23.89q9.09,0,14,3.94T490.39,16A23.37,23.37,0,0,1,487,28.7ZM456,28.36h10c3.38,0,6-.88,8-2.65a9.51,9.51,0,0,0,2.88-7.36A5.74,5.74,0,0,0,475,13.69a8.42,8.42,0,0,0-5.58-1.63H459.3Z"/><path class="cls-1" d="M516.4,1,505.78,54.14H491.9L502.52,1Z"/><path class="cls-1" d="M566.44,12.06H538.39l-2,9.93h25.4l-2.2,11h-25.4l-2,10.08H561l-2.19,11.07h-42.7L526.71,1h41.93Z"/><path class="cls-1" d="M617.25,28.7a21.42,21.42,0,0,1-9.78,8.23l7.43,17.21H599.13l-4.78-14.71H584.11l-3,14.71H567.28L577.89,1h23.89q9.11,0,14,3.94T620.66,16A23.37,23.37,0,0,1,617.25,28.7Zm-30.94-.34h10q5.08,0,8-2.65a9.51,9.51,0,0,0,2.88-7.36,5.74,5.74,0,0,0-1.93-4.66,8.41,8.41,0,0,0-5.57-1.63H589.57Z"/><path class="cls-1" d="M660.62,1.63A34.24,34.24,0,0,1,670.1,6l-6.44,11.07a39.89,39.89,0,0,0-8.53-4.13,24.71,24.71,0,0,0-7.93-1.63,8,8,0,0,0-4.24,1,3.54,3.54,0,0,0-1.75,2.89,3.92,3.92,0,0,0,2.16,3.71,37.24,37.24,0,0,0,7.17,2.81,69.05,69.05,0,0,1,8.15,3,15.14,15.14,0,0,1,5.54,4.4,11.93,11.93,0,0,1,2.31,7.62,16.2,16.2,0,0,1-3.07,10,18.66,18.66,0,0,1-8.34,6.22A31.43,31.43,0,0,1,643.49,55a37.82,37.82,0,0,1-13-2.28,31.31,31.31,0,0,1-10.69-6.29l6.44-10.92a29.72,29.72,0,0,0,8.91,5.88,24.09,24.09,0,0,0,9.52,2.31,9.45,9.45,0,0,0,5.23-1.25,4.12,4.12,0,0,0,1.9-3.68A3.61,3.61,0,0,0,650.62,36a9.28,9.28,0,0,0-3-1.78c-1.21-.46-3-1-5.23-1.74a56.63,56.63,0,0,1-8.11-2.81,14.73,14.73,0,0,1-5.46-4.25,11.29,11.29,0,0,1-2.28-7.35,16,16,0,0,1,2.88-9.52,18.72,18.72,0,0,1,8.08-6.29,30.18,30.18,0,0,1,12-2.24A38.61,38.61,0,0,1,660.62,1.63Z"/></g></g></svg>