<svg xmlns="http://www.w3.org/2000/svg" viewBox="0 0 466.26 90.24"><defs><style>.cls-1{fill:#fff;}</style></defs><title>text-banner-1</title><g id="Layer_2" data-name="Layer 2"><g id="Layer_1-2" data-name="Layer 1"><path class="cls-1" d="M45.74,23.82q4.55,3.78,4.54,10.65a23.16,23.16,0,0,1-3,11.93,20.17,20.17,0,0,1-8.64,7.94,29.43,29.43,0,0,1-13.32,2.82H16.25l-2.86,14.2H0L10.25,20.05H32.71Q41.2,20.05,45.74,23.82ZM34.47,43.88a9.23,9.23,0,0,0,2.78-7.07,5.57,5.57,0,0,0-1.86-4.5A8.14,8.14,0,0,0,30,30.74H21.52L18.37,46.47h8.49A10.7,10.7,0,0,0,34.47,43.88Z"/><path class="cls-1" d="M97.63,20.05H111L100.78,71.36H87.38l4-19.69H70.62l-4,19.69H53.28L63.52,20.05h13.4L72.75,41H93.46Z"/><path class="cls-1" d="M151,71.36l-2-9.08H126.76l-5.05,9.08H108l30.52-51.31H152.3l13,51.31ZM132.47,52h14.34l-4-18.59ZM147.91,3.88,158.67,8l-10.62,8.41-8.92-.73Z"/><path class="cls-1" d="M232.25,47.79a11.07,11.07,0,0,1,2.16,6.88,14.05,14.05,0,0,1-2.89,8.82,18.45,18.45,0,0,1-8.09,5.82,32.44,32.44,0,0,1-11.92,2H186.18l10.25-51.31H220.8q7.83,0,12.26,3a9.29,9.29,0,0,1,4.43,8.05,12.09,12.09,0,0,1-3.15,8.16,15.42,15.42,0,0,1-8.12,4.87A9.78,9.78,0,0,1,232.25,47.79Zm-14,11.42a5.44,5.44,0,0,0,2.41-4.61,3.66,3.66,0,0,0-1.75-3.22,8.63,8.63,0,0,0-4.83-1.17H203.75L201.63,61h10.24A10.59,10.59,0,0,0,218.24,59.21Zm2.85-20.38a5.39,5.39,0,0,0,2-4.36,3.5,3.5,0,0,0-1.32-2.93,6,6,0,0,0-3.73-1H207.7l-2,10H216A7.75,7.75,0,0,0,221.09,38.83Z"/><path class="cls-1" d="M284.36,22.36a22.71,22.71,0,0,1,9,8.6,24,24,0,0,1,3.22,12.37A27.41,27.41,0,0,1,292.45,58a29.45,29.45,0,0,1-11.13,10.51A31.49,31.49,0,0,1,266,72.31a26.73,26.73,0,0,1-13.06-3.15A22.65,22.65,0,0,1,244,60.49,24.54,24.54,0,0,1,240.78,48a27.08,27.08,0,0,1,4.1-14.64A29,29,0,0,1,256,23a31.71,31.71,0,0,1,15.34-3.77A27,27,0,0,1,284.36,22.36ZM262.59,32.79a16.64,16.64,0,0,0-8,14.27,14.62,14.62,0,0,0,1.68,7,12.94,12.94,0,0,0,4.61,5,11.91,11.91,0,0,0,6.44,1.83,14.15,14.15,0,0,0,7.61-2.23,16.33,16.33,0,0,0,5.71-6,16.79,16.79,0,0,0,2.12-8.34,14.88,14.88,0,0,0-1.61-7,12.45,12.45,0,0,0-4.46-4.91,11.63,11.63,0,0,0-6.29-1.79A14.77,14.77,0,0,0,262.59,32.79Zm18-31.25a5.11,5.11,0,0,1,1.86,4.17q0,5.42-8.49,11.42l-5.34-2.42a14.73,14.73,0,0,0,3.22-3.18,5.2,5.2,0,0,0,1.17-2.82,1.53,1.53,0,0,0-.47-1.17,1.73,1.73,0,0,0-1.21-.44,5.1,5.1,0,0,0-2.93,1L266.1,2.78A18.53,18.53,0,0,1,275.47,0,7.88,7.88,0,0,1,280.63,1.54Z"/><path class="cls-1" d="M368.78,20.05h14.49l-9.95,51.31H361.53L368,38.42,349.24,66.23h-8.56l-7.84-27.88-6.44,33H314.62l9.95-51.31H339l9.08,30.38Z"/><path class="cls-1" d="M428.9,22.36a22.71,22.71,0,0,1,9,8.6,24,24,0,0,1,3.22,12.37A27.41,27.41,0,0,1,437,58a29.45,29.45,0,0,1-11.13,10.51,31.49,31.49,0,0,1-15.37,3.84,26.71,26.71,0,0,1-13.06-3.15,22.65,22.65,0,0,1-8.93-8.67A24.54,24.54,0,0,1,385.32,48a27.08,27.08,0,0,1,4.1-14.64A29,29,0,0,1,400.5,23a31.71,31.71,0,0,1,15.34-3.77A27,27,0,0,1,428.9,22.36ZM407.13,32.79a16.64,16.64,0,0,0-8.05,14.27,14.62,14.62,0,0,0,1.68,7,12.94,12.94,0,0,0,4.61,5,11.91,11.91,0,0,0,6.44,1.83,14.15,14.15,0,0,0,7.61-2.23,16.33,16.33,0,0,0,5.71-6,16.79,16.79,0,0,0,2.12-8.34,14.88,14.88,0,0,0-1.61-7,12.45,12.45,0,0,0-4.46-4.91,11.63,11.63,0,0,0-6.29-1.79A14.77,14.77,0,0,0,407.13,32.79Zm7,45.12A5.63,5.63,0,0,1,415.69,82a7.83,7.83,0,0,1-2.45,5.82,8.28,8.28,0,0,1-6,2.38,5.45,5.45,0,0,1-4.09-1.58,5.62,5.62,0,0,1-1.54-4.13,7.83,7.83,0,0,1,2.45-5.82A8.18,8.18,0,0,1,410,76.33,5.55,5.55,0,0,1,414.15,77.91Z"/><path class="cls-1" d="M466.26,20.05,456,71.36H442.62l10.25-51.31Z"/></g></g></svg>