<svg xmlns="http://www.w3.org/2000/svg" xmlns:xlink="http://www.w3.org/1999/xlink" viewBox="0 0 747.24 72.31"><defs><style>.cls-1{fill:none;}.cls-2{fill:#fff;}.cls-3{clip-path:url(#clip-path);}</style><clipPath id="clip-path" transform="translate(0 -13.24)"><path class="cls-1" d="M47.94,45.31l7.8,17.55L50.55,41,56.65,27l7,3.48,8.71,5.23-2.61-7L102,30.46s7.85-5.19,8.72-7.81S128.09,5.23,128.09,5.23s18.3,6.1,20.91,10.45,20.91,2.62,20.91,2.62l12.2,5.22L196.05,27l-17.42,9.58,39.2-13.94,17.43,39.21-3.49-26.14L255.3,12.2s29.62.87,28.75,1.74,2.61,14.81,2.61,14.81L320.64,0l62.73,9.58,28.75,3.49-2.61,18.3S398.18,84.51,396.44,88s-13.07,30.49-28.75,27-64.47-4.36-73.19-5.23-44.43-20-44.43-20l-14.81-7,12.2-10.46L226.54,81.9l-8.33-7.77-25.64,19.1-35.73-4.36s-63.6,2.61-65.34,3.48-54-.87-54-.87l.87-19.17,2.3-12.83,17.74,9.35-7.84-9.58Z"/></clipPath></defs><title>text-banner-2</title><g id="Layer_2" data-name="Layer 2"><g id="Layer_1-2" data-name="Layer 1"><path class="cls-2" d="M459.19,37q4.53,3.77,4.53,10.65a23.21,23.21,0,0,1-3,11.93,20.27,20.27,0,0,1-8.63,7.94,29.46,29.46,0,0,1-13.32,2.81h-9.08l-2.85,14.2h-13.4l10.25-51.3h22.47Q454.65,33.21,459.19,37ZM447.92,57A9.21,9.21,0,0,0,450.7,50a5.58,5.58,0,0,0-1.87-4.5,8.13,8.13,0,0,0-5.38-1.58H435l-3.14,15.74h8.48A10.75,10.75,0,0,0,447.92,57Z" transform="translate(0 -13.24)"/><path class="cls-2" d="M511.07,33.21h13.4l-10.25,51.3H500.83l3.95-19.68H484.07l-3.95,19.68h-13.4L477,33.21h13.39l-4.17,20.93H506.9Z" transform="translate(0 -13.24)"/><path class="cls-2" d="M564.43,84.51l-2-9.07H540.2l-5.05,9.07H521.47L552,33.21h13.76l13,51.3ZM545.91,65.19h14.34l-4-18.59ZM561.35,17l10.76,4.1L561.5,29.55l-8.93-.73Z" transform="translate(0 -13.24)"/><path class="cls-2" d="M629.12,37q4.54,3.77,4.54,10.65a23.21,23.21,0,0,1-3,11.93A20.23,20.23,0,0,1,622,67.5a29.4,29.4,0,0,1-13.32,2.81h-9.07l-2.86,14.2H583.38l10.25-51.3H616.1C621.75,33.21,626.1,34.47,629.12,37ZM617.85,57A9.18,9.18,0,0,0,620.63,50a5.57,5.57,0,0,0-1.86-4.5,8.14,8.14,0,0,0-5.38-1.58H604.9l-3.15,15.74h8.49A10.71,10.71,0,0,0,617.85,57Z" transform="translate(0 -13.24)"/><path class="cls-2" d="M666,73.1h21.73l-2.27,11.41H650.34l10.25-51.3H674Z" transform="translate(0 -13.24)"/><path class="cls-2" d="M747.24,33.21l-24.3,34.84-2.7,16.46h-13.4l2.64-16.39-13-34.91h13.39l8.49,22.17,15.52-22.17ZM724.92,17l10.76,4.1-10.61,8.42-8.93-.73Z" transform="translate(0 -13.24)"/><polygon class="cls-2" points="45.17 45.98 60.21 51.43 58.91 46.71 45.17 45.98"/><polygon class="cls-2" points="36.13 55.56 39.41 67 42.04 64.41 36.13 55.56"/><polygon class="cls-2" points="64.26 12.81 67.19 27.39 74.37 24.73 64.26 12.81"/><path class="cls-2" d="M43.52,36.71l-.18-1.4-.64-.48L43,37.35Z" transform="translate(0 -13.24)"/><path class="cls-2" d="M41.83,34.16l-2.08-1.6-1.08.14L36.14,36l3,2.5,3.26-.42C42.17,36.78,42,35.47,41.83,34.16Z" transform="translate(0 -13.24)"/><path class="cls-2" d="M42.51,39.3l-1,1.28,1.29,1.09C42.71,40.88,42.61,40.09,42.51,39.3Z" transform="translate(0 -13.24)"/><polygon class="cls-2" points="46.26 29.47 44.34 29.72 45.39 30.61 46.26 29.47"/><path class="cls-2" d="M43.7,42.42l.64.55c-.19-1.43-.37-2.86-.56-4.29l-.56.07Z" transform="translate(0 -13.24)"/><polygon class="cls-2" points="44.74 23.15 44.33 23.68 44.45 24.57 46.27 24.33 44.74 23.15"/><path class="cls-2" d="M42.56,33.74l.63.49-.27-2.08-.56.07Z" transform="translate(0 -13.24)"/><path class="cls-2" d="M41.59,32.32l-.75.1.85.65Z" transform="translate(0 -13.24)"/><path class="cls-2" d="M37,50.36l-3.79.5.37,2.84.53.41Z" transform="translate(0 -13.24)"/><path class="cls-2" d="M37.79,66.37l-2,2.67,4.89-.64Z" transform="translate(0 -13.24)"/><path class="cls-2" d="M13.13,59.17l.08-.11c-.19-1.45-.36-2.9-.54-4.35L10,52.65,9,53.94l.3,2.47,3.56,2.79Z" transform="translate(0 -13.24)"/><polygon class="cls-2" points="5.7 29.57 5.4 27.04 4.29 28.46 5.7 29.57"/><path class="cls-2" d="M25.48,58.56l-2.65-2.07c.19,1.63.39,3.26.58,4.89Z" transform="translate(0 -13.24)"/><path class="cls-2" d="M60.67,68.28l5,2.6c-.42-1.26-.85-2.52-1.28-3.78Z" transform="translate(0 -13.24)"/><path class="cls-2" d="M45.7,53.94l-.8.1c.18,1.52.37,3,.55,4.56l3.68,2.89,1-1.33c-.26-2.16-.51-4.32-.77-6.48l-1.69-1.33-2.92.35c0,.19,0,.38.07.57l.79-.1A.39.39,0,0,1,45.7,53.94Z" transform="translate(0 -13.24)"/><polygon class="cls-2" points="57.26 36.45 56.66 36.45 52.56 40.61 54.64 42.66 57.61 42.63 57.56 36.77 57.26 36.45"/><path class="cls-2" d="M33.27,68l.18.17,8.2-.09L46,63.67l-2.19-2.15-4.64,0-5.94,6C33.27,67.74,33.27,67.89,33.27,68Z" transform="translate(0 -13.24)"/><path class="cls-2" d="M52.92,36.05,45,41.94l.38.36,5.33,0,1.36-1.38v-.69A.44.44,0,0,1,53,40l3.72-3.79L56.46,36Z" transform="translate(0 -13.24)"/><polygon class="cls-2" points="1.8 38.74 3.16 49.07 8.45 46.79 1.8 38.74"/><path class="cls-2" d="M47.18,16.91V16L42,16l-3.71,3.78,1.37,1.28,7.4,0,1.7-1.74,0-3.33h-.64v.91A.44.44,0,0,1,47.18,16.91Z" transform="translate(0 -13.24)"/><polygon class="cls-2" points="11.35 57.38 22.77 45.82 14.9 41.49 11.35 57.38"/><polygon class="cls-2" points="26.09 28.83 27.47 30.19 27.53 28.82 26.09 28.83"/><path class="cls-2" d="M8.76,50.34l0-.85-3,3.08.41.4Z" transform="translate(0 -13.24)"/><path class="cls-2" d="M6.23,44.9l.56.57,3.27-3.24V37.55l-1.65,0L3.77,42.17v2.15l2.08,2.09.4-.4-.56-.57C5.32,45.09,5.87,44.54,6.23,44.9Z" transform="translate(0 -13.24)"/><polygon class="cls-2" points="0 24.55 0.23 24.84 3.74 25.25 3.95 23.49 2.83 22.08 0.04 24.29 0 24.55"/><path class="cls-2" d="M18,58.76c-.55-.68-1.09-1.37-1.63-2.06l-1.55,1.23,0,.45Z" transform="translate(0 -13.24)"/><path class="cls-2" d="M19.27,49.81,15.8,45.43l-2.89-.34-.54,4.62,6.11.72Z" transform="translate(0 -13.24)"/><path class="cls-2" d="M16.52,64.42,22.27,66l0-.32-2-2.53L19.13,63l-.33.26a.26.26,0,0,1-.39-.34l-3.2-.37,0,.18Z" transform="translate(0 -13.24)"/><path class="cls-2" d="M16.24,39.05l-1.9-.11-.81.72,3.43.2Z" transform="translate(0 -13.24)"/><path class="cls-2" d="M12.43,40.64,9.79,43,9.7,44.47l3.75,4.2,4.07-3.29L17.77,41Z" transform="translate(0 -13.24)"/><path class="cls-2" d="M19.43,41.05l1.45,1.62,1.77-1.44Z" transform="translate(0 -13.24)"/><polygon class="cls-2" points="18.77 28.64 18.62 31.25 20.06 30.09 18.77 28.64"/><path class="cls-2" d="M23.87,40.25l.88-.71-5.83-.34,0,.77Z" transform="translate(0 -13.24)"/><polygon class="cls-2" points="4.63 9.75 4.53 11.37 6.94 14.07 7.65 13.5 5 9.41 4.63 9.75"/><polygon class="cls-2" points="16.13 24.1 16.73 24.78 17.94 24.85 18.08 22.36 16.13 24.1"/><polygon class="cls-2" points="21.04 52.66 21.07 52.23 18.26 49.08 16.69 50.48 16.56 52.62 20.8 52.86 21.04 52.66"/><polygon class="cls-2" points="4.68 11.53 4.53 11.37 2.02 13.61 4.4 16.28 4.68 11.53"/><path class="cls-2" d="M12.05,39.57l.81-.72L10,38.69c0,.25,0,.51,0,.76Z" transform="translate(0 -13.24)"/><path class="cls-2" d="M9.93,40.5c0,.34,0,.68,0,1L11,40.56Z" transform="translate(0 -13.24)"/><path class="cls-2" d="M22.59,51.57l-2.46,2.27,4,.24,0-.71Z" transform="translate(0 -13.24)"/><path class="cls-2" d="M37.2,45.75l-5.61.49q.22,2.82.47,5.64Z" transform="translate(0 -13.24)"/><path class="cls-2" d="M10.4,32.49l-.3,5.15,3.87.22.68-.6Z" transform="translate(0 -13.24)"/><polygon class="cls-2" points="18.87 42.44 18.75 44.52 19.85 43.54 18.87 42.44"/><path class="cls-2" d="M24.25,55.89l3,3.4q.21-3.33.4-6.65Q25.95,54.26,24.25,55.89Z" transform="translate(0 -13.24)"/><path class="cls-2" d="M48.93,40.22l6.57,0-3.15-3.42Z" transform="translate(0 -13.24)"/><path class="cls-2" d="M47.38,52.07l-4.24,0,2.17,2.07Z" transform="translate(0 -13.24)"/><polygon class="cls-2" points="37.31 34.35 16.32 7.74 37.92 31.43 37.31 34.35"/><path class="cls-2" d="M55.16,37.82l6.58,0-3.16-3.43Z" transform="translate(0 -13.24)"/><path class="cls-2" d="M28.47,67.23,31.66,64,25,64Z" transform="translate(0 -13.24)"/><path class="cls-2" d="M28.31,22.21l2.28,2.16c0-1.26,0-2.52,0-3.79h-.66Z" transform="translate(0 -13.24)"/><polygon class="cls-2" points="41.57 45.91 59.27 53.68 42.21 47.48 41.57 45.91"/><path class="cls-2" d="M31.79,41.87h.58V38.54L30,36.14l-.83.87c0,1.58,0,3.15,0,4.73l1.1,1.1h2.13v-.41h-.58A.28.28,0,0,1,31.79,41.87Z" transform="translate(0 -13.24)"/><path class="cls-2" d="M34.7,55h.58c0-1.11,0-2.22,0-3.33L32.9,49.25l-.83.87c0,1.57,0,3.14,0,4.72l1.1,1.1h2.13v-.41H34.7A.28.28,0,0,1,34.7,55Z" transform="translate(0 -13.24)"/><polygon class="cls-2" points="45.22 33.05 67.92 41.71 45.91 35.08 45.22 33.05"/><path class="cls-2" d="M16.24,38.41l1.31-1.34-2.74,0Z" transform="translate(0 -13.24)"/><path class="cls-2" d="M28.31,22.21,18.6,28.79c.14.16.29.31.43.46l6.36.24,1.69-1.57c0-.28,0-.55,0-.83a.53.53,0,0,1,1-.16l4.64-4.3-.25-.27Z" transform="translate(0 -13.24)"/><path class="cls-2" d="M38.77,57.81c.13.62.27,1.24.4,1.86l.91.59-.72-3.36Z" transform="translate(0 -13.24)"/><path class="cls-2" d="M45.28,57.73l1.12.72.55-.11,1.15-1.79L46.49,55.4l-1.64.35C45,56.41,45.14,57.07,45.28,57.73Z" transform="translate(0 -13.24)"/><path class="cls-2" d="M39.85,54.21,41,52.38l-1.86-1.33C39.4,52.1,39.63,53.15,39.85,54.21Z" transform="translate(0 -13.24)"/><polygon class="cls-2" points="40.83 41.38 43.39 40.83 41.88 39.75 40.83 41.38"/><path class="cls-2" d="M37.9,50.14,37,49.48l1.23,5.71L39,55Z" transform="translate(0 -13.24)"/><polygon class="cls-2" points="37.16 45.13 37.66 44.37 37.4 43.19 34.97 43.71 37.16 45.13"/><path class="cls-2" d="M38.16,58l-1.64-.91.75,2.64Z" transform="translate(0 -13.24)"/><polygon class="cls-2" points="233.62 35.29 244.18 41.05 243.81 37.34 233.62 35.29"/><polygon class="cls-2" points="225.65 41.52 226.65 50.5 228.94 48.84 225.65 41.52"/><polygon class="cls-2" points="252.11 12.39 252.45 23.7 258.16 22.48 252.11 12.39"/><path class="cls-2" d="M235.24,31.39c0-.36,0-.71,0-1.07l-.41-.44-.07,1.94Z" transform="translate(0 -13.24)"/><path class="cls-2" d="M234.3,29.28,233,27.85h-.82l-2.32,2.21,1.89,2.21,2.49,0C234.23,31.29,234.26,30.29,234.3,29.28Z" transform="translate(0 -13.24)"/><path class="cls-2" d="M234.15,33.23l-.89.86.83,1Z" transform="translate(0 -13.24)"/><polygon class="cls-2" points="236.53 22.97 235.06 22.95 235.73 23.73 236.53 22.97"/><path class="cls-2" d="M234.65,35.71l.41.48c.05-1.09.09-2.19.13-3.29h-.43Z" transform="translate(0 -13.24)"/><polygon class="cls-2" points="236.2 18.04 235.82 18.4 235.8 19.08 237.19 19.1 236.2 18.04"/><path class="cls-2" d="M234.9,29l.41.44.06-1.59h-.43Z" transform="translate(0 -13.24)"/><path class="cls-2" d="M234.35,27.87h-.57l.55.58Z" transform="translate(0 -13.24)"/><path class="cls-2" d="M228.63,41l-2.9,0-.08,2.19.35.37Z" transform="translate(0 -13.24)"/><path class="cls-2" d="M227.2,53.12l-1.87,1.78,3.73.06Z" transform="translate(0 -13.24)"/><path class="cls-2" d="M209.66,45l.08-.07c0-1.11.09-2.23.15-3.34l-1.71-1.84-.92.86-.09,1.89,2.31,2.5Z" transform="translate(0 -13.24)"/><polygon class="cls-2" points="206.18 18.61 206.28 16.67 205.27 17.61 206.18 18.61"/><path class="cls-2" d="M219,45.89,217.26,44c-.06,1.25-.12,2.5-.19,3.75Z" transform="translate(0 -13.24)"/><path class="cls-2" d="M244.07,57.06l3.42,2.51c-.15-1-.32-2-.48-3Z" transform="translate(0 -13.24)"/><path class="cls-2" d="M234.69,44.62l-.61,0c-.06,1.17-.11,2.33-.17,3.5l2.39,2.58.91-.9.24-5-1.09-1.18-2.23-.05c0,.14,0,.29,0,.43h.6A.3.3,0,0,1,234.69,44.62Z" transform="translate(0 -13.24)"/><polygon class="cls-2" points="243.88 29.43 243.42 29.37 239.83 32.06 241.13 33.83 243.35 34.13 244.06 29.71 243.88 29.43"/><path class="cls-2" d="M223.6,53.88l.12.15,6.14.83L233.7,52l-1.36-1.87-3.48-.48-5.2,3.9Z" transform="translate(0 -13.24)"/><path class="cls-2" d="M242.36,31.92l-6.65,3.57.24.32,4,.55,1.19-.89.09-.52a.34.34,0,0,1,.66,0l3.26-2.44-.13-.18Z" transform="translate(0 -13.24)"/><polygon class="cls-2" points="202.1 25.09 201.81 33.03 206.05 31.89 202.1 25.09"/><path class="cls-2" d="M240.49,16.87l.11-.69-3.9-.54-3.26,2.44.87,1.12,5.53.77,1.5-1.11.4-2.52-.48-.07-.11.69C241.08,17.38,240.42,17.29,240.49,16.87Z" transform="translate(0 -13.24)"/><polygon class="cls-2" points="206.88 40.19 216.89 32.72 211.55 28.59 206.88 40.19"/><polygon class="cls-2" points="221.53 20.28 222.38 21.46 222.6 20.43 221.53 20.28"/><path class="cls-2" d="M207.52,37.86l.13-.64-2.66,2,.25.34Z" transform="translate(0 -13.24)"/><path class="cls-2" d="M206.31,33.48l.35.49,2.85-2.09.61-3.52-1.25-.15-4.05,2.95-.28,1.61,1.29,1.81.35-.26-.35-.49C205.61,33.52,206.09,33.17,206.31,33.48Z" transform="translate(0 -13.24)"/><polygon class="cls-2" points="202.55 14.2 202.69 14.44 205.26 15.13 205.64 13.83 204.98 12.65 202.62 14.01 202.55 14.2"/><path class="cls-2" d="M213.39,45.22l-1-1.73-1.31.75-.1.34Z" transform="translate(0 -13.24)"/><path class="cls-2" d="M215.45,38.61l-2-3.68-2.13-.58-1,3.43L214.78,39Z" transform="translate(0 -13.24)"/><path class="cls-2" d="M211.54,49.32l4.1,1.82.06-.24-1.18-2.12-.85-.23-.28.15a.2.2,0,0,1-.26-.3l-2.34-.63,0,.14Z" transform="translate(0 -13.24)"/><path class="cls-2" d="M214.54,30.16l-1.4-.29-.7.46,2.54.52Z" transform="translate(0 -13.24)"/><path class="cls-2" d="M211.49,31l-2.27,1.49c-.09.36-.17.73-.26,1.09l2.27,3.58,3.46-2,.76-3.31Z" transform="translate(0 -13.24)"/><path class="cls-2" d="M216.67,32l.88,1.38,1.51-.88Z" transform="translate(0 -13.24)"/><polygon class="cls-2" points="216.07 19.34 215.63 21.29 216.85 20.57 216.07 19.34"/><path class="cls-2" d="M220.09,31.91l.76-.44-4.32-.9-.13.58Z" transform="translate(0 -13.24)"/><polygon class="cls-2" points="207.89 3.55 207.62 4.76 209.07 7.06 209.68 6.71 208.21 3.34 207.89 3.55"/><polygon class="cls-2" points="214.68 15.63 215.04 16.2 215.93 16.39 216.35 14.53 214.68 15.63"/><polygon class="cls-2" points="214.73 37.69 214.8 37.36 213.1 34.68 211.75 35.57 211.38 37.17 214.52 37.81 214.73 37.69"/><polygon class="cls-2" points="207.7 4.9 207.62 4.76 205.45 6.17 206.9 8.45 207.7 4.9"/><path class="cls-2" d="M211.34,30.1l.7-.45L210,29.22c0,.19-.09.38-.13.57Z" transform="translate(0 -13.24)"/><path class="cls-2" d="M209.64,30.57c-.06.25-.11.51-.17.76l.92-.6Z" transform="translate(0 -13.24)"/><path class="cls-2" d="M217.71,40.3l-2.13,1.44,3,.62.12-.53Z" transform="translate(0 -13.24)"/><path class="cls-2" d="M229.37,37.51l-4.26-.24c-.13,1.43-.24,2.87-.36,4.3Z" transform="translate(0 -13.24)"/><path class="cls-2" d="M211,24.58l-.87,3.85L213,29l.59-.39Z" transform="translate(0 -13.24)"/><polygon class="cls-2" points="214.4 29.75 214.05 31.3 215 30.68 214.4 29.75"/><path class="cls-2" d="M218.4,43.74l1.83,2.89,1.14-5C220.37,42.35,219.38,43,218.4,43.74Z" transform="translate(0 -13.24)"/><path class="cls-2" d="M238.84,34.63l4.93.68-1.93-2.93Z" transform="translate(0 -13.24)"/><path class="cls-2" d="M236.18,43.39,233,43l1.35,1.8Z" transform="translate(0 -13.24)"/><polygon class="cls-2" points="229.22 25.67 216.89 3.32 230.05 23.53 229.22 25.67"/><path class="cls-2" d="M243.81,33.5l4.93.68-1.93-2.93Z" transform="translate(0 -13.24)"/><path class="cls-2" d="M220.12,52.74l2.79-2.09-5-.7C218.66,50.88,219.39,51.82,220.12,52.74Z" transform="translate(0 -13.24)"/><path class="cls-2" d="M225.71,18.8l1.43,1.88c.15-1,.3-1.91.46-2.86l-.5-.07Z" transform="translate(0 -13.24)"/><polygon class="cls-2" points="230.94 34.84 243.19 42.64 231.22 36.1 230.94 34.84"/><path class="cls-2" d="M225.81,34l.44.07.42-2.51-1.48-2.07-.73.57c-.2,1.18-.4,2.37-.61,3.55l.68.95,1.59.24c0-.1,0-.21,0-.31l-.43-.06A.22.22,0,0,1,225.81,34Z" transform="translate(0 -13.24)"/><path class="cls-2" d="M226.33,44.19l.43.06c.15-.83.29-1.67.43-2.51l-1.48-2.06-.73.56c-.2,1.19-.41,2.37-.61,3.56l.68,1,1.59.23.05-.31-.43-.06A.21.21,0,0,1,226.33,44.19Z" transform="translate(0 -13.24)"/><polygon class="cls-2" points="235.3 25.56 251.18 34.57 235.56 27.16 235.3 25.56"/><path class="cls-2" d="M214.62,29.68l1.15-.86-2.05-.29Z" transform="translate(0 -13.24)"/><path class="cls-2" d="M225.71,18.8l-8.11,3.9.27.39,4.73.87,1.46-1c0-.2.09-.41.13-.62a.41.41,0,0,1,.79,0l4-2.74-.15-.23Z" transform="translate(0 -13.24)"/><path class="cls-2" d="M229,46.77l.06,1.45.61.54-.12-2.61Z" transform="translate(0 -13.24)"/><path class="cls-2" d="M233.89,47.42l.75.67.42,0,1.09-1.22-1.05-1-1.28.09C233.85,46.4,233.87,46.91,233.89,47.42Z" transform="translate(0 -13.24)"/><path class="cls-2" d="M230.28,44.17l1.11-1.24-1.22-1.21C230.21,42.54,230.24,43.36,230.28,44.17Z" transform="translate(0 -13.24)"/><polygon class="cls-2" points="230.96 31.35 232.94 31.22 231.95 30.24 230.96 31.35"/><path class="cls-2" d="M229.34,40.9l-.61-.6c.06,1.48.13,3,.2,4.43l.58,0Z" transform="translate(0 -13.24)"/><polygon class="cls-2" points="227.74 33.78 228.21 33.26 228.17 32.34 226.28 32.47 227.74 33.78"/><path class="cls-2" d="M228.53,46.84l-1.1-.87c.07.69.14,1.39.22,2.08Z" transform="translate(0 -13.24)"/><g class="cls-3"><path class="cls-2" d="M94.59,60.05A20.68,20.68,0,0,1,85.15,68L92.32,84.6H77.1L72.49,70.4H62.61L59.75,84.6H46.36L56.6,33.3H79.66q8.78,0,13.5,3.8t4.72,10.69A22.59,22.59,0,0,1,94.59,60.05Zm-29.86-.33h9.66a10.93,10.93,0,0,0,7.68-2.56,9.16,9.16,0,0,0,2.78-7.1A5.57,5.57,0,0,0,83,45.56,8.14,8.14,0,0,0,77.61,44H67.88Z" transform="translate(0 -13.24)"/><path class="cls-2" d="M137,84.6l-2-9.07H112.74l-5,9.07H94l30.52-51.3h13.76l13,51.3ZM118.45,65.28h14.34l-4-18.59Zm12.88-48.16,7.76,11.79-8.93.73-9.59-8.42Z" transform="translate(0 -13.24)"/><path class="cls-2" d="M200.16,35.6a22.69,22.69,0,0,1,9,8.6,24,24,0,0,1,3.22,12.37,27.41,27.41,0,0,1-4.09,14.64,29.35,29.35,0,0,1-11.13,10.5,31.49,31.49,0,0,1-15.37,3.84,26.71,26.71,0,0,1-13.06-3.15,22.51,22.51,0,0,1-8.93-8.67,24.54,24.54,0,0,1-3.18-12.48,27.07,27.07,0,0,1,4.1-14.63,29,29,0,0,1,11.08-10.36,31.82,31.82,0,0,1,15.34-3.77A27,27,0,0,1,200.16,35.6ZM178.39,46a16.53,16.53,0,0,0-5.86,6,16.32,16.32,0,0,0-2.19,8.27,14.69,14.69,0,0,0,1.68,7,12.85,12.85,0,0,0,4.61,5,11.83,11.83,0,0,0,6.44,1.83,14.15,14.15,0,0,0,7.61-2.23,16.41,16.41,0,0,0,5.71-6,16.85,16.85,0,0,0,2.12-8.34,15.06,15.06,0,0,0-1.61-7,12.36,12.36,0,0,0-4.46-4.9,11.55,11.55,0,0,0-6.3-1.79A14.85,14.85,0,0,0,178.39,46Z" transform="translate(0 -13.24)"/><path class="cls-2" d="M273.45,34.87a24.17,24.17,0,0,1,8.79,6.48l-8.79,9.37a16.93,16.93,0,0,0-5.41-5,13.05,13.05,0,0,0-6.59-1.86A14.86,14.86,0,0,0,253.69,46a15.68,15.68,0,0,0-5.67,5.9,16.5,16.5,0,0,0-2.09,8.19A14.52,14.52,0,0,0,247.55,67a12,12,0,0,0,10.9,6.59,16.82,16.82,0,0,0,6.77-1.61,24.15,24.15,0,0,0,6.62-4.39l7,8.41a36,36,0,0,1-10.62,7,29.24,29.24,0,0,1-11.63,2.6,25.19,25.19,0,0,1-12.66-3.15,22.1,22.1,0,0,1-8.64-8.67,25.2,25.2,0,0,1-3.07-12.48,27.54,27.54,0,0,1,4-14.63,28.51,28.51,0,0,1,11-10.36,31.44,31.44,0,0,1,15.22-3.77A27,27,0,0,1,273.45,34.87Z" transform="translate(0 -13.24)"/><path class="cls-2" d="M319.71,84.6l-2-9.07H295.48l-5.05,9.07H276.75l30.51-51.3H321l13,51.3ZM301.19,65.28h14.34l-4-18.59Zm21.92-50.5A5.15,5.15,0,0,1,325,19q0,5.41-8.49,11.42L311.14,28a14.52,14.52,0,0,0,3.22-3.18A5.2,5.2,0,0,0,315.53,22a1.51,1.51,0,0,0-.47-1.17,1.73,1.73,0,0,0-1.21-.44,5,5,0,0,0-2.93,1L308.58,16A18.53,18.53,0,0,1,318,13.24,7.9,7.9,0,0,1,323.11,14.78Z" transform="translate(0 -13.24)"/><path class="cls-2" d="M384,33.3H396.4L386.16,84.6H374.45L357.4,53.86,351.18,84.6H338.66l10.25-51.3h11.71l17.12,30.88Z" transform="translate(0 -13.24)"/></g></g></g></svg>