<svg xmlns="http://www.w3.org/2000/svg" viewBox="0 0 223 183.86"><defs><style>.cls-1{opacity:0.44;}.cls-2{fill:#7ec2e3;}</style></defs><title>Asset 35</title><g id="Layer_2" data-name="Layer 2"><g id="Layer_1-2" data-name="Layer 1"><g class="cls-1"><circle class="cls-2" cx="30.41" cy="52.39" r="4.55"/><circle class="cls-2" cx="53.91" cy="52.39" r="4.55"/><circle class="cls-2" cx="77.42" cy="52.39" r="4.55"/><circle class="cls-2" cx="100.92" cy="52.39" r="4.55"/><circle class="cls-2" cx="124.43" cy="52.39" r="4.55"/><circle class="cls-2" cx="147.93" cy="52.39" r="4.55"/><circle class="cls-2" cx="171.44" cy="52.39" r="4.55"/><circle class="cls-2" cx="194.94" cy="52.39" r="4.55"/><circle class="cls-2" cx="218.45" cy="52.39" r="4.55"/><circle class="cls-2" cx="30.41" cy="73.54" r="4.55"/><circle class="cls-2" cx="53.91" cy="73.54" r="4.55"/><circle class="cls-2" cx="77.42" cy="73.54" r="4.55"/><circle class="cls-2" cx="100.92" cy="73.54" r="4.55"/><circle class="cls-2" cx="124.43" cy="73.54" r="4.55"/><circle class="cls-2" cx="147.93" cy="73.54" r="4.55"/><circle class="cls-2" cx="171.44" cy="73.54" r="4.55"/><circle class="cls-2" cx="194.94" cy="73.54" r="4.55"/><circle class="cls-2" cx="218.45" cy="73.54" r="4.55"/><circle class="cls-2" cx="30.41" cy="94.69" r="4.55"/><circle class="cls-2" cx="53.91" cy="94.69" r="4.55"/><circle class="cls-2" cx="77.42" cy="94.69" r="4.55"/><circle class="cls-2" cx="100.92" cy="94.69" r="4.55"/><circle class="cls-2" cx="124.43" cy="94.69" r="4.55"/><circle class="cls-2" cx="147.93" cy="94.69" r="4.55"/><circle class="cls-2" cx="171.44" cy="94.69" r="4.55"/><circle class="cls-2" cx="194.94" cy="94.69" r="4.55"/><circle class="cls-2" cx="218.45" cy="94.69" r="4.55"/><circle class="cls-2" cx="30.41" cy="115.85" r="4.55"/><circle class="cls-2" cx="53.91" cy="115.85" r="4.55"/><circle class="cls-2" cx="77.42" cy="115.85" r="4.55"/><circle class="cls-2" cx="100.92" cy="115.85" r="4.55"/><circle class="cls-2" cx="124.43" cy="115.85" r="4.55"/><circle class="cls-2" cx="147.93" cy="115.85" r="4.55"/><circle class="cls-2" cx="171.44" cy="115.85" r="4.55"/><circle class="cls-2" cx="194.94" cy="115.85" r="4.55"/><circle class="cls-2" cx="218.45" cy="115.85" r="4.55"/><circle class="cls-2" cx="30.41" cy="137" r="4.55"/><circle class="cls-2" cx="53.91" cy="137" r="4.55"/><circle class="cls-2" cx="77.42" cy="137" r="4.55"/><circle class="cls-2" cx="100.92" cy="137" r="4.55"/><circle class="cls-2" cx="124.43" cy="137" r="4.55"/><circle class="cls-2" cx="147.93" cy="137" r="4.55"/><circle class="cls-2" cx="171.44" cy="137" r="4.55"/><circle class="cls-2" cx="194.94" cy="137" r="4.55"/><circle class="cls-2" cx="218.45" cy="137" r="4.55"/><circle class="cls-2" cx="30.41" cy="158.16" r="4.55"/><circle class="cls-2" cx="53.91" cy="158.16" r="4.55"/><circle class="cls-2" cx="77.42" cy="158.16" r="4.55"/><circle class="cls-2" cx="100.92" cy="158.16" r="4.55"/><circle class="cls-2" cx="124.43" cy="158.16" r="4.55"/><circle class="cls-2" cx="147.93" cy="158.16" r="4.55"/><circle class="cls-2" cx="171.44" cy="158.16" r="4.55"/><circle class="cls-2" cx="194.94" cy="158.16" r="4.55"/><circle class="cls-2" cx="218.45" cy="158.16" r="4.55"/><circle class="cls-2" cx="30.41" cy="179.31" r="4.55"/><circle class="cls-2" cx="4.55" cy="52.39" r="4.55"/><circle class="cls-2" cx="30.41" cy="28.47" r="4.55"/><circle class="cls-2" cx="53.91" cy="28.47" r="4.55"/><circle class="cls-2" cx="77.42" cy="28.47" r="4.55"/><circle class="cls-2" cx="100.92" cy="28.47" r="4.55"/><circle class="cls-2" cx="124.43" cy="28.47" r="4.55"/><circle class="cls-2" cx="147.93" cy="28.47" r="4.55"/><circle class="cls-2" cx="171.44" cy="28.47" r="4.55"/><circle class="cls-2" cx="194.94" cy="28.47" r="4.55"/><circle class="cls-2" cx="218.45" cy="28.47" r="4.55"/><circle class="cls-2" cx="4.55" cy="28.47" r="4.55"/><circle class="cls-2" cx="30.41" cy="4.55" r="4.55"/><circle class="cls-2" cx="53.91" cy="4.55" r="4.55"/><circle class="cls-2" cx="77.42" cy="4.55" r="4.55"/><circle class="cls-2" cx="100.92" cy="4.55" r="4.55"/><circle class="cls-2" cx="124.43" cy="4.55" r="4.55"/><circle class="cls-2" cx="147.93" cy="4.55" r="4.55"/><circle class="cls-2" cx="171.44" cy="4.55" r="4.55"/><circle class="cls-2" cx="194.94" cy="4.55" r="4.55"/><circle class="cls-2" cx="218.45" cy="4.55" r="4.55"/><circle class="cls-2" cx="4.55" cy="4.55" r="4.55"/><circle class="cls-2" cx="4.55" cy="73.54" r="4.55"/><circle class="cls-2" cx="4.55" cy="94.69" r="4.55"/><circle class="cls-2" cx="4.55" cy="115.85" r="4.55"/><circle class="cls-2" cx="4.55" cy="137" r="4.55"/><circle class="cls-2" cx="4.55" cy="158.16" r="4.55"/><circle class="cls-2" cx="4.55" cy="179.31" r="4.55"/><circle class="cls-2" cx="53.91" cy="179.31" r="4.55"/><circle class="cls-2" cx="77.42" cy="179.31" r="4.55"/><circle class="cls-2" cx="100.92" cy="179.31" r="4.55"/><circle class="cls-2" cx="124.43" cy="179.31" r="4.55"/><circle class="cls-2" cx="147.93" cy="179.31" r="4.55"/><circle class="cls-2" cx="171.44" cy="179.31" r="4.55"/><circle class="cls-2" cx="194.94" cy="179.31" r="4.55"/><circle class="cls-2" cx="218.45" cy="179.31" r="4.55"/></g></g></g></svg>