<svg xmlns="http://www.w3.org/2000/svg" viewBox="0 0 92.34 74.92"><defs><style>.cls-1{opacity:0.32;}.cls-2{fill:#7eaacb;}</style></defs><title>Asset 21</title><g id="Layer_2" data-name="Layer 2"><g id="Layer_1-2" data-name="Layer 1"><g class="cls-1"><path class="cls-2" d="M0,64.85.06,29.09q0-9.93,3.76-16.55T13.1,3.62Q21.56,0,26.43,0a34.51,34.51,0,0,1,6.18.34l3.9.34,0,13.57h-.65q-10.39,0-10.41,10.91l0,8.61h3.9q9.1,0,9.09,8.95l0,22.18q0,9.93-9.12,9.92l-20.8,0Q0,74.79,0,64.85Zm54.28.09.06-35.76q0-9.93,3.76-16.55t8.95-8.92Q75.84.08,80.71.09a34.28,34.28,0,0,1,6.17.34l3.9.34,0,13.57h-.65q-10.41,0-10.42,10.91v8.61h3.9a8.21,8.21,0,0,1,8.76,9L92.3,65q0,9.93-8.79,9.92l-20.8,0Q54.25,74.88,54.28,64.94Z"/></g></g></g></svg>